%FSLAX45Y45*%
G04 Gerber Fmt 4.5, Leading zero omitted, Abs format (unit mm)*
G04 Created by KiCad (PCBNEW (6.0.0)) date 2022-01-24 17:49:51*
%MOMM*%
%LPD*%
G01*
G04 APERTURE LIST*
%TA.AperFunction,Profile*%
%ADD10C,0.100000*%
%TD*%
%ADD11C,0.200000*%
%ADD12C,0.320000*%
%ADD13C,0.345000*%
G04 APERTURE END LIST*
D10*
X26473600Y-14439400D02*
X26473600Y-3889400D01*
X3613600Y-14439400D02*
X26473600Y-14439400D01*
X3613600Y-3889400D02*
X3613600Y-14439400D01*
X26473600Y-3889400D02*
X3613600Y-3889400D01*
D11*
D12*
X3802400Y-4081800D02*
X4122400Y-4401800D01*
X4122400Y-4081800D02*
X3802400Y-4401800D01*
X3802400Y-13937000D02*
X4122400Y-14257000D01*
X4122400Y-13937000D02*
X3802400Y-14257000D01*
X25976600Y-4081800D02*
X26296600Y-4401800D01*
X26296600Y-4081800D02*
X25976600Y-4401800D01*
X25976600Y-13937000D02*
X26296600Y-14257000D01*
X26296600Y-13937000D02*
X25976600Y-14257000D01*
D13*
X6206600Y-5653900D02*
G75*
G03*
X6206600Y-5653900I-172500J0D01*
G01*
X6206600Y-7571900D02*
G75*
G03*
X6206600Y-7571900I-172500J0D01*
G01*
X6206600Y-9467900D02*
G75*
G03*
X6206600Y-9467900I-172500J0D01*
G01*
X6206600Y-11390900D02*
G75*
G03*
X6206600Y-11390900I-172500J0D01*
G01*
X6206600Y-13279900D02*
G75*
G03*
X6206600Y-13279900I-172500J0D01*
G01*
X23465600Y-5653900D02*
G75*
G03*
X23465600Y-5653900I-172500J0D01*
G01*
X23465600Y-7571900D02*
G75*
G03*
X23465600Y-7571900I-172500J0D01*
G01*
X23465600Y-9467900D02*
G75*
G03*
X23465600Y-9467900I-172500J0D01*
G01*
X23465600Y-11390900D02*
G75*
G03*
X23465600Y-11390900I-172500J0D01*
G01*
X23465600Y-13279900D02*
G75*
G03*
X23465600Y-13279900I-172500J0D01*
G01*
D11*
X3866219Y-14754876D02*
X3866219Y-14554876D01*
X3913838Y-14554876D01*
X3942409Y-14564400D01*
X3961457Y-14583448D01*
X3970981Y-14602495D01*
X3980505Y-14640590D01*
X3980505Y-14669162D01*
X3970981Y-14707257D01*
X3961457Y-14726305D01*
X3942409Y-14745352D01*
X3913838Y-14754876D01*
X3866219Y-14754876D01*
X4066219Y-14754876D02*
X4066219Y-14621543D01*
X4066219Y-14659638D02*
X4075743Y-14640590D01*
X4085267Y-14631067D01*
X4104314Y-14621543D01*
X4123362Y-14621543D01*
X4190028Y-14754876D02*
X4190028Y-14621543D01*
X4190028Y-14554876D02*
X4180505Y-14564400D01*
X4190028Y-14573924D01*
X4199552Y-14564400D01*
X4190028Y-14554876D01*
X4190028Y-14573924D01*
X4313838Y-14754876D02*
X4294790Y-14745352D01*
X4285267Y-14726305D01*
X4285267Y-14554876D01*
X4418600Y-14754876D02*
X4399552Y-14745352D01*
X4390029Y-14726305D01*
X4390029Y-14554876D01*
X4647171Y-14754876D02*
X4647171Y-14554876D01*
X4713838Y-14697733D01*
X4780505Y-14554876D01*
X4780505Y-14754876D01*
X4961457Y-14754876D02*
X4961457Y-14650114D01*
X4951933Y-14631067D01*
X4932886Y-14621543D01*
X4894790Y-14621543D01*
X4875743Y-14631067D01*
X4961457Y-14745352D02*
X4942410Y-14754876D01*
X4894790Y-14754876D01*
X4875743Y-14745352D01*
X4866219Y-14726305D01*
X4866219Y-14707257D01*
X4875743Y-14688209D01*
X4894790Y-14678686D01*
X4942410Y-14678686D01*
X4961457Y-14669162D01*
X5056695Y-14621543D02*
X5056695Y-14821543D01*
X5056695Y-14631067D02*
X5075743Y-14621543D01*
X5113838Y-14621543D01*
X5132886Y-14631067D01*
X5142410Y-14640590D01*
X5151933Y-14659638D01*
X5151933Y-14716781D01*
X5142410Y-14735828D01*
X5132886Y-14745352D01*
X5113838Y-14754876D01*
X5075743Y-14754876D01*
X5056695Y-14745352D01*
X5237648Y-14735828D02*
X5247171Y-14745352D01*
X5237648Y-14754876D01*
X5228124Y-14745352D01*
X5237648Y-14735828D01*
X5237648Y-14754876D01*
X5237648Y-14631067D02*
X5247171Y-14640590D01*
X5237648Y-14650114D01*
X5228124Y-14640590D01*
X5237648Y-14631067D01*
X5237648Y-14650114D01*
X3408600Y-14984400D02*
X3608600Y-15184400D01*
X3608600Y-14984400D02*
X3408600Y-15184400D01*
X3847171Y-14974876D02*
X3970981Y-14974876D01*
X3904314Y-15051067D01*
X3932886Y-15051067D01*
X3951933Y-15060590D01*
X3961457Y-15070114D01*
X3970981Y-15089162D01*
X3970981Y-15136781D01*
X3961457Y-15155828D01*
X3951933Y-15165352D01*
X3932886Y-15174876D01*
X3875743Y-15174876D01*
X3856695Y-15165352D01*
X3847171Y-15155828D01*
X4056695Y-15155828D02*
X4066219Y-15165352D01*
X4056695Y-15174876D01*
X4047171Y-15165352D01*
X4056695Y-15155828D01*
X4056695Y-15174876D01*
X4142409Y-14993924D02*
X4151933Y-14984400D01*
X4170981Y-14974876D01*
X4218600Y-14974876D01*
X4237648Y-14984400D01*
X4247171Y-14993924D01*
X4256695Y-15012971D01*
X4256695Y-15032019D01*
X4247171Y-15060590D01*
X4132886Y-15174876D01*
X4256695Y-15174876D01*
X4380505Y-14974876D02*
X4399552Y-14974876D01*
X4418600Y-14984400D01*
X4428124Y-14993924D01*
X4437648Y-15012971D01*
X4447171Y-15051067D01*
X4447171Y-15098686D01*
X4437648Y-15136781D01*
X4428124Y-15155828D01*
X4418600Y-15165352D01*
X4399552Y-15174876D01*
X4380505Y-15174876D01*
X4361457Y-15165352D01*
X4351933Y-15155828D01*
X4342410Y-15136781D01*
X4332886Y-15098686D01*
X4332886Y-15051067D01*
X4342410Y-15012971D01*
X4351933Y-14993924D01*
X4361457Y-14984400D01*
X4380505Y-14974876D01*
X4570981Y-14974876D02*
X4590029Y-14974876D01*
X4609076Y-14984400D01*
X4618600Y-14993924D01*
X4628124Y-15012971D01*
X4637648Y-15051067D01*
X4637648Y-15098686D01*
X4628124Y-15136781D01*
X4618600Y-15155828D01*
X4609076Y-15165352D01*
X4590029Y-15174876D01*
X4570981Y-15174876D01*
X4551933Y-15165352D01*
X4542410Y-15155828D01*
X4532886Y-15136781D01*
X4523362Y-15098686D01*
X4523362Y-15051067D01*
X4532886Y-15012971D01*
X4542410Y-14993924D01*
X4551933Y-14984400D01*
X4570981Y-14974876D01*
X4723362Y-15174876D02*
X4723362Y-15041543D01*
X4723362Y-15060590D02*
X4732886Y-15051067D01*
X4751933Y-15041543D01*
X4780505Y-15041543D01*
X4799552Y-15051067D01*
X4809076Y-15070114D01*
X4809076Y-15174876D01*
X4809076Y-15070114D02*
X4818600Y-15051067D01*
X4837648Y-15041543D01*
X4866219Y-15041543D01*
X4885267Y-15051067D01*
X4894790Y-15070114D01*
X4894790Y-15174876D01*
X4990029Y-15174876D02*
X4990029Y-15041543D01*
X4990029Y-15060590D02*
X4999552Y-15051067D01*
X5018600Y-15041543D01*
X5047171Y-15041543D01*
X5066219Y-15051067D01*
X5075743Y-15070114D01*
X5075743Y-15174876D01*
X5075743Y-15070114D02*
X5085267Y-15051067D01*
X5104314Y-15041543D01*
X5132886Y-15041543D01*
X5151933Y-15051067D01*
X5161457Y-15070114D01*
X5161457Y-15174876D01*
X5551933Y-14965352D02*
X5380505Y-15222495D01*
X5809076Y-14974876D02*
X5828124Y-14974876D01*
X5847171Y-14984400D01*
X5856695Y-14993924D01*
X5866219Y-15012971D01*
X5875743Y-15051067D01*
X5875743Y-15098686D01*
X5866219Y-15136781D01*
X5856695Y-15155828D01*
X5847171Y-15165352D01*
X5828124Y-15174876D01*
X5809076Y-15174876D01*
X5790028Y-15165352D01*
X5780505Y-15155828D01*
X5770981Y-15136781D01*
X5761457Y-15098686D01*
X5761457Y-15051067D01*
X5770981Y-15012971D01*
X5780505Y-14993924D01*
X5790028Y-14984400D01*
X5809076Y-14974876D01*
X5961457Y-15155828D02*
X5970981Y-15165352D01*
X5961457Y-15174876D01*
X5951933Y-15165352D01*
X5961457Y-15155828D01*
X5961457Y-15174876D01*
X6161457Y-15174876D02*
X6047171Y-15174876D01*
X6104314Y-15174876D02*
X6104314Y-14974876D01*
X6085267Y-15003448D01*
X6066219Y-15022495D01*
X6047171Y-15032019D01*
X6237648Y-14993924D02*
X6247171Y-14984400D01*
X6266219Y-14974876D01*
X6313838Y-14974876D01*
X6332886Y-14984400D01*
X6342409Y-14993924D01*
X6351933Y-15012971D01*
X6351933Y-15032019D01*
X6342409Y-15060590D01*
X6228124Y-15174876D01*
X6351933Y-15174876D01*
X6523362Y-14974876D02*
X6485267Y-14974876D01*
X6466219Y-14984400D01*
X6456695Y-14993924D01*
X6437648Y-15022495D01*
X6428124Y-15060590D01*
X6428124Y-15136781D01*
X6437648Y-15155828D01*
X6447171Y-15165352D01*
X6466219Y-15174876D01*
X6504314Y-15174876D01*
X6523362Y-15165352D01*
X6532886Y-15155828D01*
X6542409Y-15136781D01*
X6542409Y-15089162D01*
X6532886Y-15070114D01*
X6523362Y-15060590D01*
X6504314Y-15051067D01*
X6466219Y-15051067D01*
X6447171Y-15060590D01*
X6437648Y-15070114D01*
X6428124Y-15089162D01*
X6666219Y-14974876D02*
X6685267Y-14974876D01*
X6704314Y-14984400D01*
X6713838Y-14993924D01*
X6723362Y-15012971D01*
X6732886Y-15051067D01*
X6732886Y-15098686D01*
X6723362Y-15136781D01*
X6713838Y-15155828D01*
X6704314Y-15165352D01*
X6685267Y-15174876D01*
X6666219Y-15174876D01*
X6647171Y-15165352D01*
X6637648Y-15155828D01*
X6628124Y-15136781D01*
X6618600Y-15098686D01*
X6618600Y-15051067D01*
X6628124Y-15012971D01*
X6637648Y-14993924D01*
X6647171Y-14984400D01*
X6666219Y-14974876D01*
X6809076Y-14974876D02*
X6809076Y-15012971D01*
X6885267Y-14974876D02*
X6885267Y-15012971D01*
X7180505Y-15251067D02*
X7170981Y-15241543D01*
X7151933Y-15212971D01*
X7142409Y-15193924D01*
X7132886Y-15165352D01*
X7123362Y-15117733D01*
X7123362Y-15079638D01*
X7132886Y-15032019D01*
X7142409Y-15003448D01*
X7151933Y-14984400D01*
X7170981Y-14955828D01*
X7180505Y-14946305D01*
X7342409Y-15041543D02*
X7342409Y-15174876D01*
X7294790Y-14965352D02*
X7247171Y-15108209D01*
X7370981Y-15108209D01*
X7599552Y-15174876D02*
X7599552Y-14974876D01*
X7685267Y-15174876D02*
X7685267Y-15070114D01*
X7675743Y-15051067D01*
X7656695Y-15041543D01*
X7628124Y-15041543D01*
X7609076Y-15051067D01*
X7599552Y-15060590D01*
X7809076Y-15174876D02*
X7790028Y-15165352D01*
X7780505Y-15155828D01*
X7770981Y-15136781D01*
X7770981Y-15079638D01*
X7780505Y-15060590D01*
X7790028Y-15051067D01*
X7809076Y-15041543D01*
X7837648Y-15041543D01*
X7856695Y-15051067D01*
X7866219Y-15060590D01*
X7875743Y-15079638D01*
X7875743Y-15136781D01*
X7866219Y-15155828D01*
X7856695Y-15165352D01*
X7837648Y-15174876D01*
X7809076Y-15174876D01*
X7990028Y-15174876D02*
X7970981Y-15165352D01*
X7961457Y-15146305D01*
X7961457Y-14974876D01*
X8142409Y-15165352D02*
X8123362Y-15174876D01*
X8085267Y-15174876D01*
X8066219Y-15165352D01*
X8056695Y-15146305D01*
X8056695Y-15070114D01*
X8066219Y-15051067D01*
X8085267Y-15041543D01*
X8123362Y-15041543D01*
X8142409Y-15051067D01*
X8151933Y-15070114D01*
X8151933Y-15089162D01*
X8056695Y-15108209D01*
X8228124Y-15165352D02*
X8247171Y-15174876D01*
X8285267Y-15174876D01*
X8304314Y-15165352D01*
X8313838Y-15146305D01*
X8313838Y-15136781D01*
X8304314Y-15117733D01*
X8285267Y-15108209D01*
X8256695Y-15108209D01*
X8237648Y-15098686D01*
X8228124Y-15079638D01*
X8228124Y-15070114D01*
X8237648Y-15051067D01*
X8256695Y-15041543D01*
X8285267Y-15041543D01*
X8304314Y-15051067D01*
X8380505Y-15251067D02*
X8390029Y-15241543D01*
X8409076Y-15212971D01*
X8418600Y-15193924D01*
X8428124Y-15165352D01*
X8437648Y-15117733D01*
X8437648Y-15079638D01*
X8428124Y-15032019D01*
X8418600Y-15003448D01*
X8409076Y-14984400D01*
X8390029Y-14955828D01*
X8380505Y-14946305D01*
X8742410Y-15251067D02*
X8732886Y-15241543D01*
X8713838Y-15212971D01*
X8704314Y-15193924D01*
X8694790Y-15165352D01*
X8685267Y-15117733D01*
X8685267Y-15079638D01*
X8694790Y-15032019D01*
X8704314Y-15003448D01*
X8713838Y-14984400D01*
X8732886Y-14955828D01*
X8742410Y-14946305D01*
X8818600Y-15041543D02*
X8818600Y-15174876D01*
X8818600Y-15060590D02*
X8828124Y-15051067D01*
X8847171Y-15041543D01*
X8875743Y-15041543D01*
X8894790Y-15051067D01*
X8904314Y-15070114D01*
X8904314Y-15174876D01*
X9028124Y-15174876D02*
X9009076Y-15165352D01*
X8999552Y-15155828D01*
X8990029Y-15136781D01*
X8990029Y-15079638D01*
X8999552Y-15060590D01*
X9009076Y-15051067D01*
X9028124Y-15041543D01*
X9056695Y-15041543D01*
X9075743Y-15051067D01*
X9085267Y-15060590D01*
X9094790Y-15079638D01*
X9094790Y-15136781D01*
X9085267Y-15155828D01*
X9075743Y-15165352D01*
X9056695Y-15174876D01*
X9028124Y-15174876D01*
X9151933Y-15041543D02*
X9228124Y-15041543D01*
X9180505Y-14974876D02*
X9180505Y-15146305D01*
X9190029Y-15165352D01*
X9209076Y-15174876D01*
X9228124Y-15174876D01*
X9447171Y-15041543D02*
X9447171Y-15241543D01*
X9447171Y-15051067D02*
X9466219Y-15041543D01*
X9504314Y-15041543D01*
X9523362Y-15051067D01*
X9532886Y-15060590D01*
X9542410Y-15079638D01*
X9542410Y-15136781D01*
X9532886Y-15155828D01*
X9523362Y-15165352D01*
X9504314Y-15174876D01*
X9466219Y-15174876D01*
X9447171Y-15165352D01*
X9656695Y-15174876D02*
X9637648Y-15165352D01*
X9628124Y-15146305D01*
X9628124Y-14974876D01*
X9818600Y-15174876D02*
X9818600Y-15070114D01*
X9809076Y-15051067D01*
X9790029Y-15041543D01*
X9751933Y-15041543D01*
X9732886Y-15051067D01*
X9818600Y-15165352D02*
X9799552Y-15174876D01*
X9751933Y-15174876D01*
X9732886Y-15165352D01*
X9723362Y-15146305D01*
X9723362Y-15127257D01*
X9732886Y-15108209D01*
X9751933Y-15098686D01*
X9799552Y-15098686D01*
X9818600Y-15089162D01*
X9885267Y-15041543D02*
X9961457Y-15041543D01*
X9913838Y-14974876D02*
X9913838Y-15146305D01*
X9923362Y-15165352D01*
X9942410Y-15174876D01*
X9961457Y-15174876D01*
X10104314Y-15165352D02*
X10085267Y-15174876D01*
X10047171Y-15174876D01*
X10028124Y-15165352D01*
X10018600Y-15146305D01*
X10018600Y-15070114D01*
X10028124Y-15051067D01*
X10047171Y-15041543D01*
X10085267Y-15041543D01*
X10104314Y-15051067D01*
X10113838Y-15070114D01*
X10113838Y-15089162D01*
X10018600Y-15108209D01*
X10285267Y-15174876D02*
X10285267Y-14974876D01*
X10285267Y-15165352D02*
X10266219Y-15174876D01*
X10228124Y-15174876D01*
X10209076Y-15165352D01*
X10199552Y-15155828D01*
X10190029Y-15136781D01*
X10190029Y-15079638D01*
X10199552Y-15060590D01*
X10209076Y-15051067D01*
X10228124Y-15041543D01*
X10266219Y-15041543D01*
X10285267Y-15051067D01*
X10361457Y-15251067D02*
X10370981Y-15241543D01*
X10390029Y-15212971D01*
X10399552Y-15193924D01*
X10409076Y-15165352D01*
X10418600Y-15117733D01*
X10418600Y-15079638D01*
X10409076Y-15032019D01*
X10399552Y-15003448D01*
X10390029Y-14984400D01*
X10370981Y-14955828D01*
X10361457Y-14946305D01*
X3608600Y-15404400D02*
G75*
G03*
X3608600Y-15404400I-100000J0D01*
G01*
X3847171Y-15294876D02*
X3970981Y-15294876D01*
X3904314Y-15371067D01*
X3932886Y-15371067D01*
X3951933Y-15380590D01*
X3961457Y-15390114D01*
X3970981Y-15409162D01*
X3970981Y-15456781D01*
X3961457Y-15475828D01*
X3951933Y-15485352D01*
X3932886Y-15494876D01*
X3875743Y-15494876D01*
X3856695Y-15485352D01*
X3847171Y-15475828D01*
X4056695Y-15475828D02*
X4066219Y-15485352D01*
X4056695Y-15494876D01*
X4047171Y-15485352D01*
X4056695Y-15475828D01*
X4056695Y-15494876D01*
X4237648Y-15361543D02*
X4237648Y-15494876D01*
X4190028Y-15285352D02*
X4142409Y-15428209D01*
X4266219Y-15428209D01*
X4437648Y-15294876D02*
X4342410Y-15294876D01*
X4332886Y-15390114D01*
X4342410Y-15380590D01*
X4361457Y-15371067D01*
X4409076Y-15371067D01*
X4428124Y-15380590D01*
X4437648Y-15390114D01*
X4447171Y-15409162D01*
X4447171Y-15456781D01*
X4437648Y-15475828D01*
X4428124Y-15485352D01*
X4409076Y-15494876D01*
X4361457Y-15494876D01*
X4342410Y-15485352D01*
X4332886Y-15475828D01*
X4570981Y-15294876D02*
X4590029Y-15294876D01*
X4609076Y-15304400D01*
X4618600Y-15313924D01*
X4628124Y-15332971D01*
X4637648Y-15371067D01*
X4637648Y-15418686D01*
X4628124Y-15456781D01*
X4618600Y-15475828D01*
X4609076Y-15485352D01*
X4590029Y-15494876D01*
X4570981Y-15494876D01*
X4551933Y-15485352D01*
X4542410Y-15475828D01*
X4532886Y-15456781D01*
X4523362Y-15418686D01*
X4523362Y-15371067D01*
X4532886Y-15332971D01*
X4542410Y-15313924D01*
X4551933Y-15304400D01*
X4570981Y-15294876D01*
X4723362Y-15494876D02*
X4723362Y-15361543D01*
X4723362Y-15380590D02*
X4732886Y-15371067D01*
X4751933Y-15361543D01*
X4780505Y-15361543D01*
X4799552Y-15371067D01*
X4809076Y-15390114D01*
X4809076Y-15494876D01*
X4809076Y-15390114D02*
X4818600Y-15371067D01*
X4837648Y-15361543D01*
X4866219Y-15361543D01*
X4885267Y-15371067D01*
X4894790Y-15390114D01*
X4894790Y-15494876D01*
X4990029Y-15494876D02*
X4990029Y-15361543D01*
X4990029Y-15380590D02*
X4999552Y-15371067D01*
X5018600Y-15361543D01*
X5047171Y-15361543D01*
X5066219Y-15371067D01*
X5075743Y-15390114D01*
X5075743Y-15494876D01*
X5075743Y-15390114D02*
X5085267Y-15371067D01*
X5104314Y-15361543D01*
X5132886Y-15361543D01*
X5151933Y-15371067D01*
X5161457Y-15390114D01*
X5161457Y-15494876D01*
X5551933Y-15285352D02*
X5380505Y-15542495D01*
X5809076Y-15294876D02*
X5828124Y-15294876D01*
X5847171Y-15304400D01*
X5856695Y-15313924D01*
X5866219Y-15332971D01*
X5875743Y-15371067D01*
X5875743Y-15418686D01*
X5866219Y-15456781D01*
X5856695Y-15475828D01*
X5847171Y-15485352D01*
X5828124Y-15494876D01*
X5809076Y-15494876D01*
X5790028Y-15485352D01*
X5780505Y-15475828D01*
X5770981Y-15456781D01*
X5761457Y-15418686D01*
X5761457Y-15371067D01*
X5770981Y-15332971D01*
X5780505Y-15313924D01*
X5790028Y-15304400D01*
X5809076Y-15294876D01*
X5961457Y-15475828D02*
X5970981Y-15485352D01*
X5961457Y-15494876D01*
X5951933Y-15485352D01*
X5961457Y-15475828D01*
X5961457Y-15494876D01*
X6161457Y-15494876D02*
X6047171Y-15494876D01*
X6104314Y-15494876D02*
X6104314Y-15294876D01*
X6085267Y-15323448D01*
X6066219Y-15342495D01*
X6047171Y-15352019D01*
X6228124Y-15294876D02*
X6351933Y-15294876D01*
X6285267Y-15371067D01*
X6313838Y-15371067D01*
X6332886Y-15380590D01*
X6342409Y-15390114D01*
X6351933Y-15409162D01*
X6351933Y-15456781D01*
X6342409Y-15475828D01*
X6332886Y-15485352D01*
X6313838Y-15494876D01*
X6256695Y-15494876D01*
X6237648Y-15485352D01*
X6228124Y-15475828D01*
X6532886Y-15294876D02*
X6437648Y-15294876D01*
X6428124Y-15390114D01*
X6437648Y-15380590D01*
X6456695Y-15371067D01*
X6504314Y-15371067D01*
X6523362Y-15380590D01*
X6532886Y-15390114D01*
X6542409Y-15409162D01*
X6542409Y-15456781D01*
X6532886Y-15475828D01*
X6523362Y-15485352D01*
X6504314Y-15494876D01*
X6456695Y-15494876D01*
X6437648Y-15485352D01*
X6428124Y-15475828D01*
X6656695Y-15380590D02*
X6637648Y-15371067D01*
X6628124Y-15361543D01*
X6618600Y-15342495D01*
X6618600Y-15332971D01*
X6628124Y-15313924D01*
X6637648Y-15304400D01*
X6656695Y-15294876D01*
X6694790Y-15294876D01*
X6713838Y-15304400D01*
X6723362Y-15313924D01*
X6732886Y-15332971D01*
X6732886Y-15342495D01*
X6723362Y-15361543D01*
X6713838Y-15371067D01*
X6694790Y-15380590D01*
X6656695Y-15380590D01*
X6637648Y-15390114D01*
X6628124Y-15399638D01*
X6618600Y-15418686D01*
X6618600Y-15456781D01*
X6628124Y-15475828D01*
X6637648Y-15485352D01*
X6656695Y-15494876D01*
X6694790Y-15494876D01*
X6713838Y-15485352D01*
X6723362Y-15475828D01*
X6732886Y-15456781D01*
X6732886Y-15418686D01*
X6723362Y-15399638D01*
X6713838Y-15390114D01*
X6694790Y-15380590D01*
X6809076Y-15294876D02*
X6809076Y-15332971D01*
X6885267Y-15294876D02*
X6885267Y-15332971D01*
X7180505Y-15571067D02*
X7170981Y-15561543D01*
X7151933Y-15532971D01*
X7142409Y-15513924D01*
X7132886Y-15485352D01*
X7123362Y-15437733D01*
X7123362Y-15399638D01*
X7132886Y-15352019D01*
X7142409Y-15323448D01*
X7151933Y-15304400D01*
X7170981Y-15275828D01*
X7180505Y-15266305D01*
X7361457Y-15494876D02*
X7247171Y-15494876D01*
X7304314Y-15494876D02*
X7304314Y-15294876D01*
X7285267Y-15323448D01*
X7266219Y-15342495D01*
X7247171Y-15352019D01*
X7485267Y-15294876D02*
X7504314Y-15294876D01*
X7523362Y-15304400D01*
X7532886Y-15313924D01*
X7542409Y-15332971D01*
X7551933Y-15371067D01*
X7551933Y-15418686D01*
X7542409Y-15456781D01*
X7532886Y-15475828D01*
X7523362Y-15485352D01*
X7504314Y-15494876D01*
X7485267Y-15494876D01*
X7466219Y-15485352D01*
X7456695Y-15475828D01*
X7447171Y-15456781D01*
X7437648Y-15418686D01*
X7437648Y-15371067D01*
X7447171Y-15332971D01*
X7456695Y-15313924D01*
X7466219Y-15304400D01*
X7485267Y-15294876D01*
X7790028Y-15494876D02*
X7790028Y-15294876D01*
X7875743Y-15494876D02*
X7875743Y-15390114D01*
X7866219Y-15371067D01*
X7847171Y-15361543D01*
X7818600Y-15361543D01*
X7799552Y-15371067D01*
X7790028Y-15380590D01*
X7999552Y-15494876D02*
X7980505Y-15485352D01*
X7970981Y-15475828D01*
X7961457Y-15456781D01*
X7961457Y-15399638D01*
X7970981Y-15380590D01*
X7980505Y-15371067D01*
X7999552Y-15361543D01*
X8028124Y-15361543D01*
X8047171Y-15371067D01*
X8056695Y-15380590D01*
X8066219Y-15399638D01*
X8066219Y-15456781D01*
X8056695Y-15475828D01*
X8047171Y-15485352D01*
X8028124Y-15494876D01*
X7999552Y-15494876D01*
X8180505Y-15494876D02*
X8161457Y-15485352D01*
X8151933Y-15466305D01*
X8151933Y-15294876D01*
X8332886Y-15485352D02*
X8313838Y-15494876D01*
X8275743Y-15494876D01*
X8256695Y-15485352D01*
X8247171Y-15466305D01*
X8247171Y-15390114D01*
X8256695Y-15371067D01*
X8275743Y-15361543D01*
X8313838Y-15361543D01*
X8332886Y-15371067D01*
X8342409Y-15390114D01*
X8342409Y-15409162D01*
X8247171Y-15428209D01*
X8418600Y-15485352D02*
X8437648Y-15494876D01*
X8475743Y-15494876D01*
X8494790Y-15485352D01*
X8504314Y-15466305D01*
X8504314Y-15456781D01*
X8494790Y-15437733D01*
X8475743Y-15428209D01*
X8447171Y-15428209D01*
X8428124Y-15418686D01*
X8418600Y-15399638D01*
X8418600Y-15390114D01*
X8428124Y-15371067D01*
X8447171Y-15361543D01*
X8475743Y-15361543D01*
X8494790Y-15371067D01*
X8570981Y-15571067D02*
X8580505Y-15561543D01*
X8599552Y-15532971D01*
X8609076Y-15513924D01*
X8618600Y-15485352D01*
X8628124Y-15437733D01*
X8628124Y-15399638D01*
X8618600Y-15352019D01*
X8609076Y-15323448D01*
X8599552Y-15304400D01*
X8580505Y-15275828D01*
X8570981Y-15266305D01*
X8932886Y-15571067D02*
X8923362Y-15561543D01*
X8904314Y-15532971D01*
X8894790Y-15513924D01*
X8885267Y-15485352D01*
X8875743Y-15437733D01*
X8875743Y-15399638D01*
X8885267Y-15352019D01*
X8894790Y-15323448D01*
X8904314Y-15304400D01*
X8923362Y-15275828D01*
X8932886Y-15266305D01*
X9009076Y-15361543D02*
X9009076Y-15494876D01*
X9009076Y-15380590D02*
X9018600Y-15371067D01*
X9037648Y-15361543D01*
X9066219Y-15361543D01*
X9085267Y-15371067D01*
X9094790Y-15390114D01*
X9094790Y-15494876D01*
X9218600Y-15494876D02*
X9199552Y-15485352D01*
X9190029Y-15475828D01*
X9180505Y-15456781D01*
X9180505Y-15399638D01*
X9190029Y-15380590D01*
X9199552Y-15371067D01*
X9218600Y-15361543D01*
X9247171Y-15361543D01*
X9266219Y-15371067D01*
X9275743Y-15380590D01*
X9285267Y-15399638D01*
X9285267Y-15456781D01*
X9275743Y-15475828D01*
X9266219Y-15485352D01*
X9247171Y-15494876D01*
X9218600Y-15494876D01*
X9342410Y-15361543D02*
X9418600Y-15361543D01*
X9370981Y-15294876D02*
X9370981Y-15466305D01*
X9380505Y-15485352D01*
X9399552Y-15494876D01*
X9418600Y-15494876D01*
X9637648Y-15361543D02*
X9637648Y-15561543D01*
X9637648Y-15371067D02*
X9656695Y-15361543D01*
X9694790Y-15361543D01*
X9713838Y-15371067D01*
X9723362Y-15380590D01*
X9732886Y-15399638D01*
X9732886Y-15456781D01*
X9723362Y-15475828D01*
X9713838Y-15485352D01*
X9694790Y-15494876D01*
X9656695Y-15494876D01*
X9637648Y-15485352D01*
X9847171Y-15494876D02*
X9828124Y-15485352D01*
X9818600Y-15466305D01*
X9818600Y-15294876D01*
X10009076Y-15494876D02*
X10009076Y-15390114D01*
X9999552Y-15371067D01*
X9980505Y-15361543D01*
X9942410Y-15361543D01*
X9923362Y-15371067D01*
X10009076Y-15485352D02*
X9990029Y-15494876D01*
X9942410Y-15494876D01*
X9923362Y-15485352D01*
X9913838Y-15466305D01*
X9913838Y-15447257D01*
X9923362Y-15428209D01*
X9942410Y-15418686D01*
X9990029Y-15418686D01*
X10009076Y-15409162D01*
X10075743Y-15361543D02*
X10151933Y-15361543D01*
X10104314Y-15294876D02*
X10104314Y-15466305D01*
X10113838Y-15485352D01*
X10132886Y-15494876D01*
X10151933Y-15494876D01*
X10294790Y-15485352D02*
X10275743Y-15494876D01*
X10237648Y-15494876D01*
X10218600Y-15485352D01*
X10209076Y-15466305D01*
X10209076Y-15390114D01*
X10218600Y-15371067D01*
X10237648Y-15361543D01*
X10275743Y-15361543D01*
X10294790Y-15371067D01*
X10304314Y-15390114D01*
X10304314Y-15409162D01*
X10209076Y-15428209D01*
X10475743Y-15494876D02*
X10475743Y-15294876D01*
X10475743Y-15485352D02*
X10456695Y-15494876D01*
X10418600Y-15494876D01*
X10399552Y-15485352D01*
X10390029Y-15475828D01*
X10380505Y-15456781D01*
X10380505Y-15399638D01*
X10390029Y-15380590D01*
X10399552Y-15371067D01*
X10418600Y-15361543D01*
X10456695Y-15361543D01*
X10475743Y-15371067D01*
X10551933Y-15571067D02*
X10561457Y-15561543D01*
X10580505Y-15532971D01*
X10590029Y-15513924D01*
X10599552Y-15485352D01*
X10609076Y-15437733D01*
X10609076Y-15399638D01*
X10599552Y-15352019D01*
X10590029Y-15323448D01*
X10580505Y-15304400D01*
X10561457Y-15275828D01*
X10551933Y-15266305D01*
M02*
