%TF.GenerationSoftware,KiCad,Pcbnew,(6.0.0)*%
%TF.CreationDate,2022-01-24T17:49:48-05:00*%
%TF.ProjectId,crusader 2 backplane,63727573-6164-4657-9220-32206261636b,rev?*%
%TF.SameCoordinates,Original*%
%TF.FileFunction,Legend,Top*%
%TF.FilePolarity,Positive*%
%FSLAX46Y46*%
G04 Gerber Fmt 4.6, Leading zero omitted, Abs format (unit mm)*
G04 Created by KiCad (PCBNEW (6.0.0)) date 2022-01-24 17:49:48*
%MOMM*%
%LPD*%
G01*
G04 APERTURE LIST*
%ADD10C,0.150000*%
%ADD11C,0.120000*%
%ADD12C,0.100000*%
G04 APERTURE END LIST*
D10*
X110990000Y-44823142D02*
X111037619Y-44727904D01*
X111037619Y-44585047D01*
X110990000Y-44442190D01*
X110894761Y-44346952D01*
X110799523Y-44299333D01*
X110609047Y-44251714D01*
X110466190Y-44251714D01*
X110275714Y-44299333D01*
X110180476Y-44346952D01*
X110085238Y-44442190D01*
X110037619Y-44585047D01*
X110037619Y-44680285D01*
X110085238Y-44823142D01*
X110132857Y-44870761D01*
X110466190Y-44870761D01*
X110466190Y-44680285D01*
X110704285Y-45299333D02*
X110037619Y-45299333D01*
X110609047Y-45299333D02*
X110656666Y-45346952D01*
X110704285Y-45442190D01*
X110704285Y-45585047D01*
X110656666Y-45680285D01*
X110561428Y-45727904D01*
X110037619Y-45727904D01*
X110037619Y-46632666D02*
X111037619Y-46632666D01*
X110085238Y-46632666D02*
X110037619Y-46537428D01*
X110037619Y-46346952D01*
X110085238Y-46251714D01*
X110132857Y-46204095D01*
X110228095Y-46156476D01*
X110513809Y-46156476D01*
X110609047Y-46204095D01*
X110656666Y-46251714D01*
X110704285Y-46346952D01*
X110704285Y-46537428D01*
X110656666Y-46632666D01*
X107370571Y-43926285D02*
X107370571Y-44688190D01*
X106989619Y-44307238D02*
X107751523Y-44307238D01*
X107561047Y-45307238D02*
X107608666Y-45212000D01*
X107656285Y-45164380D01*
X107751523Y-45116761D01*
X107799142Y-45116761D01*
X107894380Y-45164380D01*
X107942000Y-45212000D01*
X107989619Y-45307238D01*
X107989619Y-45497714D01*
X107942000Y-45592952D01*
X107894380Y-45640571D01*
X107799142Y-45688190D01*
X107751523Y-45688190D01*
X107656285Y-45640571D01*
X107608666Y-45592952D01*
X107561047Y-45497714D01*
X107561047Y-45307238D01*
X107513428Y-45212000D01*
X107465809Y-45164380D01*
X107370571Y-45116761D01*
X107180095Y-45116761D01*
X107084857Y-45164380D01*
X107037238Y-45212000D01*
X106989619Y-45307238D01*
X106989619Y-45497714D01*
X107037238Y-45592952D01*
X107084857Y-45640571D01*
X107180095Y-45688190D01*
X107370571Y-45688190D01*
X107465809Y-45640571D01*
X107513428Y-45592952D01*
X107561047Y-45497714D01*
X107989619Y-45973904D02*
X106989619Y-46307238D01*
X107989619Y-46640571D01*
X117022571Y-43926285D02*
X117022571Y-44688190D01*
X116641619Y-44307238D02*
X117403523Y-44307238D01*
X117213047Y-45307238D02*
X117260666Y-45212000D01*
X117308285Y-45164380D01*
X117403523Y-45116761D01*
X117451142Y-45116761D01*
X117546380Y-45164380D01*
X117594000Y-45212000D01*
X117641619Y-45307238D01*
X117641619Y-45497714D01*
X117594000Y-45592952D01*
X117546380Y-45640571D01*
X117451142Y-45688190D01*
X117403523Y-45688190D01*
X117308285Y-45640571D01*
X117260666Y-45592952D01*
X117213047Y-45497714D01*
X117213047Y-45307238D01*
X117165428Y-45212000D01*
X117117809Y-45164380D01*
X117022571Y-45116761D01*
X116832095Y-45116761D01*
X116736857Y-45164380D01*
X116689238Y-45212000D01*
X116641619Y-45307238D01*
X116641619Y-45497714D01*
X116689238Y-45592952D01*
X116736857Y-45640571D01*
X116832095Y-45688190D01*
X117022571Y-45688190D01*
X117117809Y-45640571D01*
X117165428Y-45592952D01*
X117213047Y-45497714D01*
X117641619Y-45973904D02*
X116641619Y-46307238D01*
X117641619Y-46640571D01*
X76700000Y-44061142D02*
X76747619Y-43965904D01*
X76747619Y-43823047D01*
X76700000Y-43680190D01*
X76604761Y-43584952D01*
X76509523Y-43537333D01*
X76319047Y-43489714D01*
X76176190Y-43489714D01*
X75985714Y-43537333D01*
X75890476Y-43584952D01*
X75795238Y-43680190D01*
X75747619Y-43823047D01*
X75747619Y-43918285D01*
X75795238Y-44061142D01*
X75842857Y-44108761D01*
X76176190Y-44108761D01*
X76176190Y-43918285D01*
X76414285Y-44537333D02*
X75747619Y-44537333D01*
X76319047Y-44537333D02*
X76366666Y-44584952D01*
X76414285Y-44680190D01*
X76414285Y-44823047D01*
X76366666Y-44918285D01*
X76271428Y-44965904D01*
X75747619Y-44965904D01*
X75747619Y-45870666D02*
X76747619Y-45870666D01*
X75795238Y-45870666D02*
X75747619Y-45775428D01*
X75747619Y-45584952D01*
X75795238Y-45489714D01*
X75842857Y-45442095D01*
X75938095Y-45394476D01*
X76223809Y-45394476D01*
X76319047Y-45442095D01*
X76366666Y-45489714D01*
X76414285Y-45584952D01*
X76414285Y-45775428D01*
X76366666Y-45870666D01*
X253547619Y-103410857D02*
X254071428Y-103410857D01*
X254166666Y-103363238D01*
X254214285Y-103268000D01*
X254214285Y-103077523D01*
X254166666Y-102982285D01*
X253595238Y-103410857D02*
X253547619Y-103315619D01*
X253547619Y-103077523D01*
X253595238Y-102982285D01*
X253690476Y-102934666D01*
X253785714Y-102934666D01*
X253880952Y-102982285D01*
X253928571Y-103077523D01*
X253928571Y-103315619D01*
X253976190Y-103410857D01*
X253547619Y-103887047D02*
X254547619Y-103887047D01*
X254166666Y-103887047D02*
X254214285Y-103982285D01*
X254214285Y-104172761D01*
X254166666Y-104268000D01*
X254119047Y-104315619D01*
X254023809Y-104363238D01*
X253738095Y-104363238D01*
X253642857Y-104315619D01*
X253595238Y-104268000D01*
X253547619Y-104172761D01*
X253547619Y-103982285D01*
X253595238Y-103887047D01*
X254214285Y-104696571D02*
X254214285Y-105220380D01*
X253547619Y-104696571D01*
X253547619Y-105220380D01*
X253547619Y-105601333D02*
X254214285Y-105601333D01*
X254119047Y-105601333D02*
X254166666Y-105648952D01*
X254214285Y-105744190D01*
X254214285Y-105887047D01*
X254166666Y-105982285D01*
X254071428Y-106029904D01*
X253547619Y-106029904D01*
X254071428Y-106029904D02*
X254166666Y-106077523D01*
X254214285Y-106172761D01*
X254214285Y-106315619D01*
X254166666Y-106410857D01*
X254071428Y-106458476D01*
X253547619Y-106458476D01*
X253547619Y-107363238D02*
X254071428Y-107363238D01*
X254166666Y-107315619D01*
X254214285Y-107220380D01*
X254214285Y-107029904D01*
X254166666Y-106934666D01*
X253595238Y-107363238D02*
X253547619Y-107268000D01*
X253547619Y-107029904D01*
X253595238Y-106934666D01*
X253690476Y-106887047D01*
X253785714Y-106887047D01*
X253880952Y-106934666D01*
X253928571Y-107029904D01*
X253928571Y-107268000D01*
X253976190Y-107363238D01*
X254214285Y-107839428D02*
X253547619Y-107839428D01*
X254119047Y-107839428D02*
X254166666Y-107887047D01*
X254214285Y-107982285D01*
X254214285Y-108125142D01*
X254166666Y-108220380D01*
X254071428Y-108268000D01*
X253547619Y-108268000D01*
X254452380Y-108696571D02*
X254500000Y-108744190D01*
X254547619Y-108839428D01*
X254547619Y-109077523D01*
X254500000Y-109172761D01*
X254452380Y-109220380D01*
X254357142Y-109268000D01*
X254261904Y-109268000D01*
X254119047Y-109220380D01*
X253547619Y-108648952D01*
X253547619Y-109268000D01*
X253547619Y-109696571D02*
X254547619Y-109696571D01*
X253928571Y-109791809D02*
X253547619Y-110077523D01*
X254214285Y-110077523D02*
X253833333Y-109696571D01*
X253642857Y-110506095D02*
X253595238Y-110553714D01*
X253547619Y-110506095D01*
X253595238Y-110458476D01*
X253642857Y-110506095D01*
X253547619Y-110506095D01*
X254214285Y-110887047D02*
X253547619Y-111077523D01*
X254023809Y-111268000D01*
X253547619Y-111458476D01*
X254214285Y-111648952D01*
X253547619Y-112172761D02*
X253595238Y-112077523D01*
X253642857Y-112029904D01*
X253738095Y-111982285D01*
X254023809Y-111982285D01*
X254119047Y-112029904D01*
X254166666Y-112077523D01*
X254214285Y-112172761D01*
X254214285Y-112315619D01*
X254166666Y-112410857D01*
X254119047Y-112458476D01*
X254023809Y-112506095D01*
X253738095Y-112506095D01*
X253642857Y-112458476D01*
X253595238Y-112410857D01*
X253547619Y-112315619D01*
X253547619Y-112172761D01*
X253547619Y-112934666D02*
X254214285Y-112934666D01*
X254023809Y-112934666D02*
X254119047Y-112982285D01*
X254166666Y-113029904D01*
X254214285Y-113125142D01*
X254214285Y-113220380D01*
X253547619Y-113982285D02*
X254547619Y-113982285D01*
X253595238Y-113982285D02*
X253547619Y-113887047D01*
X253547619Y-113696571D01*
X253595238Y-113601333D01*
X253642857Y-113553714D01*
X253738095Y-113506095D01*
X254023809Y-113506095D01*
X254119047Y-113553714D01*
X254166666Y-113601333D01*
X254214285Y-113696571D01*
X254214285Y-113887047D01*
X254166666Y-113982285D01*
X254214285Y-114458476D02*
X253214285Y-114458476D01*
X254166666Y-114458476D02*
X254214285Y-114553714D01*
X254214285Y-114744190D01*
X254166666Y-114839428D01*
X254119047Y-114887047D01*
X254023809Y-114934666D01*
X253738095Y-114934666D01*
X253642857Y-114887047D01*
X253595238Y-114839428D01*
X253547619Y-114744190D01*
X253547619Y-114553714D01*
X253595238Y-114458476D01*
X253547619Y-115363238D02*
X254214285Y-115363238D01*
X254023809Y-115363238D02*
X254119047Y-115410857D01*
X254166666Y-115458476D01*
X254214285Y-115553714D01*
X254214285Y-115648952D01*
X253595238Y-116363238D02*
X253547619Y-116268000D01*
X253547619Y-116077523D01*
X253595238Y-115982285D01*
X253690476Y-115934666D01*
X254071428Y-115934666D01*
X254166666Y-115982285D01*
X254214285Y-116077523D01*
X254214285Y-116268000D01*
X254166666Y-116363238D01*
X254071428Y-116410857D01*
X253976190Y-116410857D01*
X253880952Y-115934666D01*
X253595238Y-116791809D02*
X253547619Y-116887047D01*
X253547619Y-117077523D01*
X253595238Y-117172761D01*
X253690476Y-117220380D01*
X253738095Y-117220380D01*
X253833333Y-117172761D01*
X253880952Y-117077523D01*
X253880952Y-116934666D01*
X253928571Y-116839428D01*
X254023809Y-116791809D01*
X254071428Y-116791809D01*
X254166666Y-116839428D01*
X254214285Y-116934666D01*
X254214285Y-117077523D01*
X254166666Y-117172761D01*
X253595238Y-117601333D02*
X253547619Y-117696571D01*
X253547619Y-117887047D01*
X253595238Y-117982285D01*
X253690476Y-118029904D01*
X253738095Y-118029904D01*
X253833333Y-117982285D01*
X253880952Y-117887047D01*
X253880952Y-117744190D01*
X253928571Y-117648952D01*
X254023809Y-117601333D01*
X254071428Y-117601333D01*
X254166666Y-117648952D01*
X254214285Y-117744190D01*
X254214285Y-117887047D01*
X254166666Y-117982285D01*
X253642857Y-118458476D02*
X253595238Y-118506095D01*
X253547619Y-118458476D01*
X253595238Y-118410857D01*
X253642857Y-118458476D01*
X253547619Y-118458476D01*
X253595238Y-119363238D02*
X253547619Y-119268000D01*
X253547619Y-119077523D01*
X253595238Y-118982285D01*
X253642857Y-118934666D01*
X253738095Y-118887047D01*
X254023809Y-118887047D01*
X254119047Y-118934666D01*
X254166666Y-118982285D01*
X254214285Y-119077523D01*
X254214285Y-119268000D01*
X254166666Y-119363238D01*
X253547619Y-119934666D02*
X253595238Y-119839428D01*
X253642857Y-119791809D01*
X253738095Y-119744190D01*
X254023809Y-119744190D01*
X254119047Y-119791809D01*
X254166666Y-119839428D01*
X254214285Y-119934666D01*
X254214285Y-120077523D01*
X254166666Y-120172761D01*
X254119047Y-120220380D01*
X254023809Y-120268000D01*
X253738095Y-120268000D01*
X253642857Y-120220380D01*
X253595238Y-120172761D01*
X253547619Y-120077523D01*
X253547619Y-119934666D01*
X253547619Y-120696571D02*
X254214285Y-120696571D01*
X254119047Y-120696571D02*
X254166666Y-120744190D01*
X254214285Y-120839428D01*
X254214285Y-120982285D01*
X254166666Y-121077523D01*
X254071428Y-121125142D01*
X253547619Y-121125142D01*
X254071428Y-121125142D02*
X254166666Y-121172761D01*
X254214285Y-121268000D01*
X254214285Y-121410857D01*
X254166666Y-121506095D01*
X254071428Y-121553714D01*
X253547619Y-121553714D01*
X79176571Y-42434095D02*
X79176571Y-43196000D01*
X78795619Y-44196000D02*
X78795619Y-43624571D01*
X78795619Y-43910285D02*
X79795619Y-43910285D01*
X79652761Y-43815047D01*
X79557523Y-43719809D01*
X79509904Y-43624571D01*
X79795619Y-45053142D02*
X79795619Y-44862666D01*
X79748000Y-44767428D01*
X79700380Y-44719809D01*
X79557523Y-44624571D01*
X79367047Y-44576952D01*
X78986095Y-44576952D01*
X78890857Y-44624571D01*
X78843238Y-44672190D01*
X78795619Y-44767428D01*
X78795619Y-44957904D01*
X78843238Y-45053142D01*
X78890857Y-45100761D01*
X78986095Y-45148380D01*
X79224190Y-45148380D01*
X79319428Y-45100761D01*
X79367047Y-45053142D01*
X79414666Y-44957904D01*
X79414666Y-44767428D01*
X79367047Y-44672190D01*
X79319428Y-44624571D01*
X79224190Y-44576952D01*
X79795619Y-45434095D02*
X78795619Y-45767428D01*
X79795619Y-46100761D01*
X83081000Y-44061142D02*
X83128619Y-43965904D01*
X83128619Y-43823047D01*
X83081000Y-43680190D01*
X82985761Y-43584952D01*
X82890523Y-43537333D01*
X82700047Y-43489714D01*
X82557190Y-43489714D01*
X82366714Y-43537333D01*
X82271476Y-43584952D01*
X82176238Y-43680190D01*
X82128619Y-43823047D01*
X82128619Y-43918285D01*
X82176238Y-44061142D01*
X82223857Y-44108761D01*
X82557190Y-44108761D01*
X82557190Y-43918285D01*
X82795285Y-44537333D02*
X82128619Y-44537333D01*
X82700047Y-44537333D02*
X82747666Y-44584952D01*
X82795285Y-44680190D01*
X82795285Y-44823047D01*
X82747666Y-44918285D01*
X82652428Y-44965904D01*
X82128619Y-44965904D01*
X82128619Y-45870666D02*
X83128619Y-45870666D01*
X82176238Y-45870666D02*
X82128619Y-45775428D01*
X82128619Y-45584952D01*
X82176238Y-45489714D01*
X82223857Y-45442095D01*
X82319095Y-45394476D01*
X82604809Y-45394476D01*
X82700047Y-45442095D01*
X82747666Y-45489714D01*
X82795285Y-45584952D01*
X82795285Y-45775428D01*
X82747666Y-45870666D01*
X130040000Y-44823142D02*
X130087619Y-44727904D01*
X130087619Y-44585047D01*
X130040000Y-44442190D01*
X129944761Y-44346952D01*
X129849523Y-44299333D01*
X129659047Y-44251714D01*
X129516190Y-44251714D01*
X129325714Y-44299333D01*
X129230476Y-44346952D01*
X129135238Y-44442190D01*
X129087619Y-44585047D01*
X129087619Y-44680285D01*
X129135238Y-44823142D01*
X129182857Y-44870761D01*
X129516190Y-44870761D01*
X129516190Y-44680285D01*
X129754285Y-45299333D02*
X129087619Y-45299333D01*
X129659047Y-45299333D02*
X129706666Y-45346952D01*
X129754285Y-45442190D01*
X129754285Y-45585047D01*
X129706666Y-45680285D01*
X129611428Y-45727904D01*
X129087619Y-45727904D01*
X129087619Y-46632666D02*
X130087619Y-46632666D01*
X129135238Y-46632666D02*
X129087619Y-46537428D01*
X129087619Y-46346952D01*
X129135238Y-46251714D01*
X129182857Y-46204095D01*
X129278095Y-46156476D01*
X129563809Y-46156476D01*
X129659047Y-46204095D01*
X129706666Y-46251714D01*
X129754285Y-46346952D01*
X129754285Y-46537428D01*
X129706666Y-46632666D01*
X85526571Y-42434095D02*
X85526571Y-43196000D01*
X85145619Y-42815047D02*
X85907523Y-42815047D01*
X85145619Y-44196000D02*
X85145619Y-43624571D01*
X85145619Y-43910285D02*
X86145619Y-43910285D01*
X86002761Y-43815047D01*
X85907523Y-43719809D01*
X85859904Y-43624571D01*
X86145619Y-45053142D02*
X86145619Y-44862666D01*
X86098000Y-44767428D01*
X86050380Y-44719809D01*
X85907523Y-44624571D01*
X85717047Y-44576952D01*
X85336095Y-44576952D01*
X85240857Y-44624571D01*
X85193238Y-44672190D01*
X85145619Y-44767428D01*
X85145619Y-44957904D01*
X85193238Y-45053142D01*
X85240857Y-45100761D01*
X85336095Y-45148380D01*
X85574190Y-45148380D01*
X85669428Y-45100761D01*
X85717047Y-45053142D01*
X85764666Y-44957904D01*
X85764666Y-44767428D01*
X85717047Y-44672190D01*
X85669428Y-44624571D01*
X85574190Y-44576952D01*
X86145619Y-45434095D02*
X85145619Y-45767428D01*
X86145619Y-46100761D01*
X72826571Y-42434095D02*
X72826571Y-43196000D01*
X72445619Y-42815047D02*
X73207523Y-42815047D01*
X72445619Y-44196000D02*
X72445619Y-43624571D01*
X72445619Y-43910285D02*
X73445619Y-43910285D01*
X73302761Y-43815047D01*
X73207523Y-43719809D01*
X73159904Y-43624571D01*
X73445619Y-45053142D02*
X73445619Y-44862666D01*
X73398000Y-44767428D01*
X73350380Y-44719809D01*
X73207523Y-44624571D01*
X73017047Y-44576952D01*
X72636095Y-44576952D01*
X72540857Y-44624571D01*
X72493238Y-44672190D01*
X72445619Y-44767428D01*
X72445619Y-44957904D01*
X72493238Y-45053142D01*
X72540857Y-45100761D01*
X72636095Y-45148380D01*
X72874190Y-45148380D01*
X72969428Y-45100761D01*
X73017047Y-45053142D01*
X73064666Y-44957904D01*
X73064666Y-44767428D01*
X73017047Y-44672190D01*
X72969428Y-44624571D01*
X72874190Y-44576952D01*
X73445619Y-45434095D02*
X72445619Y-45767428D01*
X73445619Y-46100761D01*
X120642000Y-44823142D02*
X120689619Y-44727904D01*
X120689619Y-44585047D01*
X120642000Y-44442190D01*
X120546761Y-44346952D01*
X120451523Y-44299333D01*
X120261047Y-44251714D01*
X120118190Y-44251714D01*
X119927714Y-44299333D01*
X119832476Y-44346952D01*
X119737238Y-44442190D01*
X119689619Y-44585047D01*
X119689619Y-44680285D01*
X119737238Y-44823142D01*
X119784857Y-44870761D01*
X120118190Y-44870761D01*
X120118190Y-44680285D01*
X120356285Y-45299333D02*
X119689619Y-45299333D01*
X120261047Y-45299333D02*
X120308666Y-45346952D01*
X120356285Y-45442190D01*
X120356285Y-45585047D01*
X120308666Y-45680285D01*
X120213428Y-45727904D01*
X119689619Y-45727904D01*
X119689619Y-46632666D02*
X120689619Y-46632666D01*
X119737238Y-46632666D02*
X119689619Y-46537428D01*
X119689619Y-46346952D01*
X119737238Y-46251714D01*
X119784857Y-46204095D01*
X119880095Y-46156476D01*
X120165809Y-46156476D01*
X120261047Y-46204095D01*
X120308666Y-46251714D01*
X120356285Y-46346952D01*
X120356285Y-46537428D01*
X120308666Y-46632666D01*
X114292000Y-44823142D02*
X114339619Y-44727904D01*
X114339619Y-44585047D01*
X114292000Y-44442190D01*
X114196761Y-44346952D01*
X114101523Y-44299333D01*
X113911047Y-44251714D01*
X113768190Y-44251714D01*
X113577714Y-44299333D01*
X113482476Y-44346952D01*
X113387238Y-44442190D01*
X113339619Y-44585047D01*
X113339619Y-44680285D01*
X113387238Y-44823142D01*
X113434857Y-44870761D01*
X113768190Y-44870761D01*
X113768190Y-44680285D01*
X114006285Y-45299333D02*
X113339619Y-45299333D01*
X113911047Y-45299333D02*
X113958666Y-45346952D01*
X114006285Y-45442190D01*
X114006285Y-45585047D01*
X113958666Y-45680285D01*
X113863428Y-45727904D01*
X113339619Y-45727904D01*
X113339619Y-46632666D02*
X114339619Y-46632666D01*
X113387238Y-46632666D02*
X113339619Y-46537428D01*
X113339619Y-46346952D01*
X113387238Y-46251714D01*
X113434857Y-46204095D01*
X113530095Y-46156476D01*
X113815809Y-46156476D01*
X113911047Y-46204095D01*
X113958666Y-46251714D01*
X114006285Y-46346952D01*
X114006285Y-46537428D01*
X113958666Y-46632666D01*
X251558619Y-53263142D02*
X252225285Y-53263142D01*
X252034809Y-53263142D02*
X252130047Y-53310761D01*
X252177666Y-53358380D01*
X252225285Y-53453619D01*
X252225285Y-53548857D01*
X251606238Y-54263142D02*
X251558619Y-54167904D01*
X251558619Y-53977428D01*
X251606238Y-53882190D01*
X251701476Y-53834571D01*
X252082428Y-53834571D01*
X252177666Y-53882190D01*
X252225285Y-53977428D01*
X252225285Y-54167904D01*
X252177666Y-54263142D01*
X252082428Y-54310761D01*
X251987190Y-54310761D01*
X251891952Y-53834571D01*
X252225285Y-54739333D02*
X251225285Y-54739333D01*
X252177666Y-54739333D02*
X252225285Y-54834571D01*
X252225285Y-55025047D01*
X252177666Y-55120285D01*
X252130047Y-55167904D01*
X252034809Y-55215523D01*
X251749095Y-55215523D01*
X251653857Y-55167904D01*
X251606238Y-55120285D01*
X251558619Y-55025047D01*
X251558619Y-54834571D01*
X251606238Y-54739333D01*
X251558619Y-55786952D02*
X251606238Y-55691714D01*
X251701476Y-55644095D01*
X252558619Y-55644095D01*
X251558619Y-56596476D02*
X252082428Y-56596476D01*
X252177666Y-56548857D01*
X252225285Y-56453619D01*
X252225285Y-56263142D01*
X252177666Y-56167904D01*
X251606238Y-56596476D02*
X251558619Y-56501238D01*
X251558619Y-56263142D01*
X251606238Y-56167904D01*
X251701476Y-56120285D01*
X251796714Y-56120285D01*
X251891952Y-56167904D01*
X251939571Y-56263142D01*
X251939571Y-56501238D01*
X251987190Y-56596476D01*
X251606238Y-57501238D02*
X251558619Y-57406000D01*
X251558619Y-57215523D01*
X251606238Y-57120285D01*
X251653857Y-57072666D01*
X251749095Y-57025047D01*
X252034809Y-57025047D01*
X252130047Y-57072666D01*
X252177666Y-57120285D01*
X252225285Y-57215523D01*
X252225285Y-57406000D01*
X252177666Y-57501238D01*
X251606238Y-58310761D02*
X251558619Y-58215523D01*
X251558619Y-58025047D01*
X251606238Y-57929809D01*
X251701476Y-57882190D01*
X252082428Y-57882190D01*
X252177666Y-57929809D01*
X252225285Y-58025047D01*
X252225285Y-58215523D01*
X252177666Y-58310761D01*
X252082428Y-58358380D01*
X251987190Y-58358380D01*
X251891952Y-57882190D01*
X251558619Y-58786952D02*
X252225285Y-58786952D01*
X252130047Y-58786952D02*
X252177666Y-58834571D01*
X252225285Y-58929809D01*
X252225285Y-59072666D01*
X252177666Y-59167904D01*
X252082428Y-59215523D01*
X251558619Y-59215523D01*
X252082428Y-59215523D02*
X252177666Y-59263142D01*
X252225285Y-59358380D01*
X252225285Y-59501238D01*
X252177666Y-59596476D01*
X252082428Y-59644095D01*
X251558619Y-59644095D01*
X251606238Y-60501238D02*
X251558619Y-60406000D01*
X251558619Y-60215523D01*
X251606238Y-60120285D01*
X251701476Y-60072666D01*
X252082428Y-60072666D01*
X252177666Y-60120285D01*
X252225285Y-60215523D01*
X252225285Y-60406000D01*
X252177666Y-60501238D01*
X252082428Y-60548857D01*
X251987190Y-60548857D01*
X251891952Y-60072666D01*
X252225285Y-60977428D02*
X251558619Y-60977428D01*
X252130047Y-60977428D02*
X252177666Y-61025047D01*
X252225285Y-61120285D01*
X252225285Y-61263142D01*
X252177666Y-61358380D01*
X252082428Y-61406000D01*
X251558619Y-61406000D01*
X252225285Y-61739333D02*
X252225285Y-62120285D01*
X252558619Y-61882190D02*
X251701476Y-61882190D01*
X251606238Y-61929809D01*
X251558619Y-62025047D01*
X251558619Y-62120285D01*
X251558619Y-63215523D02*
X252558619Y-63215523D01*
X252177666Y-63215523D02*
X252225285Y-63310761D01*
X252225285Y-63501238D01*
X252177666Y-63596476D01*
X252130047Y-63644095D01*
X252034809Y-63691714D01*
X251749095Y-63691714D01*
X251653857Y-63644095D01*
X251606238Y-63596476D01*
X251558619Y-63501238D01*
X251558619Y-63310761D01*
X251606238Y-63215523D01*
X251558619Y-64548857D02*
X252082428Y-64548857D01*
X252177666Y-64501238D01*
X252225285Y-64406000D01*
X252225285Y-64215523D01*
X252177666Y-64120285D01*
X251606238Y-64548857D02*
X251558619Y-64453619D01*
X251558619Y-64215523D01*
X251606238Y-64120285D01*
X251701476Y-64072666D01*
X251796714Y-64072666D01*
X251891952Y-64120285D01*
X251939571Y-64215523D01*
X251939571Y-64453619D01*
X251987190Y-64548857D01*
X251606238Y-65453619D02*
X251558619Y-65358380D01*
X251558619Y-65167904D01*
X251606238Y-65072666D01*
X251653857Y-65025047D01*
X251749095Y-64977428D01*
X252034809Y-64977428D01*
X252130047Y-65025047D01*
X252177666Y-65072666D01*
X252225285Y-65167904D01*
X252225285Y-65358380D01*
X252177666Y-65453619D01*
X251558619Y-65882190D02*
X252558619Y-65882190D01*
X251939571Y-65977428D02*
X251558619Y-66263142D01*
X252225285Y-66263142D02*
X251844333Y-65882190D01*
X252225285Y-66691714D02*
X251225285Y-66691714D01*
X252177666Y-66691714D02*
X252225285Y-66786952D01*
X252225285Y-66977428D01*
X252177666Y-67072666D01*
X252130047Y-67120285D01*
X252034809Y-67167904D01*
X251749095Y-67167904D01*
X251653857Y-67120285D01*
X251606238Y-67072666D01*
X251558619Y-66977428D01*
X251558619Y-66786952D01*
X251606238Y-66691714D01*
X251558619Y-67739333D02*
X251606238Y-67644095D01*
X251701476Y-67596476D01*
X252558619Y-67596476D01*
X251558619Y-68548857D02*
X252082428Y-68548857D01*
X252177666Y-68501238D01*
X252225285Y-68406000D01*
X252225285Y-68215523D01*
X252177666Y-68120285D01*
X251606238Y-68548857D02*
X251558619Y-68453619D01*
X251558619Y-68215523D01*
X251606238Y-68120285D01*
X251701476Y-68072666D01*
X251796714Y-68072666D01*
X251891952Y-68120285D01*
X251939571Y-68215523D01*
X251939571Y-68453619D01*
X251987190Y-68548857D01*
X252225285Y-69025047D02*
X251558619Y-69025047D01*
X252130047Y-69025047D02*
X252177666Y-69072666D01*
X252225285Y-69167904D01*
X252225285Y-69310761D01*
X252177666Y-69406000D01*
X252082428Y-69453619D01*
X251558619Y-69453619D01*
X251606238Y-70310761D02*
X251558619Y-70215523D01*
X251558619Y-70025047D01*
X251606238Y-69929809D01*
X251701476Y-69882190D01*
X252082428Y-69882190D01*
X252177666Y-69929809D01*
X252225285Y-70025047D01*
X252225285Y-70215523D01*
X252177666Y-70310761D01*
X252082428Y-70358380D01*
X251987190Y-70358380D01*
X251891952Y-69882190D01*
X252225285Y-71406000D02*
X252225285Y-71786952D01*
X251558619Y-71548857D02*
X252415761Y-71548857D01*
X252511000Y-71596476D01*
X252558619Y-71691714D01*
X252558619Y-71786952D01*
X251558619Y-72263142D02*
X251606238Y-72167904D01*
X251653857Y-72120285D01*
X251749095Y-72072666D01*
X252034809Y-72072666D01*
X252130047Y-72120285D01*
X252177666Y-72167904D01*
X252225285Y-72263142D01*
X252225285Y-72406000D01*
X252177666Y-72501238D01*
X252130047Y-72548857D01*
X252034809Y-72596476D01*
X251749095Y-72596476D01*
X251653857Y-72548857D01*
X251606238Y-72501238D01*
X251558619Y-72406000D01*
X251558619Y-72263142D01*
X251558619Y-73025047D02*
X252225285Y-73025047D01*
X252034809Y-73025047D02*
X252130047Y-73072666D01*
X252177666Y-73120285D01*
X252225285Y-73215523D01*
X252225285Y-73310761D01*
X251606238Y-74834571D02*
X251558619Y-74739333D01*
X251558619Y-74548857D01*
X251606238Y-74453619D01*
X251653857Y-74406000D01*
X251749095Y-74358380D01*
X252034809Y-74358380D01*
X252130047Y-74406000D01*
X252177666Y-74453619D01*
X252225285Y-74548857D01*
X252225285Y-74739333D01*
X252177666Y-74834571D01*
X251558619Y-75263142D02*
X252225285Y-75263142D01*
X252034809Y-75263142D02*
X252130047Y-75310761D01*
X252177666Y-75358380D01*
X252225285Y-75453619D01*
X252225285Y-75548857D01*
X252225285Y-76310761D02*
X251558619Y-76310761D01*
X252225285Y-75882190D02*
X251701476Y-75882190D01*
X251606238Y-75929809D01*
X251558619Y-76025047D01*
X251558619Y-76167904D01*
X251606238Y-76263142D01*
X251653857Y-76310761D01*
X251606238Y-76739333D02*
X251558619Y-76834571D01*
X251558619Y-77025047D01*
X251606238Y-77120285D01*
X251701476Y-77167904D01*
X251749095Y-77167904D01*
X251844333Y-77120285D01*
X251891952Y-77025047D01*
X251891952Y-76882190D01*
X251939571Y-76786952D01*
X252034809Y-76739333D01*
X252082428Y-76739333D01*
X252177666Y-76786952D01*
X252225285Y-76882190D01*
X252225285Y-77025047D01*
X252177666Y-77120285D01*
X251558619Y-78025047D02*
X252082428Y-78025047D01*
X252177666Y-77977428D01*
X252225285Y-77882190D01*
X252225285Y-77691714D01*
X252177666Y-77596476D01*
X251606238Y-78025047D02*
X251558619Y-77929809D01*
X251558619Y-77691714D01*
X251606238Y-77596476D01*
X251701476Y-77548857D01*
X251796714Y-77548857D01*
X251891952Y-77596476D01*
X251939571Y-77691714D01*
X251939571Y-77929809D01*
X251987190Y-78025047D01*
X251558619Y-78929809D02*
X252558619Y-78929809D01*
X251606238Y-78929809D02*
X251558619Y-78834571D01*
X251558619Y-78644095D01*
X251606238Y-78548857D01*
X251653857Y-78501238D01*
X251749095Y-78453619D01*
X252034809Y-78453619D01*
X252130047Y-78501238D01*
X252177666Y-78548857D01*
X252225285Y-78644095D01*
X252225285Y-78834571D01*
X252177666Y-78929809D01*
X251606238Y-79786952D02*
X251558619Y-79691714D01*
X251558619Y-79501238D01*
X251606238Y-79406000D01*
X251701476Y-79358380D01*
X252082428Y-79358380D01*
X252177666Y-79406000D01*
X252225285Y-79501238D01*
X252225285Y-79691714D01*
X252177666Y-79786952D01*
X252082428Y-79834571D01*
X251987190Y-79834571D01*
X251891952Y-79358380D01*
X251558619Y-80263142D02*
X252225285Y-80263142D01*
X252034809Y-80263142D02*
X252130047Y-80310761D01*
X252177666Y-80358380D01*
X252225285Y-80453619D01*
X252225285Y-80548857D01*
X252463380Y-81596476D02*
X252511000Y-81644095D01*
X252558619Y-81739333D01*
X252558619Y-81977428D01*
X252511000Y-82072666D01*
X252463380Y-82120285D01*
X252368142Y-82167904D01*
X252272904Y-82167904D01*
X252130047Y-82120285D01*
X251558619Y-81548857D01*
X251558619Y-82167904D01*
X251606238Y-83786952D02*
X251558619Y-83691714D01*
X251558619Y-83501238D01*
X251606238Y-83406000D01*
X251653857Y-83358380D01*
X251749095Y-83310761D01*
X252034809Y-83310761D01*
X252130047Y-83358380D01*
X252177666Y-83406000D01*
X252225285Y-83501238D01*
X252225285Y-83691714D01*
X252177666Y-83786952D01*
X252225285Y-84215523D02*
X251558619Y-84215523D01*
X252130047Y-84215523D02*
X252177666Y-84263142D01*
X252225285Y-84358380D01*
X252225285Y-84501238D01*
X252177666Y-84596476D01*
X252082428Y-84644095D01*
X251558619Y-84644095D01*
X251606238Y-85548857D02*
X251558619Y-85453619D01*
X251558619Y-85263142D01*
X251606238Y-85167904D01*
X251653857Y-85120285D01*
X251749095Y-85072666D01*
X252034809Y-85072666D01*
X252130047Y-85120285D01*
X252177666Y-85167904D01*
X252225285Y-85263142D01*
X252225285Y-85453619D01*
X252177666Y-85548857D01*
X251606238Y-87167904D02*
X251558619Y-87072666D01*
X251558619Y-86882190D01*
X251606238Y-86786952D01*
X251653857Y-86739333D01*
X251749095Y-86691714D01*
X252034809Y-86691714D01*
X252130047Y-86739333D01*
X252177666Y-86786952D01*
X252225285Y-86882190D01*
X252225285Y-87072666D01*
X252177666Y-87167904D01*
X251558619Y-87739333D02*
X251606238Y-87644095D01*
X251653857Y-87596476D01*
X251749095Y-87548857D01*
X252034809Y-87548857D01*
X252130047Y-87596476D01*
X252177666Y-87644095D01*
X252225285Y-87739333D01*
X252225285Y-87882190D01*
X252177666Y-87977428D01*
X252130047Y-88025047D01*
X252034809Y-88072666D01*
X251749095Y-88072666D01*
X251653857Y-88025047D01*
X251606238Y-87977428D01*
X251558619Y-87882190D01*
X251558619Y-87739333D01*
X252225285Y-88501238D02*
X251558619Y-88501238D01*
X252130047Y-88501238D02*
X252177666Y-88548857D01*
X252225285Y-88644095D01*
X252225285Y-88786952D01*
X252177666Y-88882190D01*
X252082428Y-88929809D01*
X251558619Y-88929809D01*
X252225285Y-89263142D02*
X252225285Y-89644095D01*
X252558619Y-89405999D02*
X251701476Y-89405999D01*
X251606238Y-89453619D01*
X251558619Y-89548857D01*
X251558619Y-89644095D01*
X251558619Y-89977428D02*
X252225285Y-89977428D01*
X252034809Y-89977428D02*
X252130047Y-90025047D01*
X252177666Y-90072666D01*
X252225285Y-90167904D01*
X252225285Y-90263142D01*
X251558619Y-90739333D02*
X251606238Y-90644095D01*
X251653857Y-90596476D01*
X251749095Y-90548857D01*
X252034809Y-90548857D01*
X252130047Y-90596476D01*
X252177666Y-90644095D01*
X252225285Y-90739333D01*
X252225285Y-90882190D01*
X252177666Y-90977428D01*
X252130047Y-91025047D01*
X252034809Y-91072666D01*
X251749095Y-91072666D01*
X251653857Y-91025047D01*
X251606238Y-90977428D01*
X251558619Y-90882190D01*
X251558619Y-90739333D01*
X251558619Y-91644095D02*
X251606238Y-91548857D01*
X251701476Y-91501238D01*
X252558619Y-91501238D01*
X251558619Y-92167904D02*
X251606238Y-92072666D01*
X251701476Y-92025047D01*
X252558619Y-92025047D01*
X251606238Y-92929809D02*
X251558619Y-92834571D01*
X251558619Y-92644095D01*
X251606238Y-92548857D01*
X251701476Y-92501238D01*
X252082428Y-92501238D01*
X252177666Y-92548857D01*
X252225285Y-92644095D01*
X252225285Y-92834571D01*
X252177666Y-92929809D01*
X252082428Y-92977428D01*
X251987190Y-92977428D01*
X251891952Y-92501238D01*
X251558619Y-93406000D02*
X252225285Y-93406000D01*
X252034809Y-93406000D02*
X252130047Y-93453619D01*
X252177666Y-93501238D01*
X252225285Y-93596476D01*
X252225285Y-93691714D01*
X249948619Y-57501238D02*
X250948619Y-57501238D01*
X250948619Y-57882190D01*
X250901000Y-57977428D01*
X250853380Y-58025047D01*
X250758142Y-58072666D01*
X250615285Y-58072666D01*
X250520047Y-58025047D01*
X250472428Y-57977428D01*
X250424809Y-57882190D01*
X250424809Y-57501238D01*
X249948619Y-58644095D02*
X249996238Y-58548857D01*
X250043857Y-58501238D01*
X250139095Y-58453619D01*
X250424809Y-58453619D01*
X250520047Y-58501238D01*
X250567666Y-58548857D01*
X250615285Y-58644095D01*
X250615285Y-58786952D01*
X250567666Y-58882190D01*
X250520047Y-58929809D01*
X250424809Y-58977428D01*
X250139095Y-58977428D01*
X250043857Y-58929809D01*
X249996238Y-58882190D01*
X249948619Y-58786952D01*
X249948619Y-58644095D01*
X249996238Y-59358380D02*
X249948619Y-59453619D01*
X249948619Y-59644095D01*
X249996238Y-59739333D01*
X250091476Y-59786952D01*
X250139095Y-59786952D01*
X250234333Y-59739333D01*
X250281952Y-59644095D01*
X250281952Y-59501238D01*
X250329571Y-59406000D01*
X250424809Y-59358380D01*
X250472428Y-59358380D01*
X250567666Y-59406000D01*
X250615285Y-59501238D01*
X250615285Y-59644095D01*
X250567666Y-59739333D01*
X249996238Y-60167904D02*
X249948619Y-60263142D01*
X249948619Y-60453619D01*
X249996238Y-60548857D01*
X250091476Y-60596476D01*
X250139095Y-60596476D01*
X250234333Y-60548857D01*
X250281952Y-60453619D01*
X250281952Y-60310761D01*
X250329571Y-60215523D01*
X250424809Y-60167904D01*
X250472428Y-60167904D01*
X250567666Y-60215523D01*
X250615285Y-60310761D01*
X250615285Y-60453619D01*
X250567666Y-60548857D01*
X249948619Y-61025047D02*
X250615285Y-61025047D01*
X250948619Y-61025047D02*
X250901000Y-60977428D01*
X250853380Y-61025047D01*
X250901000Y-61072666D01*
X250948619Y-61025047D01*
X250853380Y-61025047D01*
X249948619Y-61501238D02*
X250948619Y-61501238D01*
X250567666Y-61501238D02*
X250615285Y-61596476D01*
X250615285Y-61786952D01*
X250567666Y-61882190D01*
X250520047Y-61929809D01*
X250424809Y-61977428D01*
X250139095Y-61977428D01*
X250043857Y-61929809D01*
X249996238Y-61882190D01*
X249948619Y-61786952D01*
X249948619Y-61596476D01*
X249996238Y-61501238D01*
X249948619Y-62548857D02*
X249996238Y-62453619D01*
X250091476Y-62406000D01*
X250948619Y-62406000D01*
X249996238Y-63310761D02*
X249948619Y-63215523D01*
X249948619Y-63025047D01*
X249996238Y-62929809D01*
X250091476Y-62882190D01*
X250472428Y-62882190D01*
X250567666Y-62929809D01*
X250615285Y-63025047D01*
X250615285Y-63215523D01*
X250567666Y-63310761D01*
X250472428Y-63358380D01*
X250377190Y-63358380D01*
X250281952Y-62882190D01*
X249948619Y-64977428D02*
X250472428Y-64977428D01*
X250567666Y-64929809D01*
X250615285Y-64834571D01*
X250615285Y-64644095D01*
X250567666Y-64548857D01*
X249996238Y-64977428D02*
X249948619Y-64882190D01*
X249948619Y-64644095D01*
X249996238Y-64548857D01*
X250091476Y-64501238D01*
X250186714Y-64501238D01*
X250281952Y-64548857D01*
X250329571Y-64644095D01*
X250329571Y-64882190D01*
X250377190Y-64977428D01*
X250615285Y-65453619D02*
X249615285Y-65453619D01*
X250567666Y-65453619D02*
X250615285Y-65548857D01*
X250615285Y-65739333D01*
X250567666Y-65834571D01*
X250520047Y-65882190D01*
X250424809Y-65929809D01*
X250139095Y-65929809D01*
X250043857Y-65882190D01*
X249996238Y-65834571D01*
X249948619Y-65739333D01*
X249948619Y-65548857D01*
X249996238Y-65453619D01*
X250615285Y-66358380D02*
X249615285Y-66358380D01*
X250567666Y-66358380D02*
X250615285Y-66453619D01*
X250615285Y-66644095D01*
X250567666Y-66739333D01*
X250520047Y-66786952D01*
X250424809Y-66834571D01*
X250139095Y-66834571D01*
X250043857Y-66786952D01*
X249996238Y-66739333D01*
X249948619Y-66644095D01*
X249948619Y-66453619D01*
X249996238Y-66358380D01*
X249948619Y-67406000D02*
X249996238Y-67310761D01*
X250091476Y-67263142D01*
X250948619Y-67263142D01*
X249948619Y-67786952D02*
X250615285Y-67786952D01*
X250948619Y-67786952D02*
X250901000Y-67739333D01*
X250853380Y-67786952D01*
X250901000Y-67834571D01*
X250948619Y-67786952D01*
X250853380Y-67786952D01*
X249996238Y-68691714D02*
X249948619Y-68596476D01*
X249948619Y-68406000D01*
X249996238Y-68310761D01*
X250043857Y-68263142D01*
X250139095Y-68215523D01*
X250424809Y-68215523D01*
X250520047Y-68263142D01*
X250567666Y-68310761D01*
X250615285Y-68406000D01*
X250615285Y-68596476D01*
X250567666Y-68691714D01*
X249948619Y-69548857D02*
X250472428Y-69548857D01*
X250567666Y-69501238D01*
X250615285Y-69406000D01*
X250615285Y-69215523D01*
X250567666Y-69120285D01*
X249996238Y-69548857D02*
X249948619Y-69453619D01*
X249948619Y-69215523D01*
X249996238Y-69120285D01*
X250091476Y-69072666D01*
X250186714Y-69072666D01*
X250281952Y-69120285D01*
X250329571Y-69215523D01*
X250329571Y-69453619D01*
X250377190Y-69548857D01*
X250615285Y-69882190D02*
X250615285Y-70263142D01*
X250948619Y-70025047D02*
X250091476Y-70025047D01*
X249996238Y-70072666D01*
X249948619Y-70167904D01*
X249948619Y-70263142D01*
X249948619Y-70596476D02*
X250615285Y-70596476D01*
X250948619Y-70596476D02*
X250901000Y-70548857D01*
X250853380Y-70596476D01*
X250901000Y-70644095D01*
X250948619Y-70596476D01*
X250853380Y-70596476D01*
X249948619Y-71215523D02*
X249996238Y-71120285D01*
X250043857Y-71072666D01*
X250139095Y-71025047D01*
X250424809Y-71025047D01*
X250520047Y-71072666D01*
X250567666Y-71120285D01*
X250615285Y-71215523D01*
X250615285Y-71358380D01*
X250567666Y-71453619D01*
X250520047Y-71501238D01*
X250424809Y-71548857D01*
X250139095Y-71548857D01*
X250043857Y-71501238D01*
X249996238Y-71453619D01*
X249948619Y-71358380D01*
X249948619Y-71215523D01*
X250615285Y-71977428D02*
X249948619Y-71977428D01*
X250520047Y-71977428D02*
X250567666Y-72025047D01*
X250615285Y-72120285D01*
X250615285Y-72263142D01*
X250567666Y-72358380D01*
X250472428Y-72406000D01*
X249948619Y-72406000D01*
X249996238Y-72834571D02*
X249948619Y-72929809D01*
X249948619Y-73120285D01*
X249996238Y-73215523D01*
X250091476Y-73263142D01*
X250139095Y-73263142D01*
X250234333Y-73215523D01*
X250281952Y-73120285D01*
X250281952Y-72977428D01*
X250329571Y-72882190D01*
X250424809Y-72834571D01*
X250472428Y-72834571D01*
X250567666Y-72882190D01*
X250615285Y-72977428D01*
X250615285Y-73120285D01*
X250567666Y-73215523D01*
X249948619Y-74882190D02*
X250472428Y-74882190D01*
X250567666Y-74834571D01*
X250615285Y-74739333D01*
X250615285Y-74548857D01*
X250567666Y-74453619D01*
X249996238Y-74882190D02*
X249948619Y-74786952D01*
X249948619Y-74548857D01*
X249996238Y-74453619D01*
X250091476Y-74406000D01*
X250186714Y-74406000D01*
X250281952Y-74453619D01*
X250329571Y-74548857D01*
X250329571Y-74786952D01*
X250377190Y-74882190D01*
X249996238Y-75310761D02*
X249948619Y-75406000D01*
X249948619Y-75596476D01*
X249996238Y-75691714D01*
X250091476Y-75739333D01*
X250139095Y-75739333D01*
X250234333Y-75691714D01*
X250281952Y-75596476D01*
X250281952Y-75453619D01*
X250329571Y-75358380D01*
X250424809Y-75310761D01*
X250472428Y-75310761D01*
X250567666Y-75358380D01*
X250615285Y-75453619D01*
X250615285Y-75596476D01*
X250567666Y-75691714D01*
X249996238Y-76882190D02*
X249948619Y-76977428D01*
X249948619Y-77167904D01*
X249996238Y-77263142D01*
X250091476Y-77310761D01*
X250139095Y-77310761D01*
X250234333Y-77263142D01*
X250281952Y-77167904D01*
X250281952Y-77025047D01*
X250329571Y-76929809D01*
X250424809Y-76882190D01*
X250472428Y-76882190D01*
X250567666Y-76929809D01*
X250615285Y-77025047D01*
X250615285Y-77167904D01*
X250567666Y-77263142D01*
X249948619Y-78263142D02*
X249948619Y-77691714D01*
X249948619Y-77977428D02*
X250948619Y-77977428D01*
X250805761Y-77882190D01*
X250710523Y-77786952D01*
X250662904Y-77691714D01*
X250948619Y-78882190D02*
X250948619Y-78977428D01*
X250901000Y-79072666D01*
X250853380Y-79120285D01*
X250758142Y-79167904D01*
X250567666Y-79215523D01*
X250329571Y-79215523D01*
X250139095Y-79167904D01*
X250043857Y-79120285D01*
X249996238Y-79072666D01*
X249948619Y-78977428D01*
X249948619Y-78882190D01*
X249996238Y-78786952D01*
X250043857Y-78739333D01*
X250139095Y-78691714D01*
X250329571Y-78644095D01*
X250567666Y-78644095D01*
X250758142Y-78691714D01*
X250853380Y-78739333D01*
X250901000Y-78786952D01*
X250948619Y-78882190D01*
X250948619Y-79834571D02*
X250948619Y-79929809D01*
X250901000Y-80025047D01*
X250853380Y-80072666D01*
X250758142Y-80120285D01*
X250567666Y-80167904D01*
X250329571Y-80167904D01*
X250139095Y-80120285D01*
X250043857Y-80072666D01*
X249996238Y-80025047D01*
X249948619Y-79929809D01*
X249948619Y-79834571D01*
X249996238Y-79739333D01*
X250043857Y-79691714D01*
X250139095Y-79644095D01*
X250329571Y-79596476D01*
X250567666Y-79596476D01*
X250758142Y-79644095D01*
X250853380Y-79691714D01*
X250901000Y-79739333D01*
X250948619Y-79834571D01*
X249948619Y-81358380D02*
X250948619Y-81358380D01*
X250567666Y-81358380D02*
X250615285Y-81453619D01*
X250615285Y-81644095D01*
X250567666Y-81739333D01*
X250520047Y-81786952D01*
X250424809Y-81834571D01*
X250139095Y-81834571D01*
X250043857Y-81786952D01*
X249996238Y-81739333D01*
X249948619Y-81644095D01*
X249948619Y-81453619D01*
X249996238Y-81358380D01*
X249948619Y-82691714D02*
X250472428Y-82691714D01*
X250567666Y-82644095D01*
X250615285Y-82548857D01*
X250615285Y-82358380D01*
X250567666Y-82263142D01*
X249996238Y-82691714D02*
X249948619Y-82596476D01*
X249948619Y-82358380D01*
X249996238Y-82263142D01*
X250091476Y-82215523D01*
X250186714Y-82215523D01*
X250281952Y-82263142D01*
X250329571Y-82358380D01*
X250329571Y-82596476D01*
X250377190Y-82691714D01*
X249996238Y-83596476D02*
X249948619Y-83501238D01*
X249948619Y-83310761D01*
X249996238Y-83215523D01*
X250043857Y-83167904D01*
X250139095Y-83120285D01*
X250424809Y-83120285D01*
X250520047Y-83167904D01*
X250567666Y-83215523D01*
X250615285Y-83310761D01*
X250615285Y-83501238D01*
X250567666Y-83596476D01*
X249948619Y-84025047D02*
X250948619Y-84025047D01*
X250329571Y-84120285D02*
X249948619Y-84406000D01*
X250615285Y-84406000D02*
X250234333Y-84025047D01*
X250615285Y-84834571D02*
X249615285Y-84834571D01*
X250567666Y-84834571D02*
X250615285Y-84929809D01*
X250615285Y-85120285D01*
X250567666Y-85215523D01*
X250520047Y-85263142D01*
X250424809Y-85310761D01*
X250139095Y-85310761D01*
X250043857Y-85263142D01*
X249996238Y-85215523D01*
X249948619Y-85120285D01*
X249948619Y-84929809D01*
X249996238Y-84834571D01*
X249948619Y-85882190D02*
X249996238Y-85786952D01*
X250091476Y-85739333D01*
X250948619Y-85739333D01*
X249948619Y-86691714D02*
X250472428Y-86691714D01*
X250567666Y-86644095D01*
X250615285Y-86548857D01*
X250615285Y-86358380D01*
X250567666Y-86263142D01*
X249996238Y-86691714D02*
X249948619Y-86596476D01*
X249948619Y-86358380D01*
X249996238Y-86263142D01*
X250091476Y-86215523D01*
X250186714Y-86215523D01*
X250281952Y-86263142D01*
X250329571Y-86358380D01*
X250329571Y-86596476D01*
X250377190Y-86691714D01*
X250615285Y-87167904D02*
X249948619Y-87167904D01*
X250520047Y-87167904D02*
X250567666Y-87215523D01*
X250615285Y-87310761D01*
X250615285Y-87453619D01*
X250567666Y-87548857D01*
X250472428Y-87596476D01*
X249948619Y-87596476D01*
X249996238Y-88453619D02*
X249948619Y-88358380D01*
X249948619Y-88167904D01*
X249996238Y-88072666D01*
X250091476Y-88025047D01*
X250472428Y-88025047D01*
X250567666Y-88072666D01*
X250615285Y-88167904D01*
X250615285Y-88358380D01*
X250567666Y-88453619D01*
X250472428Y-88501238D01*
X250377190Y-88501238D01*
X250281952Y-88025047D01*
X250043857Y-89072666D02*
X249996238Y-89120285D01*
X249948619Y-89072666D01*
X249996238Y-89025047D01*
X250043857Y-89072666D01*
X249948619Y-89072666D01*
X250901000Y-88882190D02*
X250948619Y-88977428D01*
X250948619Y-89215523D01*
X250901000Y-89310761D01*
X250805761Y-89358380D01*
X250710523Y-89358380D01*
X250615285Y-89310761D01*
X250567666Y-89263142D01*
X250520047Y-89167904D01*
X250472428Y-89120285D01*
X250377190Y-89072666D01*
X250329571Y-89072666D01*
%TO.C,C1*%
X117435333Y-32671142D02*
X117387714Y-32718761D01*
X117244857Y-32766380D01*
X117149619Y-32766380D01*
X117006761Y-32718761D01*
X116911523Y-32623523D01*
X116863904Y-32528285D01*
X116816285Y-32337809D01*
X116816285Y-32194952D01*
X116863904Y-32004476D01*
X116911523Y-31909238D01*
X117006761Y-31814000D01*
X117149619Y-31766380D01*
X117244857Y-31766380D01*
X117387714Y-31814000D01*
X117435333Y-31861619D01*
X118387714Y-32766380D02*
X117816285Y-32766380D01*
X118102000Y-32766380D02*
X118102000Y-31766380D01*
X118006761Y-31909238D01*
X117911523Y-32004476D01*
X117816285Y-32052095D01*
D11*
%TO.C,J7*%
X74901000Y-48934000D02*
X77561000Y-48934000D01*
X74901000Y-46334000D02*
X76231000Y-46334000D01*
X74901000Y-48994000D02*
X77561000Y-48994000D01*
X77561000Y-48934000D02*
X77561000Y-48994000D01*
X74901000Y-47664000D02*
X74901000Y-46334000D01*
X74901000Y-48934000D02*
X74901000Y-48994000D01*
%TO.C,J11*%
X106106000Y-43404000D02*
X108766000Y-43404000D01*
X106106000Y-43344000D02*
X108766000Y-43344000D01*
X106106000Y-42074000D02*
X106106000Y-40744000D01*
X106106000Y-40744000D02*
X107436000Y-40744000D01*
X106106000Y-43344000D02*
X106106000Y-43404000D01*
X108766000Y-43344000D02*
X108766000Y-43404000D01*
D12*
%TO.C,J1*%
X236296000Y-109209000D02*
X56976000Y-109209000D01*
X236296000Y-118609000D02*
X236296000Y-109209000D01*
X56976000Y-118609000D02*
X236296000Y-118609000D01*
X56976000Y-109209000D02*
X56976000Y-118609000D01*
D11*
%TO.C,J9*%
X81251000Y-47664000D02*
X81251000Y-46334000D01*
X83911000Y-48934000D02*
X83911000Y-48994000D01*
X81251000Y-48934000D02*
X81251000Y-48994000D01*
X81251000Y-48994000D02*
X83911000Y-48994000D01*
X81251000Y-48934000D02*
X83911000Y-48934000D01*
X81251000Y-46334000D02*
X82581000Y-46334000D01*
D12*
%TO.C,J5*%
X236296000Y-128099000D02*
X56976000Y-128099000D01*
X56976000Y-128099000D02*
X56976000Y-137499000D01*
X236296000Y-137499000D02*
X236296000Y-128099000D01*
X56976000Y-137499000D02*
X236296000Y-137499000D01*
D11*
%TO.C,J16*%
X121981000Y-43404000D02*
X124641000Y-43404000D01*
X121981000Y-42074000D02*
X121981000Y-40744000D01*
X121981000Y-40744000D02*
X123311000Y-40744000D01*
X121981000Y-43344000D02*
X124641000Y-43344000D01*
X121981000Y-43344000D02*
X121981000Y-43404000D01*
X124641000Y-43344000D02*
X124641000Y-43404000D01*
%TO.C,J18*%
X128331000Y-40744000D02*
X129661000Y-40744000D01*
X128331000Y-43344000D02*
X130991000Y-43344000D01*
X130991000Y-43344000D02*
X130991000Y-43404000D01*
X128331000Y-43404000D02*
X130991000Y-43404000D01*
X128331000Y-42074000D02*
X128331000Y-40744000D01*
X128331000Y-43344000D02*
X128331000Y-43404000D01*
%TO.C,J17*%
X125156000Y-43344000D02*
X127816000Y-43344000D01*
X127816000Y-43344000D02*
X127816000Y-43404000D01*
X125156000Y-43404000D02*
X127816000Y-43404000D01*
X125156000Y-42074000D02*
X125156000Y-40744000D01*
X125156000Y-40744000D02*
X126486000Y-40744000D01*
X125156000Y-43344000D02*
X125156000Y-43404000D01*
D12*
%TO.C,J4*%
X236296000Y-61239000D02*
X236296000Y-51839000D01*
X56976000Y-51839000D02*
X56976000Y-61239000D01*
X56976000Y-61239000D02*
X236296000Y-61239000D01*
X236296000Y-51839000D02*
X56976000Y-51839000D01*
D11*
%TO.C,J13*%
X115116000Y-43344000D02*
X115116000Y-43404000D01*
X112456000Y-43344000D02*
X112456000Y-43404000D01*
X112456000Y-43344000D02*
X115116000Y-43344000D01*
X112456000Y-42074000D02*
X112456000Y-40744000D01*
X112456000Y-43404000D02*
X115116000Y-43404000D01*
X112456000Y-40744000D02*
X113786000Y-40744000D01*
%TO.C,G\u002A\u002A\u002A*%
G36*
X255714757Y-54554023D02*
G01*
X255754264Y-54581117D01*
X255784227Y-54615701D01*
X255804258Y-54657421D01*
X255813973Y-54705924D01*
X255814428Y-54712192D01*
X255812238Y-54764552D01*
X255799234Y-54810924D01*
X255775664Y-54850865D01*
X255741775Y-54883934D01*
X255705960Y-54905860D01*
X255686391Y-54914994D01*
X255669505Y-54921105D01*
X255651631Y-54924949D01*
X255629099Y-54927280D01*
X255598237Y-54928853D01*
X255593164Y-54929051D01*
X255521937Y-54931777D01*
X255521937Y-54622232D01*
X255609459Y-54622232D01*
X255609459Y-54829867D01*
X255629776Y-54825995D01*
X255666713Y-54813943D01*
X255694708Y-54794100D01*
X255712982Y-54767408D01*
X255720760Y-54734808D01*
X255720423Y-54716083D01*
X255711533Y-54681879D01*
X255692988Y-54654280D01*
X255666321Y-54634919D01*
X255635487Y-54625723D01*
X255609459Y-54622232D01*
X255521937Y-54622232D01*
X255495909Y-54625723D01*
X255464155Y-54635956D01*
X255437216Y-54656246D01*
X255417186Y-54684449D01*
X255406298Y-54717567D01*
X255406071Y-54745311D01*
X255412447Y-54777054D01*
X255423892Y-54807300D01*
X255437371Y-54828837D01*
X255452722Y-54847080D01*
X255424048Y-54880828D01*
X255409238Y-54897777D01*
X255397375Y-54910471D01*
X255390903Y-54916301D01*
X255390744Y-54916374D01*
X255383226Y-54913209D01*
X255371606Y-54901698D01*
X255357876Y-54884413D01*
X255344026Y-54863925D01*
X255332045Y-54842807D01*
X255329105Y-54836716D01*
X255318865Y-54805620D01*
X255312520Y-54768094D01*
X255310396Y-54728902D01*
X255312819Y-54692808D01*
X255317771Y-54670765D01*
X255334088Y-54630568D01*
X255354525Y-54599273D01*
X255381758Y-54573364D01*
X255403158Y-54558506D01*
X255442172Y-54539988D01*
X255489537Y-54527521D01*
X255542412Y-54521588D01*
X255597956Y-54522669D01*
X255608651Y-54523715D01*
X255609459Y-54523871D01*
X255666091Y-54534771D01*
X255714757Y-54554023D01*
G37*
G36*
X255807574Y-52972992D02*
G01*
X255808797Y-52988387D01*
X255809450Y-53010526D01*
X255809508Y-53020065D01*
X255809508Y-53072909D01*
X255789190Y-53078448D01*
X255777570Y-53081600D01*
X255755818Y-53087486D01*
X255725876Y-53095582D01*
X255689684Y-53105362D01*
X255649181Y-53116303D01*
X255620435Y-53124065D01*
X255579525Y-53135233D01*
X255542938Y-53145456D01*
X255512306Y-53154258D01*
X255489259Y-53161165D01*
X255475427Y-53165701D01*
X255472083Y-53167270D01*
X255477815Y-53169908D01*
X255493960Y-53175805D01*
X255519011Y-53184449D01*
X255551458Y-53195330D01*
X255589793Y-53207936D01*
X255632509Y-53221757D01*
X255639276Y-53223927D01*
X255806382Y-53277459D01*
X255808236Y-53315839D01*
X255810089Y-53354219D01*
X255640998Y-53408897D01*
X255597772Y-53423066D01*
X255558953Y-53436158D01*
X255525982Y-53447658D01*
X255500304Y-53457048D01*
X255483362Y-53463813D01*
X255476600Y-53467434D01*
X255476605Y-53467744D01*
X255483686Y-53470441D01*
X255501194Y-53475879D01*
X255527476Y-53483581D01*
X255560876Y-53493070D01*
X255599740Y-53503867D01*
X255637591Y-53514192D01*
X255680120Y-53525730D01*
X255718851Y-53536300D01*
X255752087Y-53545434D01*
X255778133Y-53552664D01*
X255795293Y-53557522D01*
X255801694Y-53559463D01*
X255806047Y-53566500D01*
X255808610Y-53584142D01*
X255809505Y-53613263D01*
X255809508Y-53615593D01*
X255809023Y-53642597D01*
X255807405Y-53658722D01*
X255804405Y-53665557D01*
X255801694Y-53665810D01*
X255793495Y-53663068D01*
X255775388Y-53657194D01*
X255749382Y-53648836D01*
X255717487Y-53638638D01*
X255681712Y-53627248D01*
X255681351Y-53627133D01*
X255637474Y-53613173D01*
X255586233Y-53596840D01*
X255532168Y-53579585D01*
X255479820Y-53562855D01*
X255442230Y-53550824D01*
X255315636Y-53510272D01*
X255315636Y-53420124D01*
X255481685Y-53370625D01*
X255525068Y-53357580D01*
X255564399Y-53345537D01*
X255598120Y-53334992D01*
X255624675Y-53326436D01*
X255642508Y-53320366D01*
X255650062Y-53317274D01*
X255650194Y-53317145D01*
X255645101Y-53314412D01*
X255629496Y-53308679D01*
X255604872Y-53300431D01*
X255572724Y-53290155D01*
X255534546Y-53278337D01*
X255491834Y-53265463D01*
X255485709Y-53263643D01*
X255318762Y-53214123D01*
X255316924Y-53168726D01*
X255316634Y-53142579D01*
X255318508Y-53127095D01*
X255322763Y-53120583D01*
X255323175Y-53120413D01*
X255333056Y-53117099D01*
X255352800Y-53110681D01*
X255380865Y-53101648D01*
X255415711Y-53090488D01*
X255455796Y-53077692D01*
X255499579Y-53063747D01*
X255545520Y-53049143D01*
X255592077Y-53034369D01*
X255637710Y-53019913D01*
X255680877Y-53006265D01*
X255720038Y-52993914D01*
X255753651Y-52983348D01*
X255780176Y-52975056D01*
X255798071Y-52969528D01*
X255805795Y-52967252D01*
X255805971Y-52967221D01*
X255807574Y-52972992D01*
G37*
G36*
X256597202Y-52260797D02*
G01*
X256572196Y-52260797D01*
X256554371Y-52262096D01*
X256548304Y-52266851D01*
X256553500Y-52276349D01*
X256562661Y-52285655D01*
X256581817Y-52311534D01*
X256594200Y-52344838D01*
X256599428Y-52382247D01*
X256597118Y-52420442D01*
X256586888Y-52456102D01*
X256583181Y-52463972D01*
X256560816Y-52498855D01*
X256532975Y-52524806D01*
X256500303Y-52543344D01*
X256490870Y-52547470D01*
X256481459Y-52550745D01*
X256470514Y-52553289D01*
X256456476Y-52555218D01*
X256437789Y-52556651D01*
X256412896Y-52557704D01*
X256380241Y-52558497D01*
X256338265Y-52559146D01*
X256285413Y-52559770D01*
X256282801Y-52559799D01*
X256096557Y-52561853D01*
X256098381Y-52509787D01*
X256100204Y-52457720D01*
X256268996Y-52454595D01*
X256320105Y-52453575D01*
X256360259Y-52452549D01*
X256391003Y-52451394D01*
X256413884Y-52449989D01*
X256430449Y-52448209D01*
X256442245Y-52445933D01*
X256450818Y-52443038D01*
X256457258Y-52439681D01*
X256480159Y-52419871D01*
X256493235Y-52393501D01*
X256497177Y-52361109D01*
X256493386Y-52327441D01*
X256481214Y-52301657D01*
X256459463Y-52281404D01*
X256455131Y-52278592D01*
X256447657Y-52274193D01*
X256440006Y-52270752D01*
X256430580Y-52268127D01*
X256417778Y-52266179D01*
X256400000Y-52264768D01*
X256375645Y-52263755D01*
X256343114Y-52262999D01*
X256300807Y-52262361D01*
X256264307Y-52261906D01*
X256097079Y-52259890D01*
X256097079Y-52160772D01*
X256597202Y-52160772D01*
X256597202Y-52260797D01*
G37*
G36*
X256397868Y-54634978D02*
G01*
X256454532Y-54648010D01*
X256501832Y-54669298D01*
X256539909Y-54698973D01*
X256568903Y-54737166D01*
X256588953Y-54784008D01*
X256597762Y-54822129D01*
X256601310Y-54849430D01*
X256601153Y-54871509D01*
X256597027Y-54895168D01*
X256594557Y-54905236D01*
X256580114Y-54945930D01*
X256559249Y-54984014D01*
X256534575Y-55014813D01*
X256531746Y-55017551D01*
X256520739Y-55027071D01*
X256513521Y-55028440D01*
X256504856Y-55022160D01*
X256502805Y-55020316D01*
X256490574Y-55007847D01*
X256475961Y-54991083D01*
X256471303Y-54985342D01*
X256453058Y-54962336D01*
X256473364Y-54933527D01*
X256485246Y-54914529D01*
X256491914Y-54896578D01*
X256495171Y-54874017D01*
X256495904Y-54862761D01*
X256494014Y-54822789D01*
X256483200Y-54790968D01*
X256462845Y-54766104D01*
X256437426Y-54749468D01*
X256420369Y-54741785D01*
X256403772Y-54737075D01*
X256383666Y-54734651D01*
X256356085Y-54733823D01*
X256347140Y-54733784D01*
X256316382Y-54734284D01*
X256294178Y-54736301D01*
X256276609Y-54740469D01*
X256259756Y-54747424D01*
X256258175Y-54748192D01*
X256229736Y-54768541D01*
X256209651Y-54796235D01*
X256198328Y-54828967D01*
X256196169Y-54864431D01*
X256203583Y-54900322D01*
X256220973Y-54934332D01*
X256224577Y-54939273D01*
X256241704Y-54961728D01*
X256223218Y-54985038D01*
X256208956Y-55002005D01*
X256195342Y-55016622D01*
X256191541Y-55020257D01*
X256181487Y-55028232D01*
X256174192Y-55027684D01*
X256165118Y-55020257D01*
X256143253Y-54995455D01*
X256122727Y-54963092D01*
X256106462Y-54928013D01*
X256102381Y-54916201D01*
X256094926Y-54887901D01*
X256092092Y-54862670D01*
X256093606Y-54834978D01*
X256097133Y-54810997D01*
X256108229Y-54773084D01*
X256127423Y-54734798D01*
X256151800Y-54701687D01*
X256157938Y-54695283D01*
X256193646Y-54668355D01*
X256237894Y-54648320D01*
X256288442Y-54635743D01*
X256343048Y-54631187D01*
X256397868Y-54634978D01*
G37*
G36*
X256480899Y-51693894D02*
G01*
X256521927Y-51715798D01*
X256546712Y-51736152D01*
X256574218Y-51772052D01*
X256591857Y-51813372D01*
X256599668Y-51857907D01*
X256597688Y-51903448D01*
X256585956Y-51947787D01*
X256564511Y-51988717D01*
X256541835Y-52016090D01*
X256509241Y-52042648D01*
X256471406Y-52061600D01*
X256426593Y-52073514D01*
X256373070Y-52078960D01*
X256348703Y-52079455D01*
X256309631Y-52079502D01*
X256309631Y-51767238D01*
X256390901Y-51767238D01*
X256390901Y-51973226D01*
X256408672Y-51973226D01*
X256432821Y-51968339D01*
X256458365Y-51955667D01*
X256480347Y-51938195D01*
X256491830Y-51923156D01*
X256501506Y-51894414D01*
X256503259Y-51862499D01*
X256497206Y-51832371D01*
X256489280Y-51816299D01*
X256467403Y-51794016D01*
X256436639Y-51777796D01*
X256411219Y-51770906D01*
X256390901Y-51767238D01*
X256309631Y-51767238D01*
X256309631Y-51766359D01*
X256286188Y-51770532D01*
X256250330Y-51781862D01*
X256221969Y-51801116D01*
X256203355Y-51826314D01*
X256192361Y-51862809D01*
X256192166Y-51902307D01*
X256202408Y-51942179D01*
X256222725Y-51979796D01*
X256224948Y-51982864D01*
X256229212Y-51990121D01*
X256229158Y-51997438D01*
X256223638Y-52007584D01*
X256211506Y-52023330D01*
X256204815Y-52031488D01*
X256175223Y-52067349D01*
X256149034Y-52038857D01*
X256131993Y-52016872D01*
X256116938Y-51991673D01*
X256110624Y-51977701D01*
X256100886Y-51942580D01*
X256095234Y-51902941D01*
X256094189Y-51864307D01*
X256097285Y-51836516D01*
X256111126Y-51793452D01*
X256133051Y-51754373D01*
X256152557Y-51731209D01*
X256187270Y-51705244D01*
X256230000Y-51686207D01*
X256278375Y-51674068D01*
X256330025Y-51668797D01*
X256382576Y-51670364D01*
X256390901Y-51671729D01*
X256433658Y-51678740D01*
X256480899Y-51693894D01*
G37*
G36*
X255559446Y-52520236D02*
G01*
X255610568Y-52520534D01*
X255651045Y-52521735D01*
X255682730Y-52524295D01*
X255707472Y-52528671D01*
X255727123Y-52535322D01*
X255743535Y-52544704D01*
X255758557Y-52557274D01*
X255773770Y-52573188D01*
X255797075Y-52604730D01*
X255810519Y-52638105D01*
X255815567Y-52677283D01*
X255815698Y-52686627D01*
X255812557Y-52714083D01*
X255804326Y-52743133D01*
X255792658Y-52769405D01*
X255779204Y-52788526D01*
X255776119Y-52791380D01*
X255767727Y-52800540D01*
X255765747Y-52805314D01*
X255771685Y-52807033D01*
X255788242Y-52808695D01*
X255813536Y-52810193D01*
X255845683Y-52811420D01*
X255882799Y-52812268D01*
X255889215Y-52812363D01*
X256012683Y-52814058D01*
X256014509Y-52862508D01*
X256016335Y-52910957D01*
X255315636Y-52910957D01*
X255315636Y-52810932D01*
X255337517Y-52810932D01*
X255353914Y-52809274D01*
X255358530Y-52803775D01*
X255351710Y-52793648D01*
X255347025Y-52789171D01*
X255334981Y-52772795D01*
X255323852Y-52748305D01*
X255315141Y-52720078D01*
X255312909Y-52707227D01*
X255410551Y-52707227D01*
X255414168Y-52738004D01*
X255422189Y-52758365D01*
X255432704Y-52776363D01*
X255445587Y-52789519D01*
X255462836Y-52798537D01*
X255486450Y-52804121D01*
X255518427Y-52806976D01*
X255560767Y-52807804D01*
X255562572Y-52807805D01*
X255597561Y-52807546D01*
X255622778Y-52806547D01*
X255640948Y-52804476D01*
X255654794Y-52801003D01*
X255667042Y-52795794D01*
X255668848Y-52794875D01*
X255692769Y-52776249D01*
X255708335Y-52751259D01*
X255715514Y-52722662D01*
X255714276Y-52693212D01*
X255704589Y-52665665D01*
X255686422Y-52642776D01*
X255670688Y-52632028D01*
X255651098Y-52625445D01*
X255621000Y-52620862D01*
X255585362Y-52618372D01*
X255532514Y-52618056D01*
X255490448Y-52622603D01*
X255458315Y-52632300D01*
X255435260Y-52647431D01*
X255420434Y-52668281D01*
X255417903Y-52674451D01*
X255410551Y-52707227D01*
X255312909Y-52707227D01*
X255310349Y-52692487D01*
X255309878Y-52680978D01*
X255312317Y-52656154D01*
X255317757Y-52631202D01*
X255319495Y-52625795D01*
X255336865Y-52592657D01*
X255362995Y-52562302D01*
X255394209Y-52538805D01*
X255401612Y-52534851D01*
X255412276Y-52529907D01*
X255422709Y-52526223D01*
X255434905Y-52523615D01*
X255450857Y-52521897D01*
X255472558Y-52520886D01*
X255502001Y-52520396D01*
X255532514Y-52520278D01*
X255541180Y-52520244D01*
X255559446Y-52520236D01*
G37*
G36*
X255809508Y-52279552D02*
G01*
X255758521Y-52279552D01*
X255779885Y-52304510D01*
X255802091Y-52339677D01*
X255814035Y-52379812D01*
X255815412Y-52422320D01*
X255805916Y-52464604D01*
X255800357Y-52478038D01*
X255791303Y-52495721D01*
X255783629Y-52507637D01*
X255779897Y-52510859D01*
X255773044Y-52507110D01*
X255759200Y-52497104D01*
X255740884Y-52482699D01*
X255732975Y-52476211D01*
X255691234Y-52441564D01*
X255703461Y-52421510D01*
X255714677Y-52392073D01*
X255714970Y-52361339D01*
X255705192Y-52332211D01*
X255686193Y-52307596D01*
X255665961Y-52293618D01*
X255656938Y-52289326D01*
X255647864Y-52286009D01*
X255637057Y-52283541D01*
X255622835Y-52281797D01*
X255603517Y-52280651D01*
X255577421Y-52279980D01*
X255542865Y-52279657D01*
X255498167Y-52279557D01*
X255476852Y-52279552D01*
X255315636Y-52279552D01*
X255315636Y-52179527D01*
X255809508Y-52179527D01*
X255809508Y-52279552D01*
G37*
G36*
X256390528Y-55062238D02*
G01*
X256390901Y-55062278D01*
X256420506Y-55065460D01*
X256428463Y-55066994D01*
X256481505Y-55084106D01*
X256525220Y-55109239D01*
X256559367Y-55142169D01*
X256583709Y-55182671D01*
X256597005Y-55225267D01*
X256600800Y-55274392D01*
X256592523Y-55322096D01*
X256572606Y-55366916D01*
X256544211Y-55404516D01*
X256518929Y-55428249D01*
X256492549Y-55445270D01*
X256462269Y-55456639D01*
X256425282Y-55463417D01*
X256379961Y-55466622D01*
X256309631Y-55469186D01*
X256309631Y-55369203D01*
X256390901Y-55369203D01*
X256414344Y-55364909D01*
X256450287Y-55353114D01*
X256477689Y-55333028D01*
X256495641Y-55305667D01*
X256503232Y-55272051D01*
X256503429Y-55265202D01*
X256500380Y-55236697D01*
X256492302Y-55212480D01*
X256491830Y-55211581D01*
X256476067Y-55192437D01*
X256452876Y-55175765D01*
X256427214Y-55164550D01*
X256408672Y-55161511D01*
X256390901Y-55161511D01*
X256390901Y-55369203D01*
X256309631Y-55369203D01*
X256309631Y-55161511D01*
X256292201Y-55161511D01*
X256270856Y-55165703D01*
X256246177Y-55176490D01*
X256223210Y-55191184D01*
X256207252Y-55206750D01*
X256198445Y-55226254D01*
X256193044Y-55253149D01*
X256191487Y-55282681D01*
X256194214Y-55310095D01*
X256196783Y-55319955D01*
X256205376Y-55340103D01*
X256217150Y-55361265D01*
X256219476Y-55364816D01*
X256234831Y-55387443D01*
X256205830Y-55421388D01*
X256190902Y-55438093D01*
X256178821Y-55450211D01*
X256172034Y-55455302D01*
X256171793Y-55455333D01*
X256165132Y-55450910D01*
X256154118Y-55439731D01*
X256148553Y-55433250D01*
X256119059Y-55387918D01*
X256100213Y-55337452D01*
X256092574Y-55284105D01*
X256096705Y-55230130D01*
X256097292Y-55227152D01*
X256112926Y-55178788D01*
X256138376Y-55138048D01*
X256173276Y-55105298D01*
X256217259Y-55080903D01*
X256256031Y-55068300D01*
X256282621Y-55064012D01*
X256316975Y-55061549D01*
X256354481Y-55060946D01*
X256390528Y-55062238D01*
G37*
G36*
X256597202Y-51304312D02*
G01*
X256548035Y-51304312D01*
X256568930Y-51335362D01*
X256589453Y-51375543D01*
X256599108Y-51417145D01*
X256598486Y-51458346D01*
X256588179Y-51497328D01*
X256568778Y-51532270D01*
X256540875Y-51561352D01*
X256505061Y-51582756D01*
X256486332Y-51589452D01*
X256463483Y-51593827D01*
X256431246Y-51596986D01*
X256392666Y-51598928D01*
X256350791Y-51599651D01*
X256308667Y-51599156D01*
X256269339Y-51597441D01*
X256235854Y-51594505D01*
X256211258Y-51590348D01*
X256208237Y-51589536D01*
X256169254Y-51572086D01*
X256137130Y-51545496D01*
X256113028Y-51511758D01*
X256098113Y-51472864D01*
X256093549Y-51430806D01*
X256095853Y-51411777D01*
X256195873Y-51411777D01*
X256201520Y-51441244D01*
X256209571Y-51458309D01*
X256219927Y-51471924D01*
X256232653Y-51481790D01*
X256249807Y-51488468D01*
X256273444Y-51492518D01*
X256305620Y-51494502D01*
X256344014Y-51494984D01*
X256381276Y-51494699D01*
X256408486Y-51493677D01*
X256428084Y-51491669D01*
X256442511Y-51488425D01*
X256454172Y-51483714D01*
X256477086Y-51467298D01*
X256490936Y-51444605D01*
X256496404Y-51414142D01*
X256495968Y-51391847D01*
X256493664Y-51369125D01*
X256489628Y-51354522D01*
X256482041Y-51343655D01*
X256472306Y-51334800D01*
X256447291Y-51320484D01*
X256413870Y-51310551D01*
X256375185Y-51305021D01*
X256334377Y-51303912D01*
X256294586Y-51307243D01*
X256258954Y-51315033D01*
X256230621Y-51327301D01*
X256222236Y-51333296D01*
X256206628Y-51353881D01*
X256197707Y-51381349D01*
X256195873Y-51411777D01*
X256095853Y-51411777D01*
X256097307Y-51399771D01*
X256104673Y-51377560D01*
X256116567Y-51352338D01*
X256125557Y-51337132D01*
X256147219Y-51304312D01*
X255956114Y-51304312D01*
X255900388Y-51304410D01*
X255856107Y-51304734D01*
X255822215Y-51305329D01*
X255797654Y-51306239D01*
X255781369Y-51307508D01*
X255772302Y-51309180D01*
X255769398Y-51311299D01*
X255769624Y-51312126D01*
X255776254Y-51322225D01*
X255786414Y-51336666D01*
X255787884Y-51338695D01*
X255806570Y-51374462D01*
X255815343Y-51414609D01*
X255814434Y-51456208D01*
X255804073Y-51496329D01*
X255784492Y-51532044D01*
X255771443Y-51547206D01*
X255758540Y-51559897D01*
X255746874Y-51570116D01*
X255734946Y-51578145D01*
X255721256Y-51584265D01*
X255704306Y-51588760D01*
X255682596Y-51591912D01*
X255654627Y-51594002D01*
X255618900Y-51595314D01*
X255573915Y-51596129D01*
X255518173Y-51596729D01*
X255507871Y-51596827D01*
X255315636Y-51598646D01*
X255315636Y-51498109D01*
X255479739Y-51498100D01*
X255534005Y-51497966D01*
X255577279Y-51497397D01*
X255611073Y-51496127D01*
X255636897Y-51493893D01*
X255656262Y-51490429D01*
X255670678Y-51485472D01*
X255681656Y-51478756D01*
X255690706Y-51470018D01*
X255698786Y-51459751D01*
X255711675Y-51432380D01*
X255714938Y-51401479D01*
X255709229Y-51370488D01*
X255695201Y-51342851D01*
X255673506Y-51322008D01*
X255672539Y-51321397D01*
X255665294Y-51317203D01*
X255657588Y-51313920D01*
X255647828Y-51311413D01*
X255634423Y-51309549D01*
X255615778Y-51308195D01*
X255590303Y-51307217D01*
X255556403Y-51306481D01*
X255512488Y-51305855D01*
X255482865Y-51305502D01*
X255315636Y-51303566D01*
X255315636Y-51204287D01*
X256597202Y-51204287D01*
X256597202Y-51304312D01*
G37*
G36*
X255809508Y-54286295D02*
G01*
X255765111Y-54286295D01*
X255781790Y-54308163D01*
X255803244Y-54346140D01*
X255814200Y-54388323D01*
X255814609Y-54432050D01*
X255804421Y-54474657D01*
X255785574Y-54510685D01*
X255780717Y-54513377D01*
X255772121Y-54510490D01*
X255758008Y-54501049D01*
X255736603Y-54484080D01*
X255735654Y-54483301D01*
X255691779Y-54447206D01*
X255704538Y-54422728D01*
X255714475Y-54391401D01*
X255713247Y-54359879D01*
X255701708Y-54330887D01*
X255680710Y-54307153D01*
X255665278Y-54297245D01*
X255657405Y-54293882D01*
X255647526Y-54291277D01*
X255634056Y-54289335D01*
X255615409Y-54287964D01*
X255590000Y-54287070D01*
X255556243Y-54286559D01*
X255512554Y-54286338D01*
X255479739Y-54286305D01*
X255315636Y-54286295D01*
X255315636Y-54186271D01*
X255809508Y-54186271D01*
X255809508Y-54286295D01*
G37*
G36*
X258716400Y-51255862D02*
G01*
X258718875Y-51265116D01*
X258723287Y-51285181D01*
X258729340Y-51314568D01*
X258736736Y-51351787D01*
X258745180Y-51395347D01*
X258754374Y-51443759D01*
X258763301Y-51491618D01*
X258772992Y-51543136D01*
X258782335Y-51591120D01*
X258791018Y-51634090D01*
X258798729Y-51670567D01*
X258805154Y-51699070D01*
X258809983Y-51718119D01*
X258812765Y-51726051D01*
X258820634Y-51731787D01*
X258838324Y-51741377D01*
X258864042Y-51754044D01*
X258895996Y-51769012D01*
X258932391Y-51785504D01*
X258971436Y-51802744D01*
X259011337Y-51819955D01*
X259050301Y-51836360D01*
X259086535Y-51851183D01*
X259118247Y-51863648D01*
X259143643Y-51872978D01*
X259160930Y-51878397D01*
X259166961Y-51879453D01*
X259177169Y-51875739D01*
X259197301Y-51864645D01*
X259227244Y-51846244D01*
X259266884Y-51820608D01*
X259316104Y-51787810D01*
X259374792Y-51747922D01*
X259378991Y-51745045D01*
X259423348Y-51714863D01*
X259464857Y-51687045D01*
X259502307Y-51662372D01*
X259534490Y-51641622D01*
X259560195Y-51625573D01*
X259578213Y-51615005D01*
X259587333Y-51610697D01*
X259587801Y-51610637D01*
X259594756Y-51614916D01*
X259609246Y-51626968D01*
X259630076Y-51645619D01*
X259656050Y-51669693D01*
X259685970Y-51698016D01*
X259718641Y-51729412D01*
X259752866Y-51762706D01*
X259787450Y-51796722D01*
X259821196Y-51830287D01*
X259852907Y-51862224D01*
X259881389Y-51891359D01*
X259905443Y-51916516D01*
X259923875Y-51936520D01*
X259935488Y-51950196D01*
X259939033Y-51955682D01*
X259940115Y-51959344D01*
X259940459Y-51963143D01*
X259939451Y-51968065D01*
X259936477Y-51975096D01*
X259930921Y-51985224D01*
X259922169Y-51999434D01*
X259909607Y-52018712D01*
X259892619Y-52044047D01*
X259870591Y-52076424D01*
X259842909Y-52116830D01*
X259808958Y-52166252D01*
X259797030Y-52183606D01*
X259758142Y-52240558D01*
X259726418Y-52287848D01*
X259701604Y-52325878D01*
X259683446Y-52355052D01*
X259671689Y-52375772D01*
X259666078Y-52388440D01*
X259665495Y-52391797D01*
X259668014Y-52401764D01*
X259674707Y-52421254D01*
X259684814Y-52448412D01*
X259697575Y-52481379D01*
X259712228Y-52518298D01*
X259728013Y-52557311D01*
X259744168Y-52596561D01*
X259759934Y-52634190D01*
X259774549Y-52668340D01*
X259787252Y-52697153D01*
X259797284Y-52718773D01*
X259803882Y-52731342D01*
X259805409Y-52733437D01*
X259813218Y-52736367D01*
X259831942Y-52741213D01*
X259860188Y-52747680D01*
X259896564Y-52755470D01*
X259939680Y-52764288D01*
X259988144Y-52773836D01*
X260040564Y-52783818D01*
X260049892Y-52785559D01*
X260103043Y-52795562D01*
X260152651Y-52805106D01*
X260197294Y-52813901D01*
X260235550Y-52821659D01*
X260265998Y-52828091D01*
X260287217Y-52832906D01*
X260297783Y-52835818D01*
X260298390Y-52836087D01*
X260301465Y-52838149D01*
X260303976Y-52841509D01*
X260305981Y-52847345D01*
X260307536Y-52856837D01*
X260308698Y-52871166D01*
X260309524Y-52891510D01*
X260310072Y-52919048D01*
X260310397Y-52954962D01*
X260310558Y-53000430D01*
X260310612Y-53056631D01*
X260310615Y-53089126D01*
X260310594Y-53151147D01*
X260310492Y-53201844D01*
X260310252Y-53242396D01*
X260309819Y-53273982D01*
X260309136Y-53297781D01*
X260308146Y-53314972D01*
X260306793Y-53326734D01*
X260305020Y-53334246D01*
X260302772Y-53338686D01*
X260299990Y-53341235D01*
X260298495Y-53342108D01*
X260289790Y-53344678D01*
X260270205Y-53349204D01*
X260241161Y-53355398D01*
X260204079Y-53362971D01*
X260160379Y-53371633D01*
X260111480Y-53381095D01*
X260058804Y-53391068D01*
X260049996Y-53392715D01*
X259997033Y-53402763D01*
X259947791Y-53412416D01*
X259903661Y-53421379D01*
X259866032Y-53429355D01*
X259836295Y-53436050D01*
X259815839Y-53441165D01*
X259806054Y-53444407D01*
X259805543Y-53444759D01*
X259800594Y-53453050D01*
X259791897Y-53471149D01*
X259780212Y-53497202D01*
X259766300Y-53529352D01*
X259750921Y-53565746D01*
X259734834Y-53604530D01*
X259718800Y-53643848D01*
X259703578Y-53681846D01*
X259689929Y-53716669D01*
X259678613Y-53746463D01*
X259670389Y-53769374D01*
X259666019Y-53783546D01*
X259665515Y-53786449D01*
X259668217Y-53795327D01*
X259676907Y-53812018D01*
X259691842Y-53836931D01*
X259713281Y-53870477D01*
X259741483Y-53913064D01*
X259776706Y-53965103D01*
X259797399Y-53995329D01*
X259833359Y-54047697D01*
X259862866Y-54090738D01*
X259886535Y-54125437D01*
X259904981Y-54152782D01*
X259918819Y-54173759D01*
X259928664Y-54189353D01*
X259935130Y-54200552D01*
X259938831Y-54208342D01*
X259940384Y-54213709D01*
X259940403Y-54217639D01*
X259939501Y-54221120D01*
X259939033Y-54222570D01*
X259933500Y-54230560D01*
X259920225Y-54245784D01*
X259900404Y-54267068D01*
X259875233Y-54293237D01*
X259845908Y-54323115D01*
X259813627Y-54355527D01*
X259779585Y-54389298D01*
X259744977Y-54423254D01*
X259711001Y-54456218D01*
X259678853Y-54487015D01*
X259649729Y-54514472D01*
X259624824Y-54537411D01*
X259605336Y-54554659D01*
X259592461Y-54565040D01*
X259587801Y-54567615D01*
X259579924Y-54564175D01*
X259562992Y-54554375D01*
X259538216Y-54538993D01*
X259506805Y-54518809D01*
X259469969Y-54494600D01*
X259428918Y-54467147D01*
X259384862Y-54437227D01*
X259378991Y-54433207D01*
X259319683Y-54392854D01*
X259269835Y-54359586D01*
X259229560Y-54333476D01*
X259198974Y-54314595D01*
X259178191Y-54303018D01*
X259167326Y-54298815D01*
X259166961Y-54298798D01*
X259155891Y-54301265D01*
X259135549Y-54308147D01*
X259107729Y-54318667D01*
X259074224Y-54332049D01*
X259036826Y-54347517D01*
X258997328Y-54364294D01*
X258957524Y-54381604D01*
X258919206Y-54398669D01*
X258884167Y-54414714D01*
X258854201Y-54428962D01*
X258831100Y-54440636D01*
X258816657Y-54448960D01*
X258812765Y-54452200D01*
X258809699Y-54461142D01*
X258804747Y-54480912D01*
X258798220Y-54510031D01*
X258790430Y-54547017D01*
X258781689Y-54590392D01*
X258772311Y-54638676D01*
X258763301Y-54686633D01*
X258753675Y-54738208D01*
X258744526Y-54786311D01*
X258736149Y-54829453D01*
X258728842Y-54866144D01*
X258722901Y-54894892D01*
X258718622Y-54914209D01*
X258716400Y-54922389D01*
X258710490Y-54936455D01*
X258460963Y-54936455D01*
X258398356Y-54936424D01*
X258347097Y-54936298D01*
X258306031Y-54936026D01*
X258274003Y-54935559D01*
X258249856Y-54934848D01*
X258232437Y-54933842D01*
X258220591Y-54932492D01*
X258213161Y-54930748D01*
X258208993Y-54928561D01*
X258206931Y-54925881D01*
X258206767Y-54925515D01*
X258204572Y-54917027D01*
X258200385Y-54897696D01*
X258194496Y-54868973D01*
X258187194Y-54832310D01*
X258178767Y-54789156D01*
X258169504Y-54740964D01*
X258159827Y-54689886D01*
X258147927Y-54627302D01*
X258137894Y-54576124D01*
X258129520Y-54535429D01*
X258122594Y-54504294D01*
X258116905Y-54481796D01*
X258112243Y-54467011D01*
X258108399Y-54459017D01*
X258106892Y-54457399D01*
X258098552Y-54453171D01*
X258080125Y-54444987D01*
X258053150Y-54433493D01*
X258019164Y-54419333D01*
X257979706Y-54403154D01*
X257936316Y-54385600D01*
X257921750Y-54379757D01*
X257863610Y-54356766D01*
X257816435Y-54338743D01*
X257779785Y-54325535D01*
X257753220Y-54316988D01*
X257736299Y-54312947D01*
X257730187Y-54312675D01*
X257721180Y-54316784D01*
X257703223Y-54327228D01*
X257677609Y-54343175D01*
X257645634Y-54363791D01*
X257608591Y-54388245D01*
X257567774Y-54415704D01*
X257529999Y-54441526D01*
X257487254Y-54470757D01*
X257447443Y-54497592D01*
X257411808Y-54521223D01*
X257381589Y-54540844D01*
X257358028Y-54555648D01*
X257342365Y-54564828D01*
X257336052Y-54567615D01*
X257329372Y-54563317D01*
X257314935Y-54551062D01*
X257293754Y-54531804D01*
X257266842Y-54506498D01*
X257235210Y-54476098D01*
X257199870Y-54441561D01*
X257161835Y-54403840D01*
X257151657Y-54393656D01*
X257106638Y-54348398D01*
X257069860Y-54311083D01*
X257040610Y-54280928D01*
X257018173Y-54257149D01*
X257001839Y-54238962D01*
X256990894Y-54225583D01*
X256984624Y-54216229D01*
X256982319Y-54210115D01*
X256982542Y-54207673D01*
X256987025Y-54199838D01*
X256997771Y-54182983D01*
X257013934Y-54158375D01*
X257034670Y-54127281D01*
X257059135Y-54090970D01*
X257086486Y-54050708D01*
X257110918Y-54014985D01*
X257139872Y-53972442D01*
X257166426Y-53932776D01*
X257189768Y-53897250D01*
X257209085Y-53867128D01*
X257223566Y-53843673D01*
X257232399Y-53828149D01*
X257234859Y-53822152D01*
X257232010Y-53812529D01*
X257224173Y-53794245D01*
X257212409Y-53769579D01*
X257197781Y-53740814D01*
X257190872Y-53727747D01*
X257175480Y-53698011D01*
X257162687Y-53671454D01*
X257153506Y-53650329D01*
X257148953Y-53636887D01*
X257148675Y-53633996D01*
X257151548Y-53630606D01*
X257159815Y-53625281D01*
X257174121Y-53617738D01*
X257195112Y-53607691D01*
X257223431Y-53594857D01*
X257259724Y-53578951D01*
X257304635Y-53559691D01*
X257358810Y-53536790D01*
X257422893Y-53509967D01*
X257497528Y-53478935D01*
X257549551Y-53457390D01*
X257616657Y-53429701D01*
X257680566Y-53403469D01*
X257740311Y-53379081D01*
X257794924Y-53356927D01*
X257843439Y-53337393D01*
X257884889Y-53320869D01*
X257918306Y-53307743D01*
X257942724Y-53298403D01*
X257957176Y-53293237D01*
X257960727Y-53292301D01*
X257972153Y-53297759D01*
X257985679Y-53312657D01*
X257989933Y-53318870D01*
X258001868Y-53336656D01*
X258018207Y-53360060D01*
X258035869Y-53384684D01*
X258040040Y-53390392D01*
X258092039Y-53451133D01*
X258151158Y-53502184D01*
X258216223Y-53543213D01*
X258286061Y-53573886D01*
X258359499Y-53593874D01*
X258435364Y-53602842D01*
X258512484Y-53600458D01*
X258589686Y-53586391D01*
X258655316Y-53564669D01*
X258698189Y-53545103D01*
X258736814Y-53522112D01*
X258774515Y-53493393D01*
X258814614Y-53456644D01*
X258822752Y-53448589D01*
X258872007Y-53393189D01*
X258910467Y-53335487D01*
X258939827Y-53272639D01*
X258955130Y-53226660D01*
X258964435Y-53181965D01*
X258969579Y-53129790D01*
X258970561Y-53074444D01*
X258967381Y-53020236D01*
X258960039Y-52971475D01*
X258955130Y-52951592D01*
X258927673Y-52877943D01*
X258889896Y-52809930D01*
X258842881Y-52748567D01*
X258787714Y-52694869D01*
X258725477Y-52649850D01*
X258657255Y-52614525D01*
X258584130Y-52589907D01*
X258563712Y-52585233D01*
X258485159Y-52575205D01*
X258407237Y-52577194D01*
X258331169Y-52590726D01*
X258258175Y-52615328D01*
X258189480Y-52650528D01*
X258126304Y-52695853D01*
X258069869Y-52750829D01*
X258040040Y-52787860D01*
X258022522Y-52812114D01*
X258005575Y-52836222D01*
X257992279Y-52855788D01*
X257989933Y-52859382D01*
X257976250Y-52876766D01*
X257963910Y-52885398D01*
X257960727Y-52885951D01*
X257953046Y-52883612D01*
X257934790Y-52876855D01*
X257906925Y-52866067D01*
X257870420Y-52851637D01*
X257826240Y-52833953D01*
X257775353Y-52813403D01*
X257718727Y-52790376D01*
X257657327Y-52765260D01*
X257592120Y-52738443D01*
X257549551Y-52720862D01*
X257468027Y-52687071D01*
X257397457Y-52657664D01*
X257337196Y-52632357D01*
X257286600Y-52610866D01*
X257245023Y-52592907D01*
X257211821Y-52578197D01*
X257186349Y-52566450D01*
X257167961Y-52557383D01*
X257156014Y-52550712D01*
X257149862Y-52546152D01*
X257148675Y-52544256D01*
X257150883Y-52534888D01*
X257158162Y-52516850D01*
X257169498Y-52492394D01*
X257183877Y-52463773D01*
X257190872Y-52450504D01*
X257206406Y-52420676D01*
X257219532Y-52393967D01*
X257229188Y-52372659D01*
X257234313Y-52359031D01*
X257234859Y-52356100D01*
X257231421Y-52348246D01*
X257221650Y-52331396D01*
X257206358Y-52306813D01*
X257186356Y-52275761D01*
X257162458Y-52239503D01*
X257135474Y-52199302D01*
X257110918Y-52163267D01*
X257081807Y-52120677D01*
X257054875Y-52080980D01*
X257030967Y-52045443D01*
X257010927Y-52015333D01*
X256995600Y-51991918D01*
X256985831Y-51976464D01*
X256982542Y-51970578D01*
X256982810Y-51966034D01*
X256986613Y-51958720D01*
X256994664Y-51947852D01*
X257007676Y-51932647D01*
X257026362Y-51912321D01*
X257051434Y-51886090D01*
X257083605Y-51853169D01*
X257123588Y-51812776D01*
X257151657Y-51784595D01*
X257190225Y-51746205D01*
X257226361Y-51710750D01*
X257259052Y-51679186D01*
X257287285Y-51652468D01*
X257310050Y-51631549D01*
X257326332Y-51617386D01*
X257335121Y-51610934D01*
X257336052Y-51610637D01*
X257343566Y-51614080D01*
X257360093Y-51623871D01*
X257384391Y-51639204D01*
X257415219Y-51659271D01*
X257451338Y-51683266D01*
X257491505Y-51710383D01*
X257529999Y-51736726D01*
X257573056Y-51766129D01*
X257613471Y-51793256D01*
X257649950Y-51817274D01*
X257681198Y-51837351D01*
X257705922Y-51852653D01*
X257722827Y-51862348D01*
X257730187Y-51865576D01*
X257740961Y-51864435D01*
X257761089Y-51858889D01*
X257791010Y-51848786D01*
X257831164Y-51833969D01*
X257881992Y-51814286D01*
X257921750Y-51798495D01*
X257966080Y-51780635D01*
X258006973Y-51763942D01*
X258042890Y-51749062D01*
X258072292Y-51736638D01*
X258093642Y-51727317D01*
X258105400Y-51721744D01*
X258106892Y-51720853D01*
X258110440Y-51715591D01*
X258114711Y-51703950D01*
X258119915Y-51685007D01*
X258126264Y-51657839D01*
X258133966Y-51621523D01*
X258143233Y-51575136D01*
X258154274Y-51517755D01*
X258159827Y-51488366D01*
X258169631Y-51436623D01*
X258178884Y-51388488D01*
X258187298Y-51345411D01*
X258194584Y-51308843D01*
X258200453Y-51280235D01*
X258204615Y-51261039D01*
X258206767Y-51252736D01*
X258208649Y-51249992D01*
X258212496Y-51247747D01*
X258219463Y-51245952D01*
X258230705Y-51244556D01*
X258247377Y-51243511D01*
X258270634Y-51242766D01*
X258301632Y-51242272D01*
X258341526Y-51241979D01*
X258391470Y-51241837D01*
X258452620Y-51241797D01*
X258460963Y-51241796D01*
X258710490Y-51241796D01*
X258716400Y-51255862D01*
G37*
G36*
X255504269Y-53682160D02*
G01*
X255541339Y-53699204D01*
X255571539Y-53726470D01*
X255593127Y-53761166D01*
X255598482Y-53774641D01*
X255602335Y-53789849D01*
X255605008Y-53809330D01*
X255606822Y-53835625D01*
X255608099Y-53871272D01*
X255608361Y-53881508D01*
X255610605Y-53973718D01*
X255646849Y-53973718D01*
X255673646Y-53971906D01*
X255691014Y-53966080D01*
X255695584Y-53962778D01*
X255709339Y-53943483D01*
X255718157Y-53916317D01*
X255722050Y-53884722D01*
X255721030Y-53852142D01*
X255715110Y-53822017D01*
X255704302Y-53797791D01*
X255694959Y-53787083D01*
X255690432Y-53781803D01*
X255690569Y-53775094D01*
X255696385Y-53764425D01*
X255708894Y-53747263D01*
X255713111Y-53741759D01*
X255727455Y-53723957D01*
X255739225Y-53710878D01*
X255746160Y-53705007D01*
X255746631Y-53704902D01*
X255756265Y-53710034D01*
X255769079Y-53723395D01*
X255782863Y-53741931D01*
X255795407Y-53762592D01*
X255804500Y-53782323D01*
X255806029Y-53786934D01*
X255812566Y-53820419D01*
X255815358Y-53860894D01*
X255814426Y-53903431D01*
X255809794Y-53943099D01*
X255805212Y-53963603D01*
X255791198Y-53996910D01*
X255769963Y-54026988D01*
X255744147Y-54050895D01*
X255716390Y-54065686D01*
X255712609Y-54066832D01*
X255698208Y-54068948D01*
X255672346Y-54070719D01*
X255636061Y-54072110D01*
X255590391Y-54073087D01*
X255536373Y-54073618D01*
X255501620Y-54073708D01*
X255315636Y-54073743D01*
X255315636Y-53973718D01*
X255354257Y-53973718D01*
X255338313Y-53954770D01*
X255325620Y-53935426D01*
X255316343Y-53914052D01*
X255315912Y-53912572D01*
X255310878Y-53881789D01*
X255310351Y-53857551D01*
X255405027Y-53857551D01*
X255405773Y-53881875D01*
X255408600Y-53907737D01*
X255412996Y-53930592D01*
X255418448Y-53945897D01*
X255418959Y-53946727D01*
X255434235Y-53962007D01*
X255456780Y-53970746D01*
X255488630Y-53973708D01*
X255491086Y-53973718D01*
X255521937Y-53973718D01*
X255521937Y-53895163D01*
X255521067Y-53852674D01*
X255517980Y-53821100D01*
X255511963Y-53798942D01*
X255502301Y-53784704D01*
X255488281Y-53776887D01*
X255469187Y-53773994D01*
X255464110Y-53773868D01*
X255439594Y-53778943D01*
X255421564Y-53793430D01*
X255412938Y-53812582D01*
X255409052Y-53830019D01*
X255406871Y-53839310D01*
X255405027Y-53857551D01*
X255310351Y-53857551D01*
X255310086Y-53845335D01*
X255313330Y-53809050D01*
X255320408Y-53778775D01*
X255320585Y-53778277D01*
X255340691Y-53738546D01*
X255368478Y-53707830D01*
X255402481Y-53686896D01*
X255441233Y-53676511D01*
X255464110Y-53677018D01*
X255483267Y-53677442D01*
X255504269Y-53682160D01*
G37*
G36*
X256189422Y-52834172D02*
G01*
X256201005Y-52845719D01*
X256215937Y-52862020D01*
X256217761Y-52864092D01*
X256247796Y-52898338D01*
X256228448Y-52926459D01*
X256206736Y-52964532D01*
X256194696Y-53003364D01*
X256190856Y-53047777D01*
X256190852Y-53049478D01*
X256193794Y-53090015D01*
X256202703Y-53119687D01*
X256217700Y-53138679D01*
X256238906Y-53147179D01*
X256254601Y-53147327D01*
X256269895Y-53143565D01*
X256281458Y-53134649D01*
X256290060Y-53118918D01*
X256296475Y-53094711D01*
X256301473Y-53060366D01*
X256303344Y-53042439D01*
X256310108Y-52991491D01*
X256319978Y-52951236D01*
X256333747Y-52920083D01*
X256352207Y-52896437D01*
X256376151Y-52878707D01*
X256387775Y-52872760D01*
X256410181Y-52865509D01*
X256435785Y-52861411D01*
X256443314Y-52861082D01*
X256487993Y-52866006D01*
X256525539Y-52881189D01*
X256555917Y-52906596D01*
X256579092Y-52942194D01*
X256595031Y-52987948D01*
X256600328Y-53014966D01*
X256601568Y-53041511D01*
X256599134Y-53074993D01*
X256593725Y-53110637D01*
X256586042Y-53143668D01*
X256578098Y-53166464D01*
X256566538Y-53190117D01*
X256554193Y-53211322D01*
X256542849Y-53227357D01*
X256534288Y-53235498D01*
X256532558Y-53235994D01*
X256525517Y-53232224D01*
X256511968Y-53222270D01*
X256494767Y-53208238D01*
X256493739Y-53207362D01*
X256460174Y-53178687D01*
X256479759Y-53143984D01*
X256492917Y-53113154D01*
X256501088Y-53078288D01*
X256503891Y-53043299D01*
X256500942Y-53012099D01*
X256494489Y-52993074D01*
X256479245Y-52973593D01*
X256460322Y-52963470D01*
X256440591Y-52962969D01*
X256422923Y-52972354D01*
X256412983Y-52985585D01*
X256407769Y-53000993D01*
X256403124Y-53023941D01*
X256400050Y-53049470D01*
X256400042Y-53049572D01*
X256394775Y-53101511D01*
X256387435Y-53142705D01*
X256377301Y-53174838D01*
X256363649Y-53199596D01*
X256345759Y-53218663D01*
X256322908Y-53233725D01*
X256320617Y-53234924D01*
X256288594Y-53246066D01*
X256252181Y-53250401D01*
X256216396Y-53247763D01*
X256188902Y-53239302D01*
X256157940Y-53217979D01*
X256132188Y-53186943D01*
X256112366Y-53148152D01*
X256099200Y-53103563D01*
X256093411Y-53055133D01*
X256095724Y-53004821D01*
X256097644Y-52992227D01*
X256103748Y-52967655D01*
X256113428Y-52939134D01*
X256122200Y-52918164D01*
X256134044Y-52895295D01*
X256147800Y-52872422D01*
X256161645Y-52852168D01*
X256173758Y-52837159D01*
X256182315Y-52830020D01*
X256183563Y-52829766D01*
X256189422Y-52834172D01*
G37*
G36*
X256444092Y-50717924D02*
G01*
X256479897Y-50728378D01*
X256510151Y-50744249D01*
X256537025Y-50766248D01*
X256546211Y-50775719D01*
X256574866Y-50815089D01*
X256592966Y-50858116D01*
X256600871Y-50903003D01*
X256598944Y-50947955D01*
X256587544Y-50991176D01*
X256567033Y-51030871D01*
X256537772Y-51065243D01*
X256500122Y-51092497D01*
X256480623Y-51101926D01*
X256455189Y-51109106D01*
X256420700Y-51114084D01*
X256380405Y-51116863D01*
X256337557Y-51117445D01*
X256295405Y-51115834D01*
X256257202Y-51112031D01*
X256226198Y-51106041D01*
X256213104Y-51101695D01*
X256173711Y-51079178D01*
X256140268Y-51048097D01*
X256115217Y-51011070D01*
X256104723Y-50985483D01*
X256096879Y-50948255D01*
X256094699Y-50915090D01*
X256196303Y-50915090D01*
X256200504Y-50948301D01*
X256213546Y-50978158D01*
X256213569Y-50978193D01*
X256228209Y-50993929D01*
X256249506Y-51005182D01*
X256278985Y-51012390D01*
X256318173Y-51015991D01*
X256347378Y-51016604D01*
X256380168Y-51016359D01*
X256403579Y-51015189D01*
X256420727Y-51012657D01*
X256434729Y-51008328D01*
X256446941Y-51002675D01*
X256472829Y-50983162D01*
X256489729Y-50957431D01*
X256497639Y-50927961D01*
X256496554Y-50897228D01*
X256486472Y-50867709D01*
X256467391Y-50841882D01*
X256447144Y-50826407D01*
X256436182Y-50820893D01*
X256423764Y-50817198D01*
X256407193Y-50814976D01*
X256383772Y-50813882D01*
X256350802Y-50813568D01*
X256347140Y-50813566D01*
X256306786Y-50814347D01*
X256276476Y-50817187D01*
X256253820Y-50822830D01*
X256236426Y-50832023D01*
X256221906Y-50845509D01*
X256214322Y-50854969D01*
X256200917Y-50882617D01*
X256196303Y-50915090D01*
X256094699Y-50915090D01*
X256094212Y-50907686D01*
X256096964Y-50872458D01*
X256111137Y-50827470D01*
X256136968Y-50786457D01*
X256150909Y-50770899D01*
X256178160Y-50747617D01*
X256208935Y-50730568D01*
X256245308Y-50719113D01*
X256289356Y-50712611D01*
X256343154Y-50710424D01*
X256347140Y-50710416D01*
X256400563Y-50712174D01*
X256444092Y-50717924D01*
G37*
G36*
X255522803Y-51685497D02*
G01*
X255554034Y-51703051D01*
X255566929Y-51714538D01*
X255580863Y-51731312D01*
X255591186Y-51749137D01*
X255598492Y-51770320D01*
X255603377Y-51797170D01*
X255606435Y-51831996D01*
X255608195Y-51874765D01*
X255610821Y-51966975D01*
X255644935Y-51966975D01*
X255666646Y-51965762D01*
X255684795Y-51962660D01*
X255691669Y-51960220D01*
X255705651Y-51946268D01*
X255715875Y-51922852D01*
X255721343Y-51892706D01*
X255721986Y-51877310D01*
X255720526Y-51842413D01*
X255715658Y-51816847D01*
X255706649Y-51797730D01*
X255699482Y-51788723D01*
X255684756Y-51772834D01*
X255713752Y-51735496D01*
X255728233Y-51717604D01*
X255740045Y-51704389D01*
X255746969Y-51698307D01*
X255747509Y-51698159D01*
X255753877Y-51702539D01*
X255765271Y-51713830D01*
X255774868Y-51724560D01*
X255793457Y-51750909D01*
X255805966Y-51780575D01*
X255812992Y-51815985D01*
X255815130Y-51859568D01*
X255814521Y-51885980D01*
X255812732Y-51918514D01*
X255810014Y-51942330D01*
X255805627Y-51961213D01*
X255798829Y-51978947D01*
X255794523Y-51988099D01*
X255772237Y-52022718D01*
X255743319Y-52047557D01*
X255715735Y-52061002D01*
X255704189Y-52063708D01*
X255684556Y-52065988D01*
X255655960Y-52067887D01*
X255617527Y-52069452D01*
X255568380Y-52070725D01*
X255507645Y-52071753D01*
X255504745Y-52071792D01*
X255315636Y-52074349D01*
X255315636Y-51966975D01*
X255354257Y-51966975D01*
X255338313Y-51948026D01*
X255325620Y-51928683D01*
X255316343Y-51907309D01*
X255315912Y-51905828D01*
X255311125Y-51876599D01*
X255310822Y-51865293D01*
X255406204Y-51865293D01*
X255407054Y-51892829D01*
X255409173Y-51917831D01*
X255412400Y-51935845D01*
X255413288Y-51938549D01*
X255424561Y-51951665D01*
X255445506Y-51961275D01*
X255473548Y-51966396D01*
X255487728Y-51966975D01*
X255522906Y-51966975D01*
X255520859Y-51883063D01*
X255519889Y-51848897D01*
X255518660Y-51824852D01*
X255516762Y-51808551D01*
X255513787Y-51797613D01*
X255509324Y-51789659D01*
X255503656Y-51783039D01*
X255484071Y-51769873D01*
X255462401Y-51767257D01*
X255441267Y-51774156D01*
X255423289Y-51789535D01*
X255411089Y-51812359D01*
X255408964Y-51820418D01*
X255406786Y-51839672D01*
X255406204Y-51865293D01*
X255310822Y-51865293D01*
X255310188Y-51841582D01*
X255312980Y-51806842D01*
X255318384Y-51781455D01*
X255336414Y-51741089D01*
X255362198Y-51708420D01*
X255394243Y-51685078D01*
X255414260Y-51676723D01*
X255448833Y-51671322D01*
X255462401Y-51672501D01*
X255486375Y-51674583D01*
X255522803Y-51685497D01*
G37*
G36*
X256405540Y-53311506D02*
G01*
X256445000Y-53316502D01*
X256476596Y-53324405D01*
X256482204Y-53326555D01*
X256522848Y-53349754D01*
X256555333Y-53380843D01*
X256579379Y-53418002D01*
X256594706Y-53459414D01*
X256601032Y-53503257D01*
X256598078Y-53547715D01*
X256585562Y-53590966D01*
X256563204Y-53631192D01*
X256534187Y-53663529D01*
X256512345Y-53681421D01*
X256490650Y-53694676D01*
X256466711Y-53703932D01*
X256438133Y-53709824D01*
X256402524Y-53712988D01*
X256357491Y-53714061D01*
X256344014Y-53714076D01*
X256306119Y-53713784D01*
X256278007Y-53712898D01*
X256256961Y-53711118D01*
X256240265Y-53708143D01*
X256225201Y-53703674D01*
X256214965Y-53699811D01*
X256181987Y-53681370D01*
X256150461Y-53654392D01*
X256124203Y-53622615D01*
X256109818Y-53596858D01*
X256099454Y-53562214D01*
X256094559Y-53521970D01*
X256094584Y-53521133D01*
X256196265Y-53521133D01*
X256203684Y-53554176D01*
X256214534Y-53573136D01*
X256228442Y-53589187D01*
X256243983Y-53600564D01*
X256263538Y-53608008D01*
X256289490Y-53612256D01*
X256324222Y-53614048D01*
X256347140Y-53614255D01*
X256381139Y-53613996D01*
X256405338Y-53612989D01*
X256422434Y-53610888D01*
X256435126Y-53607345D01*
X256446109Y-53602015D01*
X256447144Y-53601414D01*
X256474711Y-53578888D01*
X256491432Y-53550170D01*
X256497175Y-53515487D01*
X256497177Y-53514771D01*
X256492527Y-53478643D01*
X256478330Y-53450344D01*
X256454212Y-53429209D01*
X256446941Y-53425146D01*
X256433130Y-53418871D01*
X256418919Y-53414778D01*
X256401191Y-53412430D01*
X256376830Y-53411393D01*
X256347378Y-53411217D01*
X256301757Y-53412648D01*
X256266763Y-53417290D01*
X256240752Y-53425962D01*
X256222081Y-53439484D01*
X256209105Y-53458675D01*
X256200180Y-53484355D01*
X256200119Y-53484593D01*
X256196265Y-53521133D01*
X256094584Y-53521133D01*
X256095735Y-53482045D01*
X256097142Y-53472256D01*
X256111168Y-53426169D01*
X256135669Y-53385489D01*
X256169238Y-53352048D01*
X256207331Y-53329063D01*
X256235945Y-53319981D01*
X256273418Y-53313654D01*
X256316404Y-53310112D01*
X256347378Y-53309614D01*
X256361560Y-53309386D01*
X256405540Y-53311506D01*
G37*
G36*
X256595892Y-54356625D02*
G01*
X256594076Y-54408200D01*
X256569600Y-54411326D01*
X256554587Y-54413804D01*
X256550181Y-54416912D01*
X256554519Y-54422185D01*
X256555458Y-54422969D01*
X256576869Y-54448175D01*
X256591407Y-54480995D01*
X256598735Y-54518384D01*
X256598514Y-54557295D01*
X256590406Y-54594683D01*
X256577579Y-54622158D01*
X256564871Y-54642720D01*
X256548216Y-54630520D01*
X256533945Y-54619374D01*
X256515495Y-54604083D01*
X256504137Y-54594309D01*
X256476714Y-54570297D01*
X256486946Y-54550512D01*
X256494904Y-54525575D01*
X256496819Y-54496885D01*
X256492768Y-54469775D01*
X256485532Y-54453180D01*
X256478102Y-54442270D01*
X256470822Y-54433622D01*
X256462199Y-54426943D01*
X256450737Y-54421940D01*
X256434945Y-54418320D01*
X256413326Y-54415791D01*
X256384388Y-54414058D01*
X256346636Y-54412830D01*
X256298576Y-54411813D01*
X256272122Y-54411326D01*
X256100204Y-54408200D01*
X256098389Y-54356625D01*
X256096573Y-54305050D01*
X256597707Y-54305050D01*
X256595892Y-54356625D01*
G37*
G36*
X256595887Y-53853092D02*
G01*
X256597698Y-53904384D01*
X256425977Y-53906230D01*
X256374946Y-53906826D01*
X256334896Y-53907463D01*
X256304306Y-53908263D01*
X256281654Y-53909342D01*
X256265420Y-53910819D01*
X256254082Y-53912814D01*
X256246118Y-53915445D01*
X256240007Y-53918831D01*
X256237006Y-53920967D01*
X256213814Y-53942121D01*
X256200903Y-53964753D01*
X256196262Y-53992631D01*
X256196155Y-53997515D01*
X256200446Y-54032195D01*
X256214373Y-54059314D01*
X256238613Y-54080032D01*
X256247020Y-54084683D01*
X256255997Y-54088974D01*
X256265031Y-54092291D01*
X256275803Y-54094759D01*
X256289992Y-54096504D01*
X256309279Y-54097649D01*
X256335345Y-54098321D01*
X256369869Y-54098644D01*
X256414532Y-54098744D01*
X256435986Y-54098749D01*
X256597202Y-54098749D01*
X256597202Y-54198774D01*
X256097079Y-54198774D01*
X256097079Y-54098749D01*
X256146246Y-54098749D01*
X256125350Y-54067699D01*
X256104083Y-54026748D01*
X256093709Y-53984322D01*
X256094711Y-53942687D01*
X256096693Y-53933083D01*
X256113362Y-53889802D01*
X256140155Y-53853647D01*
X256176427Y-53825395D01*
X256193978Y-53816235D01*
X256203362Y-53812111D01*
X256212564Y-53808862D01*
X256223145Y-53806383D01*
X256236672Y-53804569D01*
X256254708Y-53803318D01*
X256278817Y-53802523D01*
X256310564Y-53802080D01*
X256351513Y-53801886D01*
X256403229Y-53801835D01*
X256409656Y-53801833D01*
X256594076Y-53801801D01*
X256595887Y-53853092D01*
G37*
%TO.C,J10*%
X84426000Y-46334000D02*
X85756000Y-46334000D01*
X84426000Y-48934000D02*
X87086000Y-48934000D01*
X84426000Y-48994000D02*
X87086000Y-48994000D01*
X87086000Y-48934000D02*
X87086000Y-48994000D01*
X84426000Y-48934000D02*
X84426000Y-48994000D01*
X84426000Y-47664000D02*
X84426000Y-46334000D01*
%TO.C,J6*%
X71726000Y-46334000D02*
X73056000Y-46334000D01*
X71726000Y-48994000D02*
X74386000Y-48994000D01*
X71726000Y-48934000D02*
X71726000Y-48994000D01*
X71726000Y-47664000D02*
X71726000Y-46334000D01*
X74386000Y-48934000D02*
X74386000Y-48994000D01*
X71726000Y-48934000D02*
X74386000Y-48934000D01*
D12*
%TO.C,J3*%
X236296000Y-80419000D02*
X236296000Y-71019000D01*
X56976000Y-80419000D02*
X236296000Y-80419000D01*
X56976000Y-71019000D02*
X56976000Y-80419000D01*
X236296000Y-71019000D02*
X56976000Y-71019000D01*
D11*
%TO.C,J15*%
X118806000Y-42074000D02*
X118806000Y-40744000D01*
X118806000Y-43404000D02*
X121466000Y-43404000D01*
X118806000Y-40744000D02*
X120136000Y-40744000D01*
X118806000Y-43344000D02*
X118806000Y-43404000D01*
X121466000Y-43344000D02*
X121466000Y-43404000D01*
X118806000Y-43344000D02*
X121466000Y-43344000D01*
D12*
%TO.C,J2*%
X56976000Y-99379000D02*
X236296000Y-99379000D01*
X236296000Y-89979000D02*
X56976000Y-89979000D01*
X56976000Y-89979000D02*
X56976000Y-99379000D01*
X236296000Y-99379000D02*
X236296000Y-89979000D01*
D11*
%TO.C,J12*%
X111941000Y-43344000D02*
X111941000Y-43404000D01*
X109281000Y-43344000D02*
X111941000Y-43344000D01*
X109281000Y-43344000D02*
X109281000Y-43404000D01*
X109281000Y-42074000D02*
X109281000Y-40744000D01*
X109281000Y-43404000D02*
X111941000Y-43404000D01*
X109281000Y-40744000D02*
X110611000Y-40744000D01*
%TO.C,C1*%
X98682000Y-53554000D02*
X140722000Y-53554000D01*
X94482000Y-33314000D02*
X96582000Y-33314000D01*
X94482000Y-53554000D02*
X96582000Y-53554000D01*
X96582000Y-53554000D02*
X97632000Y-52504000D01*
X93242000Y-43434000D02*
X94482000Y-43434000D01*
X140722000Y-33314000D02*
X140722000Y-53554000D01*
X97632000Y-52504000D02*
X98682000Y-53554000D01*
X141962000Y-43434000D02*
X140722000Y-43434000D01*
X93082000Y-39384000D02*
X93082000Y-41484000D01*
X98682000Y-33314000D02*
X140722000Y-33314000D01*
X96582000Y-33314000D02*
X97632000Y-34364000D01*
X97632000Y-34364000D02*
X98682000Y-33314000D01*
X92032000Y-40434000D02*
X94132000Y-40434000D01*
X94482000Y-33314000D02*
X94482000Y-53554000D01*
%TO.C,J19*%
X131506000Y-43344000D02*
X131506000Y-43404000D01*
X131506000Y-40744000D02*
X132836000Y-40744000D01*
X131506000Y-43404000D02*
X134166000Y-43404000D01*
X131506000Y-42074000D02*
X131506000Y-40744000D01*
X131506000Y-43344000D02*
X134166000Y-43344000D01*
X134166000Y-43344000D02*
X134166000Y-43404000D01*
%TO.C,J14*%
X115631000Y-43344000D02*
X118291000Y-43344000D01*
X118291000Y-43344000D02*
X118291000Y-43404000D01*
X115631000Y-42074000D02*
X115631000Y-40744000D01*
X115631000Y-43404000D02*
X118291000Y-43404000D01*
X115631000Y-43344000D02*
X115631000Y-43404000D01*
X115631000Y-40744000D02*
X116961000Y-40744000D01*
%TO.C,J8*%
X80736000Y-48934000D02*
X80736000Y-48994000D01*
X78076000Y-46334000D02*
X79406000Y-46334000D01*
X78076000Y-47664000D02*
X78076000Y-46334000D01*
X78076000Y-48994000D02*
X80736000Y-48994000D01*
X78076000Y-48934000D02*
X80736000Y-48934000D01*
X78076000Y-48934000D02*
X78076000Y-48994000D01*
%TO.C,G\u002A\u002A\u002A*%
G36*
X254322830Y-99307479D02*
G01*
X254401373Y-99352915D01*
X254475651Y-99412703D01*
X254495258Y-99431365D01*
X254560207Y-99504627D01*
X254610028Y-99582991D01*
X254646892Y-99670082D01*
X254656309Y-99700393D01*
X254666724Y-99738888D01*
X254673081Y-99770279D01*
X254676039Y-99800898D01*
X254676264Y-99837080D01*
X254674791Y-99877094D01*
X254667998Y-99953080D01*
X254654138Y-100018180D01*
X254631551Y-100078005D01*
X254598581Y-100138167D01*
X254596786Y-100141036D01*
X254545673Y-100206465D01*
X254481533Y-100262304D01*
X254406747Y-100306966D01*
X254323696Y-100338860D01*
X254286466Y-100348162D01*
X254243911Y-100354673D01*
X254195370Y-100358166D01*
X254145001Y-100358775D01*
X254096962Y-100356633D01*
X254055410Y-100351876D01*
X254024503Y-100344636D01*
X254013095Y-100339355D01*
X253991319Y-100325086D01*
X253991319Y-99526853D01*
X253954425Y-99527158D01*
X253871667Y-99535673D01*
X253794288Y-99559001D01*
X253724340Y-99595917D01*
X253663877Y-99645197D01*
X253614951Y-99705617D01*
X253594310Y-99741920D01*
X253580522Y-99770396D01*
X253571285Y-99792778D01*
X253565688Y-99813826D01*
X253562819Y-99838302D01*
X253561767Y-99870966D01*
X253561620Y-99912685D01*
X253561944Y-99958502D01*
X253563380Y-99991514D01*
X253566625Y-100016274D01*
X253572374Y-100037332D01*
X253581324Y-100059242D01*
X253585374Y-100068023D01*
X253605229Y-100104029D01*
X253632735Y-100145747D01*
X253663710Y-100187452D01*
X253693973Y-100223418D01*
X253712583Y-100242194D01*
X253726872Y-100259853D01*
X253728781Y-100278374D01*
X253717723Y-100301019D01*
X253697458Y-100326209D01*
X253664021Y-100363888D01*
X253614344Y-100333836D01*
X253533754Y-100275496D01*
X253465711Y-100206021D01*
X253411298Y-100126735D01*
X253371595Y-100038965D01*
X253370006Y-100034349D01*
X253358891Y-99998336D01*
X253351520Y-99964676D01*
X253347008Y-99927496D01*
X253344467Y-99880925D01*
X253343874Y-99861064D01*
X253343481Y-99815101D01*
X253344480Y-99770701D01*
X253346669Y-99733441D01*
X253349245Y-99711948D01*
X253367912Y-99640983D01*
X253397813Y-99567402D01*
X253420427Y-99526523D01*
X254147573Y-99526523D01*
X254147622Y-99763240D01*
X254147956Y-99829461D01*
X254148878Y-99890483D01*
X254150305Y-99943809D01*
X254152154Y-99986943D01*
X254154344Y-100017387D01*
X254156464Y-100031617D01*
X254171609Y-100063190D01*
X254197298Y-100083398D01*
X254235232Y-100093229D01*
X254264764Y-100094557D01*
X254326483Y-100085583D01*
X254383842Y-100060921D01*
X254434425Y-100022132D01*
X254475816Y-99970782D01*
X254487542Y-99950402D01*
X254503068Y-99905130D01*
X254508695Y-99851764D01*
X254504549Y-99796386D01*
X254490755Y-99745078D01*
X254482933Y-99727764D01*
X254444030Y-99670567D01*
X254391670Y-99620713D01*
X254329001Y-99580478D01*
X254259173Y-99552141D01*
X254229767Y-99544611D01*
X254200364Y-99538280D01*
X254175198Y-99532773D01*
X254167105Y-99530962D01*
X254147573Y-99526523D01*
X253420427Y-99526523D01*
X253435926Y-99498505D01*
X253440353Y-99491732D01*
X253496372Y-99422831D01*
X253565238Y-99364071D01*
X253645317Y-99316009D01*
X253734980Y-99279204D01*
X253832592Y-99254215D01*
X253936523Y-99241601D01*
X254045141Y-99241920D01*
X254138892Y-99252605D01*
X254147573Y-99254564D01*
X254236509Y-99274630D01*
X254322830Y-99307479D01*
G37*
G36*
X252816964Y-99101591D02*
G01*
X252892998Y-99101906D01*
X252954219Y-99102478D01*
X253001900Y-99103346D01*
X253037314Y-99104548D01*
X253061735Y-99106123D01*
X253076435Y-99108110D01*
X253082690Y-99110546D01*
X253082857Y-99112346D01*
X253074811Y-99124492D01*
X253059881Y-99146321D01*
X253041162Y-99173311D01*
X253039426Y-99175796D01*
X252995677Y-99244943D01*
X252954179Y-99322439D01*
X252919574Y-99399436D01*
X252912255Y-99418343D01*
X252899881Y-99454061D01*
X252887010Y-99495303D01*
X252874823Y-99537759D01*
X252864498Y-99577119D01*
X252857218Y-99609073D01*
X252854163Y-99629311D01*
X252854135Y-99630532D01*
X252848158Y-99639124D01*
X252830992Y-99658736D01*
X252803784Y-99688174D01*
X252767682Y-99726240D01*
X252723832Y-99771740D01*
X252673382Y-99823477D01*
X252617480Y-99880255D01*
X252557272Y-99940880D01*
X252534559Y-99963620D01*
X252214984Y-100283108D01*
X252167796Y-100277761D01*
X252139786Y-100274565D01*
X252100188Y-100270018D01*
X252054662Y-100264772D01*
X252016438Y-100260354D01*
X251962729Y-100254285D01*
X251902940Y-100247764D01*
X251846023Y-100241756D01*
X251816780Y-100238782D01*
X251774115Y-100234394D01*
X251734482Y-100230078D01*
X251703133Y-100226417D01*
X251688739Y-100224529D01*
X251656186Y-100219791D01*
X251656186Y-99432891D01*
X251688739Y-99428152D01*
X251710970Y-99425318D01*
X251745232Y-99421415D01*
X251786273Y-99417027D01*
X251816780Y-99413925D01*
X251868688Y-99408532D01*
X251928336Y-99401977D01*
X251986247Y-99395313D01*
X252012098Y-99392207D01*
X252062157Y-99386408D01*
X252115631Y-99380754D01*
X252164596Y-99376060D01*
X252188638Y-99374034D01*
X252224607Y-99370244D01*
X252251753Y-99365417D01*
X252266455Y-99360264D01*
X252267996Y-99358493D01*
X252275746Y-99332768D01*
X252287368Y-99296974D01*
X252301213Y-99255887D01*
X252315637Y-99214284D01*
X252328992Y-99176942D01*
X252339633Y-99148637D01*
X252343849Y-99138388D01*
X252360142Y-99101495D01*
X252724842Y-99101495D01*
X252816964Y-99101591D01*
G37*
G36*
X254393848Y-97519420D02*
G01*
X254396682Y-97541651D01*
X254400585Y-97575914D01*
X254404973Y-97616954D01*
X254408075Y-97647462D01*
X254413468Y-97699369D01*
X254420023Y-97759018D01*
X254426687Y-97816929D01*
X254429793Y-97842780D01*
X254435592Y-97892838D01*
X254441246Y-97946312D01*
X254445940Y-97995277D01*
X254447966Y-98019320D01*
X254451756Y-98055289D01*
X254456583Y-98082435D01*
X254461736Y-98097136D01*
X254463507Y-98098677D01*
X254489232Y-98106428D01*
X254525026Y-98118049D01*
X254566113Y-98131895D01*
X254607716Y-98146318D01*
X254645058Y-98159674D01*
X254673363Y-98170315D01*
X254683612Y-98174531D01*
X254720505Y-98190824D01*
X254720505Y-98555523D01*
X254720409Y-98647645D01*
X254720094Y-98723680D01*
X254719522Y-98784901D01*
X254718654Y-98832582D01*
X254717452Y-98867996D01*
X254715877Y-98892416D01*
X254713890Y-98907117D01*
X254711454Y-98913371D01*
X254709654Y-98913538D01*
X254697508Y-98905493D01*
X254675679Y-98890563D01*
X254648689Y-98871843D01*
X254646204Y-98870108D01*
X254577057Y-98826358D01*
X254499561Y-98784861D01*
X254422564Y-98750255D01*
X254403657Y-98742936D01*
X254367939Y-98730563D01*
X254326697Y-98717692D01*
X254284241Y-98705504D01*
X254244881Y-98695180D01*
X254212927Y-98687900D01*
X254192689Y-98684844D01*
X254191468Y-98684816D01*
X254181948Y-98678796D01*
X254161846Y-98661674D01*
X254132561Y-98634862D01*
X254095495Y-98599772D01*
X254052046Y-98557813D01*
X254003615Y-98510396D01*
X253951600Y-98458934D01*
X253897403Y-98404836D01*
X253842422Y-98349513D01*
X253788057Y-98294377D01*
X253735708Y-98240838D01*
X253686775Y-98190307D01*
X253642657Y-98144196D01*
X253604754Y-98103914D01*
X253574466Y-98070874D01*
X253553193Y-98046485D01*
X253542334Y-98032159D01*
X253541218Y-98029373D01*
X253543195Y-98007774D01*
X253545536Y-97986013D01*
X253554542Y-97908079D01*
X253561836Y-97844492D01*
X253567739Y-97792357D01*
X253572573Y-97748779D01*
X253576660Y-97710864D01*
X253580322Y-97675716D01*
X253583180Y-97647462D01*
X253587583Y-97604797D01*
X253591912Y-97565165D01*
X253595581Y-97533816D01*
X253597471Y-97519420D01*
X253602209Y-97486867D01*
X254389109Y-97486867D01*
X254393848Y-97519420D01*
G37*
G36*
X255602877Y-100796847D02*
G01*
X255624221Y-100822112D01*
X255647803Y-100850846D01*
X255654982Y-100859783D01*
X255668496Y-100876658D01*
X255690881Y-100904517D01*
X255720104Y-100940834D01*
X255754130Y-100983081D01*
X255790927Y-101028733D01*
X255804770Y-101045898D01*
X255927226Y-101197717D01*
X255647656Y-101477386D01*
X255581309Y-101543412D01*
X255522086Y-101601650D01*
X255470772Y-101651359D01*
X255428150Y-101691798D01*
X255395007Y-101722226D01*
X255372125Y-101741901D01*
X255360291Y-101750081D01*
X255358974Y-101750157D01*
X255349345Y-101742559D01*
X255328629Y-101726029D01*
X255299265Y-101702523D01*
X255263687Y-101673999D01*
X255224332Y-101642413D01*
X255183637Y-101609723D01*
X255144038Y-101577885D01*
X255107971Y-101548857D01*
X255077872Y-101524595D01*
X255056179Y-101507056D01*
X255046005Y-101498763D01*
X255031821Y-101487205D01*
X255008026Y-101467996D01*
X254978574Y-101444322D01*
X254961083Y-101430303D01*
X254893553Y-101376234D01*
X254800519Y-101422728D01*
X254760524Y-101442311D01*
X254722897Y-101460017D01*
X254692196Y-101473741D01*
X254674659Y-101480810D01*
X254641834Y-101492397D01*
X254390363Y-101241038D01*
X254336077Y-101186643D01*
X254285815Y-101136023D01*
X254240867Y-101090496D01*
X254202522Y-101051381D01*
X254172069Y-101019993D01*
X254150798Y-100997652D01*
X254139997Y-100985674D01*
X254138892Y-100984041D01*
X254145776Y-100976518D01*
X254152624Y-100973134D01*
X254172635Y-100968758D01*
X254185712Y-100967865D01*
X254207862Y-100965187D01*
X254242025Y-100957934D01*
X254283830Y-100947275D01*
X254328908Y-100934381D01*
X254372887Y-100920420D01*
X254403657Y-100909529D01*
X254477793Y-100879099D01*
X254544429Y-100845524D01*
X254610096Y-100805988D01*
X254668962Y-100768207D01*
X255578105Y-100768207D01*
X255602877Y-100796847D01*
G37*
G36*
X255926460Y-98454775D02*
G01*
X255885564Y-98508039D01*
X255868620Y-98529745D01*
X255843148Y-98561924D01*
X255811507Y-98601637D01*
X255776057Y-98645947D01*
X255739155Y-98691915D01*
X255703163Y-98736603D01*
X255670439Y-98777074D01*
X255643343Y-98810389D01*
X255624234Y-98833609D01*
X255621682Y-98836660D01*
X255608008Y-98853377D01*
X255588901Y-98877250D01*
X255576546Y-98892881D01*
X255546058Y-98931670D01*
X255579040Y-98992710D01*
X255599556Y-99032563D01*
X255621776Y-99078624D01*
X255640925Y-99120994D01*
X255641102Y-99121406D01*
X255670183Y-99189062D01*
X255414589Y-99444765D01*
X255359713Y-99499525D01*
X255308589Y-99550271D01*
X255262526Y-99595723D01*
X255222832Y-99634603D01*
X255190815Y-99665632D01*
X255167784Y-99687533D01*
X255155047Y-99699025D01*
X255152962Y-99700469D01*
X255148399Y-99692716D01*
X255143547Y-99672983D01*
X255141336Y-99659235D01*
X255134859Y-99623307D01*
X255124228Y-99576734D01*
X255110970Y-99525279D01*
X255096613Y-99474702D01*
X255082684Y-99430765D01*
X255075422Y-99410640D01*
X255053177Y-99358897D01*
X255024802Y-99301151D01*
X254994239Y-99245039D01*
X254966917Y-99200425D01*
X254937525Y-99156123D01*
X254937525Y-98235412D01*
X254958009Y-98221990D01*
X254977960Y-98207597D01*
X254990562Y-98196957D01*
X255001335Y-98187649D01*
X255022994Y-98169724D01*
X255052845Y-98145383D01*
X255088197Y-98116828D01*
X255106801Y-98101895D01*
X255148343Y-98068581D01*
X255190063Y-98035064D01*
X255227786Y-98004702D01*
X255257338Y-97980853D01*
X255263792Y-97975627D01*
X255293173Y-97952144D01*
X255320922Y-97930527D01*
X255341373Y-97915185D01*
X255342506Y-97914374D01*
X255368398Y-97895937D01*
X255926460Y-98454775D01*
G37*
G36*
X255827278Y-99375419D02*
G01*
X255853623Y-99378397D01*
X255891768Y-99382754D01*
X255936268Y-99387868D01*
X255974880Y-99392327D01*
X256028589Y-99398396D01*
X256088379Y-99404918D01*
X256145295Y-99410925D01*
X256174538Y-99413900D01*
X256217204Y-99418287D01*
X256256837Y-99422603D01*
X256288185Y-99426265D01*
X256302580Y-99428152D01*
X256335133Y-99432891D01*
X256335133Y-100219791D01*
X256302580Y-100224529D01*
X256280349Y-100227364D01*
X256246086Y-100231266D01*
X256205046Y-100235654D01*
X256174538Y-100238757D01*
X256122631Y-100244149D01*
X256062982Y-100250705D01*
X256005071Y-100257369D01*
X255979220Y-100260475D01*
X255929162Y-100266273D01*
X255875688Y-100271928D01*
X255826723Y-100276622D01*
X255802680Y-100278648D01*
X255766711Y-100282438D01*
X255739565Y-100287264D01*
X255724864Y-100292418D01*
X255723323Y-100294188D01*
X255715572Y-100319913D01*
X255703951Y-100355708D01*
X255690105Y-100396794D01*
X255675682Y-100438397D01*
X255662326Y-100475739D01*
X255651685Y-100504044D01*
X255647469Y-100514294D01*
X255631176Y-100551187D01*
X255266989Y-100551187D01*
X255189378Y-100551137D01*
X255117426Y-100550994D01*
X255052926Y-100550770D01*
X254997671Y-100550473D01*
X254953454Y-100550117D01*
X254922070Y-100549710D01*
X254905310Y-100549264D01*
X254902970Y-100549017D01*
X254907653Y-100541435D01*
X254920119Y-100522792D01*
X254938224Y-100496270D01*
X254951245Y-100477400D01*
X255021325Y-100361310D01*
X255077725Y-100235706D01*
X255119392Y-100102993D01*
X255124352Y-100082424D01*
X255139437Y-100017318D01*
X255461641Y-99693944D01*
X255783846Y-99370569D01*
X255827278Y-99375419D01*
G37*
G36*
X252845376Y-99973287D02*
G01*
X252850140Y-99995511D01*
X252854898Y-100022679D01*
X252884249Y-100151993D01*
X252930470Y-100279178D01*
X252993095Y-100403033D01*
X253020399Y-100447885D01*
X253062474Y-100513858D01*
X253062063Y-100960051D01*
X253061653Y-101406245D01*
X253012357Y-101445309D01*
X252985114Y-101466961D01*
X252961090Y-101486167D01*
X252945492Y-101498763D01*
X252931790Y-101509877D01*
X252907900Y-101529148D01*
X252876231Y-101554640D01*
X252839194Y-101584418D01*
X252799199Y-101616547D01*
X252758656Y-101649093D01*
X252719975Y-101680121D01*
X252685566Y-101707696D01*
X252657840Y-101729883D01*
X252639206Y-101744746D01*
X252632344Y-101750157D01*
X252624165Y-101745764D01*
X252604691Y-101729643D01*
X252574706Y-101702534D01*
X252534996Y-101665179D01*
X252486345Y-101618320D01*
X252429537Y-101562697D01*
X252365357Y-101499053D01*
X252343663Y-101477386D01*
X252064092Y-101197717D01*
X252186401Y-101045898D01*
X252222653Y-101000922D01*
X252255954Y-100959653D01*
X252284514Y-100924306D01*
X252306544Y-100897094D01*
X252320255Y-100880231D01*
X252323168Y-100876686D01*
X252334751Y-100862508D01*
X252353984Y-100838712D01*
X252377682Y-100809248D01*
X252391792Y-100791647D01*
X252445955Y-100724000D01*
X252407674Y-100648444D01*
X252387816Y-100608514D01*
X252368072Y-100567580D01*
X252351780Y-100532601D01*
X252347409Y-100522820D01*
X252325425Y-100472751D01*
X252581731Y-100216007D01*
X252636552Y-100161277D01*
X252687549Y-100110722D01*
X252733432Y-100065595D01*
X252772910Y-100027146D01*
X252804696Y-99996630D01*
X252827497Y-99975297D01*
X252840024Y-99964402D01*
X252842043Y-99963269D01*
X252845376Y-99973287D01*
G37*
G36*
X253291887Y-100746786D02*
G01*
X253310788Y-100759032D01*
X253336398Y-100776474D01*
X253342529Y-100780742D01*
X253415395Y-100826905D01*
X253495900Y-100869866D01*
X253575289Y-100905020D01*
X253587662Y-100909745D01*
X253626857Y-100923314D01*
X253670711Y-100936879D01*
X253714886Y-100949274D01*
X253755045Y-100959337D01*
X253786851Y-100965903D01*
X253804191Y-100967865D01*
X253815017Y-100974001D01*
X253837431Y-100992443D01*
X253871487Y-101023242D01*
X253917239Y-101066450D01*
X253974742Y-101122118D01*
X254044050Y-101190298D01*
X254125217Y-101271041D01*
X254137558Y-101283379D01*
X254452984Y-101598894D01*
X254447424Y-101650143D01*
X254444118Y-101679968D01*
X254439458Y-101721141D01*
X254434115Y-101767770D01*
X254429739Y-101805562D01*
X254423642Y-101859268D01*
X254417098Y-101919055D01*
X254411078Y-101975969D01*
X254408100Y-102005220D01*
X254403713Y-102047885D01*
X254399397Y-102087518D01*
X254395735Y-102118867D01*
X254393848Y-102133261D01*
X254389109Y-102165814D01*
X253602209Y-102165814D01*
X253597471Y-102133261D01*
X253594636Y-102111030D01*
X253590734Y-102076768D01*
X253586346Y-102035727D01*
X253583243Y-102005220D01*
X253577851Y-101953312D01*
X253571295Y-101893664D01*
X253564631Y-101835753D01*
X253561525Y-101809902D01*
X253555727Y-101759843D01*
X253550072Y-101706369D01*
X253545378Y-101657404D01*
X253543352Y-101633362D01*
X253539564Y-101597411D01*
X253534738Y-101570259D01*
X253529587Y-101555536D01*
X253527812Y-101553983D01*
X253495357Y-101544236D01*
X253453034Y-101530543D01*
X253407230Y-101515054D01*
X253364334Y-101499917D01*
X253338089Y-101490156D01*
X253279494Y-101467603D01*
X253279494Y-101104884D01*
X253279585Y-101027427D01*
X253279844Y-100955625D01*
X253280252Y-100891278D01*
X253280789Y-100836183D01*
X253281437Y-100792137D01*
X253282175Y-100760940D01*
X253282984Y-100744387D01*
X253283418Y-100742164D01*
X253291887Y-100746786D01*
G37*
G36*
X252776102Y-98017082D02*
G01*
X252821078Y-98053335D01*
X252862347Y-98086636D01*
X252897694Y-98115196D01*
X252924906Y-98137226D01*
X252941769Y-98150936D01*
X252945314Y-98153850D01*
X252959492Y-98165433D01*
X252983288Y-98184666D01*
X253012752Y-98208363D01*
X253030353Y-98222473D01*
X253098000Y-98276637D01*
X253173556Y-98238355D01*
X253213783Y-98218361D01*
X253255304Y-98198356D01*
X253291011Y-98181746D01*
X253300824Y-98177364D01*
X253352537Y-98154653D01*
X253606822Y-98408829D01*
X253661427Y-98463554D01*
X253712013Y-98514531D01*
X253757298Y-98560445D01*
X253796001Y-98599985D01*
X253826837Y-98631836D01*
X253848526Y-98654687D01*
X253859784Y-98667224D01*
X253861107Y-98669177D01*
X253853473Y-98674335D01*
X253834534Y-98679414D01*
X253828554Y-98680458D01*
X253696585Y-98708590D01*
X253570340Y-98750231D01*
X253452862Y-98804255D01*
X253381538Y-98846190D01*
X253322356Y-98884475D01*
X252413213Y-98884475D01*
X252388442Y-98855834D01*
X252367098Y-98830552D01*
X252343541Y-98801804D01*
X252336405Y-98792898D01*
X252322669Y-98775701D01*
X252300173Y-98747625D01*
X252271039Y-98711317D01*
X252237393Y-98669424D01*
X252201357Y-98624593D01*
X252193940Y-98615370D01*
X252159321Y-98572303D01*
X252128207Y-98533548D01*
X252102310Y-98501245D01*
X252083343Y-98477529D01*
X252073019Y-98464539D01*
X252071843Y-98463026D01*
X252076236Y-98454847D01*
X252092357Y-98435372D01*
X252119466Y-98405388D01*
X252156821Y-98365678D01*
X252203680Y-98317026D01*
X252259303Y-98260218D01*
X252322947Y-98196038D01*
X252344614Y-98174344D01*
X252624283Y-97894774D01*
X252776102Y-98017082D01*
G37*
%TO.C,J20*%
X134681000Y-43344000D02*
X137341000Y-43344000D01*
X134681000Y-40744000D02*
X136011000Y-40744000D01*
X134681000Y-43344000D02*
X134681000Y-43404000D01*
X137341000Y-43344000D02*
X137341000Y-43404000D01*
X134681000Y-43404000D02*
X137341000Y-43404000D01*
X134681000Y-42074000D02*
X134681000Y-40744000D01*
%TD*%
M02*
