M48
; DRILL file {KiCad (6.0.0)} date Mon Jan 24 17:49:50 2022
; FORMAT={-:-/ absolute / metric / decimal}
; #@! TF.CreationDate,2022-01-24T17:49:50-05:00
; #@! TF.GenerationSoftware,Kicad,Pcbnew,(6.0.0)
; #@! TF.FileFunction,Plated,1,2,PTH
FMAT,2
METRIC
; #@! TA.AperFunction,Plated,PTH,ViaDrill
T1C0.400
; #@! TA.AperFunction,Plated,PTH,ComponentDrill
T2C1.000
; #@! TA.AperFunction,Plated,PTH,ComponentDrill
T3C1.170
; #@! TA.AperFunction,Plated,PTH,ComponentDrill
T4C1.400
%
G90
G05
T1
X41.402Y-46.482
X41.656Y-101.092
X42.164Y-70.104
X42.164Y-121.158
X42.926Y-139.192
X52.832Y-41.91
X55.88Y-85.598
X75.184Y-41.402
X123.258Y-48.038
X172.212Y-41.91
X198.12Y-42.164
X226.314Y-41.656
X245.618Y-64.008
X245.872Y-84.836
X245.872Y-109.22
X245.872Y-131.572
X246.126Y-44.45
X257.556Y-49.022
X257.81Y-122.936
X257.81Y-139.7
X258.064Y-99.314
X258.318Y-73.66
T2
X73.056Y-47.664
X76.231Y-47.664
X79.406Y-47.664
X82.581Y-47.664
X85.756Y-47.664
X107.436Y-42.074
X110.611Y-42.074
X113.786Y-42.074
X116.961Y-42.074
X120.136Y-42.074
X123.311Y-42.074
X126.486Y-42.074
X129.661Y-42.074
X132.836Y-42.074
X136.011Y-42.074
T3
X68.846Y-53.364
X68.846Y-59.714
X68.846Y-72.544
X68.846Y-78.894
X68.846Y-91.504
X68.846Y-97.854
X68.846Y-110.734
X68.846Y-117.084
X68.846Y-129.624
X68.846Y-135.974
X72.026Y-53.364
X72.026Y-59.714
X72.026Y-72.544
X72.026Y-78.894
X72.026Y-91.504
X72.026Y-97.854
X72.026Y-110.734
X72.026Y-117.084
X72.026Y-129.624
X72.026Y-135.974
X75.206Y-53.364
X75.206Y-59.714
X75.206Y-72.544
X75.206Y-78.894
X75.206Y-91.504
X75.206Y-97.854
X75.206Y-110.734
X75.206Y-117.084
X75.206Y-129.624
X75.206Y-135.974
X78.386Y-53.364
X78.386Y-59.714
X78.386Y-72.544
X78.386Y-78.894
X78.386Y-91.504
X78.386Y-97.854
X78.386Y-110.734
X78.386Y-117.084
X78.386Y-129.624
X78.386Y-135.974
X81.566Y-53.364
X81.566Y-59.714
X81.566Y-72.544
X81.566Y-78.894
X81.566Y-91.504
X81.566Y-97.854
X81.566Y-110.734
X81.566Y-117.084
X81.566Y-129.624
X81.566Y-135.974
X84.746Y-53.364
X84.746Y-59.714
X84.746Y-72.544
X84.746Y-78.894
X84.746Y-91.504
X84.746Y-97.854
X84.746Y-110.734
X84.746Y-117.084
X84.746Y-129.624
X84.746Y-135.974
X87.926Y-53.364
X87.926Y-59.714
X87.926Y-72.544
X87.926Y-78.894
X87.926Y-91.504
X87.926Y-97.854
X87.926Y-110.734
X87.926Y-117.084
X87.926Y-129.624
X87.926Y-135.974
X91.106Y-53.364
X91.106Y-59.714
X91.106Y-72.544
X91.106Y-78.894
X91.106Y-91.504
X91.106Y-97.854
X91.106Y-110.734
X91.106Y-117.084
X91.106Y-129.624
X91.106Y-135.974
X94.286Y-53.364
X94.286Y-59.714
X94.286Y-72.544
X94.286Y-78.894
X94.286Y-91.504
X94.286Y-97.854
X94.286Y-110.734
X94.286Y-117.084
X94.286Y-129.624
X94.286Y-135.974
X97.466Y-53.364
X97.466Y-59.714
X97.466Y-72.544
X97.466Y-78.894
X97.466Y-91.504
X97.466Y-97.854
X97.466Y-110.734
X97.466Y-117.084
X97.466Y-129.624
X97.466Y-135.974
X100.646Y-53.364
X100.646Y-59.714
X100.646Y-72.544
X100.646Y-78.894
X100.646Y-91.504
X100.646Y-97.854
X100.646Y-110.734
X100.646Y-117.084
X100.646Y-129.624
X100.646Y-135.974
X103.826Y-53.364
X103.826Y-59.714
X103.826Y-72.544
X103.826Y-78.894
X103.826Y-91.504
X103.826Y-97.854
X103.826Y-110.734
X103.826Y-117.084
X103.826Y-129.624
X103.826Y-135.974
X107.006Y-53.364
X107.006Y-59.714
X107.006Y-72.544
X107.006Y-78.894
X107.006Y-91.504
X107.006Y-97.854
X107.006Y-110.734
X107.006Y-117.084
X107.006Y-129.624
X107.006Y-135.974
X110.186Y-53.364
X110.186Y-59.714
X110.186Y-72.544
X110.186Y-78.894
X110.186Y-91.504
X110.186Y-97.854
X110.186Y-110.734
X110.186Y-117.084
X110.186Y-129.624
X110.186Y-135.974
X113.366Y-53.364
X113.366Y-59.714
X113.366Y-72.544
X113.366Y-78.894
X113.366Y-91.504
X113.366Y-97.854
X113.366Y-110.734
X113.366Y-117.084
X113.366Y-129.624
X113.366Y-135.974
X116.546Y-53.364
X116.546Y-59.714
X116.546Y-72.544
X116.546Y-78.894
X116.546Y-91.504
X116.546Y-97.854
X116.546Y-110.734
X116.546Y-117.084
X116.546Y-129.624
X116.546Y-135.974
X119.726Y-53.364
X119.726Y-59.714
X119.726Y-72.544
X119.726Y-78.894
X119.726Y-91.504
X119.726Y-97.854
X119.726Y-110.734
X119.726Y-117.084
X119.726Y-129.624
X119.726Y-135.974
X122.906Y-53.364
X122.906Y-59.714
X122.906Y-72.544
X122.906Y-78.894
X122.906Y-91.504
X122.906Y-97.854
X122.906Y-110.734
X122.906Y-117.084
X122.906Y-129.624
X122.906Y-135.974
X126.086Y-53.364
X126.086Y-59.714
X126.086Y-72.544
X126.086Y-78.894
X126.086Y-91.504
X126.086Y-97.854
X126.086Y-110.734
X126.086Y-117.084
X126.086Y-129.624
X126.086Y-135.974
X129.266Y-53.364
X129.266Y-59.714
X129.266Y-72.544
X129.266Y-78.894
X129.266Y-91.504
X129.266Y-97.854
X129.266Y-110.734
X129.266Y-117.084
X129.266Y-129.624
X129.266Y-135.974
X132.446Y-53.364
X132.446Y-59.714
X132.446Y-72.544
X132.446Y-78.894
X132.446Y-91.504
X132.446Y-97.854
X132.446Y-110.734
X132.446Y-117.084
X132.446Y-129.624
X132.446Y-135.974
X135.626Y-53.364
X135.626Y-59.714
X135.626Y-72.544
X135.626Y-78.894
X135.626Y-91.504
X135.626Y-97.854
X135.626Y-110.734
X135.626Y-117.084
X135.626Y-129.624
X135.626Y-135.974
X138.806Y-53.364
X138.806Y-59.714
X138.806Y-72.544
X138.806Y-78.894
X138.806Y-91.504
X138.806Y-97.854
X138.806Y-110.734
X138.806Y-117.084
X138.806Y-129.624
X138.806Y-135.974
X141.986Y-53.364
X141.986Y-59.714
X141.986Y-72.544
X141.986Y-78.894
X141.986Y-91.504
X141.986Y-97.854
X141.986Y-110.734
X141.986Y-117.084
X141.986Y-129.624
X141.986Y-135.974
X145.166Y-53.364
X145.166Y-59.714
X145.166Y-72.544
X145.166Y-78.894
X145.166Y-91.504
X145.166Y-97.854
X145.166Y-110.734
X145.166Y-117.084
X145.166Y-129.624
X145.166Y-135.974
X148.346Y-53.364
X148.346Y-59.714
X148.346Y-72.544
X148.346Y-78.894
X148.346Y-91.504
X148.346Y-97.854
X148.346Y-110.734
X148.346Y-117.084
X148.346Y-129.624
X148.346Y-135.974
X151.526Y-53.364
X151.526Y-59.714
X151.526Y-72.544
X151.526Y-78.894
X151.526Y-91.504
X151.526Y-97.854
X151.526Y-110.734
X151.526Y-117.084
X151.526Y-129.624
X151.526Y-135.974
X154.706Y-53.364
X154.706Y-59.714
X154.706Y-72.544
X154.706Y-78.894
X154.706Y-91.504
X154.706Y-97.854
X154.706Y-110.734
X154.706Y-117.084
X154.706Y-129.624
X154.706Y-135.974
X157.886Y-53.364
X157.886Y-59.714
X157.886Y-72.544
X157.886Y-78.894
X157.886Y-91.504
X157.886Y-97.854
X157.886Y-110.734
X157.886Y-117.084
X157.886Y-129.624
X157.886Y-135.974
X161.066Y-53.364
X161.066Y-59.714
X161.066Y-72.544
X161.066Y-78.894
X161.066Y-91.504
X161.066Y-97.854
X161.066Y-110.734
X161.066Y-117.084
X161.066Y-129.624
X161.066Y-135.974
X164.246Y-53.364
X164.246Y-59.714
X164.246Y-72.544
X164.246Y-78.894
X164.246Y-91.504
X164.246Y-97.854
X164.246Y-110.734
X164.246Y-117.084
X164.246Y-129.624
X164.246Y-135.974
X167.426Y-53.364
X167.426Y-59.714
X167.426Y-72.544
X167.426Y-78.894
X167.426Y-91.504
X167.426Y-97.854
X167.426Y-110.734
X167.426Y-117.084
X167.426Y-129.624
X167.426Y-135.974
X170.606Y-53.364
X170.606Y-59.714
X170.606Y-72.544
X170.606Y-78.894
X170.606Y-91.504
X170.606Y-97.854
X170.606Y-110.734
X170.606Y-117.084
X170.606Y-129.624
X170.606Y-135.974
X173.786Y-53.364
X173.786Y-59.714
X173.786Y-72.544
X173.786Y-78.894
X173.786Y-91.504
X173.786Y-97.854
X173.786Y-110.734
X173.786Y-117.084
X173.786Y-129.624
X173.786Y-135.974
X176.966Y-53.364
X176.966Y-59.714
X176.966Y-72.544
X176.966Y-78.894
X176.966Y-91.504
X176.966Y-97.854
X176.966Y-110.734
X176.966Y-117.084
X176.966Y-129.624
X176.966Y-135.974
X180.146Y-53.364
X180.146Y-59.714
X180.146Y-72.544
X180.146Y-78.894
X180.146Y-91.504
X180.146Y-97.854
X180.146Y-110.734
X180.146Y-117.084
X180.146Y-129.624
X180.146Y-135.974
X183.326Y-53.364
X183.326Y-59.714
X183.326Y-72.544
X183.326Y-78.894
X183.326Y-91.504
X183.326Y-97.854
X183.326Y-110.734
X183.326Y-117.084
X183.326Y-129.624
X183.326Y-135.974
X186.506Y-53.364
X186.506Y-59.714
X186.506Y-72.544
X186.506Y-78.894
X186.506Y-91.504
X186.506Y-97.854
X186.506Y-110.734
X186.506Y-117.084
X186.506Y-129.624
X186.506Y-135.974
X189.686Y-53.364
X189.686Y-59.714
X189.686Y-72.544
X189.686Y-78.894
X189.686Y-91.504
X189.686Y-97.854
X189.686Y-110.734
X189.686Y-117.084
X189.686Y-129.624
X189.686Y-135.974
X192.866Y-53.364
X192.866Y-59.714
X192.866Y-72.544
X192.866Y-78.894
X192.866Y-91.504
X192.866Y-97.854
X192.866Y-110.734
X192.866Y-117.084
X192.866Y-129.624
X192.866Y-135.974
X196.046Y-53.364
X196.046Y-59.714
X196.046Y-72.544
X196.046Y-78.894
X196.046Y-91.504
X196.046Y-97.854
X196.046Y-110.734
X196.046Y-117.084
X196.046Y-129.624
X196.046Y-135.974
X199.226Y-53.364
X199.226Y-59.714
X199.226Y-72.544
X199.226Y-78.894
X199.226Y-91.504
X199.226Y-97.854
X199.226Y-110.734
X199.226Y-117.084
X199.226Y-129.624
X199.226Y-135.974
X202.406Y-53.364
X202.406Y-59.714
X202.406Y-72.544
X202.406Y-78.894
X202.406Y-91.504
X202.406Y-97.854
X202.406Y-110.734
X202.406Y-117.084
X202.406Y-129.624
X202.406Y-135.974
X205.586Y-53.364
X205.586Y-59.714
X205.586Y-72.544
X205.586Y-78.894
X205.586Y-91.504
X205.586Y-97.854
X205.586Y-110.734
X205.586Y-117.084
X205.586Y-129.624
X205.586Y-135.974
X208.766Y-53.364
X208.766Y-59.714
X208.766Y-72.544
X208.766Y-78.894
X208.766Y-91.504
X208.766Y-97.854
X208.766Y-110.734
X208.766Y-117.084
X208.766Y-129.624
X208.766Y-135.974
X211.946Y-53.364
X211.946Y-59.714
X211.946Y-72.544
X211.946Y-78.894
X211.946Y-91.504
X211.946Y-97.854
X211.946Y-110.734
X211.946Y-117.084
X211.946Y-129.624
X211.946Y-135.974
X215.126Y-53.364
X215.126Y-59.714
X215.126Y-72.544
X215.126Y-78.894
X215.126Y-91.504
X215.126Y-97.854
X215.126Y-110.734
X215.126Y-117.084
X215.126Y-129.624
X215.126Y-135.974
X218.306Y-53.364
X218.306Y-59.714
X218.306Y-72.544
X218.306Y-78.894
X218.306Y-91.504
X218.306Y-97.854
X218.306Y-110.734
X218.306Y-117.084
X218.306Y-129.624
X218.306Y-135.974
X221.486Y-53.364
X221.486Y-59.714
X221.486Y-72.544
X221.486Y-78.894
X221.486Y-91.504
X221.486Y-97.854
X221.486Y-110.734
X221.486Y-117.084
X221.486Y-129.624
X221.486Y-135.974
X224.666Y-53.364
X224.666Y-59.714
X224.666Y-72.544
X224.666Y-78.894
X224.666Y-91.504
X224.666Y-97.854
X224.666Y-110.734
X224.666Y-117.084
X224.666Y-129.624
X224.666Y-135.974
T4
X91.602Y-43.434
X95.758Y-43.434
X143.602Y-43.434
X147.758Y-43.434
T0
M30
