%TF.GenerationSoftware,KiCad,Pcbnew,(6.0.0)*%
%TF.CreationDate,2022-01-24T17:49:48-05:00*%
%TF.ProjectId,crusader 2 backplane,63727573-6164-4657-9220-32206261636b,rev?*%
%TF.SameCoordinates,Original*%
%TF.FileFunction,Copper,L1,Top*%
%TF.FilePolarity,Positive*%
%FSLAX46Y46*%
G04 Gerber Fmt 4.6, Leading zero omitted, Abs format (unit mm)*
G04 Created by KiCad (PCBNEW (6.0.0)) date 2022-01-24 17:49:48*
%MOMM*%
%LPD*%
G01*
G04 APERTURE LIST*
%ADD10C,0.300000*%
%TA.AperFunction,NonConductor*%
%ADD11C,0.300000*%
%TD*%
%TA.AperFunction,ComponentPad*%
%ADD12R,1.700000X1.700000*%
%TD*%
%TA.AperFunction,ComponentPad*%
%ADD13R,1.755000X1.755000*%
%TD*%
%TA.AperFunction,ComponentPad*%
%ADD14C,1.755000*%
%TD*%
%TA.AperFunction,ComponentPad*%
%ADD15R,2.800000X2.800000*%
%TD*%
%TA.AperFunction,ComponentPad*%
%ADD16O,2.800000X2.800000*%
%TD*%
%TA.AperFunction,ViaPad*%
%ADD17C,0.800000*%
%TD*%
%TA.AperFunction,Conductor*%
%ADD18C,1.100000*%
%TD*%
%TA.AperFunction,Conductor*%
%ADD19C,0.350000*%
%TD*%
G04 APERTURE END LIST*
D10*
D11*
X256849333Y-77340666D02*
X259649333Y-77340666D01*
X259649333Y-78407333D01*
X259516000Y-78674000D01*
X259382666Y-78807333D01*
X259116000Y-78940666D01*
X258716000Y-78940666D01*
X258449333Y-78807333D01*
X258316000Y-78674000D01*
X258182666Y-78407333D01*
X258182666Y-77340666D01*
X257116000Y-81740666D02*
X256982666Y-81607333D01*
X256849333Y-81207333D01*
X256849333Y-80940666D01*
X256982666Y-80540666D01*
X257249333Y-80274000D01*
X257516000Y-80140666D01*
X258049333Y-80007333D01*
X258449333Y-80007333D01*
X258982666Y-80140666D01*
X259249333Y-80274000D01*
X259516000Y-80540666D01*
X259649333Y-80940666D01*
X259649333Y-81207333D01*
X259516000Y-81607333D01*
X259382666Y-81740666D01*
X258316000Y-83874000D02*
X258182666Y-84274000D01*
X258049333Y-84407333D01*
X257782666Y-84540666D01*
X257382666Y-84540666D01*
X257116000Y-84407333D01*
X256982666Y-84274000D01*
X256849333Y-84007333D01*
X256849333Y-82940666D01*
X259649333Y-82940666D01*
X259649333Y-83874000D01*
X259516000Y-84140666D01*
X259382666Y-84274000D01*
X259116000Y-84407333D01*
X258849333Y-84407333D01*
X258582666Y-84274000D01*
X258449333Y-84140666D01*
X258316000Y-83874000D01*
X258316000Y-82940666D01*
X258716000Y-86940666D02*
X256849333Y-86940666D01*
X259782666Y-86274000D02*
X257782666Y-85607333D01*
X257782666Y-87340666D01*
X259382666Y-88274000D02*
X259516000Y-88407333D01*
X259649333Y-88674000D01*
X259649333Y-89340666D01*
X259516000Y-89607333D01*
X259382666Y-89740666D01*
X259116000Y-89874000D01*
X258849333Y-89874000D01*
X258449333Y-89740666D01*
X256849333Y-88140666D01*
X256849333Y-89874000D01*
X259649333Y-92274000D02*
X259649333Y-91740666D01*
X259516000Y-91474000D01*
X259382666Y-91340666D01*
X258982666Y-91074000D01*
X258449333Y-90940666D01*
X257382666Y-90940666D01*
X257116000Y-91074000D01*
X256982666Y-91207333D01*
X256849333Y-91474000D01*
X256849333Y-92007333D01*
X256982666Y-92274000D01*
X257116000Y-92407333D01*
X257382666Y-92540666D01*
X258049333Y-92540666D01*
X258316000Y-92407333D01*
X258449333Y-92274000D01*
X258582666Y-92007333D01*
X258582666Y-91474000D01*
X258449333Y-91207333D01*
X258316000Y-91074000D01*
X258049333Y-90940666D01*
X258316000Y-94674000D02*
X258182666Y-95074000D01*
X258049333Y-95207333D01*
X257782666Y-95340666D01*
X257382666Y-95340666D01*
X257116000Y-95207333D01*
X256982666Y-95074000D01*
X256849333Y-94807333D01*
X256849333Y-93740666D01*
X259649333Y-93740666D01*
X259649333Y-94674000D01*
X259516000Y-94940666D01*
X259382666Y-95074000D01*
X259116000Y-95207333D01*
X258849333Y-95207333D01*
X258582666Y-95074000D01*
X258449333Y-94940666D01*
X258316000Y-94674000D01*
X258316000Y-93740666D01*
D12*
%TO.P,J7,1,Pin_1*%
%TO.N,GND*%
X76231000Y-47664000D03*
%TD*%
%TO.P,J11,1,Pin_1*%
%TO.N,VCC*%
X107436000Y-42074000D03*
%TD*%
D13*
%TO.P,J1,1,1*%
%TO.N,VCC*%
X68846000Y-117084000D03*
D14*
%TO.P,J1,2,2*%
X68846000Y-110734000D03*
%TO.P,J1,3,3*%
%TO.N,/3*%
X72026000Y-117084000D03*
%TO.P,J1,4,4*%
%TO.N,/4*%
X72026000Y-110734000D03*
%TO.P,J1,5,5*%
%TO.N,/5*%
X75206000Y-117084000D03*
%TO.P,J1,6,6*%
%TO.N,/6*%
X75206000Y-110734000D03*
%TO.P,J1,7,7*%
%TO.N,/7*%
X78386000Y-117084000D03*
%TO.P,J1,8,8*%
%TO.N,/8*%
X78386000Y-110734000D03*
%TO.P,J1,9,9*%
%TO.N,/9*%
X81566000Y-117084000D03*
%TO.P,J1,10,10*%
%TO.N,/10*%
X81566000Y-110734000D03*
%TO.P,J1,11,11*%
%TO.N,/11*%
X84746000Y-117084000D03*
%TO.P,J1,12,12*%
%TO.N,/12*%
X84746000Y-110734000D03*
%TO.P,J1,13,13*%
%TO.N,/13*%
X87926000Y-117084000D03*
%TO.P,J1,14,14*%
%TO.N,/14*%
X87926000Y-110734000D03*
%TO.P,J1,15,15*%
%TO.N,/15*%
X91106000Y-117084000D03*
%TO.P,J1,16,16*%
%TO.N,/16*%
X91106000Y-110734000D03*
%TO.P,J1,17,17*%
%TO.N,/17*%
X94286000Y-117084000D03*
%TO.P,J1,18,18*%
%TO.N,/18*%
X94286000Y-110734000D03*
%TO.P,J1,19,19*%
%TO.N,/19*%
X97466000Y-117084000D03*
%TO.P,J1,20,20*%
%TO.N,/20*%
X97466000Y-110734000D03*
%TO.P,J1,21,21*%
%TO.N,/21*%
X100646000Y-117084000D03*
%TO.P,J1,22,22*%
%TO.N,/22*%
X100646000Y-110734000D03*
%TO.P,J1,23,23*%
%TO.N,/23*%
X103826000Y-117084000D03*
%TO.P,J1,24,24*%
%TO.N,/24*%
X103826000Y-110734000D03*
%TO.P,J1,25,25*%
%TO.N,/25*%
X107006000Y-117084000D03*
%TO.P,J1,26,26*%
%TO.N,/26*%
X107006000Y-110734000D03*
%TO.P,J1,27,27*%
%TO.N,/27*%
X110186000Y-117084000D03*
%TO.P,J1,28,28*%
%TO.N,/28*%
X110186000Y-110734000D03*
%TO.P,J1,29,29*%
%TO.N,/29*%
X113366000Y-117084000D03*
%TO.P,J1,30,30*%
%TO.N,/30*%
X113366000Y-110734000D03*
%TO.P,J1,31,31*%
%TO.N,/31*%
X116546000Y-117084000D03*
%TO.P,J1,32,32*%
%TO.N,/32*%
X116546000Y-110734000D03*
%TO.P,J1,33,33*%
%TO.N,/33*%
X119726000Y-117084000D03*
%TO.P,J1,34,34*%
%TO.N,/34*%
X119726000Y-110734000D03*
%TO.P,J1,35,35*%
%TO.N,/35*%
X122906000Y-117084000D03*
%TO.P,J1,36,36*%
%TO.N,/36*%
X122906000Y-110734000D03*
%TO.P,J1,37,37*%
%TO.N,/37*%
X126086000Y-117084000D03*
%TO.P,J1,38,38*%
%TO.N,/38*%
X126086000Y-110734000D03*
%TO.P,J1,39,39*%
%TO.N,/39*%
X129266000Y-117084000D03*
%TO.P,J1,40,40*%
%TO.N,/40*%
X129266000Y-110734000D03*
%TO.P,J1,41,41*%
%TO.N,/41*%
X132446000Y-117084000D03*
%TO.P,J1,42,42*%
%TO.N,/42*%
X132446000Y-110734000D03*
%TO.P,J1,43,43*%
%TO.N,/43*%
X135626000Y-117084000D03*
%TO.P,J1,44,44*%
%TO.N,/44*%
X135626000Y-110734000D03*
%TO.P,J1,45,45*%
%TO.N,/45*%
X138806000Y-117084000D03*
%TO.P,J1,46,46*%
%TO.N,/46*%
X138806000Y-110734000D03*
%TO.P,J1,47,47*%
%TO.N,/47*%
X141986000Y-117084000D03*
%TO.P,J1,48,48*%
%TO.N,/48*%
X141986000Y-110734000D03*
%TO.P,J1,49,49*%
%TO.N,/49*%
X145166000Y-117084000D03*
%TO.P,J1,50,50*%
%TO.N,/50*%
X145166000Y-110734000D03*
%TO.P,J1,51,51*%
%TO.N,/51*%
X148346000Y-117084000D03*
%TO.P,J1,52,52*%
%TO.N,/52*%
X148346000Y-110734000D03*
%TO.P,J1,53,53*%
%TO.N,/53*%
X151526000Y-117084000D03*
%TO.P,J1,54,54*%
%TO.N,/54*%
X151526000Y-110734000D03*
%TO.P,J1,55,55*%
%TO.N,/55*%
X154706000Y-117084000D03*
%TO.P,J1,56,56*%
%TO.N,/56*%
X154706000Y-110734000D03*
%TO.P,J1,57,57*%
%TO.N,/57*%
X157886000Y-117084000D03*
%TO.P,J1,58,58*%
%TO.N,/58*%
X157886000Y-110734000D03*
%TO.P,J1,59,59*%
%TO.N,/59*%
X161066000Y-117084000D03*
%TO.P,J1,60,60*%
%TO.N,/60*%
X161066000Y-110734000D03*
%TO.P,J1,61,61*%
%TO.N,/61*%
X164246000Y-117084000D03*
%TO.P,J1,62,62*%
%TO.N,/62*%
X164246000Y-110734000D03*
%TO.P,J1,63,63*%
%TO.N,/63*%
X167426000Y-117084000D03*
%TO.P,J1,64,64*%
%TO.N,/64*%
X167426000Y-110734000D03*
%TO.P,J1,65,65*%
%TO.N,/65*%
X170606000Y-117084000D03*
%TO.P,J1,66,66*%
%TO.N,/66*%
X170606000Y-110734000D03*
%TO.P,J1,67,67*%
%TO.N,/67*%
X173786000Y-117084000D03*
%TO.P,J1,68,68*%
%TO.N,/68*%
X173786000Y-110734000D03*
%TO.P,J1,69,69*%
%TO.N,/69*%
X176966000Y-117084000D03*
%TO.P,J1,70,70*%
%TO.N,/70*%
X176966000Y-110734000D03*
%TO.P,J1,71,71*%
%TO.N,/71*%
X180146000Y-117084000D03*
%TO.P,J1,72,72*%
%TO.N,/72*%
X180146000Y-110734000D03*
%TO.P,J1,73,73*%
%TO.N,/73*%
X183326000Y-117084000D03*
%TO.P,J1,74,74*%
%TO.N,/74*%
X183326000Y-110734000D03*
%TO.P,J1,75,75*%
%TO.N,/75*%
X186506000Y-117084000D03*
%TO.P,J1,76,76*%
%TO.N,/76*%
X186506000Y-110734000D03*
%TO.P,J1,77,77*%
%TO.N,/77*%
X189686000Y-117084000D03*
%TO.P,J1,78,78*%
%TO.N,/78*%
X189686000Y-110734000D03*
%TO.P,J1,79,79*%
%TO.N,/79*%
X192866000Y-117084000D03*
%TO.P,J1,80,80*%
%TO.N,/80*%
X192866000Y-110734000D03*
%TO.P,J1,81,81*%
%TO.N,/81*%
X196046000Y-117084000D03*
%TO.P,J1,82,82*%
%TO.N,/82*%
X196046000Y-110734000D03*
%TO.P,J1,83,83*%
%TO.N,/83*%
X199226000Y-117084000D03*
%TO.P,J1,84,84*%
%TO.N,/84*%
X199226000Y-110734000D03*
%TO.P,J1,85,85*%
%TO.N,/85*%
X202406000Y-117084000D03*
%TO.P,J1,86,86*%
%TO.N,/86*%
X202406000Y-110734000D03*
%TO.P,J1,87,87*%
%TO.N,/87*%
X205586000Y-117084000D03*
%TO.P,J1,88,88*%
%TO.N,/88*%
X205586000Y-110734000D03*
%TO.P,J1,89,89*%
%TO.N,/89*%
X208766000Y-117084000D03*
%TO.P,J1,90,90*%
%TO.N,/90*%
X208766000Y-110734000D03*
%TO.P,J1,91,91*%
%TO.N,/91*%
X211946000Y-117084000D03*
%TO.P,J1,92,92*%
%TO.N,/92*%
X211946000Y-110734000D03*
%TO.P,J1,93,93*%
%TO.N,/93*%
X215126000Y-117084000D03*
%TO.P,J1,94,94*%
%TO.N,/94*%
X215126000Y-110734000D03*
%TO.P,J1,95,95*%
%TO.N,/95*%
X218306000Y-117084000D03*
%TO.P,J1,96,96*%
%TO.N,/96*%
X218306000Y-110734000D03*
%TO.P,J1,97,97*%
%TO.N,/97*%
X221486000Y-117084000D03*
%TO.P,J1,98,98*%
%TO.N,/98*%
X221486000Y-110734000D03*
%TO.P,J1,99,99*%
%TO.N,GND*%
X224666000Y-117084000D03*
%TO.P,J1,100,100*%
X224666000Y-110734000D03*
%TD*%
D12*
%TO.P,J9,1,Pin_1*%
%TO.N,GND*%
X82581000Y-47664000D03*
%TD*%
D13*
%TO.P,J5,1,1*%
%TO.N,VCC*%
X68846000Y-135974000D03*
D14*
%TO.P,J5,2,2*%
X68846000Y-129624000D03*
%TO.P,J5,3,3*%
%TO.N,/3*%
X72026000Y-135974000D03*
%TO.P,J5,4,4*%
%TO.N,/4*%
X72026000Y-129624000D03*
%TO.P,J5,5,5*%
%TO.N,/5*%
X75206000Y-135974000D03*
%TO.P,J5,6,6*%
%TO.N,/6*%
X75206000Y-129624000D03*
%TO.P,J5,7,7*%
%TO.N,/7*%
X78386000Y-135974000D03*
%TO.P,J5,8,8*%
%TO.N,/8*%
X78386000Y-129624000D03*
%TO.P,J5,9,9*%
%TO.N,/9*%
X81566000Y-135974000D03*
%TO.P,J5,10,10*%
%TO.N,/10*%
X81566000Y-129624000D03*
%TO.P,J5,11,11*%
%TO.N,/11*%
X84746000Y-135974000D03*
%TO.P,J5,12,12*%
%TO.N,/12*%
X84746000Y-129624000D03*
%TO.P,J5,13,13*%
%TO.N,/13*%
X87926000Y-135974000D03*
%TO.P,J5,14,14*%
%TO.N,/14*%
X87926000Y-129624000D03*
%TO.P,J5,15,15*%
%TO.N,/15*%
X91106000Y-135974000D03*
%TO.P,J5,16,16*%
%TO.N,/16*%
X91106000Y-129624000D03*
%TO.P,J5,17,17*%
%TO.N,/17*%
X94286000Y-135974000D03*
%TO.P,J5,18,18*%
%TO.N,/18*%
X94286000Y-129624000D03*
%TO.P,J5,19,19*%
%TO.N,/19*%
X97466000Y-135974000D03*
%TO.P,J5,20,20*%
%TO.N,/20*%
X97466000Y-129624000D03*
%TO.P,J5,21,21*%
%TO.N,/21*%
X100646000Y-135974000D03*
%TO.P,J5,22,22*%
%TO.N,/22*%
X100646000Y-129624000D03*
%TO.P,J5,23,23*%
%TO.N,/23*%
X103826000Y-135974000D03*
%TO.P,J5,24,24*%
%TO.N,/24*%
X103826000Y-129624000D03*
%TO.P,J5,25,25*%
%TO.N,/25*%
X107006000Y-135974000D03*
%TO.P,J5,26,26*%
%TO.N,/26*%
X107006000Y-129624000D03*
%TO.P,J5,27,27*%
%TO.N,/27*%
X110186000Y-135974000D03*
%TO.P,J5,28,28*%
%TO.N,/28*%
X110186000Y-129624000D03*
%TO.P,J5,29,29*%
%TO.N,/29*%
X113366000Y-135974000D03*
%TO.P,J5,30,30*%
%TO.N,/30*%
X113366000Y-129624000D03*
%TO.P,J5,31,31*%
%TO.N,/31*%
X116546000Y-135974000D03*
%TO.P,J5,32,32*%
%TO.N,/32*%
X116546000Y-129624000D03*
%TO.P,J5,33,33*%
%TO.N,/33*%
X119726000Y-135974000D03*
%TO.P,J5,34,34*%
%TO.N,/34*%
X119726000Y-129624000D03*
%TO.P,J5,35,35*%
%TO.N,/35*%
X122906000Y-135974000D03*
%TO.P,J5,36,36*%
%TO.N,/36*%
X122906000Y-129624000D03*
%TO.P,J5,37,37*%
%TO.N,/37*%
X126086000Y-135974000D03*
%TO.P,J5,38,38*%
%TO.N,/38*%
X126086000Y-129624000D03*
%TO.P,J5,39,39*%
%TO.N,/39*%
X129266000Y-135974000D03*
%TO.P,J5,40,40*%
%TO.N,/40*%
X129266000Y-129624000D03*
%TO.P,J5,41,41*%
%TO.N,/41*%
X132446000Y-135974000D03*
%TO.P,J5,42,42*%
%TO.N,/42*%
X132446000Y-129624000D03*
%TO.P,J5,43,43*%
%TO.N,/43*%
X135626000Y-135974000D03*
%TO.P,J5,44,44*%
%TO.N,/44*%
X135626000Y-129624000D03*
%TO.P,J5,45,45*%
%TO.N,/45*%
X138806000Y-135974000D03*
%TO.P,J5,46,46*%
%TO.N,/46*%
X138806000Y-129624000D03*
%TO.P,J5,47,47*%
%TO.N,/47*%
X141986000Y-135974000D03*
%TO.P,J5,48,48*%
%TO.N,/48*%
X141986000Y-129624000D03*
%TO.P,J5,49,49*%
%TO.N,/49*%
X145166000Y-135974000D03*
%TO.P,J5,50,50*%
%TO.N,/50*%
X145166000Y-129624000D03*
%TO.P,J5,51,51*%
%TO.N,/51*%
X148346000Y-135974000D03*
%TO.P,J5,52,52*%
%TO.N,/52*%
X148346000Y-129624000D03*
%TO.P,J5,53,53*%
%TO.N,/53*%
X151526000Y-135974000D03*
%TO.P,J5,54,54*%
%TO.N,/54*%
X151526000Y-129624000D03*
%TO.P,J5,55,55*%
%TO.N,/55*%
X154706000Y-135974000D03*
%TO.P,J5,56,56*%
%TO.N,/56*%
X154706000Y-129624000D03*
%TO.P,J5,57,57*%
%TO.N,/57*%
X157886000Y-135974000D03*
%TO.P,J5,58,58*%
%TO.N,/58*%
X157886000Y-129624000D03*
%TO.P,J5,59,59*%
%TO.N,/59*%
X161066000Y-135974000D03*
%TO.P,J5,60,60*%
%TO.N,/60*%
X161066000Y-129624000D03*
%TO.P,J5,61,61*%
%TO.N,/61*%
X164246000Y-135974000D03*
%TO.P,J5,62,62*%
%TO.N,/62*%
X164246000Y-129624000D03*
%TO.P,J5,63,63*%
%TO.N,/63*%
X167426000Y-135974000D03*
%TO.P,J5,64,64*%
%TO.N,/64*%
X167426000Y-129624000D03*
%TO.P,J5,65,65*%
%TO.N,/65*%
X170606000Y-135974000D03*
%TO.P,J5,66,66*%
%TO.N,/66*%
X170606000Y-129624000D03*
%TO.P,J5,67,67*%
%TO.N,/67*%
X173786000Y-135974000D03*
%TO.P,J5,68,68*%
%TO.N,/68*%
X173786000Y-129624000D03*
%TO.P,J5,69,69*%
%TO.N,/69*%
X176966000Y-135974000D03*
%TO.P,J5,70,70*%
%TO.N,/70*%
X176966000Y-129624000D03*
%TO.P,J5,71,71*%
%TO.N,/71*%
X180146000Y-135974000D03*
%TO.P,J5,72,72*%
%TO.N,/72*%
X180146000Y-129624000D03*
%TO.P,J5,73,73*%
%TO.N,/73*%
X183326000Y-135974000D03*
%TO.P,J5,74,74*%
%TO.N,/74*%
X183326000Y-129624000D03*
%TO.P,J5,75,75*%
%TO.N,/75*%
X186506000Y-135974000D03*
%TO.P,J5,76,76*%
%TO.N,/76*%
X186506000Y-129624000D03*
%TO.P,J5,77,77*%
%TO.N,/77*%
X189686000Y-135974000D03*
%TO.P,J5,78,78*%
%TO.N,/78*%
X189686000Y-129624000D03*
%TO.P,J5,79,79*%
%TO.N,/79*%
X192866000Y-135974000D03*
%TO.P,J5,80,80*%
%TO.N,/80*%
X192866000Y-129624000D03*
%TO.P,J5,81,81*%
%TO.N,/81*%
X196046000Y-135974000D03*
%TO.P,J5,82,82*%
%TO.N,/82*%
X196046000Y-129624000D03*
%TO.P,J5,83,83*%
%TO.N,/83*%
X199226000Y-135974000D03*
%TO.P,J5,84,84*%
%TO.N,/84*%
X199226000Y-129624000D03*
%TO.P,J5,85,85*%
%TO.N,/85*%
X202406000Y-135974000D03*
%TO.P,J5,86,86*%
%TO.N,/86*%
X202406000Y-129624000D03*
%TO.P,J5,87,87*%
%TO.N,/87*%
X205586000Y-135974000D03*
%TO.P,J5,88,88*%
%TO.N,/88*%
X205586000Y-129624000D03*
%TO.P,J5,89,89*%
%TO.N,/89*%
X208766000Y-135974000D03*
%TO.P,J5,90,90*%
%TO.N,/90*%
X208766000Y-129624000D03*
%TO.P,J5,91,91*%
%TO.N,/91*%
X211946000Y-135974000D03*
%TO.P,J5,92,92*%
%TO.N,/92*%
X211946000Y-129624000D03*
%TO.P,J5,93,93*%
%TO.N,/93*%
X215126000Y-135974000D03*
%TO.P,J5,94,94*%
%TO.N,/94*%
X215126000Y-129624000D03*
%TO.P,J5,95,95*%
%TO.N,/95*%
X218306000Y-135974000D03*
%TO.P,J5,96,96*%
%TO.N,/96*%
X218306000Y-129624000D03*
%TO.P,J5,97,97*%
%TO.N,/97*%
X221486000Y-135974000D03*
%TO.P,J5,98,98*%
%TO.N,/98*%
X221486000Y-129624000D03*
%TO.P,J5,99,99*%
%TO.N,GND*%
X224666000Y-135974000D03*
%TO.P,J5,100,100*%
X224666000Y-129624000D03*
%TD*%
D12*
%TO.P,J16,1,Pin_1*%
%TO.N,/29*%
X123311000Y-42074000D03*
%TD*%
%TO.P,J18,1,Pin_1*%
%TO.N,GND*%
X129661000Y-42074000D03*
%TD*%
%TO.P,J17,1,Pin_1*%
%TO.N,unconnected-(J17-Pad1)*%
X126486000Y-42074000D03*
%TD*%
D13*
%TO.P,J4,1,1*%
%TO.N,VCC*%
X68846000Y-59714000D03*
D14*
%TO.P,J4,2,2*%
X68846000Y-53364000D03*
%TO.P,J4,3,3*%
%TO.N,/3*%
X72026000Y-59714000D03*
%TO.P,J4,4,4*%
%TO.N,/4*%
X72026000Y-53364000D03*
%TO.P,J4,5,5*%
%TO.N,/5*%
X75206000Y-59714000D03*
%TO.P,J4,6,6*%
%TO.N,/6*%
X75206000Y-53364000D03*
%TO.P,J4,7,7*%
%TO.N,/7*%
X78386000Y-59714000D03*
%TO.P,J4,8,8*%
%TO.N,/8*%
X78386000Y-53364000D03*
%TO.P,J4,9,9*%
%TO.N,/9*%
X81566000Y-59714000D03*
%TO.P,J4,10,10*%
%TO.N,/10*%
X81566000Y-53364000D03*
%TO.P,J4,11,11*%
%TO.N,/11*%
X84746000Y-59714000D03*
%TO.P,J4,12,12*%
%TO.N,/12*%
X84746000Y-53364000D03*
%TO.P,J4,13,13*%
%TO.N,/13*%
X87926000Y-59714000D03*
%TO.P,J4,14,14*%
%TO.N,/14*%
X87926000Y-53364000D03*
%TO.P,J4,15,15*%
%TO.N,/15*%
X91106000Y-59714000D03*
%TO.P,J4,16,16*%
%TO.N,/16*%
X91106000Y-53364000D03*
%TO.P,J4,17,17*%
%TO.N,/17*%
X94286000Y-59714000D03*
%TO.P,J4,18,18*%
%TO.N,/18*%
X94286000Y-53364000D03*
%TO.P,J4,19,19*%
%TO.N,/19*%
X97466000Y-59714000D03*
%TO.P,J4,20,20*%
%TO.N,/20*%
X97466000Y-53364000D03*
%TO.P,J4,21,21*%
%TO.N,/21*%
X100646000Y-59714000D03*
%TO.P,J4,22,22*%
%TO.N,/22*%
X100646000Y-53364000D03*
%TO.P,J4,23,23*%
%TO.N,/23*%
X103826000Y-59714000D03*
%TO.P,J4,24,24*%
%TO.N,/24*%
X103826000Y-53364000D03*
%TO.P,J4,25,25*%
%TO.N,/25*%
X107006000Y-59714000D03*
%TO.P,J4,26,26*%
%TO.N,/26*%
X107006000Y-53364000D03*
%TO.P,J4,27,27*%
%TO.N,/27*%
X110186000Y-59714000D03*
%TO.P,J4,28,28*%
%TO.N,/28*%
X110186000Y-53364000D03*
%TO.P,J4,29,29*%
%TO.N,/29*%
X113366000Y-59714000D03*
%TO.P,J4,30,30*%
%TO.N,/30*%
X113366000Y-53364000D03*
%TO.P,J4,31,31*%
%TO.N,/31*%
X116546000Y-59714000D03*
%TO.P,J4,32,32*%
%TO.N,/32*%
X116546000Y-53364000D03*
%TO.P,J4,33,33*%
%TO.N,/33*%
X119726000Y-59714000D03*
%TO.P,J4,34,34*%
%TO.N,/34*%
X119726000Y-53364000D03*
%TO.P,J4,35,35*%
%TO.N,/35*%
X122906000Y-59714000D03*
%TO.P,J4,36,36*%
%TO.N,/36*%
X122906000Y-53364000D03*
%TO.P,J4,37,37*%
%TO.N,/37*%
X126086000Y-59714000D03*
%TO.P,J4,38,38*%
%TO.N,/38*%
X126086000Y-53364000D03*
%TO.P,J4,39,39*%
%TO.N,/39*%
X129266000Y-59714000D03*
%TO.P,J4,40,40*%
%TO.N,/40*%
X129266000Y-53364000D03*
%TO.P,J4,41,41*%
%TO.N,/41*%
X132446000Y-59714000D03*
%TO.P,J4,42,42*%
%TO.N,/42*%
X132446000Y-53364000D03*
%TO.P,J4,43,43*%
%TO.N,/43*%
X135626000Y-59714000D03*
%TO.P,J4,44,44*%
%TO.N,/44*%
X135626000Y-53364000D03*
%TO.P,J4,45,45*%
%TO.N,/45*%
X138806000Y-59714000D03*
%TO.P,J4,46,46*%
%TO.N,/46*%
X138806000Y-53364000D03*
%TO.P,J4,47,47*%
%TO.N,/47*%
X141986000Y-59714000D03*
%TO.P,J4,48,48*%
%TO.N,/48*%
X141986000Y-53364000D03*
%TO.P,J4,49,49*%
%TO.N,/49*%
X145166000Y-59714000D03*
%TO.P,J4,50,50*%
%TO.N,/50*%
X145166000Y-53364000D03*
%TO.P,J4,51,51*%
%TO.N,/51*%
X148346000Y-59714000D03*
%TO.P,J4,52,52*%
%TO.N,/52*%
X148346000Y-53364000D03*
%TO.P,J4,53,53*%
%TO.N,/53*%
X151526000Y-59714000D03*
%TO.P,J4,54,54*%
%TO.N,/54*%
X151526000Y-53364000D03*
%TO.P,J4,55,55*%
%TO.N,/55*%
X154706000Y-59714000D03*
%TO.P,J4,56,56*%
%TO.N,/56*%
X154706000Y-53364000D03*
%TO.P,J4,57,57*%
%TO.N,/57*%
X157886000Y-59714000D03*
%TO.P,J4,58,58*%
%TO.N,/58*%
X157886000Y-53364000D03*
%TO.P,J4,59,59*%
%TO.N,/59*%
X161066000Y-59714000D03*
%TO.P,J4,60,60*%
%TO.N,/60*%
X161066000Y-53364000D03*
%TO.P,J4,61,61*%
%TO.N,/61*%
X164246000Y-59714000D03*
%TO.P,J4,62,62*%
%TO.N,/62*%
X164246000Y-53364000D03*
%TO.P,J4,63,63*%
%TO.N,/63*%
X167426000Y-59714000D03*
%TO.P,J4,64,64*%
%TO.N,/64*%
X167426000Y-53364000D03*
%TO.P,J4,65,65*%
%TO.N,/65*%
X170606000Y-59714000D03*
%TO.P,J4,66,66*%
%TO.N,/66*%
X170606000Y-53364000D03*
%TO.P,J4,67,67*%
%TO.N,/67*%
X173786000Y-59714000D03*
%TO.P,J4,68,68*%
%TO.N,/68*%
X173786000Y-53364000D03*
%TO.P,J4,69,69*%
%TO.N,/69*%
X176966000Y-59714000D03*
%TO.P,J4,70,70*%
%TO.N,/70*%
X176966000Y-53364000D03*
%TO.P,J4,71,71*%
%TO.N,/71*%
X180146000Y-59714000D03*
%TO.P,J4,72,72*%
%TO.N,/72*%
X180146000Y-53364000D03*
%TO.P,J4,73,73*%
%TO.N,/73*%
X183326000Y-59714000D03*
%TO.P,J4,74,74*%
%TO.N,/74*%
X183326000Y-53364000D03*
%TO.P,J4,75,75*%
%TO.N,/75*%
X186506000Y-59714000D03*
%TO.P,J4,76,76*%
%TO.N,/76*%
X186506000Y-53364000D03*
%TO.P,J4,77,77*%
%TO.N,/77*%
X189686000Y-59714000D03*
%TO.P,J4,78,78*%
%TO.N,/78*%
X189686000Y-53364000D03*
%TO.P,J4,79,79*%
%TO.N,/79*%
X192866000Y-59714000D03*
%TO.P,J4,80,80*%
%TO.N,/80*%
X192866000Y-53364000D03*
%TO.P,J4,81,81*%
%TO.N,/81*%
X196046000Y-59714000D03*
%TO.P,J4,82,82*%
%TO.N,/82*%
X196046000Y-53364000D03*
%TO.P,J4,83,83*%
%TO.N,/83*%
X199226000Y-59714000D03*
%TO.P,J4,84,84*%
%TO.N,/84*%
X199226000Y-53364000D03*
%TO.P,J4,85,85*%
%TO.N,/85*%
X202406000Y-59714000D03*
%TO.P,J4,86,86*%
%TO.N,/86*%
X202406000Y-53364000D03*
%TO.P,J4,87,87*%
%TO.N,/87*%
X205586000Y-59714000D03*
%TO.P,J4,88,88*%
%TO.N,/88*%
X205586000Y-53364000D03*
%TO.P,J4,89,89*%
%TO.N,/89*%
X208766000Y-59714000D03*
%TO.P,J4,90,90*%
%TO.N,/90*%
X208766000Y-53364000D03*
%TO.P,J4,91,91*%
%TO.N,/91*%
X211946000Y-59714000D03*
%TO.P,J4,92,92*%
%TO.N,/92*%
X211946000Y-53364000D03*
%TO.P,J4,93,93*%
%TO.N,/93*%
X215126000Y-59714000D03*
%TO.P,J4,94,94*%
%TO.N,/94*%
X215126000Y-53364000D03*
%TO.P,J4,95,95*%
%TO.N,/95*%
X218306000Y-59714000D03*
%TO.P,J4,96,96*%
%TO.N,/96*%
X218306000Y-53364000D03*
%TO.P,J4,97,97*%
%TO.N,/97*%
X221486000Y-59714000D03*
%TO.P,J4,98,98*%
%TO.N,/98*%
X221486000Y-53364000D03*
%TO.P,J4,99,99*%
%TO.N,GND*%
X224666000Y-59714000D03*
%TO.P,J4,100,100*%
X224666000Y-53364000D03*
%TD*%
D12*
%TO.P,J13,1,Pin_1*%
%TO.N,GND*%
X113786000Y-42074000D03*
%TD*%
%TO.P,J10,1,Pin_1*%
%TO.N,/3*%
X85756000Y-47664000D03*
%TD*%
%TO.P,J6,1,Pin_1*%
%TO.N,/3*%
X73056000Y-47664000D03*
%TD*%
D13*
%TO.P,J3,1,1*%
%TO.N,VCC*%
X68846000Y-78894000D03*
D14*
%TO.P,J3,2,2*%
X68846000Y-72544000D03*
%TO.P,J3,3,3*%
%TO.N,/3*%
X72026000Y-78894000D03*
%TO.P,J3,4,4*%
%TO.N,/4*%
X72026000Y-72544000D03*
%TO.P,J3,5,5*%
%TO.N,/5*%
X75206000Y-78894000D03*
%TO.P,J3,6,6*%
%TO.N,/6*%
X75206000Y-72544000D03*
%TO.P,J3,7,7*%
%TO.N,/7*%
X78386000Y-78894000D03*
%TO.P,J3,8,8*%
%TO.N,/8*%
X78386000Y-72544000D03*
%TO.P,J3,9,9*%
%TO.N,/9*%
X81566000Y-78894000D03*
%TO.P,J3,10,10*%
%TO.N,/10*%
X81566000Y-72544000D03*
%TO.P,J3,11,11*%
%TO.N,/11*%
X84746000Y-78894000D03*
%TO.P,J3,12,12*%
%TO.N,/12*%
X84746000Y-72544000D03*
%TO.P,J3,13,13*%
%TO.N,/13*%
X87926000Y-78894000D03*
%TO.P,J3,14,14*%
%TO.N,/14*%
X87926000Y-72544000D03*
%TO.P,J3,15,15*%
%TO.N,/15*%
X91106000Y-78894000D03*
%TO.P,J3,16,16*%
%TO.N,/16*%
X91106000Y-72544000D03*
%TO.P,J3,17,17*%
%TO.N,/17*%
X94286000Y-78894000D03*
%TO.P,J3,18,18*%
%TO.N,/18*%
X94286000Y-72544000D03*
%TO.P,J3,19,19*%
%TO.N,/19*%
X97466000Y-78894000D03*
%TO.P,J3,20,20*%
%TO.N,/20*%
X97466000Y-72544000D03*
%TO.P,J3,21,21*%
%TO.N,/21*%
X100646000Y-78894000D03*
%TO.P,J3,22,22*%
%TO.N,/22*%
X100646000Y-72544000D03*
%TO.P,J3,23,23*%
%TO.N,/23*%
X103826000Y-78894000D03*
%TO.P,J3,24,24*%
%TO.N,/24*%
X103826000Y-72544000D03*
%TO.P,J3,25,25*%
%TO.N,/25*%
X107006000Y-78894000D03*
%TO.P,J3,26,26*%
%TO.N,/26*%
X107006000Y-72544000D03*
%TO.P,J3,27,27*%
%TO.N,/27*%
X110186000Y-78894000D03*
%TO.P,J3,28,28*%
%TO.N,/28*%
X110186000Y-72544000D03*
%TO.P,J3,29,29*%
%TO.N,/29*%
X113366000Y-78894000D03*
%TO.P,J3,30,30*%
%TO.N,/30*%
X113366000Y-72544000D03*
%TO.P,J3,31,31*%
%TO.N,/31*%
X116546000Y-78894000D03*
%TO.P,J3,32,32*%
%TO.N,/32*%
X116546000Y-72544000D03*
%TO.P,J3,33,33*%
%TO.N,/33*%
X119726000Y-78894000D03*
%TO.P,J3,34,34*%
%TO.N,/34*%
X119726000Y-72544000D03*
%TO.P,J3,35,35*%
%TO.N,/35*%
X122906000Y-78894000D03*
%TO.P,J3,36,36*%
%TO.N,/36*%
X122906000Y-72544000D03*
%TO.P,J3,37,37*%
%TO.N,/37*%
X126086000Y-78894000D03*
%TO.P,J3,38,38*%
%TO.N,/38*%
X126086000Y-72544000D03*
%TO.P,J3,39,39*%
%TO.N,/39*%
X129266000Y-78894000D03*
%TO.P,J3,40,40*%
%TO.N,/40*%
X129266000Y-72544000D03*
%TO.P,J3,41,41*%
%TO.N,/41*%
X132446000Y-78894000D03*
%TO.P,J3,42,42*%
%TO.N,/42*%
X132446000Y-72544000D03*
%TO.P,J3,43,43*%
%TO.N,/43*%
X135626000Y-78894000D03*
%TO.P,J3,44,44*%
%TO.N,/44*%
X135626000Y-72544000D03*
%TO.P,J3,45,45*%
%TO.N,/45*%
X138806000Y-78894000D03*
%TO.P,J3,46,46*%
%TO.N,/46*%
X138806000Y-72544000D03*
%TO.P,J3,47,47*%
%TO.N,/47*%
X141986000Y-78894000D03*
%TO.P,J3,48,48*%
%TO.N,/48*%
X141986000Y-72544000D03*
%TO.P,J3,49,49*%
%TO.N,/49*%
X145166000Y-78894000D03*
%TO.P,J3,50,50*%
%TO.N,/50*%
X145166000Y-72544000D03*
%TO.P,J3,51,51*%
%TO.N,/51*%
X148346000Y-78894000D03*
%TO.P,J3,52,52*%
%TO.N,/52*%
X148346000Y-72544000D03*
%TO.P,J3,53,53*%
%TO.N,/53*%
X151526000Y-78894000D03*
%TO.P,J3,54,54*%
%TO.N,/54*%
X151526000Y-72544000D03*
%TO.P,J3,55,55*%
%TO.N,/55*%
X154706000Y-78894000D03*
%TO.P,J3,56,56*%
%TO.N,/56*%
X154706000Y-72544000D03*
%TO.P,J3,57,57*%
%TO.N,/57*%
X157886000Y-78894000D03*
%TO.P,J3,58,58*%
%TO.N,/58*%
X157886000Y-72544000D03*
%TO.P,J3,59,59*%
%TO.N,/59*%
X161066000Y-78894000D03*
%TO.P,J3,60,60*%
%TO.N,/60*%
X161066000Y-72544000D03*
%TO.P,J3,61,61*%
%TO.N,/61*%
X164246000Y-78894000D03*
%TO.P,J3,62,62*%
%TO.N,/62*%
X164246000Y-72544000D03*
%TO.P,J3,63,63*%
%TO.N,/63*%
X167426000Y-78894000D03*
%TO.P,J3,64,64*%
%TO.N,/64*%
X167426000Y-72544000D03*
%TO.P,J3,65,65*%
%TO.N,/65*%
X170606000Y-78894000D03*
%TO.P,J3,66,66*%
%TO.N,/66*%
X170606000Y-72544000D03*
%TO.P,J3,67,67*%
%TO.N,/67*%
X173786000Y-78894000D03*
%TO.P,J3,68,68*%
%TO.N,/68*%
X173786000Y-72544000D03*
%TO.P,J3,69,69*%
%TO.N,/69*%
X176966000Y-78894000D03*
%TO.P,J3,70,70*%
%TO.N,/70*%
X176966000Y-72544000D03*
%TO.P,J3,71,71*%
%TO.N,/71*%
X180146000Y-78894000D03*
%TO.P,J3,72,72*%
%TO.N,/72*%
X180146000Y-72544000D03*
%TO.P,J3,73,73*%
%TO.N,/73*%
X183326000Y-78894000D03*
%TO.P,J3,74,74*%
%TO.N,/74*%
X183326000Y-72544000D03*
%TO.P,J3,75,75*%
%TO.N,/75*%
X186506000Y-78894000D03*
%TO.P,J3,76,76*%
%TO.N,/76*%
X186506000Y-72544000D03*
%TO.P,J3,77,77*%
%TO.N,/77*%
X189686000Y-78894000D03*
%TO.P,J3,78,78*%
%TO.N,/78*%
X189686000Y-72544000D03*
%TO.P,J3,79,79*%
%TO.N,/79*%
X192866000Y-78894000D03*
%TO.P,J3,80,80*%
%TO.N,/80*%
X192866000Y-72544000D03*
%TO.P,J3,81,81*%
%TO.N,/81*%
X196046000Y-78894000D03*
%TO.P,J3,82,82*%
%TO.N,/82*%
X196046000Y-72544000D03*
%TO.P,J3,83,83*%
%TO.N,/83*%
X199226000Y-78894000D03*
%TO.P,J3,84,84*%
%TO.N,/84*%
X199226000Y-72544000D03*
%TO.P,J3,85,85*%
%TO.N,/85*%
X202406000Y-78894000D03*
%TO.P,J3,86,86*%
%TO.N,/86*%
X202406000Y-72544000D03*
%TO.P,J3,87,87*%
%TO.N,/87*%
X205586000Y-78894000D03*
%TO.P,J3,88,88*%
%TO.N,/88*%
X205586000Y-72544000D03*
%TO.P,J3,89,89*%
%TO.N,/89*%
X208766000Y-78894000D03*
%TO.P,J3,90,90*%
%TO.N,/90*%
X208766000Y-72544000D03*
%TO.P,J3,91,91*%
%TO.N,/91*%
X211946000Y-78894000D03*
%TO.P,J3,92,92*%
%TO.N,/92*%
X211946000Y-72544000D03*
%TO.P,J3,93,93*%
%TO.N,/93*%
X215126000Y-78894000D03*
%TO.P,J3,94,94*%
%TO.N,/94*%
X215126000Y-72544000D03*
%TO.P,J3,95,95*%
%TO.N,/95*%
X218306000Y-78894000D03*
%TO.P,J3,96,96*%
%TO.N,/96*%
X218306000Y-72544000D03*
%TO.P,J3,97,97*%
%TO.N,/97*%
X221486000Y-78894000D03*
%TO.P,J3,98,98*%
%TO.N,/98*%
X221486000Y-72544000D03*
%TO.P,J3,99,99*%
%TO.N,GND*%
X224666000Y-78894000D03*
%TO.P,J3,100,100*%
X224666000Y-72544000D03*
%TD*%
D12*
%TO.P,J15,1,Pin_1*%
%TO.N,GND*%
X120136000Y-42074000D03*
%TD*%
D13*
%TO.P,J2,1,1*%
%TO.N,VCC*%
X68846000Y-97854000D03*
D14*
%TO.P,J2,2,2*%
X68846000Y-91504000D03*
%TO.P,J2,3,3*%
%TO.N,/3*%
X72026000Y-97854000D03*
%TO.P,J2,4,4*%
%TO.N,/4*%
X72026000Y-91504000D03*
%TO.P,J2,5,5*%
%TO.N,/5*%
X75206000Y-97854000D03*
%TO.P,J2,6,6*%
%TO.N,/6*%
X75206000Y-91504000D03*
%TO.P,J2,7,7*%
%TO.N,/7*%
X78386000Y-97854000D03*
%TO.P,J2,8,8*%
%TO.N,/8*%
X78386000Y-91504000D03*
%TO.P,J2,9,9*%
%TO.N,/9*%
X81566000Y-97854000D03*
%TO.P,J2,10,10*%
%TO.N,/10*%
X81566000Y-91504000D03*
%TO.P,J2,11,11*%
%TO.N,/11*%
X84746000Y-97854000D03*
%TO.P,J2,12,12*%
%TO.N,/12*%
X84746000Y-91504000D03*
%TO.P,J2,13,13*%
%TO.N,/13*%
X87926000Y-97854000D03*
%TO.P,J2,14,14*%
%TO.N,/14*%
X87926000Y-91504000D03*
%TO.P,J2,15,15*%
%TO.N,/15*%
X91106000Y-97854000D03*
%TO.P,J2,16,16*%
%TO.N,/16*%
X91106000Y-91504000D03*
%TO.P,J2,17,17*%
%TO.N,/17*%
X94286000Y-97854000D03*
%TO.P,J2,18,18*%
%TO.N,/18*%
X94286000Y-91504000D03*
%TO.P,J2,19,19*%
%TO.N,/19*%
X97466000Y-97854000D03*
%TO.P,J2,20,20*%
%TO.N,/20*%
X97466000Y-91504000D03*
%TO.P,J2,21,21*%
%TO.N,/21*%
X100646000Y-97854000D03*
%TO.P,J2,22,22*%
%TO.N,/22*%
X100646000Y-91504000D03*
%TO.P,J2,23,23*%
%TO.N,/23*%
X103826000Y-97854000D03*
%TO.P,J2,24,24*%
%TO.N,/24*%
X103826000Y-91504000D03*
%TO.P,J2,25,25*%
%TO.N,/25*%
X107006000Y-97854000D03*
%TO.P,J2,26,26*%
%TO.N,/26*%
X107006000Y-91504000D03*
%TO.P,J2,27,27*%
%TO.N,/27*%
X110186000Y-97854000D03*
%TO.P,J2,28,28*%
%TO.N,/28*%
X110186000Y-91504000D03*
%TO.P,J2,29,29*%
%TO.N,/29*%
X113366000Y-97854000D03*
%TO.P,J2,30,30*%
%TO.N,/30*%
X113366000Y-91504000D03*
%TO.P,J2,31,31*%
%TO.N,/31*%
X116546000Y-97854000D03*
%TO.P,J2,32,32*%
%TO.N,/32*%
X116546000Y-91504000D03*
%TO.P,J2,33,33*%
%TO.N,/33*%
X119726000Y-97854000D03*
%TO.P,J2,34,34*%
%TO.N,/34*%
X119726000Y-91504000D03*
%TO.P,J2,35,35*%
%TO.N,/35*%
X122906000Y-97854000D03*
%TO.P,J2,36,36*%
%TO.N,/36*%
X122906000Y-91504000D03*
%TO.P,J2,37,37*%
%TO.N,/37*%
X126086000Y-97854000D03*
%TO.P,J2,38,38*%
%TO.N,/38*%
X126086000Y-91504000D03*
%TO.P,J2,39,39*%
%TO.N,/39*%
X129266000Y-97854000D03*
%TO.P,J2,40,40*%
%TO.N,/40*%
X129266000Y-91504000D03*
%TO.P,J2,41,41*%
%TO.N,/41*%
X132446000Y-97854000D03*
%TO.P,J2,42,42*%
%TO.N,/42*%
X132446000Y-91504000D03*
%TO.P,J2,43,43*%
%TO.N,/43*%
X135626000Y-97854000D03*
%TO.P,J2,44,44*%
%TO.N,/44*%
X135626000Y-91504000D03*
%TO.P,J2,45,45*%
%TO.N,/45*%
X138806000Y-97854000D03*
%TO.P,J2,46,46*%
%TO.N,/46*%
X138806000Y-91504000D03*
%TO.P,J2,47,47*%
%TO.N,/47*%
X141986000Y-97854000D03*
%TO.P,J2,48,48*%
%TO.N,/48*%
X141986000Y-91504000D03*
%TO.P,J2,49,49*%
%TO.N,/49*%
X145166000Y-97854000D03*
%TO.P,J2,50,50*%
%TO.N,/50*%
X145166000Y-91504000D03*
%TO.P,J2,51,51*%
%TO.N,/51*%
X148346000Y-97854000D03*
%TO.P,J2,52,52*%
%TO.N,/52*%
X148346000Y-91504000D03*
%TO.P,J2,53,53*%
%TO.N,/53*%
X151526000Y-97854000D03*
%TO.P,J2,54,54*%
%TO.N,/54*%
X151526000Y-91504000D03*
%TO.P,J2,55,55*%
%TO.N,/55*%
X154706000Y-97854000D03*
%TO.P,J2,56,56*%
%TO.N,/56*%
X154706000Y-91504000D03*
%TO.P,J2,57,57*%
%TO.N,/57*%
X157886000Y-97854000D03*
%TO.P,J2,58,58*%
%TO.N,/58*%
X157886000Y-91504000D03*
%TO.P,J2,59,59*%
%TO.N,/59*%
X161066000Y-97854000D03*
%TO.P,J2,60,60*%
%TO.N,/60*%
X161066000Y-91504000D03*
%TO.P,J2,61,61*%
%TO.N,/61*%
X164246000Y-97854000D03*
%TO.P,J2,62,62*%
%TO.N,/62*%
X164246000Y-91504000D03*
%TO.P,J2,63,63*%
%TO.N,/63*%
X167426000Y-97854000D03*
%TO.P,J2,64,64*%
%TO.N,/64*%
X167426000Y-91504000D03*
%TO.P,J2,65,65*%
%TO.N,/65*%
X170606000Y-97854000D03*
%TO.P,J2,66,66*%
%TO.N,/66*%
X170606000Y-91504000D03*
%TO.P,J2,67,67*%
%TO.N,/67*%
X173786000Y-97854000D03*
%TO.P,J2,68,68*%
%TO.N,/68*%
X173786000Y-91504000D03*
%TO.P,J2,69,69*%
%TO.N,/69*%
X176966000Y-97854000D03*
%TO.P,J2,70,70*%
%TO.N,/70*%
X176966000Y-91504000D03*
%TO.P,J2,71,71*%
%TO.N,/71*%
X180146000Y-97854000D03*
%TO.P,J2,72,72*%
%TO.N,/72*%
X180146000Y-91504000D03*
%TO.P,J2,73,73*%
%TO.N,/73*%
X183326000Y-97854000D03*
%TO.P,J2,74,74*%
%TO.N,/74*%
X183326000Y-91504000D03*
%TO.P,J2,75,75*%
%TO.N,/75*%
X186506000Y-97854000D03*
%TO.P,J2,76,76*%
%TO.N,/76*%
X186506000Y-91504000D03*
%TO.P,J2,77,77*%
%TO.N,/77*%
X189686000Y-97854000D03*
%TO.P,J2,78,78*%
%TO.N,/78*%
X189686000Y-91504000D03*
%TO.P,J2,79,79*%
%TO.N,/79*%
X192866000Y-97854000D03*
%TO.P,J2,80,80*%
%TO.N,/80*%
X192866000Y-91504000D03*
%TO.P,J2,81,81*%
%TO.N,/81*%
X196046000Y-97854000D03*
%TO.P,J2,82,82*%
%TO.N,/82*%
X196046000Y-91504000D03*
%TO.P,J2,83,83*%
%TO.N,/83*%
X199226000Y-97854000D03*
%TO.P,J2,84,84*%
%TO.N,/84*%
X199226000Y-91504000D03*
%TO.P,J2,85,85*%
%TO.N,/85*%
X202406000Y-97854000D03*
%TO.P,J2,86,86*%
%TO.N,/86*%
X202406000Y-91504000D03*
%TO.P,J2,87,87*%
%TO.N,/87*%
X205586000Y-97854000D03*
%TO.P,J2,88,88*%
%TO.N,/88*%
X205586000Y-91504000D03*
%TO.P,J2,89,89*%
%TO.N,/89*%
X208766000Y-97854000D03*
%TO.P,J2,90,90*%
%TO.N,/90*%
X208766000Y-91504000D03*
%TO.P,J2,91,91*%
%TO.N,/91*%
X211946000Y-97854000D03*
%TO.P,J2,92,92*%
%TO.N,/92*%
X211946000Y-91504000D03*
%TO.P,J2,93,93*%
%TO.N,/93*%
X215126000Y-97854000D03*
%TO.P,J2,94,94*%
%TO.N,/94*%
X215126000Y-91504000D03*
%TO.P,J2,95,95*%
%TO.N,/95*%
X218306000Y-97854000D03*
%TO.P,J2,96,96*%
%TO.N,/96*%
X218306000Y-91504000D03*
%TO.P,J2,97,97*%
%TO.N,/97*%
X221486000Y-97854000D03*
%TO.P,J2,98,98*%
%TO.N,/98*%
X221486000Y-91504000D03*
%TO.P,J2,99,99*%
%TO.N,GND*%
X224666000Y-97854000D03*
%TO.P,J2,100,100*%
X224666000Y-91504000D03*
%TD*%
D12*
%TO.P,J12,1,Pin_1*%
%TO.N,GND*%
X110611000Y-42074000D03*
%TD*%
D15*
%TO.P,C1,1*%
%TO.N,Net-(C1-Pad1)*%
X91602000Y-43434000D03*
D16*
%TO.P,C1,2*%
%TO.N,Net-(C1-Pad2)*%
X143602000Y-43434000D03*
%TD*%
D12*
%TO.P,J19,1,Pin_1*%
%TO.N,/24*%
X132836000Y-42074000D03*
%TD*%
%TO.P,J14,1,Pin_1*%
%TO.N,VCC*%
X116961000Y-42074000D03*
%TD*%
%TO.P,J8,1,Pin_1*%
%TO.N,/4*%
X79406000Y-47664000D03*
%TD*%
%TO.P,J20,1,Pin_1*%
%TO.N,unconnected-(J20-Pad1)*%
X136011000Y-42074000D03*
%TD*%
D15*
%TO.P,C2,1*%
%TO.N,Net-(C1-Pad1)*%
X95758000Y-43434000D03*
D16*
%TO.P,C2,2*%
%TO.N,Net-(C1-Pad2)*%
X147758000Y-43434000D03*
%TD*%
D17*
%TO.N,VCC*%
X41656000Y-101092000D03*
X52832000Y-41910000D03*
X55880000Y-85598000D03*
X41402000Y-46482000D03*
X42164000Y-121158000D03*
X42164000Y-70104000D03*
X75184000Y-41402000D03*
X42926000Y-139192000D03*
%TO.N,/24*%
X123258000Y-48038000D03*
%TO.N,GND*%
X245618000Y-64008000D03*
X226314000Y-41656000D03*
X172212000Y-41910000D03*
X258064000Y-99314000D03*
X257810000Y-122936000D03*
X198120000Y-42164000D03*
X245872000Y-84836000D03*
X245872000Y-131572000D03*
X257556000Y-49022000D03*
X246126000Y-44450000D03*
X257810000Y-139700000D03*
X258318000Y-73660000D03*
X245872000Y-109220000D03*
%TD*%
D18*
%TO.N,VCC*%
X116961000Y-42074000D02*
X116961000Y-44683000D01*
D19*
%TO.N,/3*%
X70680000Y-58368000D02*
X70680000Y-50040000D01*
X72026000Y-59714000D02*
X70680000Y-58368000D01*
X70680000Y-50040000D02*
X73056000Y-47664000D01*
%TO.N,/4*%
X72026000Y-72544000D02*
X71950000Y-72620000D01*
X72026000Y-109684000D02*
X73474000Y-108236000D01*
X74558000Y-50832000D02*
X76238000Y-50832000D01*
X73278011Y-113120011D02*
X73278011Y-127852011D01*
X71950000Y-72468000D02*
X71950000Y-71914000D01*
X72026000Y-110734000D02*
X72026000Y-111868000D01*
X72026000Y-111868000D02*
X73278011Y-113120011D01*
X72026000Y-110734000D02*
X72026000Y-109684000D01*
X71950000Y-71914000D02*
X73474000Y-70390000D01*
X72026000Y-53364000D02*
X73474000Y-54812000D01*
X72026000Y-91504000D02*
X72026000Y-92564000D01*
X73474000Y-94012000D02*
X73474000Y-108236000D01*
X72026000Y-72544000D02*
X71950000Y-72468000D01*
X72026000Y-129624000D02*
X71950000Y-129548000D01*
X72026000Y-90380000D02*
X73474000Y-88932000D01*
X71950000Y-73184000D02*
X73474000Y-74708000D01*
X76238000Y-50832000D02*
X79406000Y-47664000D01*
X71950000Y-129548000D02*
X71950000Y-129180022D01*
X71950000Y-129180022D02*
X73278011Y-127852011D01*
X72026000Y-53364000D02*
X74558000Y-50832000D01*
X73474000Y-74708000D02*
X73474000Y-88932000D01*
X72026000Y-91504000D02*
X72026000Y-90380000D01*
X73474000Y-54812000D02*
X73474000Y-70390000D01*
X72026000Y-92564000D02*
X73474000Y-94012000D01*
X71950000Y-72620000D02*
X71950000Y-73184000D01*
%TO.N,/5*%
X73953989Y-109788011D02*
X75206000Y-108536000D01*
X75206000Y-117084000D02*
X75206000Y-127332000D01*
X75206000Y-108536000D02*
X75206000Y-97854000D01*
X75206000Y-89232000D02*
X73953989Y-90484011D01*
X75206000Y-78894000D02*
X75206000Y-89232000D01*
X75206000Y-127332000D02*
X73827530Y-128710470D01*
X75206000Y-113016000D02*
X73953989Y-111763989D01*
X73953989Y-90484011D02*
X73953989Y-92654851D01*
X75206000Y-78894000D02*
X75206000Y-74662000D01*
X73728000Y-71660000D02*
X75206000Y-70182000D01*
X75206000Y-74662000D02*
X73728000Y-73184000D01*
X73728000Y-73184000D02*
X73728000Y-71660000D01*
X75206000Y-70182000D02*
X75206000Y-59714000D01*
X75206000Y-117084000D02*
X75206000Y-113016000D01*
X75206000Y-132066000D02*
X73827530Y-130687530D01*
X75206000Y-135974000D02*
X75206000Y-132066000D01*
X73953989Y-111763989D02*
X73953989Y-109788011D01*
X73827530Y-128710470D02*
X73827530Y-130687530D01*
X73953989Y-92654851D02*
X75206000Y-93906862D01*
X75206000Y-93906862D02*
X75206000Y-97854000D01*
%TO.N,/8*%
X78300000Y-109760000D02*
X78300000Y-110648000D01*
X78300000Y-91418000D02*
X78386000Y-91504000D01*
X79824000Y-75216000D02*
X79824000Y-88678000D01*
X79824000Y-108236000D02*
X78300000Y-109760000D01*
X79824000Y-88678000D02*
X78300000Y-90202000D01*
X78386000Y-92574000D02*
X79824000Y-94012000D01*
X78386000Y-71320000D02*
X78386000Y-72544000D01*
X78386000Y-110734000D02*
X78386000Y-111624000D01*
X79824000Y-54802000D02*
X79824000Y-69882000D01*
X79824000Y-113062000D02*
X79824000Y-126778000D01*
X78386000Y-111624000D02*
X79824000Y-113062000D01*
X78386000Y-72544000D02*
X78386000Y-73778000D01*
X79824000Y-126778000D02*
X78300000Y-128302000D01*
X78386000Y-53364000D02*
X79824000Y-54802000D01*
X78300000Y-90202000D02*
X78300000Y-91418000D01*
X79824000Y-94012000D02*
X79824000Y-108236000D01*
X78386000Y-73778000D02*
X79824000Y-75216000D01*
X78300000Y-129538000D02*
X78386000Y-129624000D01*
X78300000Y-110648000D02*
X78386000Y-110734000D01*
X78300000Y-128302000D02*
X78300000Y-129538000D01*
X78386000Y-91504000D02*
X78386000Y-92574000D01*
X79824000Y-69882000D02*
X78386000Y-71320000D01*
%TO.N,/9*%
X81566000Y-78894000D02*
X81566000Y-88714000D01*
X81566000Y-113280000D02*
X80078000Y-111792000D01*
X80078000Y-71152000D02*
X81566000Y-69664000D01*
X80078000Y-130842000D02*
X81566000Y-132330000D01*
X80078000Y-73692000D02*
X80078000Y-71152000D01*
X80078000Y-92488000D02*
X81566000Y-93976000D01*
X81566000Y-132330000D02*
X81566000Y-135974000D01*
X81566000Y-126814000D02*
X80078000Y-128302000D01*
X80078000Y-111792000D02*
X80078000Y-109760000D01*
X81566000Y-108272000D02*
X81566000Y-97854000D01*
X81566000Y-75180000D02*
X80078000Y-73692000D01*
X81566000Y-88714000D02*
X80078000Y-90202000D01*
X81566000Y-78894000D02*
X81566000Y-75180000D01*
X80078000Y-128302000D02*
X80078000Y-130842000D01*
X80078000Y-109760000D02*
X81566000Y-108272000D01*
X81566000Y-69664000D02*
X81566000Y-59714000D01*
X80078000Y-90202000D02*
X80078000Y-92488000D01*
X81566000Y-93976000D02*
X81566000Y-97854000D01*
X81566000Y-117084000D02*
X81566000Y-126814000D01*
X81566000Y-117084000D02*
X81566000Y-113280000D01*
%TO.N,/12*%
X86428000Y-69374000D02*
X84746000Y-71056000D01*
X84650000Y-110638000D02*
X84746000Y-110734000D01*
X84746000Y-91504000D02*
X84746000Y-92584000D01*
X84746000Y-71056000D02*
X84746000Y-72544000D01*
X84746000Y-74042000D02*
X86174000Y-75470000D01*
X84650000Y-128302000D02*
X84650000Y-129528000D01*
X86174000Y-75470000D02*
X86174000Y-88678000D01*
X84746000Y-111888000D02*
X86174000Y-113316000D01*
X84746000Y-53364000D02*
X86428000Y-55046000D01*
X84650000Y-91408000D02*
X84746000Y-91504000D01*
X86174000Y-94012000D02*
X86174000Y-107982000D01*
X86174000Y-126778000D02*
X84650000Y-128302000D01*
X86174000Y-88678000D02*
X84650000Y-90202000D01*
X84746000Y-92584000D02*
X86174000Y-94012000D01*
X84746000Y-72544000D02*
X84746000Y-74042000D01*
X86174000Y-107982000D02*
X84650000Y-109506000D01*
X86428000Y-55046000D02*
X86428000Y-69374000D01*
X84650000Y-109506000D02*
X84650000Y-110638000D01*
X84650000Y-129528000D02*
X84746000Y-129624000D01*
X84746000Y-110734000D02*
X84746000Y-111888000D01*
X84650000Y-90202000D02*
X84650000Y-91408000D01*
X86174000Y-113316000D02*
X86174000Y-126778000D01*
%TO.N,/13*%
X86174000Y-90710000D02*
X87952000Y-88932000D01*
X87952000Y-88932000D02*
X87926000Y-88906000D01*
X87926000Y-117084000D02*
X87926000Y-126804000D01*
X87926000Y-93986000D02*
X86174000Y-92234000D01*
X87926000Y-75496000D02*
X87926000Y-78894000D01*
X87926000Y-107702000D02*
X87926000Y-97854000D01*
X87926000Y-97854000D02*
X87926000Y-93986000D01*
X87926000Y-88906000D02*
X87926000Y-78894000D01*
X86174000Y-71406000D02*
X86174000Y-73692000D01*
X86174000Y-109506000D02*
X87952000Y-107728000D01*
X87952000Y-75470000D02*
X87926000Y-75496000D01*
X87926000Y-59714000D02*
X87926000Y-69654000D01*
X87926000Y-132594000D02*
X87926000Y-135974000D01*
X87952000Y-107728000D02*
X87926000Y-107702000D01*
X86428000Y-131096000D02*
X87926000Y-132594000D01*
X86174000Y-111792000D02*
X86174000Y-109506000D01*
X87926000Y-69654000D02*
X86174000Y-71406000D01*
X87926000Y-126804000D02*
X86428000Y-128302000D01*
X87926000Y-113544000D02*
X86174000Y-111792000D01*
X86428000Y-128302000D02*
X86428000Y-131096000D01*
X86174000Y-73692000D02*
X87952000Y-75470000D01*
X87926000Y-117084000D02*
X87926000Y-113544000D01*
X86174000Y-92234000D02*
X86174000Y-90710000D01*
%TO.N,/16*%
X91106000Y-89842000D02*
X92778000Y-88170000D01*
X91106000Y-53364000D02*
X92778000Y-55036000D01*
X92778000Y-126778000D02*
X92778000Y-114078000D01*
X92778000Y-69628000D02*
X91106000Y-71300000D01*
X91106000Y-93102000D02*
X91106000Y-91504000D01*
X92778000Y-94774000D02*
X91106000Y-93102000D01*
X91106000Y-110734000D02*
X91106000Y-109400000D01*
X91106000Y-74052000D02*
X91106000Y-72544000D01*
X91106000Y-129624000D02*
X91106000Y-128450000D01*
X92778000Y-75724000D02*
X91106000Y-74052000D01*
X91106000Y-112406000D02*
X91106000Y-110734000D01*
X92778000Y-114078000D02*
X91106000Y-112406000D01*
X91106000Y-91504000D02*
X91106000Y-89842000D01*
X92778000Y-107728000D02*
X92778000Y-94774000D01*
X91106000Y-71300000D02*
X91106000Y-72544000D01*
X92778000Y-55036000D02*
X92778000Y-69628000D01*
X92778000Y-88170000D02*
X92778000Y-75724000D01*
X91106000Y-109400000D02*
X92778000Y-107728000D01*
X91106000Y-128450000D02*
X92778000Y-126778000D01*
%TO.N,/17*%
X94302000Y-108236000D02*
X94286000Y-108220000D01*
X92524000Y-90456000D02*
X94302000Y-88678000D01*
X92524000Y-71660000D02*
X92524000Y-73438000D01*
X94286000Y-97854000D02*
X94286000Y-94250000D01*
X94286000Y-88662000D02*
X94286000Y-78894000D01*
X94302000Y-127032000D02*
X94286000Y-127016000D01*
X94286000Y-59714000D02*
X94286000Y-69898000D01*
X94286000Y-69898000D02*
X92524000Y-71660000D01*
X94286000Y-117084000D02*
X94286000Y-113554000D01*
X94286000Y-108220000D02*
X94286000Y-97854000D01*
X94302000Y-88678000D02*
X94286000Y-88662000D01*
X94286000Y-132350000D02*
X92524000Y-130588000D01*
X94286000Y-127016000D02*
X94286000Y-117084000D01*
X92524000Y-73438000D02*
X94286000Y-75200000D01*
X92524000Y-110014000D02*
X94302000Y-108236000D01*
X92524000Y-111792000D02*
X92524000Y-110014000D01*
X94286000Y-94250000D02*
X92524000Y-92488000D01*
X92524000Y-130588000D02*
X92524000Y-128810000D01*
X92524000Y-92488000D02*
X92524000Y-90456000D01*
X94286000Y-113554000D02*
X92524000Y-111792000D01*
X94286000Y-135974000D02*
X94286000Y-132350000D01*
X92524000Y-128810000D02*
X94302000Y-127032000D01*
X94286000Y-75200000D02*
X94286000Y-78894000D01*
%TO.N,/20*%
X97466000Y-92604000D02*
X97466000Y-91504000D01*
X97466000Y-72544000D02*
X97466000Y-71290000D01*
X97466000Y-91504000D02*
X97466000Y-90340000D01*
X98874000Y-113316000D02*
X97466000Y-111908000D01*
X99128000Y-94266000D02*
X97466000Y-92604000D01*
X97466000Y-109644000D02*
X99128000Y-107982000D01*
X99128000Y-88678000D02*
X99128000Y-75470000D01*
X97466000Y-54504000D02*
X97466000Y-53364000D01*
X99128000Y-107982000D02*
X99128000Y-94266000D01*
X97466000Y-129624000D02*
X97466000Y-128440000D01*
X97466000Y-110734000D02*
X97466000Y-109644000D01*
X97466000Y-73808000D02*
X97466000Y-72544000D01*
X97466000Y-71290000D02*
X99128000Y-69628000D01*
X97466000Y-111908000D02*
X97466000Y-110734000D01*
X97466000Y-90340000D02*
X99128000Y-88678000D01*
X99128000Y-56166000D02*
X97466000Y-54504000D01*
X98874000Y-127032000D02*
X98874000Y-113316000D01*
X99128000Y-69628000D02*
X99128000Y-56166000D01*
X99128000Y-75470000D02*
X97466000Y-73808000D01*
X97466000Y-128440000D02*
X98874000Y-127032000D01*
%TO.N,/21*%
X100652000Y-69882000D02*
X100646000Y-69876000D01*
X100652000Y-88932000D02*
X100646000Y-88926000D01*
X98874000Y-92488000D02*
X98874000Y-90710000D01*
X100652000Y-127032000D02*
X100646000Y-127026000D01*
X98874000Y-90710000D02*
X100652000Y-88932000D01*
X100646000Y-97854000D02*
X100646000Y-94260000D01*
X98874000Y-111792000D02*
X98874000Y-109506000D01*
X100646000Y-113564000D02*
X98874000Y-111792000D01*
X98874000Y-109506000D02*
X100652000Y-107728000D01*
X100646000Y-117084000D02*
X100646000Y-113564000D01*
X100646000Y-127026000D02*
X100646000Y-117084000D01*
X100646000Y-135974000D02*
X100646000Y-132360000D01*
X100646000Y-88926000D02*
X100646000Y-78894000D01*
X98874000Y-130588000D02*
X98874000Y-128810000D01*
X100652000Y-107728000D02*
X100646000Y-107722000D01*
X100646000Y-78894000D02*
X100646000Y-75210000D01*
X98874000Y-73438000D02*
X98874000Y-71660000D01*
X100646000Y-94260000D02*
X98874000Y-92488000D01*
X98874000Y-71660000D02*
X100652000Y-69882000D01*
X100646000Y-75210000D02*
X98874000Y-73438000D01*
X100646000Y-107722000D02*
X100646000Y-97854000D01*
X100646000Y-69876000D02*
X100646000Y-59714000D01*
X98874000Y-128810000D02*
X100652000Y-127032000D01*
X100646000Y-132360000D02*
X98874000Y-130588000D01*
%TO.N,/24*%
X123766000Y-47530000D02*
X123258000Y-48038000D01*
X132836000Y-42074000D02*
X132836000Y-45064000D01*
X132836000Y-45064000D02*
X132836000Y-45318000D01*
X105480000Y-75218000D02*
X103826000Y-73564000D01*
X103826000Y-109634000D02*
X105478000Y-107982000D01*
X105478000Y-113570000D02*
X103826000Y-111918000D01*
X105478000Y-55016000D02*
X103826000Y-53364000D01*
X103826000Y-92614000D02*
X103826000Y-91504000D01*
X103826000Y-129624000D02*
X103826000Y-128430000D01*
X103826000Y-111918000D02*
X103826000Y-110734000D01*
X124020000Y-47530000D02*
X123766000Y-47530000D01*
X103826000Y-90330000D02*
X105480000Y-88676000D01*
X132836000Y-45318000D02*
X130624000Y-47530000D01*
X103826000Y-110734000D02*
X103826000Y-109634000D01*
X105478000Y-94266000D02*
X103826000Y-92614000D01*
X130624000Y-47530000D02*
X124020000Y-47530000D01*
X103826000Y-73564000D02*
X103826000Y-72544000D01*
X105480000Y-88676000D02*
X105480000Y-75218000D01*
X103826000Y-128430000D02*
X105478000Y-126778000D01*
X105478000Y-69882000D02*
X105478000Y-55016000D01*
X103826000Y-72544000D02*
X103826000Y-71534000D01*
X103826000Y-91504000D02*
X103826000Y-90330000D01*
X103826000Y-71534000D02*
X105478000Y-69882000D01*
X105478000Y-126778000D02*
X105478000Y-113570000D01*
X105478000Y-107982000D02*
X105478000Y-94266000D01*
%TO.N,/25*%
X105478000Y-111792000D02*
X105478000Y-109760000D01*
X107006000Y-78894000D02*
X107006000Y-75220000D01*
X105478000Y-130842000D02*
X105478000Y-128556000D01*
X107006000Y-69878000D02*
X107006000Y-59714000D01*
X107006000Y-94270000D02*
X105478000Y-92742000D01*
X107006000Y-117084000D02*
X107006000Y-113320000D01*
X107006000Y-97854000D02*
X107006000Y-94270000D01*
X107006000Y-127028000D02*
X107006000Y-117084000D01*
X107006000Y-88674000D02*
X107006000Y-78894000D01*
X105478000Y-109760000D02*
X107006000Y-108232000D01*
X105478000Y-71406000D02*
X107006000Y-69878000D01*
X107006000Y-135974000D02*
X107006000Y-132370000D01*
X105478000Y-73692000D02*
X105478000Y-71406000D01*
X105478000Y-90202000D02*
X107006000Y-88674000D01*
X107006000Y-113320000D02*
X105478000Y-111792000D01*
X105478000Y-92742000D02*
X105478000Y-90202000D01*
X107006000Y-108232000D02*
X107006000Y-97854000D01*
X105478000Y-128556000D02*
X107006000Y-127028000D01*
X107006000Y-75220000D02*
X105478000Y-73692000D01*
X107006000Y-132370000D02*
X105478000Y-130842000D01*
%TO.N,/28*%
X111574000Y-113062000D02*
X111574000Y-127032000D01*
X110186000Y-90320000D02*
X110186000Y-91504000D01*
X111574000Y-88932000D02*
X110186000Y-90320000D01*
X110186000Y-73574000D02*
X111574000Y-74962000D01*
X110186000Y-92370000D02*
X111574000Y-93758000D01*
X111574000Y-108236000D02*
X110186000Y-109624000D01*
X110186000Y-110734000D02*
X110186000Y-111674000D01*
X111574000Y-93758000D02*
X111574000Y-108236000D01*
X110186000Y-111674000D02*
X111574000Y-113062000D01*
X110186000Y-128420000D02*
X110186000Y-129624000D01*
X110186000Y-72544000D02*
X110186000Y-73574000D01*
X111574000Y-56166000D02*
X111574000Y-70136000D01*
X110186000Y-71524000D02*
X110186000Y-72544000D01*
X110186000Y-109624000D02*
X110186000Y-110734000D01*
X111574000Y-127032000D02*
X110186000Y-128420000D01*
X111574000Y-70136000D02*
X110186000Y-71524000D01*
X111574000Y-74962000D02*
X111574000Y-88932000D01*
X110186000Y-91504000D02*
X110186000Y-92370000D01*
X110186000Y-54778000D02*
X111574000Y-56166000D01*
X110186000Y-53364000D02*
X110186000Y-54778000D01*
%TO.N,/29*%
X111828000Y-51848000D02*
X111828000Y-54388000D01*
X111574000Y-130842000D02*
X111574000Y-128556000D01*
X113366000Y-126764000D02*
X113366000Y-117084000D01*
X113366000Y-75230000D02*
X111574000Y-73438000D01*
X111574000Y-111538000D02*
X111574000Y-110014000D01*
X111574000Y-90710000D02*
X113366000Y-88918000D01*
X113366000Y-113330000D02*
X111574000Y-111538000D01*
X113366000Y-132634000D02*
X111574000Y-130842000D01*
X116908000Y-51594000D02*
X112082000Y-51594000D01*
X111574000Y-128556000D02*
X113366000Y-126764000D01*
X113366000Y-55926000D02*
X113366000Y-59714000D01*
X111574000Y-110014000D02*
X113366000Y-108222000D01*
X113366000Y-97854000D02*
X113366000Y-94026000D01*
X111574000Y-92234000D02*
X111574000Y-90710000D01*
X111574000Y-71660000D02*
X113366000Y-69868000D01*
X111574000Y-73438000D02*
X111574000Y-71660000D01*
X113366000Y-117084000D02*
X113366000Y-113330000D01*
X113366000Y-94026000D02*
X111574000Y-92234000D01*
X113366000Y-108222000D02*
X113366000Y-97854000D01*
X123311000Y-45191000D02*
X116908000Y-51594000D01*
X123311000Y-42074000D02*
X123311000Y-45191000D01*
X113366000Y-69868000D02*
X113366000Y-59714000D01*
X113366000Y-88918000D02*
X113366000Y-78894000D01*
X113366000Y-135974000D02*
X113366000Y-132634000D01*
X111828000Y-54388000D02*
X113366000Y-55926000D01*
X112082000Y-51594000D02*
X111828000Y-51848000D01*
X113366000Y-78894000D02*
X113366000Y-75230000D01*
%TO.N,/32*%
X116546000Y-73838000D02*
X116546000Y-72544000D01*
X116546000Y-111684000D02*
X116546000Y-110734000D01*
X118178000Y-75470000D02*
X116546000Y-73838000D01*
X116546000Y-129624000D02*
X116546000Y-128664000D01*
X116546000Y-109614000D02*
X118178000Y-107982000D01*
X116546000Y-91504000D02*
X116546000Y-90564000D01*
X118178000Y-69882000D02*
X118178000Y-56166000D01*
X118178000Y-88932000D02*
X118178000Y-75470000D01*
X116546000Y-54534000D02*
X116546000Y-53364000D01*
X116546000Y-90564000D02*
X118178000Y-88932000D01*
X116546000Y-110734000D02*
X116546000Y-109614000D01*
X116546000Y-92634000D02*
X116546000Y-91504000D01*
X118178000Y-107982000D02*
X118178000Y-94266000D01*
X118178000Y-113316000D02*
X116546000Y-111684000D01*
X116546000Y-128664000D02*
X118178000Y-127032000D01*
X116546000Y-71514000D02*
X118178000Y-69882000D01*
X118178000Y-127032000D02*
X118178000Y-113316000D01*
X118178000Y-94266000D02*
X116546000Y-92634000D01*
X116546000Y-72544000D02*
X116546000Y-71514000D01*
X118178000Y-56166000D02*
X116546000Y-54534000D01*
%TO.N,/33*%
X119726000Y-94290000D02*
X117924000Y-92488000D01*
X119726000Y-135974000D02*
X119726000Y-132390000D01*
X119726000Y-127008000D02*
X119726000Y-117084000D01*
X117924000Y-73692000D02*
X117924000Y-71914000D01*
X117924000Y-71914000D02*
X119726000Y-70112000D01*
X117924000Y-110014000D02*
X119726000Y-108212000D01*
X119726000Y-108212000D02*
X119726000Y-97854000D01*
X119726000Y-70112000D02*
X119726000Y-59714000D01*
X117924000Y-128810000D02*
X119726000Y-127008000D01*
X119726000Y-113340000D02*
X117924000Y-111538000D01*
X117924000Y-92488000D02*
X117924000Y-90710000D01*
X119726000Y-88908000D02*
X119726000Y-78894000D01*
X117924000Y-130588000D02*
X117924000Y-128810000D01*
X117924000Y-90710000D02*
X119726000Y-88908000D01*
X119726000Y-132390000D02*
X117924000Y-130588000D01*
X119726000Y-97854000D02*
X119726000Y-94290000D01*
X117924000Y-111538000D02*
X117924000Y-110014000D01*
X119726000Y-75494000D02*
X117924000Y-73692000D01*
X119726000Y-78894000D02*
X119726000Y-75494000D01*
X119726000Y-117084000D02*
X119726000Y-113340000D01*
%TO.N,/36*%
X124528000Y-94012000D02*
X122906000Y-92390000D01*
X122906000Y-91504000D02*
X122906000Y-90554000D01*
X122906000Y-72544000D02*
X122906000Y-71504000D01*
X122906000Y-92390000D02*
X122906000Y-91504000D01*
X122906000Y-129624000D02*
X122906000Y-128654000D01*
X122906000Y-109604000D02*
X124528000Y-107982000D01*
X124528000Y-113570000D02*
X122906000Y-111948000D01*
X122906000Y-111948000D02*
X122906000Y-110734000D01*
X122906000Y-90554000D02*
X124528000Y-88932000D01*
X124528000Y-127032000D02*
X124528000Y-113570000D01*
X124528000Y-107982000D02*
X124528000Y-94012000D01*
X122906000Y-110734000D02*
X122906000Y-109604000D01*
X122906000Y-71504000D02*
X124528000Y-69882000D01*
X122906000Y-54544000D02*
X122906000Y-53364000D01*
X122906000Y-128654000D02*
X124528000Y-127032000D01*
X124528000Y-88932000D02*
X124528000Y-75216000D01*
X122906000Y-73594000D02*
X122906000Y-72544000D01*
X124528000Y-75216000D02*
X122906000Y-73594000D01*
X124528000Y-69882000D02*
X124528000Y-56166000D01*
X124528000Y-56166000D02*
X122906000Y-54544000D01*
%TO.N,/37*%
X126086000Y-135974000D02*
X126086000Y-132400000D01*
X126086000Y-97854000D02*
X126086000Y-94046000D01*
X126086000Y-78894000D02*
X126086000Y-75250000D01*
X126086000Y-108202000D02*
X126086000Y-97854000D01*
X126086000Y-94046000D02*
X124528000Y-92488000D01*
X126086000Y-70102000D02*
X126086000Y-59714000D01*
X126086000Y-117084000D02*
X126086000Y-113350000D01*
X126086000Y-132400000D02*
X124528000Y-130842000D01*
X124528000Y-90456000D02*
X126086000Y-88898000D01*
X124528000Y-128556000D02*
X126086000Y-126998000D01*
X124528000Y-71660000D02*
X126086000Y-70102000D01*
X126086000Y-126998000D02*
X126086000Y-117084000D01*
X126086000Y-113350000D02*
X124528000Y-111792000D01*
X124528000Y-109760000D02*
X126086000Y-108202000D01*
X124528000Y-130842000D02*
X124528000Y-128556000D01*
X124528000Y-73692000D02*
X124528000Y-71660000D01*
X126086000Y-75250000D02*
X124528000Y-73692000D01*
X124528000Y-111792000D02*
X124528000Y-109760000D01*
X126086000Y-88898000D02*
X126086000Y-78894000D01*
X124528000Y-92488000D02*
X124528000Y-90456000D01*
%TO.N,/40*%
X129266000Y-109848000D02*
X130878000Y-108236000D01*
X130878000Y-108236000D02*
X130878000Y-94266000D01*
X129266000Y-110734000D02*
X129266000Y-109848000D01*
X129266000Y-73604000D02*
X129266000Y-72544000D01*
X130878000Y-55912000D02*
X129266000Y-54300000D01*
X129266000Y-92654000D02*
X129266000Y-91504000D01*
X129266000Y-54300000D02*
X129266000Y-53364000D01*
X130878000Y-113316000D02*
X129266000Y-111704000D01*
X129266000Y-72544000D02*
X129266000Y-71494000D01*
X130878000Y-69882000D02*
X130878000Y-55912000D01*
X129266000Y-90544000D02*
X130878000Y-88932000D01*
X130878000Y-94266000D02*
X129266000Y-92654000D01*
X130878000Y-75216000D02*
X129266000Y-73604000D01*
X130878000Y-127032000D02*
X130878000Y-113316000D01*
X130878000Y-88932000D02*
X130878000Y-75216000D01*
X129266000Y-129624000D02*
X129266000Y-128644000D01*
X129266000Y-71494000D02*
X130878000Y-69882000D01*
X129266000Y-111704000D02*
X129266000Y-110734000D01*
X129266000Y-128644000D02*
X130878000Y-127032000D01*
X129266000Y-91504000D02*
X129266000Y-90544000D01*
%TO.N,/41*%
X130878000Y-109760000D02*
X132446000Y-108192000D01*
X132446000Y-97854000D02*
X132446000Y-94056000D01*
X132446000Y-78894000D02*
X132446000Y-75260000D01*
X130878000Y-128810000D02*
X132446000Y-127242000D01*
X132446000Y-88888000D02*
X132446000Y-78894000D01*
X132446000Y-127242000D02*
X132446000Y-117084000D01*
X130878000Y-130588000D02*
X130878000Y-128810000D01*
X132446000Y-70092000D02*
X132446000Y-59714000D01*
X130878000Y-92488000D02*
X130878000Y-90456000D01*
X132446000Y-117084000D02*
X132446000Y-113360000D01*
X132446000Y-75260000D02*
X130878000Y-73692000D01*
X130878000Y-73692000D02*
X130878000Y-71660000D01*
X130878000Y-111792000D02*
X130878000Y-109760000D01*
X130878000Y-90456000D02*
X132446000Y-88888000D01*
X132446000Y-108192000D02*
X132446000Y-97854000D01*
X132446000Y-94056000D02*
X130878000Y-92488000D01*
X130878000Y-71660000D02*
X132446000Y-70092000D01*
X132446000Y-113360000D02*
X130878000Y-111792000D01*
X132446000Y-135974000D02*
X132446000Y-132156000D01*
X132446000Y-132156000D02*
X130878000Y-130588000D01*
%TO.N,/44*%
X135626000Y-54310000D02*
X135626000Y-53364000D01*
X135626000Y-128634000D02*
X135626000Y-129624000D01*
X135626000Y-73868000D02*
X135626000Y-72544000D01*
X135626000Y-71484000D02*
X137228000Y-69882000D01*
X137228000Y-88932000D02*
X137228000Y-75470000D01*
X135626000Y-109584000D02*
X137228000Y-107982000D01*
X137228000Y-55912000D02*
X135626000Y-54310000D01*
X137228000Y-94012000D02*
X135626000Y-92410000D01*
X135626000Y-72544000D02*
X135626000Y-71484000D01*
X137228000Y-113316000D02*
X137228000Y-127032000D01*
X135626000Y-110734000D02*
X135626000Y-109584000D01*
X137228000Y-127032000D02*
X135626000Y-128634000D01*
X135626000Y-110734000D02*
X135626000Y-111714000D01*
X135626000Y-111714000D02*
X137228000Y-113316000D01*
X135626000Y-92410000D02*
X135626000Y-91504000D01*
X135626000Y-90534000D02*
X137228000Y-88932000D01*
X137228000Y-69882000D02*
X137228000Y-55912000D01*
X137228000Y-107982000D02*
X137228000Y-94012000D01*
X135626000Y-91504000D02*
X135626000Y-90534000D01*
X137228000Y-75470000D02*
X135626000Y-73868000D01*
%TO.N,/45*%
X138806000Y-97854000D02*
X138806000Y-94066000D01*
X138806000Y-78894000D02*
X138806000Y-75270000D01*
X138806000Y-127232000D02*
X138806000Y-117084000D01*
X138806000Y-75270000D02*
X137228000Y-73692000D01*
X138806000Y-135974000D02*
X138806000Y-132420000D01*
X138806000Y-70082000D02*
X138806000Y-59714000D01*
X138806000Y-117084000D02*
X138806000Y-113116000D01*
X138806000Y-94066000D02*
X137228000Y-92488000D01*
X137228000Y-111538000D02*
X137228000Y-109760000D01*
X137228000Y-109760000D02*
X138806000Y-108182000D01*
X137228000Y-90710000D02*
X138806000Y-89132000D01*
X137228000Y-130842000D02*
X137228000Y-128810000D01*
X138806000Y-89132000D02*
X138806000Y-78894000D01*
X137228000Y-71660000D02*
X138806000Y-70082000D01*
X138806000Y-113116000D02*
X137228000Y-111538000D01*
X137228000Y-92488000D02*
X137228000Y-90710000D01*
X137228000Y-73692000D02*
X137228000Y-71660000D01*
X138806000Y-132420000D02*
X137228000Y-130842000D01*
X137228000Y-128810000D02*
X138806000Y-127232000D01*
X138806000Y-108182000D02*
X138806000Y-97854000D01*
%TO.N,/48*%
X141986000Y-110734000D02*
X141986000Y-109574000D01*
X143578000Y-127032000D02*
X143578000Y-113316000D01*
X141986000Y-90524000D02*
X143578000Y-88932000D01*
X143578000Y-94266000D02*
X141986000Y-92674000D01*
X143578000Y-55912000D02*
X141986000Y-54320000D01*
X143578000Y-107982000D02*
X143578000Y-94266000D01*
X143578000Y-69882000D02*
X143578000Y-55912000D01*
X142054000Y-128556000D02*
X143578000Y-127032000D01*
X141986000Y-109574000D02*
X143578000Y-107982000D01*
X143578000Y-88932000D02*
X143578000Y-75216000D01*
X141986000Y-73624000D02*
X141986000Y-72544000D01*
X141986000Y-111724000D02*
X143578000Y-113316000D01*
X141986000Y-72544000D02*
X141986000Y-71474000D01*
X142054000Y-129556000D02*
X142054000Y-128556000D01*
X141986000Y-129624000D02*
X142054000Y-129556000D01*
X141986000Y-92674000D02*
X141986000Y-91504000D01*
X143578000Y-75216000D02*
X141986000Y-73624000D01*
X141986000Y-54320000D02*
X141986000Y-53364000D01*
X141986000Y-91504000D02*
X141986000Y-90524000D01*
X141986000Y-71474000D02*
X143578000Y-69882000D01*
X141986000Y-110734000D02*
X141986000Y-111724000D01*
%TO.N,/49*%
X145166000Y-113380000D02*
X143578000Y-111792000D01*
X143578000Y-71660000D02*
X145166000Y-70072000D01*
X143578000Y-111792000D02*
X143578000Y-109760000D01*
X145166000Y-70072000D02*
X145166000Y-59714000D01*
X143578000Y-92488000D02*
X143578000Y-90456000D01*
X145166000Y-132430000D02*
X143612011Y-130876011D01*
X145166000Y-117084000D02*
X145166000Y-113380000D01*
X145166000Y-127222000D02*
X145166000Y-117084000D01*
X143578000Y-109760000D02*
X145166000Y-108172000D01*
X145166000Y-108172000D02*
X145166000Y-97854000D01*
X145166000Y-97854000D02*
X145166000Y-94076000D01*
X143578000Y-73438000D02*
X143578000Y-71660000D01*
X145166000Y-75026000D02*
X143578000Y-73438000D01*
X143578000Y-90456000D02*
X145166000Y-88868000D01*
X145166000Y-135974000D02*
X145166000Y-132430000D01*
X145166000Y-94076000D02*
X143578000Y-92488000D01*
X143612011Y-128775989D02*
X145166000Y-127222000D01*
X145166000Y-88868000D02*
X145166000Y-78894000D01*
X143612011Y-130876011D02*
X143612011Y-128775989D01*
X145166000Y-78894000D02*
X145166000Y-75026000D01*
%TO.N,/52*%
X149928000Y-108236000D02*
X149928000Y-94012000D01*
X148346000Y-111734000D02*
X149928000Y-113316000D01*
X149928000Y-55912000D02*
X148346000Y-54330000D01*
X148346000Y-110734000D02*
X148346000Y-111734000D01*
X148346000Y-128614000D02*
X149928000Y-127032000D01*
X149928000Y-88678000D02*
X149928000Y-74962000D01*
X148346000Y-54330000D02*
X148346000Y-53364000D01*
X148346000Y-73380000D02*
X148346000Y-72544000D01*
X148346000Y-109818000D02*
X149928000Y-108236000D01*
X148346000Y-110734000D02*
X148346000Y-109818000D01*
X148346000Y-129624000D02*
X148346000Y-128614000D01*
X149928000Y-70136000D02*
X149928000Y-55912000D01*
X148346000Y-72544000D02*
X148346000Y-71718000D01*
X148404000Y-91562000D02*
X148346000Y-91504000D01*
X149928000Y-127032000D02*
X149928000Y-113316000D01*
X148346000Y-71718000D02*
X149928000Y-70136000D01*
X149928000Y-94012000D02*
X148404000Y-92488000D01*
X148346000Y-90260000D02*
X149928000Y-88678000D01*
X148404000Y-92488000D02*
X148404000Y-91562000D01*
X148346000Y-91504000D02*
X148346000Y-90260000D01*
X149928000Y-74962000D02*
X148346000Y-73380000D01*
%TO.N,/53*%
X149928000Y-130842000D02*
X151526000Y-132440000D01*
X149928000Y-73438000D02*
X149928000Y-71660000D01*
X149928000Y-109760000D02*
X151526000Y-108162000D01*
X151526000Y-88604000D02*
X151526000Y-78894000D01*
X151526000Y-117084000D02*
X151526000Y-126958000D01*
X149928000Y-92488000D02*
X149928000Y-90202000D01*
X151526000Y-117084000D02*
X151526000Y-113390000D01*
X151526000Y-75036000D02*
X149928000Y-73438000D01*
X151526000Y-78894000D02*
X151526000Y-75036000D01*
X151526000Y-113390000D02*
X149928000Y-111792000D01*
X149928000Y-90202000D02*
X151526000Y-88604000D01*
X149928000Y-71660000D02*
X151526000Y-70062000D01*
X151526000Y-97854000D02*
X151526000Y-94086000D01*
X149928000Y-111792000D02*
X149928000Y-109760000D01*
X149928000Y-128556000D02*
X149928000Y-130842000D01*
X151526000Y-108162000D02*
X151526000Y-97854000D01*
X151526000Y-126958000D02*
X149928000Y-128556000D01*
X151526000Y-94086000D02*
X149928000Y-92488000D01*
X151526000Y-70062000D02*
X151526000Y-59714000D01*
X151526000Y-132440000D02*
X151526000Y-135974000D01*
%TO.N,/56*%
X154706000Y-111744000D02*
X154706000Y-110734000D01*
X156278000Y-88932000D02*
X156278000Y-75216000D01*
X154706000Y-128604000D02*
X156278000Y-127032000D01*
X156278000Y-94266000D02*
X154706000Y-92694000D01*
X156278000Y-70136000D02*
X156278000Y-55912000D01*
X154706000Y-92694000D02*
X154706000Y-91504000D01*
X156278000Y-108236000D02*
X156278000Y-94266000D01*
X156278000Y-55912000D02*
X154706000Y-54340000D01*
X156278000Y-127032000D02*
X156278000Y-113316000D01*
X154706000Y-54340000D02*
X154706000Y-53364000D01*
X154706000Y-91504000D02*
X154706000Y-90504000D01*
X154706000Y-109808000D02*
X156278000Y-108236000D01*
X154706000Y-71708000D02*
X156278000Y-70136000D01*
X154706000Y-110734000D02*
X154706000Y-109808000D01*
X154706000Y-90504000D02*
X156278000Y-88932000D01*
X154706000Y-129624000D02*
X154706000Y-128604000D01*
X156278000Y-75216000D02*
X154706000Y-73644000D01*
X154706000Y-72544000D02*
X154706000Y-71708000D01*
X154706000Y-73644000D02*
X154706000Y-72544000D01*
X156278000Y-113316000D02*
X154706000Y-111744000D01*
%TO.N,/57*%
X157886000Y-108152000D02*
X157886000Y-97854000D01*
X157886000Y-70052000D02*
X157886000Y-59714000D01*
X156278000Y-92234000D02*
X156278000Y-90710000D01*
X157886000Y-135974000D02*
X157886000Y-132196000D01*
X157886000Y-132196000D02*
X156278000Y-130588000D01*
X157886000Y-127202000D02*
X157886000Y-117084000D01*
X156278000Y-109760000D02*
X157886000Y-108152000D01*
X156278000Y-111792000D02*
X156278000Y-109760000D01*
X156278000Y-130588000D02*
X156278000Y-128810000D01*
X157886000Y-97854000D02*
X157886000Y-93842000D01*
X156278000Y-71660000D02*
X157886000Y-70052000D01*
X157886000Y-89102000D02*
X157886000Y-78894000D01*
X157886000Y-113400000D02*
X156278000Y-111792000D01*
X157886000Y-117084000D02*
X157886000Y-113400000D01*
X157886000Y-78894000D02*
X157886000Y-75046000D01*
X156278000Y-128810000D02*
X157886000Y-127202000D01*
X157886000Y-75046000D02*
X156278000Y-73438000D01*
X157886000Y-93842000D02*
X156278000Y-92234000D01*
X156278000Y-90710000D02*
X157886000Y-89102000D01*
X156278000Y-73438000D02*
X156278000Y-71660000D01*
%TO.N,/60*%
X162374000Y-89186000D02*
X162374000Y-74962000D01*
X161066000Y-129624000D02*
X161066000Y-128594000D01*
X161066000Y-72544000D02*
X161066000Y-71698000D01*
X161066000Y-73654000D02*
X161066000Y-72544000D01*
X162374000Y-108490000D02*
X162374000Y-94012000D01*
X162374000Y-127286000D02*
X162374000Y-113062000D01*
X162374000Y-70390000D02*
X162374000Y-55912000D01*
X161066000Y-92704000D02*
X161066000Y-91504000D01*
X161066000Y-110734000D02*
X161066000Y-109798000D01*
X161066000Y-71698000D02*
X162374000Y-70390000D01*
X161066000Y-109798000D02*
X162374000Y-108490000D01*
X161066000Y-128594000D02*
X162374000Y-127286000D01*
X161066000Y-91504000D02*
X161066000Y-90494000D01*
X162374000Y-55912000D02*
X161066000Y-54604000D01*
X161066000Y-54604000D02*
X161066000Y-53364000D01*
X161066000Y-90494000D02*
X162374000Y-89186000D01*
X162374000Y-74962000D02*
X161066000Y-73654000D01*
X161066000Y-111754000D02*
X161066000Y-110734000D01*
X162374000Y-94012000D02*
X161066000Y-92704000D01*
X162374000Y-113062000D02*
X161066000Y-111754000D01*
%TO.N,/61*%
X164246000Y-131952000D02*
X164246000Y-135974000D01*
X163883989Y-97491989D02*
X163883989Y-93743989D01*
X162628000Y-92488000D02*
X162628000Y-90710000D01*
X162628000Y-128810000D02*
X162628000Y-130334000D01*
X162628000Y-73438000D02*
X162628000Y-71406000D01*
X164246000Y-113410000D02*
X162374000Y-111538000D01*
X164246000Y-69788000D02*
X164246000Y-59714000D01*
X164246000Y-117084000D02*
X164246000Y-113410000D01*
X162628000Y-90710000D02*
X164246000Y-89092000D01*
X162374000Y-110014000D02*
X164246000Y-108142000D01*
X164246000Y-108142000D02*
X164246000Y-97854000D01*
X164246000Y-97854000D02*
X163883989Y-97491989D01*
X163883989Y-93743989D02*
X162628000Y-92488000D01*
X162628000Y-130334000D02*
X164246000Y-131952000D01*
X164246000Y-117084000D02*
X164246000Y-127192000D01*
X162628000Y-71406000D02*
X164246000Y-69788000D01*
X164246000Y-89092000D02*
X164246000Y-78894000D01*
X164246000Y-127192000D02*
X162628000Y-128810000D01*
X164246000Y-75056000D02*
X162628000Y-73438000D01*
X162374000Y-111538000D02*
X162374000Y-110014000D01*
X164246000Y-78894000D02*
X164246000Y-75056000D01*
%TO.N,/64*%
X168978000Y-75216000D02*
X167426000Y-73664000D01*
X168978000Y-56166000D02*
X167426000Y-54614000D01*
X167426000Y-110734000D02*
X167426000Y-109534000D01*
X167426000Y-54614000D02*
X167426000Y-53364000D01*
X168978000Y-88932000D02*
X168978000Y-75216000D01*
X167426000Y-128584000D02*
X168978000Y-127032000D01*
X167426000Y-72544000D02*
X167426000Y-71434000D01*
X168978000Y-94520000D02*
X167426000Y-92968000D01*
X167426000Y-91504000D02*
X167426000Y-90484000D01*
X167426000Y-92968000D02*
X167426000Y-91504000D01*
X167426000Y-71434000D02*
X168978000Y-69882000D01*
X167426000Y-129624000D02*
X167426000Y-128584000D01*
X167426000Y-111764000D02*
X167426000Y-110734000D01*
X167426000Y-90484000D02*
X168978000Y-88932000D01*
X168978000Y-107982000D02*
X168978000Y-94520000D01*
X168978000Y-127032000D02*
X168978000Y-113316000D01*
X167426000Y-73664000D02*
X167426000Y-72544000D01*
X168978000Y-69882000D02*
X168978000Y-56166000D01*
X167426000Y-109534000D02*
X168978000Y-107982000D01*
X168978000Y-113316000D02*
X167426000Y-111764000D01*
%TO.N,/65*%
X168978000Y-130334000D02*
X168978000Y-129064000D01*
X168978000Y-109506000D02*
X170606000Y-107878000D01*
X170606000Y-75066000D02*
X170606000Y-78894000D01*
X168978000Y-90456000D02*
X170606000Y-88828000D01*
X170606000Y-94370000D02*
X168978000Y-92742000D01*
X168978000Y-92742000D02*
X168978000Y-90456000D01*
X170606000Y-113420000D02*
X168978000Y-111792000D01*
X170606000Y-107878000D02*
X170606000Y-97854000D01*
X168978000Y-129064000D02*
X170606000Y-127436000D01*
X170606000Y-127436000D02*
X170606000Y-117084000D01*
X168978000Y-73438000D02*
X170606000Y-75066000D01*
X168978000Y-111792000D02*
X168978000Y-109506000D01*
X168978000Y-71660000D02*
X168978000Y-73438000D01*
X170606000Y-131962000D02*
X168978000Y-130334000D01*
X170606000Y-70032000D02*
X168978000Y-71660000D01*
X170606000Y-88828000D02*
X170606000Y-78894000D01*
X170606000Y-97854000D02*
X170606000Y-94370000D01*
X170606000Y-135974000D02*
X170606000Y-131962000D01*
X170606000Y-59714000D02*
X170606000Y-70032000D01*
X170606000Y-117084000D02*
X170606000Y-113420000D01*
%TO.N,/68*%
X175328000Y-75216000D02*
X173786000Y-73674000D01*
X173786000Y-129624000D02*
X173804000Y-129606000D01*
X175328000Y-108236000D02*
X173786000Y-109778000D01*
X175328000Y-89186000D02*
X175328000Y-75216000D01*
X173786000Y-90728000D02*
X175328000Y-89186000D01*
X173786000Y-54624000D02*
X173786000Y-53364000D01*
X175328000Y-94012000D02*
X175328000Y-108236000D01*
X173804000Y-129606000D02*
X173804000Y-128556000D01*
X173786000Y-91504000D02*
X173786000Y-90728000D01*
X173786000Y-109778000D02*
X173786000Y-110734000D01*
X173786000Y-72544000D02*
X173786000Y-71424000D01*
X173786000Y-71424000D02*
X175328000Y-69882000D01*
X175328000Y-69882000D02*
X175328000Y-56166000D01*
X173804000Y-128556000D02*
X175328000Y-127032000D01*
X175328000Y-113352000D02*
X173786000Y-111810000D01*
X175328000Y-127032000D02*
X175328000Y-113352000D01*
X173786000Y-73674000D02*
X173786000Y-72544000D01*
X175328000Y-56166000D02*
X173786000Y-54624000D01*
X173786000Y-91504000D02*
X173786000Y-92470000D01*
X173786000Y-92470000D02*
X175328000Y-94012000D01*
X173786000Y-111810000D02*
X173786000Y-110734000D01*
%TO.N,/69*%
X175328000Y-111792000D02*
X175328000Y-109760000D01*
X176966000Y-78894000D02*
X176966000Y-75076000D01*
X175328000Y-71406000D02*
X176966000Y-69768000D01*
X176966000Y-94126000D02*
X175328000Y-92488000D01*
X176966000Y-127172000D02*
X176966000Y-117084000D01*
X175328000Y-92488000D02*
X175328000Y-90456000D01*
X176966000Y-75076000D02*
X175328000Y-73438000D01*
X176966000Y-88818000D02*
X176966000Y-78894000D01*
X176966000Y-97854000D02*
X176966000Y-94126000D01*
X175328000Y-73438000D02*
X175328000Y-71406000D01*
X175328000Y-109760000D02*
X176966000Y-108122000D01*
X176966000Y-117084000D02*
X176966000Y-113430000D01*
X175328000Y-90456000D02*
X176966000Y-88818000D01*
X176966000Y-69768000D02*
X176966000Y-59714000D01*
X176966000Y-135974000D02*
X176966000Y-132480000D01*
X176966000Y-113430000D02*
X175328000Y-111792000D01*
X176966000Y-108122000D02*
X176966000Y-97854000D01*
X175328000Y-130842000D02*
X175328000Y-128810000D01*
X175328000Y-128810000D02*
X176966000Y-127172000D01*
X176966000Y-132480000D02*
X175328000Y-130842000D01*
%TO.N,/72*%
X180146000Y-54634000D02*
X180146000Y-53364000D01*
X180146000Y-91504000D02*
X180146000Y-90464000D01*
X181678000Y-94012000D02*
X181678000Y-108236000D01*
X180146000Y-73430000D02*
X180146000Y-72544000D01*
X180146000Y-91504000D02*
X180146000Y-92480000D01*
X180146000Y-72544000D02*
X180146000Y-71668000D01*
X181678000Y-56166000D02*
X180146000Y-54634000D01*
X180146000Y-112038000D02*
X180146000Y-110734000D01*
X181678000Y-108236000D02*
X180146000Y-109768000D01*
X180146000Y-90464000D02*
X181678000Y-88932000D01*
X181678000Y-88932000D02*
X181678000Y-74962000D01*
X181678000Y-113570000D02*
X180146000Y-112038000D01*
X180146000Y-92480000D02*
X181678000Y-94012000D01*
X180146000Y-71668000D02*
X181678000Y-70136000D01*
X181678000Y-126778000D02*
X181678000Y-113570000D01*
X180146000Y-129624000D02*
X180146000Y-128310000D01*
X180146000Y-128310000D02*
X181678000Y-126778000D01*
X181678000Y-74962000D02*
X180146000Y-73430000D01*
X181678000Y-70136000D02*
X181678000Y-56166000D01*
X180146000Y-109768000D02*
X180146000Y-110734000D01*
%TO.N,/73*%
X181678000Y-90456000D02*
X183326000Y-88808000D01*
X183326000Y-126908000D02*
X183326000Y-117084000D01*
X183326000Y-75086000D02*
X181678000Y-73438000D01*
X183326000Y-94136000D02*
X181678000Y-92488000D01*
X181678000Y-73438000D02*
X181678000Y-71660000D01*
X183326000Y-113440000D02*
X181678000Y-111792000D01*
X181678000Y-111792000D02*
X181678000Y-109760000D01*
X183326000Y-135974000D02*
X183326000Y-132490000D01*
X181678000Y-109760000D02*
X183326000Y-108112000D01*
X183326000Y-97854000D02*
X183326000Y-94136000D01*
X183326000Y-108112000D02*
X183326000Y-97854000D01*
X181678000Y-130842000D02*
X181678000Y-128556000D01*
X181678000Y-71660000D02*
X183326000Y-70012000D01*
X183326000Y-70012000D02*
X183326000Y-59714000D01*
X183326000Y-132490000D02*
X181678000Y-130842000D01*
X181678000Y-92488000D02*
X181678000Y-90456000D01*
X181678000Y-128556000D02*
X183326000Y-126908000D01*
X183326000Y-88808000D02*
X183326000Y-78894000D01*
X183326000Y-78894000D02*
X183326000Y-75086000D01*
X183326000Y-117084000D02*
X183326000Y-113440000D01*
%TO.N,/76*%
X186504000Y-73692000D02*
X186504000Y-72546000D01*
X188028000Y-113316000D02*
X186504000Y-111792000D01*
X186506000Y-71658000D02*
X188028000Y-70136000D01*
X188028000Y-108236000D02*
X188028000Y-94266000D01*
X186506000Y-91504000D02*
X186506000Y-90200000D01*
X186506000Y-90200000D02*
X188028000Y-88678000D01*
X188028000Y-127286000D02*
X188028000Y-113316000D01*
X186506000Y-109758000D02*
X188028000Y-108236000D01*
X186504000Y-111792000D02*
X186504000Y-110736000D01*
X186504000Y-92742000D02*
X186504000Y-91506000D01*
X186504000Y-72546000D02*
X186506000Y-72544000D01*
X186504000Y-54642000D02*
X186506000Y-54640000D01*
X186506000Y-129624000D02*
X186504000Y-129622000D01*
X186504000Y-91506000D02*
X186506000Y-91504000D01*
X186504000Y-128810000D02*
X188028000Y-127286000D01*
X188028000Y-70136000D02*
X188028000Y-56166000D01*
X188028000Y-56166000D02*
X186504000Y-54642000D01*
X188028000Y-88678000D02*
X188028000Y-75216000D01*
X186506000Y-54640000D02*
X186506000Y-53364000D01*
X186504000Y-110736000D02*
X186506000Y-110734000D01*
X186506000Y-110734000D02*
X186506000Y-109758000D01*
X186506000Y-72544000D02*
X186506000Y-71658000D01*
X186504000Y-129622000D02*
X186504000Y-128810000D01*
X188028000Y-94266000D02*
X186504000Y-92742000D01*
X188028000Y-75216000D02*
X186504000Y-73692000D01*
%TO.N,/77*%
X189686000Y-135974000D02*
X189686000Y-132500000D01*
X189686000Y-113196000D02*
X188028000Y-111538000D01*
X189686000Y-94146000D02*
X188028000Y-92488000D01*
X189686000Y-78894000D02*
X189686000Y-75350000D01*
X189686000Y-88544000D02*
X189686000Y-78894000D01*
X188028000Y-90202000D02*
X189686000Y-88544000D01*
X188028000Y-130842000D02*
X188028000Y-128810000D01*
X188028000Y-92488000D02*
X188028000Y-90202000D01*
X189686000Y-132500000D02*
X188028000Y-130842000D01*
X188028000Y-128810000D02*
X189686000Y-127152000D01*
X188028000Y-109760000D02*
X189686000Y-108102000D01*
X189686000Y-117084000D02*
X189686000Y-113196000D01*
X189686000Y-108102000D02*
X189686000Y-97854000D01*
X189686000Y-127152000D02*
X189686000Y-117084000D01*
X189686000Y-69748000D02*
X189686000Y-59714000D01*
X188028000Y-71406000D02*
X189686000Y-69748000D01*
X188028000Y-73692000D02*
X188028000Y-71406000D01*
X188028000Y-111538000D02*
X188028000Y-109760000D01*
X189686000Y-75350000D02*
X188028000Y-73692000D01*
X189686000Y-97854000D02*
X189686000Y-94146000D01*
%TO.N,/80*%
X194378000Y-94266000D02*
X192866000Y-92754000D01*
X192866000Y-73934000D02*
X192866000Y-72544000D01*
X192866000Y-110734000D02*
X192866000Y-109748000D01*
X192854000Y-90456000D02*
X194378000Y-88932000D01*
X192854000Y-91492000D02*
X192854000Y-90456000D01*
X194402000Y-127032000D02*
X194402000Y-116849388D01*
X194378000Y-116825388D02*
X194378000Y-113316000D01*
X192854000Y-73946000D02*
X192866000Y-73934000D01*
X194378000Y-108236000D02*
X194378000Y-94266000D01*
X192866000Y-54400000D02*
X192866000Y-53364000D01*
X192866000Y-128568000D02*
X194402000Y-127032000D01*
X194378000Y-88932000D02*
X194378000Y-75470000D01*
X192866000Y-92754000D02*
X192866000Y-91504000D01*
X194378000Y-75470000D02*
X192854000Y-73946000D01*
X192866000Y-72544000D02*
X192866000Y-71394000D01*
X194378000Y-55912000D02*
X192866000Y-54400000D01*
X194378000Y-113316000D02*
X192854000Y-111792000D01*
X194378000Y-69882000D02*
X194378000Y-55912000D01*
X192866000Y-71394000D02*
X194378000Y-69882000D01*
X192854000Y-110746000D02*
X192866000Y-110734000D01*
X192866000Y-109748000D02*
X194378000Y-108236000D01*
X194402000Y-116849388D02*
X194378000Y-116825388D01*
X192866000Y-91504000D02*
X192854000Y-91492000D01*
X192854000Y-111792000D02*
X192854000Y-110746000D01*
X192866000Y-129624000D02*
X192866000Y-128568000D01*
%TO.N,/81*%
X196046000Y-69738000D02*
X196046000Y-59714000D01*
X196046000Y-78894000D02*
X196046000Y-75614000D01*
X196046000Y-88788000D02*
X196046000Y-78894000D01*
X194378000Y-109760000D02*
X196046000Y-108092000D01*
X194378000Y-130588000D02*
X194378000Y-128810000D01*
X194378000Y-71406000D02*
X196046000Y-69738000D01*
X196046000Y-117084000D02*
X196046000Y-113460000D01*
X196046000Y-135974000D02*
X196046000Y-132256000D01*
X196046000Y-94410000D02*
X194378000Y-92742000D01*
X196046000Y-97854000D02*
X196046000Y-94410000D01*
X196046000Y-113460000D02*
X194378000Y-111792000D01*
X194378000Y-90456000D02*
X196046000Y-88788000D01*
X194378000Y-128810000D02*
X196046000Y-127142000D01*
X196046000Y-127142000D02*
X196046000Y-117084000D01*
X194378000Y-73946000D02*
X194378000Y-71406000D01*
X196046000Y-75614000D02*
X194378000Y-73946000D01*
X196046000Y-108092000D02*
X196046000Y-97854000D01*
X196046000Y-132256000D02*
X194378000Y-130588000D01*
X194378000Y-111792000D02*
X194378000Y-109760000D01*
X194378000Y-92742000D02*
X194378000Y-90456000D01*
%TO.N,/84*%
X199204000Y-72522000D02*
X199226000Y-72544000D01*
X199204000Y-91482000D02*
X199226000Y-91504000D01*
X199204000Y-128556000D02*
X199204000Y-129602000D01*
X200772000Y-126988000D02*
X199204000Y-128556000D01*
X199204000Y-129602000D02*
X199226000Y-129624000D01*
X199204000Y-90456000D02*
X199204000Y-91482000D01*
X200728000Y-108236000D02*
X199204000Y-109760000D01*
X199226000Y-112024000D02*
X200772000Y-113570000D01*
X199226000Y-92510000D02*
X200728000Y-94012000D01*
X199226000Y-110734000D02*
X199226000Y-112024000D01*
X200728000Y-55912000D02*
X200728000Y-69882000D01*
X199226000Y-73714000D02*
X200728000Y-75216000D01*
X200728000Y-88932000D02*
X199204000Y-90456000D01*
X200728000Y-94012000D02*
X200728000Y-108236000D01*
X199204000Y-109760000D02*
X199204000Y-110712000D01*
X199226000Y-54410000D02*
X200728000Y-55912000D01*
X199226000Y-53364000D02*
X199226000Y-54410000D01*
X200772000Y-113570000D02*
X200772000Y-126988000D01*
X199204000Y-110712000D02*
X199226000Y-110734000D01*
X200728000Y-69882000D02*
X199204000Y-71406000D01*
X199226000Y-91504000D02*
X199226000Y-92510000D01*
X199204000Y-71406000D02*
X199204000Y-72522000D01*
X200728000Y-75216000D02*
X200728000Y-88932000D01*
X199226000Y-72544000D02*
X199226000Y-73714000D01*
%TO.N,/85*%
X200728000Y-92488000D02*
X200728000Y-90710000D01*
X202406000Y-108336000D02*
X202406000Y-97854000D01*
X200728000Y-71660000D02*
X202406000Y-69982000D01*
X202406000Y-117084000D02*
X202406000Y-113470000D01*
X202406000Y-78894000D02*
X202406000Y-75116000D01*
X202406000Y-97854000D02*
X202406000Y-94166000D01*
X202406000Y-94166000D02*
X200728000Y-92488000D01*
X200728000Y-110014000D02*
X202406000Y-108336000D01*
X200728000Y-73438000D02*
X200728000Y-71660000D01*
X202406000Y-127132000D02*
X202406000Y-117084000D01*
X202406000Y-132266000D02*
X200728000Y-130588000D01*
X202406000Y-135974000D02*
X202406000Y-132266000D01*
X200728000Y-111792000D02*
X200728000Y-110014000D01*
X202406000Y-113470000D02*
X200728000Y-111792000D01*
X202406000Y-89032000D02*
X202406000Y-78894000D01*
X200728000Y-90710000D02*
X202406000Y-89032000D01*
X202406000Y-75116000D02*
X200728000Y-73438000D01*
X200728000Y-128810000D02*
X202406000Y-127132000D01*
X202406000Y-69982000D02*
X202406000Y-59714000D01*
X200728000Y-130588000D02*
X200728000Y-128810000D01*
%TO.N,/88*%
X205586000Y-54420000D02*
X205586000Y-53364000D01*
X207078000Y-113316000D02*
X205554000Y-111792000D01*
X205554000Y-129592000D02*
X205554000Y-128556000D01*
X207078000Y-88932000D02*
X205586000Y-90424000D01*
X205586000Y-71692000D02*
X207142000Y-70136000D01*
X207078000Y-108236000D02*
X207078000Y-94266000D01*
X205554000Y-110766000D02*
X205586000Y-110734000D01*
X205554000Y-128556000D02*
X207078000Y-127032000D01*
X207142000Y-55976000D02*
X205586000Y-54420000D01*
X205586000Y-72544000D02*
X205586000Y-71692000D01*
X205586000Y-110734000D02*
X205586000Y-109728000D01*
X205586000Y-72544000D02*
X205586000Y-73470000D01*
X205554000Y-111792000D02*
X205554000Y-110766000D01*
X207142000Y-70136000D02*
X207142000Y-55976000D01*
X205586000Y-90424000D02*
X205586000Y-91504000D01*
X207078000Y-94266000D02*
X205554000Y-92742000D01*
X207078000Y-127032000D02*
X207078000Y-113316000D01*
X207078000Y-74962000D02*
X207078000Y-88932000D01*
X205554000Y-91536000D02*
X205586000Y-91504000D01*
X205586000Y-73470000D02*
X207078000Y-74962000D01*
X205586000Y-129624000D02*
X205554000Y-129592000D01*
X205586000Y-109728000D02*
X207078000Y-108236000D01*
X205554000Y-92742000D02*
X205554000Y-91536000D01*
%TO.N,/89*%
X208766000Y-94176000D02*
X207078000Y-92488000D01*
X207078000Y-109760000D02*
X208766000Y-108072000D01*
X208766000Y-97854000D02*
X208766000Y-94176000D01*
X207078000Y-92488000D02*
X207078000Y-90456000D01*
X208766000Y-126868000D02*
X208766000Y-117084000D01*
X208766000Y-132276000D02*
X207078000Y-130588000D01*
X208766000Y-88768000D02*
X208766000Y-78894000D01*
X208766000Y-113226000D02*
X207078000Y-111538000D01*
X207078000Y-111538000D02*
X207078000Y-109760000D01*
X207078000Y-71660000D02*
X208766000Y-69972000D01*
X207078000Y-73438000D02*
X207078000Y-71660000D01*
X208766000Y-108072000D02*
X208766000Y-97854000D01*
X207078000Y-128556000D02*
X208766000Y-126868000D01*
X208766000Y-75126000D02*
X207078000Y-73438000D01*
X208766000Y-69972000D02*
X208766000Y-59714000D01*
X208766000Y-78894000D02*
X208766000Y-75126000D01*
X208766000Y-135974000D02*
X208766000Y-132276000D01*
X207078000Y-130588000D02*
X207078000Y-128556000D01*
X207078000Y-90456000D02*
X208766000Y-88768000D01*
X208766000Y-117084000D02*
X208766000Y-113226000D01*
%TO.N,/92*%
X211946000Y-90160000D02*
X211946000Y-91504000D01*
X211904000Y-111792000D02*
X213428000Y-113316000D01*
X211904000Y-129582000D02*
X211946000Y-129624000D01*
X211946000Y-110734000D02*
X211904000Y-110776000D01*
X211946000Y-53364000D02*
X211946000Y-54176000D01*
X211946000Y-72544000D02*
X211904000Y-72586000D01*
X211904000Y-109506000D02*
X211904000Y-110692000D01*
X211904000Y-110776000D02*
X211904000Y-111792000D01*
X213428000Y-107982000D02*
X211904000Y-109506000D01*
X213428000Y-88678000D02*
X211946000Y-90160000D01*
X213428000Y-55658000D02*
X213428000Y-69882000D01*
X213428000Y-74962000D02*
X213428000Y-88678000D01*
X213428000Y-127032000D02*
X211904000Y-128556000D01*
X211904000Y-73438000D02*
X213428000Y-74962000D01*
X211904000Y-110692000D02*
X211946000Y-110734000D01*
X211904000Y-72586000D02*
X211904000Y-73438000D01*
X211946000Y-92530000D02*
X213428000Y-94012000D01*
X213428000Y-69882000D02*
X211904000Y-71406000D01*
X211946000Y-54176000D02*
X213428000Y-55658000D01*
X211904000Y-72502000D02*
X211946000Y-72544000D01*
X213428000Y-113316000D02*
X213428000Y-127032000D01*
X213428000Y-94012000D02*
X213428000Y-107982000D01*
X211904000Y-128556000D02*
X211904000Y-129582000D01*
X211904000Y-71406000D02*
X211904000Y-72502000D01*
X211946000Y-91504000D02*
X211946000Y-92530000D01*
%TO.N,/93*%
X215126000Y-88758000D02*
X215126000Y-78894000D01*
X213428000Y-73438000D02*
X213428000Y-71660000D01*
X213428000Y-130334000D02*
X215126000Y-132032000D01*
X215126000Y-127112000D02*
X213428000Y-128810000D01*
X215126000Y-117084000D02*
X215126000Y-127112000D01*
X215126000Y-75136000D02*
X213428000Y-73438000D01*
X213428000Y-109760000D02*
X215126000Y-108062000D01*
X215126000Y-113490000D02*
X213428000Y-111792000D01*
X215126000Y-97854000D02*
X215126000Y-94186000D01*
X215126000Y-132032000D02*
X215126000Y-135974000D01*
X213428000Y-111792000D02*
X213428000Y-109760000D01*
X213428000Y-71660000D02*
X215126000Y-69962000D01*
X213428000Y-128810000D02*
X213428000Y-130334000D01*
X215126000Y-117084000D02*
X215126000Y-113490000D01*
X215126000Y-69962000D02*
X215126000Y-59714000D01*
X213428000Y-92488000D02*
X213428000Y-90456000D01*
X215126000Y-94186000D02*
X213428000Y-92488000D01*
X215126000Y-108062000D02*
X215126000Y-97854000D01*
X215126000Y-78894000D02*
X215126000Y-75136000D01*
X213428000Y-90456000D02*
X215126000Y-88758000D01*
%TO.N,/96*%
X220032000Y-107982000D02*
X218306000Y-109708000D01*
X220032000Y-94266000D02*
X220032000Y-107982000D01*
X219957000Y-88857000D02*
X219957000Y-75141000D01*
X218254000Y-129572000D02*
X218306000Y-129624000D01*
X218306000Y-90508000D02*
X219957000Y-88857000D01*
X218254000Y-128810000D02*
X218254000Y-129572000D01*
X218306000Y-109708000D02*
X218306000Y-110734000D01*
X218306000Y-91504000D02*
X218306000Y-90508000D01*
X218306000Y-92540000D02*
X220032000Y-94266000D01*
X218306000Y-54440000D02*
X220032000Y-56166000D01*
X218306000Y-91504000D02*
X218306000Y-92540000D01*
X218306000Y-112352000D02*
X220032000Y-114078000D01*
X218306000Y-73490000D02*
X218306000Y-72544000D01*
X219957000Y-75141000D02*
X218306000Y-73490000D01*
X218306000Y-71354000D02*
X218306000Y-72544000D01*
X218306000Y-110734000D02*
X218306000Y-112352000D01*
X220032000Y-127032000D02*
X218254000Y-128810000D01*
X220032000Y-114078000D02*
X220032000Y-127032000D01*
X220032000Y-56166000D02*
X220032000Y-69628000D01*
X220032000Y-69628000D02*
X218306000Y-71354000D01*
X218306000Y-53364000D02*
X218306000Y-54440000D01*
%TO.N,/97*%
X220032000Y-128810000D02*
X220032000Y-130588000D01*
X220032000Y-71660000D02*
X220032000Y-73692000D01*
X221486000Y-70206000D02*
X220032000Y-71660000D01*
X220032000Y-73692000D02*
X221486000Y-75146000D01*
X221486000Y-93942000D02*
X220032000Y-92488000D01*
X220032000Y-112300000D02*
X220032000Y-109760000D01*
X220032000Y-92488000D02*
X220032000Y-90456000D01*
X220032000Y-109760000D02*
X221556000Y-108236000D01*
X221486000Y-108166000D02*
X221486000Y-97854000D01*
X220032000Y-130588000D02*
X221486000Y-132042000D01*
X221486000Y-127356000D02*
X220032000Y-128810000D01*
X220032000Y-90456000D02*
X221486000Y-89002000D01*
X221486000Y-97854000D02*
X221486000Y-93942000D01*
X221486000Y-117084000D02*
X221486000Y-127356000D01*
X221486000Y-132042000D02*
X221486000Y-135974000D01*
X221486000Y-89002000D02*
X221486000Y-78894000D01*
X221486000Y-59714000D02*
X221486000Y-70206000D01*
X221486000Y-117084000D02*
X221486000Y-113754000D01*
X221486000Y-113754000D02*
X220032000Y-112300000D01*
X221486000Y-75146000D02*
X221486000Y-78894000D01*
X221556000Y-108236000D02*
X221486000Y-108166000D01*
%TO.N,GND*%
X76776000Y-139478000D02*
X76776000Y-52643572D01*
X83126000Y-67088000D02*
X83126000Y-50324000D01*
X153230000Y-139478000D02*
X153230000Y-50832000D01*
X114876000Y-52356000D02*
X114876000Y-138970000D01*
X102176000Y-139732000D02*
X102176000Y-50578000D01*
X210380000Y-139478000D02*
X210380000Y-50832000D01*
D18*
X102430000Y-50324000D02*
X95572000Y-50324000D01*
X89730000Y-50324000D02*
X83126000Y-50324000D01*
D19*
X89476000Y-76994000D02*
X89476000Y-57182000D01*
X184980000Y-139478000D02*
X184980000Y-50832000D01*
X89476000Y-57182000D02*
X89476000Y-50578000D01*
X159580000Y-139478000D02*
X159580000Y-50832000D01*
X146880000Y-139478000D02*
X146880000Y-50832000D01*
X140530000Y-139224000D02*
X140530000Y-50832000D01*
X83126000Y-132366000D02*
X83126000Y-107982000D01*
D18*
X82364000Y-50324000D02*
X78554000Y-50324000D01*
D19*
X191330000Y-139732000D02*
X191330000Y-50832000D01*
X102176000Y-50578000D02*
X102430000Y-50324000D01*
X95826000Y-50578000D02*
X95572000Y-50324000D01*
X89476000Y-50578000D02*
X89730000Y-50324000D01*
X108526000Y-50578000D02*
X108272000Y-50324000D01*
X78554000Y-50865572D02*
X78554000Y-50324000D01*
X89476000Y-134144000D02*
X89476000Y-125254000D01*
X134180000Y-140240000D02*
X134180000Y-50832000D01*
X172280000Y-139478000D02*
X172280000Y-50832000D01*
D18*
X120136000Y-42074000D02*
X120136000Y-45826000D01*
X82581000Y-50107000D02*
X82364000Y-50324000D01*
D19*
X89476000Y-125254000D02*
X89476000Y-108998000D01*
X127830000Y-141510000D02*
X127830000Y-50832000D01*
D18*
X82581000Y-47664000D02*
X82581000Y-50107000D01*
D19*
X89476000Y-108998000D02*
X89476000Y-92742000D01*
X121226000Y-141510000D02*
X121226000Y-50832000D01*
D18*
X120136000Y-45826000D02*
X115638000Y-50324000D01*
X108272000Y-50324000D02*
X102430000Y-50324000D01*
D19*
X83126000Y-107982000D02*
X83126000Y-67088000D01*
X108526000Y-139478000D02*
X108526000Y-50578000D01*
X216730000Y-139224000D02*
X216730000Y-50832000D01*
X114876000Y-138970000D02*
X114876000Y-139478000D01*
X178630000Y-139478000D02*
X178630000Y-50832000D01*
X76776000Y-52643572D02*
X78554000Y-50865572D01*
X197680000Y-139478000D02*
X197680000Y-50832000D01*
X203776000Y-139224000D02*
X203776000Y-50832000D01*
X89476000Y-92742000D02*
X89476000Y-76994000D01*
X83126000Y-139478000D02*
X83126000Y-132366000D01*
D18*
X115638000Y-50324000D02*
X108272000Y-50324000D01*
D19*
X89476000Y-139478000D02*
X89476000Y-134144000D01*
X95826000Y-139478000D02*
X95826000Y-50578000D01*
X165676000Y-139478000D02*
X165676000Y-50832000D01*
D18*
X95572000Y-50324000D02*
X89730000Y-50324000D01*
X83126000Y-50324000D02*
X82364000Y-50324000D01*
%TD*%
%TA.AperFunction,Conductor*%
%TO.N,GND*%
G36*
X263154121Y-40438002D02*
G01*
X263200614Y-40491658D01*
X263212000Y-40544000D01*
X263212000Y-143162000D01*
X263191998Y-143230121D01*
X263138342Y-143276614D01*
X263086000Y-143288000D01*
X71314000Y-143288000D01*
X71245879Y-143267998D01*
X71199386Y-143214342D01*
X71188000Y-143162000D01*
X71188000Y-139096000D01*
X71208002Y-139027879D01*
X71261658Y-138981386D01*
X71314000Y-138970000D01*
X223842000Y-138970000D01*
X223842000Y-137316853D01*
X223862002Y-137248732D01*
X223915658Y-137202239D01*
X223985932Y-137192135D01*
X224031570Y-137208065D01*
X224060830Y-137225163D01*
X224070119Y-137229613D01*
X224273302Y-137307201D01*
X224283200Y-137310077D01*
X224496328Y-137353438D01*
X224506556Y-137354657D01*
X224723902Y-137362628D01*
X224734188Y-137362161D01*
X224949921Y-137334525D01*
X224959999Y-137332383D01*
X225168316Y-137269884D01*
X225177914Y-137266122D01*
X225373229Y-137170439D01*
X225382074Y-137165166D01*
X225434964Y-137127440D01*
X225443365Y-137116740D01*
X225436377Y-137103587D01*
X224395885Y-136063095D01*
X224361859Y-136000783D01*
X224363694Y-135975132D01*
X225030408Y-135975132D01*
X225030539Y-135976965D01*
X225034790Y-135983580D01*
X225796179Y-136744969D01*
X225808190Y-136751528D01*
X225819929Y-136742560D01*
X225854655Y-136694234D01*
X225859969Y-136685389D01*
X225956326Y-136490426D01*
X225960124Y-136480833D01*
X226023348Y-136272738D01*
X226025525Y-136262668D01*
X226054151Y-136045235D01*
X226054670Y-136038560D01*
X226056166Y-135977364D01*
X226055972Y-135970646D01*
X226038004Y-135752097D01*
X226036319Y-135741917D01*
X225983336Y-135530983D01*
X225980016Y-135521232D01*
X225893290Y-135321774D01*
X225888424Y-135312699D01*
X225818951Y-135205312D01*
X225808264Y-135196108D01*
X225798699Y-135200511D01*
X225038022Y-135961188D01*
X225030408Y-135975132D01*
X224363694Y-135975132D01*
X224366924Y-135929968D01*
X224395885Y-135884905D01*
X225438969Y-134841821D01*
X225445990Y-134828964D01*
X225438429Y-134818587D01*
X225430820Y-134813532D01*
X225240429Y-134708430D01*
X225231017Y-134704200D01*
X225026008Y-134631602D01*
X225016037Y-134628968D01*
X224801923Y-134590828D01*
X224791671Y-134589859D01*
X224574191Y-134587202D01*
X224563907Y-134587922D01*
X224348922Y-134620818D01*
X224338903Y-134623205D01*
X224132170Y-134690776D01*
X224122678Y-134694767D01*
X224026180Y-134745000D01*
X223956520Y-134758712D01*
X223890505Y-134732587D01*
X223849094Y-134674918D01*
X223842000Y-134633236D01*
X223842000Y-132845880D01*
X230692992Y-132845880D01*
X230693355Y-132850028D01*
X230693355Y-132850032D01*
X230718487Y-133137293D01*
X230718488Y-133137301D01*
X230718852Y-133141459D01*
X230783577Y-133431021D01*
X230785019Y-133434941D01*
X230785021Y-133434947D01*
X230855619Y-133626827D01*
X230886029Y-133709480D01*
X231024410Y-133971942D01*
X231196288Y-134213797D01*
X231398642Y-134430796D01*
X231627918Y-134619125D01*
X231880088Y-134775477D01*
X232150722Y-134897105D01*
X232274484Y-134934000D01*
X232431065Y-134980679D01*
X232431067Y-134980679D01*
X232435064Y-134981871D01*
X232439184Y-134982524D01*
X232439186Y-134982524D01*
X232558106Y-135001359D01*
X232728119Y-135028286D01*
X232773146Y-135030331D01*
X232819497Y-135032436D01*
X232819516Y-135032436D01*
X232820916Y-135032500D01*
X233006264Y-135032500D01*
X233227056Y-135017835D01*
X233517910Y-134959188D01*
X233798453Y-134862590D01*
X233802196Y-134860716D01*
X233802200Y-134860714D01*
X234060012Y-134731611D01*
X234060014Y-134731610D01*
X234063756Y-134729736D01*
X234166135Y-134660159D01*
X234305699Y-134565312D01*
X234305702Y-134565310D01*
X234309158Y-134562961D01*
X234530346Y-134365196D01*
X234723436Y-134139914D01*
X234725711Y-134136411D01*
X234882763Y-133894572D01*
X234882765Y-133894569D01*
X234885035Y-133891073D01*
X235012304Y-133623046D01*
X235072696Y-133434947D01*
X235101726Y-133344530D01*
X235101727Y-133344524D01*
X235103006Y-133340542D01*
X235138091Y-133145548D01*
X235154809Y-133052632D01*
X235154810Y-133052627D01*
X235155548Y-133048523D01*
X235161516Y-132917115D01*
X235168819Y-132756290D01*
X235168819Y-132756285D01*
X235169008Y-132752120D01*
X235168645Y-132747968D01*
X235143513Y-132460707D01*
X235143512Y-132460699D01*
X235143148Y-132456541D01*
X235115749Y-132333966D01*
X235079336Y-132171063D01*
X235079336Y-132171061D01*
X235078423Y-132166979D01*
X235076228Y-132161011D01*
X234977418Y-131892452D01*
X234977416Y-131892448D01*
X234975971Y-131888520D01*
X234967454Y-131872365D01*
X234839543Y-131629762D01*
X234839542Y-131629761D01*
X234837590Y-131626058D01*
X234665712Y-131384203D01*
X234463358Y-131167204D01*
X234234082Y-130978875D01*
X233981912Y-130822523D01*
X233711278Y-130700895D01*
X233512256Y-130641564D01*
X233430935Y-130617321D01*
X233430933Y-130617321D01*
X233426936Y-130616129D01*
X233422816Y-130615476D01*
X233422814Y-130615476D01*
X233303894Y-130596641D01*
X233133881Y-130569714D01*
X233088854Y-130567669D01*
X233042503Y-130565564D01*
X233042484Y-130565564D01*
X233041084Y-130565500D01*
X232855736Y-130565500D01*
X232634944Y-130580165D01*
X232344090Y-130638812D01*
X232266605Y-130665492D01*
X232087519Y-130727156D01*
X232063547Y-130735410D01*
X232059804Y-130737284D01*
X232059800Y-130737286D01*
X231830245Y-130852239D01*
X231798244Y-130868264D01*
X231719306Y-130921910D01*
X231585819Y-131012628D01*
X231552842Y-131035039D01*
X231549726Y-131037825D01*
X231543573Y-131043326D01*
X231331654Y-131232804D01*
X231138564Y-131458086D01*
X231136290Y-131461588D01*
X231136289Y-131461589D01*
X230981026Y-131700674D01*
X230976965Y-131706927D01*
X230975177Y-131710693D01*
X230975174Y-131710698D01*
X230930152Y-131805515D01*
X230849696Y-131974954D01*
X230848417Y-131978937D01*
X230848416Y-131978940D01*
X230761353Y-132250111D01*
X230758994Y-132257458D01*
X230758253Y-132261577D01*
X230709219Y-132534100D01*
X230706452Y-132549477D01*
X230706263Y-132553644D01*
X230706262Y-132553651D01*
X230697060Y-132756290D01*
X230692992Y-132845880D01*
X223842000Y-132845880D01*
X223842000Y-130966853D01*
X223862002Y-130898732D01*
X223915658Y-130852239D01*
X223985932Y-130842135D01*
X224031570Y-130858065D01*
X224060830Y-130875163D01*
X224070119Y-130879613D01*
X224273302Y-130957201D01*
X224283200Y-130960077D01*
X224496328Y-131003438D01*
X224506556Y-131004657D01*
X224723902Y-131012628D01*
X224734188Y-131012161D01*
X224949921Y-130984525D01*
X224959999Y-130982383D01*
X225168316Y-130919884D01*
X225177914Y-130916122D01*
X225373229Y-130820439D01*
X225382074Y-130815166D01*
X225434964Y-130777440D01*
X225443365Y-130766740D01*
X225436377Y-130753587D01*
X224395885Y-129713095D01*
X224361859Y-129650783D01*
X224363694Y-129625132D01*
X225030408Y-129625132D01*
X225030539Y-129626965D01*
X225034790Y-129633580D01*
X225796179Y-130394969D01*
X225808190Y-130401528D01*
X225819929Y-130392560D01*
X225854655Y-130344234D01*
X225859969Y-130335389D01*
X225956326Y-130140426D01*
X225960124Y-130130833D01*
X226023348Y-129922738D01*
X226025525Y-129912668D01*
X226054151Y-129695235D01*
X226054670Y-129688560D01*
X226056166Y-129627364D01*
X226055972Y-129620646D01*
X226038004Y-129402097D01*
X226036319Y-129391917D01*
X225983336Y-129180983D01*
X225980016Y-129171232D01*
X225893290Y-128971774D01*
X225888424Y-128962699D01*
X225818951Y-128855312D01*
X225808264Y-128846108D01*
X225798699Y-128850511D01*
X225038022Y-129611188D01*
X225030408Y-129625132D01*
X224363694Y-129625132D01*
X224366924Y-129579968D01*
X224395885Y-129534905D01*
X225438969Y-128491821D01*
X225445990Y-128478964D01*
X225438429Y-128468587D01*
X225430820Y-128463532D01*
X225240429Y-128358430D01*
X225231017Y-128354200D01*
X225026008Y-128281602D01*
X225016037Y-128278968D01*
X224801923Y-128240828D01*
X224791671Y-128239859D01*
X224574191Y-128237202D01*
X224563907Y-128237922D01*
X224348922Y-128270818D01*
X224338903Y-128273205D01*
X224132170Y-128340776D01*
X224122678Y-128344767D01*
X224026180Y-128395000D01*
X223956520Y-128408712D01*
X223890505Y-128382587D01*
X223849094Y-128324918D01*
X223842000Y-128283236D01*
X223842000Y-118426853D01*
X223862002Y-118358732D01*
X223915658Y-118312239D01*
X223985932Y-118302135D01*
X224031570Y-118318065D01*
X224060830Y-118335163D01*
X224070119Y-118339613D01*
X224273302Y-118417201D01*
X224283200Y-118420077D01*
X224496328Y-118463438D01*
X224506556Y-118464657D01*
X224723902Y-118472628D01*
X224734188Y-118472161D01*
X224949921Y-118444525D01*
X224959999Y-118442383D01*
X225168316Y-118379884D01*
X225177914Y-118376122D01*
X225373229Y-118280439D01*
X225382074Y-118275166D01*
X225434964Y-118237440D01*
X225443365Y-118226740D01*
X225436377Y-118213587D01*
X224395885Y-117173095D01*
X224361859Y-117110783D01*
X224363694Y-117085132D01*
X225030408Y-117085132D01*
X225030539Y-117086965D01*
X225034790Y-117093580D01*
X225796179Y-117854969D01*
X225808190Y-117861528D01*
X225819929Y-117852560D01*
X225854655Y-117804234D01*
X225859969Y-117795389D01*
X225956326Y-117600426D01*
X225960124Y-117590833D01*
X226023348Y-117382738D01*
X226025525Y-117372668D01*
X226054151Y-117155235D01*
X226054670Y-117148560D01*
X226056166Y-117087364D01*
X226055972Y-117080646D01*
X226038004Y-116862097D01*
X226036319Y-116851917D01*
X225983336Y-116640983D01*
X225980016Y-116631232D01*
X225893290Y-116431774D01*
X225888424Y-116422699D01*
X225818951Y-116315312D01*
X225808264Y-116306108D01*
X225798699Y-116310511D01*
X225038022Y-117071188D01*
X225030408Y-117085132D01*
X224363694Y-117085132D01*
X224366924Y-117039968D01*
X224395885Y-116994905D01*
X225438969Y-115951821D01*
X225445990Y-115938964D01*
X225438429Y-115928587D01*
X225430820Y-115923532D01*
X225240429Y-115818430D01*
X225231017Y-115814200D01*
X225026008Y-115741602D01*
X225016037Y-115738968D01*
X224801923Y-115700828D01*
X224791671Y-115699859D01*
X224574191Y-115697202D01*
X224563907Y-115697922D01*
X224348922Y-115730818D01*
X224338903Y-115733205D01*
X224132170Y-115800776D01*
X224122678Y-115804767D01*
X224026180Y-115855000D01*
X223956520Y-115868712D01*
X223890505Y-115842587D01*
X223849094Y-115784918D01*
X223842000Y-115743236D01*
X223842000Y-113955880D01*
X230692992Y-113955880D01*
X230693355Y-113960028D01*
X230693355Y-113960032D01*
X230718487Y-114247293D01*
X230718488Y-114247301D01*
X230718852Y-114251459D01*
X230783577Y-114541021D01*
X230785019Y-114544941D01*
X230785021Y-114544947D01*
X230855619Y-114736827D01*
X230886029Y-114819480D01*
X231024410Y-115081942D01*
X231196288Y-115323797D01*
X231398642Y-115540796D01*
X231627918Y-115729125D01*
X231880088Y-115885477D01*
X232150722Y-116007105D01*
X232298247Y-116051084D01*
X232431065Y-116090679D01*
X232431067Y-116090679D01*
X232435064Y-116091871D01*
X232439184Y-116092524D01*
X232439186Y-116092524D01*
X232536798Y-116107984D01*
X232728119Y-116138286D01*
X232773146Y-116140331D01*
X232819497Y-116142436D01*
X232819516Y-116142436D01*
X232820916Y-116142500D01*
X233006264Y-116142500D01*
X233227056Y-116127835D01*
X233517910Y-116069188D01*
X233798453Y-115972590D01*
X233802196Y-115970716D01*
X233802200Y-115970714D01*
X234060012Y-115841611D01*
X234060014Y-115841610D01*
X234063756Y-115839736D01*
X234166135Y-115770159D01*
X234305699Y-115675312D01*
X234305702Y-115675310D01*
X234309158Y-115672961D01*
X234530346Y-115475196D01*
X234723436Y-115249914D01*
X234725711Y-115246411D01*
X234882763Y-115004572D01*
X234882765Y-115004569D01*
X234885035Y-115001073D01*
X235012304Y-114733046D01*
X235072696Y-114544947D01*
X235101726Y-114454530D01*
X235101727Y-114454524D01*
X235103006Y-114450542D01*
X235138091Y-114255548D01*
X235154809Y-114162632D01*
X235154810Y-114162627D01*
X235155548Y-114158523D01*
X235158126Y-114101769D01*
X235168819Y-113866290D01*
X235168819Y-113866285D01*
X235169008Y-113862120D01*
X235167695Y-113847115D01*
X235143513Y-113570707D01*
X235143512Y-113570699D01*
X235143148Y-113566541D01*
X235115335Y-113442114D01*
X235079336Y-113281063D01*
X235079336Y-113281061D01*
X235078423Y-113276979D01*
X235074298Y-113265765D01*
X234977418Y-113002452D01*
X234977416Y-113002448D01*
X234975971Y-112998520D01*
X234971224Y-112989515D01*
X234839543Y-112739762D01*
X234839542Y-112739761D01*
X234837590Y-112736058D01*
X234665712Y-112494203D01*
X234463358Y-112277204D01*
X234293753Y-112137889D01*
X234237307Y-112091524D01*
X234234082Y-112088875D01*
X233981912Y-111932523D01*
X233711278Y-111810895D01*
X233525664Y-111755561D01*
X233430935Y-111727321D01*
X233430933Y-111727321D01*
X233426936Y-111726129D01*
X233422816Y-111725476D01*
X233422814Y-111725476D01*
X233303894Y-111706641D01*
X233133881Y-111679714D01*
X233088854Y-111677669D01*
X233042503Y-111675564D01*
X233042484Y-111675564D01*
X233041084Y-111675500D01*
X232855736Y-111675500D01*
X232634944Y-111690165D01*
X232344090Y-111748812D01*
X232287667Y-111768240D01*
X232098012Y-111833543D01*
X232063547Y-111845410D01*
X232059804Y-111847284D01*
X232059800Y-111847286D01*
X231801988Y-111976389D01*
X231798244Y-111978264D01*
X231718828Y-112032235D01*
X231580332Y-112126357D01*
X231552842Y-112145039D01*
X231331654Y-112342804D01*
X231328937Y-112345974D01*
X231328936Y-112345975D01*
X231312085Y-112365635D01*
X231138564Y-112568086D01*
X231136290Y-112571588D01*
X231136289Y-112571589D01*
X230982821Y-112807910D01*
X230976965Y-112816927D01*
X230975177Y-112820693D01*
X230975174Y-112820698D01*
X230934190Y-112907011D01*
X230849696Y-113084954D01*
X230848417Y-113088937D01*
X230848416Y-113088940D01*
X230761353Y-113360111D01*
X230758994Y-113367458D01*
X230757823Y-113373966D01*
X230718275Y-113593769D01*
X230706452Y-113659477D01*
X230706263Y-113663644D01*
X230706262Y-113663651D01*
X230697060Y-113866290D01*
X230692992Y-113955880D01*
X223842000Y-113955880D01*
X223842000Y-112076853D01*
X223862002Y-112008732D01*
X223915658Y-111962239D01*
X223985932Y-111952135D01*
X224031570Y-111968065D01*
X224060830Y-111985163D01*
X224070119Y-111989613D01*
X224273302Y-112067201D01*
X224283200Y-112070077D01*
X224496328Y-112113438D01*
X224506556Y-112114657D01*
X224723902Y-112122628D01*
X224734188Y-112122161D01*
X224949921Y-112094525D01*
X224959999Y-112092383D01*
X225168316Y-112029884D01*
X225177914Y-112026122D01*
X225373229Y-111930439D01*
X225382074Y-111925166D01*
X225434964Y-111887440D01*
X225443365Y-111876740D01*
X225436377Y-111863587D01*
X224395885Y-110823095D01*
X224361859Y-110760783D01*
X224363694Y-110735132D01*
X225030408Y-110735132D01*
X225030539Y-110736965D01*
X225034790Y-110743580D01*
X225796179Y-111504969D01*
X225808190Y-111511528D01*
X225819929Y-111502560D01*
X225854655Y-111454234D01*
X225859969Y-111445389D01*
X225956326Y-111250426D01*
X225960124Y-111240833D01*
X226023348Y-111032738D01*
X226025525Y-111022668D01*
X226054151Y-110805235D01*
X226054670Y-110798560D01*
X226056166Y-110737364D01*
X226055972Y-110730646D01*
X226038004Y-110512097D01*
X226036319Y-110501917D01*
X225983336Y-110290983D01*
X225980016Y-110281232D01*
X225893290Y-110081774D01*
X225888424Y-110072699D01*
X225818951Y-109965312D01*
X225808264Y-109956108D01*
X225798699Y-109960511D01*
X225038022Y-110721188D01*
X225030408Y-110735132D01*
X224363694Y-110735132D01*
X224366924Y-110689968D01*
X224395885Y-110644905D01*
X225438969Y-109601821D01*
X225445990Y-109588964D01*
X225438429Y-109578587D01*
X225430820Y-109573532D01*
X225240429Y-109468430D01*
X225231017Y-109464200D01*
X225026008Y-109391602D01*
X225016037Y-109388968D01*
X224801923Y-109350828D01*
X224791671Y-109349859D01*
X224574191Y-109347202D01*
X224563907Y-109347922D01*
X224348922Y-109380818D01*
X224338903Y-109383205D01*
X224132170Y-109450776D01*
X224122678Y-109454767D01*
X224026180Y-109505000D01*
X223956520Y-109518712D01*
X223890505Y-109492587D01*
X223849094Y-109434918D01*
X223842000Y-109393236D01*
X223842000Y-99196853D01*
X223862002Y-99128732D01*
X223915658Y-99082239D01*
X223985932Y-99072135D01*
X224031570Y-99088065D01*
X224060830Y-99105163D01*
X224070119Y-99109613D01*
X224273302Y-99187201D01*
X224283200Y-99190077D01*
X224496328Y-99233438D01*
X224506556Y-99234657D01*
X224723902Y-99242628D01*
X224734188Y-99242161D01*
X224949921Y-99214525D01*
X224959999Y-99212383D01*
X225168316Y-99149884D01*
X225177914Y-99146122D01*
X225373229Y-99050439D01*
X225382074Y-99045166D01*
X225434964Y-99007440D01*
X225443365Y-98996740D01*
X225436377Y-98983587D01*
X224395885Y-97943095D01*
X224361859Y-97880783D01*
X224363694Y-97855132D01*
X225030408Y-97855132D01*
X225030539Y-97856965D01*
X225034790Y-97863580D01*
X225796179Y-98624969D01*
X225808190Y-98631528D01*
X225819929Y-98622560D01*
X225854655Y-98574234D01*
X225859969Y-98565389D01*
X225956326Y-98370426D01*
X225960124Y-98360833D01*
X226023348Y-98152738D01*
X226025525Y-98142668D01*
X226054151Y-97925235D01*
X226054670Y-97918560D01*
X226056166Y-97857364D01*
X226055972Y-97850646D01*
X226038004Y-97632097D01*
X226036319Y-97621917D01*
X225983336Y-97410983D01*
X225980016Y-97401232D01*
X225893290Y-97201774D01*
X225888424Y-97192699D01*
X225818951Y-97085312D01*
X225808264Y-97076108D01*
X225798699Y-97080511D01*
X225038022Y-97841188D01*
X225030408Y-97855132D01*
X224363694Y-97855132D01*
X224366924Y-97809968D01*
X224395885Y-97764905D01*
X225438969Y-96721821D01*
X225445990Y-96708964D01*
X225438429Y-96698587D01*
X225430820Y-96693532D01*
X225240429Y-96588430D01*
X225231017Y-96584200D01*
X225026008Y-96511602D01*
X225016037Y-96508968D01*
X224801923Y-96470828D01*
X224791671Y-96469859D01*
X224574191Y-96467202D01*
X224563907Y-96467922D01*
X224348922Y-96500818D01*
X224338903Y-96503205D01*
X224132170Y-96570776D01*
X224122678Y-96574767D01*
X224026180Y-96625000D01*
X223956520Y-96638712D01*
X223890505Y-96612587D01*
X223849094Y-96554918D01*
X223842000Y-96513236D01*
X223842000Y-94725880D01*
X230692992Y-94725880D01*
X230693355Y-94730028D01*
X230693355Y-94730032D01*
X230718487Y-95017293D01*
X230718488Y-95017301D01*
X230718852Y-95021459D01*
X230783577Y-95311021D01*
X230785019Y-95314941D01*
X230785021Y-95314947D01*
X230855619Y-95506827D01*
X230886029Y-95589480D01*
X231024410Y-95851942D01*
X231196288Y-96093797D01*
X231398642Y-96310796D01*
X231627918Y-96499125D01*
X231880088Y-96655477D01*
X232150722Y-96777105D01*
X232298247Y-96821084D01*
X232431065Y-96860679D01*
X232431067Y-96860679D01*
X232435064Y-96861871D01*
X232439184Y-96862524D01*
X232439186Y-96862524D01*
X232485454Y-96869852D01*
X232728119Y-96908286D01*
X232773146Y-96910331D01*
X232819497Y-96912436D01*
X232819516Y-96912436D01*
X232820916Y-96912500D01*
X233006264Y-96912500D01*
X233227056Y-96897835D01*
X233517910Y-96839188D01*
X233798453Y-96742590D01*
X233802196Y-96740716D01*
X233802200Y-96740714D01*
X233919449Y-96682000D01*
X254754000Y-96682000D01*
X261478000Y-96682000D01*
X261478000Y-75866000D01*
X254754000Y-75866000D01*
X254754000Y-96682000D01*
X233919449Y-96682000D01*
X234060012Y-96611611D01*
X234060014Y-96611610D01*
X234063756Y-96609736D01*
X234166135Y-96540159D01*
X234305699Y-96445312D01*
X234305702Y-96445310D01*
X234309158Y-96442961D01*
X234530346Y-96245196D01*
X234723436Y-96019914D01*
X234725711Y-96016411D01*
X234882763Y-95774572D01*
X234882765Y-95774569D01*
X234885035Y-95771073D01*
X235012304Y-95503046D01*
X235072696Y-95314947D01*
X235101726Y-95224530D01*
X235101727Y-95224524D01*
X235103006Y-95220542D01*
X235138091Y-95025548D01*
X235154809Y-94932632D01*
X235154810Y-94932627D01*
X235155548Y-94928523D01*
X235161487Y-94797760D01*
X235168819Y-94636290D01*
X235168819Y-94636285D01*
X235169008Y-94632120D01*
X235165571Y-94592833D01*
X235143513Y-94340707D01*
X235143512Y-94340699D01*
X235143148Y-94336541D01*
X235113916Y-94205765D01*
X235079336Y-94051063D01*
X235079336Y-94051061D01*
X235078423Y-94046979D01*
X235076266Y-94041115D01*
X234977418Y-93772452D01*
X234977416Y-93772448D01*
X234975971Y-93768520D01*
X234971919Y-93760833D01*
X234839543Y-93509762D01*
X234839542Y-93509761D01*
X234837590Y-93506058D01*
X234665712Y-93264203D01*
X234463358Y-93047204D01*
X234267248Y-92886118D01*
X234237307Y-92861524D01*
X234234082Y-92858875D01*
X233981912Y-92702523D01*
X233711278Y-92580895D01*
X233538610Y-92529420D01*
X233430935Y-92497321D01*
X233430933Y-92497321D01*
X233426936Y-92496129D01*
X233422816Y-92495476D01*
X233422814Y-92495476D01*
X233225595Y-92464240D01*
X233133881Y-92449714D01*
X233088854Y-92447669D01*
X233042503Y-92445564D01*
X233042484Y-92445564D01*
X233041084Y-92445500D01*
X232855736Y-92445500D01*
X232634944Y-92460165D01*
X232344090Y-92518812D01*
X232063547Y-92615410D01*
X232059804Y-92617284D01*
X232059800Y-92617286D01*
X231802052Y-92746357D01*
X231798244Y-92748264D01*
X231717697Y-92803004D01*
X231563737Y-92907635D01*
X231552842Y-92915039D01*
X231331654Y-93112804D01*
X231138564Y-93338086D01*
X231136290Y-93341588D01*
X231136289Y-93341589D01*
X231014996Y-93528365D01*
X230976965Y-93586927D01*
X230975177Y-93590693D01*
X230975174Y-93590698D01*
X230931044Y-93683637D01*
X230849696Y-93854954D01*
X230848417Y-93858937D01*
X230848416Y-93858940D01*
X230762957Y-94125115D01*
X230758994Y-94137458D01*
X230749544Y-94189977D01*
X230707525Y-94423515D01*
X230706452Y-94429477D01*
X230706263Y-94433644D01*
X230706262Y-94433651D01*
X230697060Y-94636290D01*
X230692992Y-94725880D01*
X223842000Y-94725880D01*
X223842000Y-92846853D01*
X223862002Y-92778732D01*
X223915658Y-92732239D01*
X223985932Y-92722135D01*
X224031570Y-92738065D01*
X224060830Y-92755163D01*
X224070119Y-92759613D01*
X224273302Y-92837201D01*
X224283200Y-92840077D01*
X224496328Y-92883438D01*
X224506556Y-92884657D01*
X224723902Y-92892628D01*
X224734188Y-92892161D01*
X224949921Y-92864525D01*
X224959999Y-92862383D01*
X225168316Y-92799884D01*
X225177914Y-92796122D01*
X225373229Y-92700439D01*
X225382074Y-92695166D01*
X225434964Y-92657440D01*
X225443365Y-92646740D01*
X225436377Y-92633587D01*
X224395885Y-91593095D01*
X224361859Y-91530783D01*
X224363694Y-91505132D01*
X225030408Y-91505132D01*
X225030539Y-91506965D01*
X225034790Y-91513580D01*
X225796179Y-92274969D01*
X225808190Y-92281528D01*
X225819929Y-92272560D01*
X225854655Y-92224234D01*
X225859969Y-92215389D01*
X225956326Y-92020426D01*
X225960124Y-92010833D01*
X226023348Y-91802738D01*
X226025525Y-91792668D01*
X226054151Y-91575235D01*
X226054670Y-91568560D01*
X226056166Y-91507364D01*
X226055972Y-91500646D01*
X226038004Y-91282097D01*
X226036319Y-91271917D01*
X225983336Y-91060983D01*
X225980016Y-91051232D01*
X225893290Y-90851774D01*
X225888424Y-90842699D01*
X225818951Y-90735312D01*
X225808264Y-90726108D01*
X225798699Y-90730511D01*
X225038022Y-91491188D01*
X225030408Y-91505132D01*
X224363694Y-91505132D01*
X224366924Y-91459968D01*
X224395885Y-91414905D01*
X225438969Y-90371821D01*
X225445990Y-90358964D01*
X225438429Y-90348587D01*
X225430820Y-90343532D01*
X225240429Y-90238430D01*
X225231017Y-90234200D01*
X225026008Y-90161602D01*
X225016037Y-90158968D01*
X224801923Y-90120828D01*
X224791671Y-90119859D01*
X224574191Y-90117202D01*
X224563907Y-90117922D01*
X224348922Y-90150818D01*
X224338903Y-90153205D01*
X224132170Y-90220776D01*
X224122678Y-90224767D01*
X224026180Y-90275000D01*
X223956520Y-90288712D01*
X223890505Y-90262587D01*
X223849094Y-90204918D01*
X223842000Y-90163236D01*
X223842000Y-80236853D01*
X223862002Y-80168732D01*
X223915658Y-80122239D01*
X223985932Y-80112135D01*
X224031570Y-80128065D01*
X224060830Y-80145163D01*
X224070119Y-80149613D01*
X224273302Y-80227201D01*
X224283200Y-80230077D01*
X224496328Y-80273438D01*
X224506556Y-80274657D01*
X224723902Y-80282628D01*
X224734188Y-80282161D01*
X224949921Y-80254525D01*
X224959999Y-80252383D01*
X225168316Y-80189884D01*
X225177914Y-80186122D01*
X225373229Y-80090439D01*
X225382074Y-80085166D01*
X225434964Y-80047440D01*
X225443365Y-80036740D01*
X225436377Y-80023587D01*
X224395885Y-78983095D01*
X224361859Y-78920783D01*
X224363694Y-78895132D01*
X225030408Y-78895132D01*
X225030539Y-78896965D01*
X225034790Y-78903580D01*
X225796179Y-79664969D01*
X225808190Y-79671528D01*
X225819929Y-79662560D01*
X225854655Y-79614234D01*
X225859969Y-79605389D01*
X225956326Y-79410426D01*
X225960124Y-79400833D01*
X226023348Y-79192738D01*
X226025525Y-79182668D01*
X226054151Y-78965235D01*
X226054670Y-78958560D01*
X226056166Y-78897364D01*
X226055972Y-78890646D01*
X226038004Y-78672097D01*
X226036319Y-78661917D01*
X225983336Y-78450983D01*
X225980016Y-78441232D01*
X225893290Y-78241774D01*
X225888424Y-78232699D01*
X225818951Y-78125312D01*
X225808264Y-78116108D01*
X225798699Y-78120511D01*
X225038022Y-78881188D01*
X225030408Y-78895132D01*
X224363694Y-78895132D01*
X224366924Y-78849968D01*
X224395885Y-78804905D01*
X225438969Y-77761821D01*
X225445990Y-77748964D01*
X225438429Y-77738587D01*
X225430820Y-77733532D01*
X225240429Y-77628430D01*
X225231017Y-77624200D01*
X225026008Y-77551602D01*
X225016037Y-77548968D01*
X224801923Y-77510828D01*
X224791671Y-77509859D01*
X224574191Y-77507202D01*
X224563907Y-77507922D01*
X224348922Y-77540818D01*
X224338903Y-77543205D01*
X224132170Y-77610776D01*
X224122678Y-77614767D01*
X224026180Y-77665000D01*
X223956520Y-77678712D01*
X223890505Y-77652587D01*
X223849094Y-77594918D01*
X223842000Y-77553236D01*
X223842000Y-75765880D01*
X230692992Y-75765880D01*
X230693355Y-75770028D01*
X230693355Y-75770032D01*
X230718487Y-76057293D01*
X230718488Y-76057301D01*
X230718852Y-76061459D01*
X230783577Y-76351021D01*
X230785019Y-76354941D01*
X230785021Y-76354947D01*
X230855619Y-76546827D01*
X230886029Y-76629480D01*
X231024410Y-76891942D01*
X231196288Y-77133797D01*
X231398642Y-77350796D01*
X231627918Y-77539125D01*
X231880088Y-77695477D01*
X232150722Y-77817105D01*
X232298247Y-77861084D01*
X232431065Y-77900679D01*
X232431067Y-77900679D01*
X232435064Y-77901871D01*
X232439184Y-77902524D01*
X232439186Y-77902524D01*
X232485454Y-77909852D01*
X232728119Y-77948286D01*
X232773146Y-77950331D01*
X232819497Y-77952436D01*
X232819516Y-77952436D01*
X232820916Y-77952500D01*
X233006264Y-77952500D01*
X233227056Y-77937835D01*
X233517910Y-77879188D01*
X233798453Y-77782590D01*
X233802196Y-77780716D01*
X233802200Y-77780714D01*
X234060012Y-77651611D01*
X234060014Y-77651610D01*
X234063756Y-77649736D01*
X234166135Y-77580159D01*
X234305699Y-77485312D01*
X234305702Y-77485310D01*
X234309158Y-77482961D01*
X234530346Y-77285196D01*
X234723436Y-77059914D01*
X234725711Y-77056411D01*
X234882763Y-76814572D01*
X234882765Y-76814569D01*
X234885035Y-76811073D01*
X235012304Y-76543046D01*
X235072696Y-76354947D01*
X235101726Y-76264530D01*
X235101727Y-76264524D01*
X235103006Y-76260542D01*
X235138091Y-76065548D01*
X235154809Y-75972632D01*
X235154810Y-75972627D01*
X235155548Y-75968523D01*
X235159589Y-75879548D01*
X235168819Y-75676290D01*
X235168819Y-75676285D01*
X235169008Y-75672120D01*
X235166002Y-75637760D01*
X235143513Y-75380707D01*
X235143512Y-75380699D01*
X235143148Y-75376541D01*
X235124924Y-75295011D01*
X235079336Y-75091063D01*
X235079336Y-75091061D01*
X235078423Y-75086979D01*
X235075893Y-75080100D01*
X234977418Y-74812452D01*
X234977416Y-74812448D01*
X234975971Y-74808520D01*
X234973944Y-74804674D01*
X234839543Y-74549762D01*
X234839542Y-74549761D01*
X234837590Y-74546058D01*
X234665712Y-74304203D01*
X234463358Y-74087204D01*
X234234082Y-73898875D01*
X233981912Y-73742523D01*
X233711278Y-73620895D01*
X233525664Y-73565561D01*
X233430935Y-73537321D01*
X233430933Y-73537321D01*
X233426936Y-73536129D01*
X233422816Y-73535476D01*
X233422814Y-73535476D01*
X233303894Y-73516641D01*
X233133881Y-73489714D01*
X233088854Y-73487669D01*
X233042503Y-73485564D01*
X233042484Y-73485564D01*
X233041084Y-73485500D01*
X232855736Y-73485500D01*
X232634944Y-73500165D01*
X232344090Y-73558812D01*
X232063547Y-73655410D01*
X232059804Y-73657284D01*
X232059800Y-73657286D01*
X231801988Y-73786389D01*
X231798244Y-73788264D01*
X231722249Y-73839910D01*
X231568372Y-73944485D01*
X231552842Y-73955039D01*
X231331654Y-74152804D01*
X231138564Y-74378086D01*
X231136290Y-74381588D01*
X231136289Y-74381589D01*
X230981026Y-74620674D01*
X230976965Y-74626927D01*
X230975177Y-74630693D01*
X230975174Y-74630698D01*
X230936396Y-74712365D01*
X230849696Y-74894954D01*
X230848417Y-74898937D01*
X230848416Y-74898940D01*
X230761353Y-75170111D01*
X230758994Y-75177458D01*
X230758253Y-75181577D01*
X230707597Y-75463115D01*
X230706452Y-75469477D01*
X230706263Y-75473644D01*
X230706262Y-75473651D01*
X230693181Y-75761710D01*
X230692992Y-75765880D01*
X223842000Y-75765880D01*
X223842000Y-73886853D01*
X223862002Y-73818732D01*
X223915658Y-73772239D01*
X223985932Y-73762135D01*
X224031570Y-73778065D01*
X224060830Y-73795163D01*
X224070119Y-73799613D01*
X224273302Y-73877201D01*
X224283200Y-73880077D01*
X224496328Y-73923438D01*
X224506556Y-73924657D01*
X224723902Y-73932628D01*
X224734188Y-73932161D01*
X224949921Y-73904525D01*
X224959999Y-73902383D01*
X225168316Y-73839884D01*
X225177914Y-73836122D01*
X225373229Y-73740439D01*
X225382074Y-73735166D01*
X225434964Y-73697440D01*
X225443365Y-73686740D01*
X225436377Y-73673587D01*
X224395885Y-72633095D01*
X224361859Y-72570783D01*
X224363694Y-72545132D01*
X225030408Y-72545132D01*
X225030539Y-72546965D01*
X225034790Y-72553580D01*
X225796179Y-73314969D01*
X225808190Y-73321528D01*
X225819929Y-73312560D01*
X225854655Y-73264234D01*
X225859969Y-73255389D01*
X225956326Y-73060426D01*
X225960124Y-73050833D01*
X226023348Y-72842738D01*
X226025525Y-72832668D01*
X226054151Y-72615235D01*
X226054670Y-72608560D01*
X226056166Y-72547364D01*
X226055972Y-72540646D01*
X226038004Y-72322097D01*
X226036319Y-72311917D01*
X225983336Y-72100983D01*
X225980016Y-72091232D01*
X225893290Y-71891774D01*
X225888424Y-71882699D01*
X225818951Y-71775312D01*
X225808264Y-71766108D01*
X225798699Y-71770511D01*
X225038022Y-72531188D01*
X225030408Y-72545132D01*
X224363694Y-72545132D01*
X224366924Y-72499968D01*
X224395885Y-72454905D01*
X225438969Y-71411821D01*
X225445990Y-71398964D01*
X225438429Y-71388587D01*
X225430820Y-71383532D01*
X225240429Y-71278430D01*
X225231017Y-71274200D01*
X225026008Y-71201602D01*
X225016037Y-71198968D01*
X224801923Y-71160828D01*
X224791671Y-71159859D01*
X224574191Y-71157202D01*
X224563907Y-71157922D01*
X224348922Y-71190818D01*
X224338903Y-71193205D01*
X224132170Y-71260776D01*
X224122678Y-71264767D01*
X224026180Y-71315000D01*
X223956520Y-71328712D01*
X223890505Y-71302587D01*
X223849094Y-71244918D01*
X223842000Y-71203236D01*
X223842000Y-61056853D01*
X223862002Y-60988732D01*
X223915658Y-60942239D01*
X223985932Y-60932135D01*
X224031570Y-60948065D01*
X224060830Y-60965163D01*
X224070119Y-60969613D01*
X224273302Y-61047201D01*
X224283200Y-61050077D01*
X224496328Y-61093438D01*
X224506556Y-61094657D01*
X224723902Y-61102628D01*
X224734188Y-61102161D01*
X224949921Y-61074525D01*
X224959999Y-61072383D01*
X225168316Y-61009884D01*
X225177914Y-61006122D01*
X225373229Y-60910439D01*
X225382074Y-60905166D01*
X225434964Y-60867440D01*
X225443365Y-60856740D01*
X225436377Y-60843587D01*
X224395885Y-59803095D01*
X224361859Y-59740783D01*
X224363694Y-59715132D01*
X225030408Y-59715132D01*
X225030539Y-59716965D01*
X225034790Y-59723580D01*
X225796179Y-60484969D01*
X225808190Y-60491528D01*
X225819929Y-60482560D01*
X225854655Y-60434234D01*
X225859969Y-60425389D01*
X225956326Y-60230426D01*
X225960124Y-60220833D01*
X226023348Y-60012738D01*
X226025525Y-60002668D01*
X226054151Y-59785235D01*
X226054670Y-59778560D01*
X226056166Y-59717364D01*
X226055972Y-59710646D01*
X226038004Y-59492097D01*
X226036319Y-59481917D01*
X225983336Y-59270983D01*
X225980016Y-59261232D01*
X225893290Y-59061774D01*
X225888424Y-59052699D01*
X225818951Y-58945312D01*
X225808264Y-58936108D01*
X225798699Y-58940511D01*
X225038022Y-59701188D01*
X225030408Y-59715132D01*
X224363694Y-59715132D01*
X224366924Y-59669968D01*
X224395885Y-59624905D01*
X225438969Y-58581821D01*
X225445990Y-58568964D01*
X225438429Y-58558587D01*
X225430820Y-58553532D01*
X225240429Y-58448430D01*
X225231017Y-58444200D01*
X225026008Y-58371602D01*
X225016037Y-58368968D01*
X224801923Y-58330828D01*
X224791671Y-58329859D01*
X224574191Y-58327202D01*
X224563907Y-58327922D01*
X224348922Y-58360818D01*
X224338903Y-58363205D01*
X224132170Y-58430776D01*
X224122678Y-58434767D01*
X224026180Y-58485000D01*
X223956520Y-58498712D01*
X223890505Y-58472587D01*
X223849094Y-58414918D01*
X223842000Y-58373236D01*
X223842000Y-56585880D01*
X230692992Y-56585880D01*
X230693355Y-56590028D01*
X230693355Y-56590032D01*
X230718487Y-56877293D01*
X230718488Y-56877301D01*
X230718852Y-56881459D01*
X230783577Y-57171021D01*
X230785019Y-57174941D01*
X230785021Y-57174947D01*
X230855619Y-57366827D01*
X230886029Y-57449480D01*
X231024410Y-57711942D01*
X231196288Y-57953797D01*
X231398642Y-58170796D01*
X231627918Y-58359125D01*
X231880088Y-58515477D01*
X232150722Y-58637105D01*
X232298247Y-58681084D01*
X232431065Y-58720679D01*
X232431067Y-58720679D01*
X232435064Y-58721871D01*
X232439184Y-58722524D01*
X232439186Y-58722524D01*
X232485454Y-58729852D01*
X232728119Y-58768286D01*
X232773146Y-58770331D01*
X232819497Y-58772436D01*
X232819516Y-58772436D01*
X232820916Y-58772500D01*
X233006264Y-58772500D01*
X233227056Y-58757835D01*
X233517910Y-58699188D01*
X233798453Y-58602590D01*
X233802196Y-58600716D01*
X233802200Y-58600714D01*
X234060012Y-58471611D01*
X234060014Y-58471610D01*
X234063756Y-58469736D01*
X234200404Y-58376870D01*
X234305699Y-58305312D01*
X234305702Y-58305310D01*
X234309158Y-58302961D01*
X234530346Y-58105196D01*
X234723436Y-57879914D01*
X234725711Y-57876411D01*
X234882763Y-57634572D01*
X234882765Y-57634569D01*
X234885035Y-57631073D01*
X235012304Y-57363046D01*
X235072696Y-57174947D01*
X235101726Y-57084530D01*
X235101727Y-57084524D01*
X235103006Y-57080542D01*
X235138091Y-56885548D01*
X235154809Y-56792632D01*
X235154810Y-56792627D01*
X235155548Y-56788523D01*
X235164751Y-56585880D01*
X235168819Y-56496290D01*
X235168819Y-56496285D01*
X235169008Y-56492120D01*
X235165246Y-56449115D01*
X235143513Y-56200707D01*
X235143512Y-56200699D01*
X235143148Y-56196541D01*
X235097756Y-55993470D01*
X235079336Y-55911063D01*
X235079336Y-55911061D01*
X235078423Y-55906979D01*
X235072164Y-55889966D01*
X234977418Y-55632452D01*
X234977416Y-55632448D01*
X234975971Y-55628520D01*
X234957250Y-55593011D01*
X234839543Y-55369762D01*
X234839542Y-55369761D01*
X234837590Y-55366058D01*
X234665712Y-55124203D01*
X234463358Y-54907204D01*
X234305849Y-54777825D01*
X234237307Y-54721524D01*
X234234082Y-54718875D01*
X233981912Y-54562523D01*
X233711278Y-54440895D01*
X233519508Y-54383726D01*
X233430935Y-54357321D01*
X233430933Y-54357321D01*
X233426936Y-54356129D01*
X233422816Y-54355476D01*
X233422814Y-54355476D01*
X233303894Y-54336641D01*
X233133881Y-54309714D01*
X233088854Y-54307669D01*
X233042503Y-54305564D01*
X233042484Y-54305564D01*
X233041084Y-54305500D01*
X232855736Y-54305500D01*
X232634944Y-54320165D01*
X232344090Y-54378812D01*
X232063547Y-54475410D01*
X232059804Y-54477284D01*
X232059800Y-54477286D01*
X231803951Y-54605406D01*
X231798244Y-54608264D01*
X231722067Y-54660034D01*
X231562854Y-54768235D01*
X231552842Y-54775039D01*
X231331654Y-54972804D01*
X231138564Y-55198086D01*
X231136290Y-55201588D01*
X231136289Y-55201589D01*
X231031698Y-55362646D01*
X230976965Y-55446927D01*
X230975177Y-55450693D01*
X230975174Y-55450698D01*
X230946973Y-55510090D01*
X230849696Y-55714954D01*
X230848417Y-55718937D01*
X230848416Y-55718940D01*
X230777084Y-55941115D01*
X230758994Y-55997458D01*
X230746640Y-56066119D01*
X230723174Y-56196541D01*
X230706452Y-56289477D01*
X230706263Y-56293644D01*
X230706262Y-56293651D01*
X230697060Y-56496290D01*
X230692992Y-56585880D01*
X223842000Y-56585880D01*
X223842000Y-54706853D01*
X223862002Y-54638732D01*
X223915658Y-54592239D01*
X223985932Y-54582135D01*
X224031570Y-54598065D01*
X224060830Y-54615163D01*
X224070119Y-54619613D01*
X224273302Y-54697201D01*
X224283200Y-54700077D01*
X224496328Y-54743438D01*
X224506556Y-54744657D01*
X224723902Y-54752628D01*
X224734188Y-54752161D01*
X224949921Y-54724525D01*
X224959999Y-54722383D01*
X225168316Y-54659884D01*
X225177914Y-54656122D01*
X225373229Y-54560439D01*
X225382074Y-54555166D01*
X225434964Y-54517440D01*
X225443365Y-54506740D01*
X225436377Y-54493587D01*
X224395885Y-53453095D01*
X224361859Y-53390783D01*
X224363694Y-53365132D01*
X225030408Y-53365132D01*
X225030539Y-53366965D01*
X225034790Y-53373580D01*
X225796179Y-54134969D01*
X225808190Y-54141528D01*
X225819929Y-54132560D01*
X225854655Y-54084234D01*
X225859969Y-54075389D01*
X225956326Y-53880426D01*
X225960124Y-53870833D01*
X226023348Y-53662738D01*
X226025525Y-53652668D01*
X226054151Y-53435235D01*
X226054670Y-53428560D01*
X226056166Y-53367364D01*
X226055972Y-53360646D01*
X226038004Y-53142097D01*
X226036319Y-53131917D01*
X225983336Y-52920983D01*
X225980016Y-52911232D01*
X225893290Y-52711774D01*
X225888424Y-52702699D01*
X225818951Y-52595312D01*
X225808264Y-52586108D01*
X225798699Y-52590511D01*
X225038022Y-53351188D01*
X225030408Y-53365132D01*
X224363694Y-53365132D01*
X224366924Y-53319968D01*
X224395885Y-53274905D01*
X225438969Y-52231821D01*
X225445990Y-52218964D01*
X225438429Y-52208587D01*
X225430820Y-52203532D01*
X225240429Y-52098430D01*
X225231017Y-52094200D01*
X225026008Y-52021602D01*
X225016037Y-52018968D01*
X224801923Y-51980828D01*
X224791671Y-51979859D01*
X224574191Y-51977202D01*
X224563907Y-51977922D01*
X224348922Y-52010818D01*
X224338903Y-52013205D01*
X224132170Y-52080776D01*
X224122678Y-52084767D01*
X224026180Y-52135000D01*
X223956520Y-52148712D01*
X223890505Y-52122587D01*
X223849094Y-52064918D01*
X223842000Y-52023236D01*
X223842000Y-49816000D01*
X138370000Y-49816000D01*
X138301879Y-49795998D01*
X138255386Y-49742342D01*
X138244000Y-49690000D01*
X138244000Y-40544000D01*
X138264002Y-40475879D01*
X138317658Y-40429386D01*
X138370000Y-40418000D01*
X263086000Y-40418000D01*
X263154121Y-40438002D01*
G37*
%TD.AperFunction*%
%TD*%
%TA.AperFunction,Conductor*%
%TO.N,VCC*%
G36*
X108214121Y-40438002D02*
G01*
X108260614Y-40491658D01*
X108272000Y-40544000D01*
X108272000Y-40590000D01*
X108251998Y-40658121D01*
X108198342Y-40704614D01*
X108146000Y-40716000D01*
X107708115Y-40716000D01*
X107692876Y-40720475D01*
X107691671Y-40721865D01*
X107690000Y-40729548D01*
X107690000Y-43413884D01*
X107694475Y-43429123D01*
X107695865Y-43430328D01*
X107703548Y-43431999D01*
X108146000Y-43431999D01*
X108214121Y-43452001D01*
X108260614Y-43505657D01*
X108272000Y-43557999D01*
X108272000Y-43720000D01*
X117798000Y-43720000D01*
X117866121Y-43740002D01*
X117912614Y-43793658D01*
X117924000Y-43846000D01*
X117924000Y-45948825D01*
X117903998Y-46016946D01*
X117880974Y-46043648D01*
X115927629Y-47752825D01*
X115863191Y-47782629D01*
X115844657Y-47784000D01*
X103240712Y-47784000D01*
X103172591Y-47763998D01*
X103155955Y-47751232D01*
X100411404Y-45256185D01*
X100411403Y-45256184D01*
X100398000Y-45244000D01*
X69918000Y-45244000D01*
X69918000Y-52184986D01*
X69897998Y-52253107D01*
X69844342Y-52299600D01*
X69774068Y-52309704D01*
X69713908Y-52283868D01*
X69619410Y-52209238D01*
X69610822Y-52203533D01*
X69420429Y-52098430D01*
X69411017Y-52094200D01*
X69206008Y-52021602D01*
X69196037Y-52018968D01*
X68981923Y-51980828D01*
X68971671Y-51979859D01*
X68754191Y-51977202D01*
X68743907Y-51977922D01*
X68528922Y-52010818D01*
X68518903Y-52013205D01*
X68312170Y-52080776D01*
X68302668Y-52084771D01*
X68109759Y-52185193D01*
X68101034Y-52190687D01*
X68076033Y-52209459D01*
X68067580Y-52220784D01*
X68074325Y-52233115D01*
X69116115Y-53274905D01*
X69150141Y-53337217D01*
X69145076Y-53408032D01*
X69116115Y-53453095D01*
X68072633Y-54496577D01*
X68065873Y-54508957D01*
X68071154Y-54516011D01*
X68240836Y-54615166D01*
X68250119Y-54619613D01*
X68453302Y-54697201D01*
X68463200Y-54700077D01*
X68676328Y-54743438D01*
X68686556Y-54744657D01*
X68903902Y-54752628D01*
X68914188Y-54752161D01*
X69129921Y-54724525D01*
X69139999Y-54722383D01*
X69348316Y-54659884D01*
X69357914Y-54656122D01*
X69553225Y-54560441D01*
X69562082Y-54555162D01*
X69718831Y-54443353D01*
X69785905Y-54420079D01*
X69854913Y-54436762D01*
X69903947Y-54488105D01*
X69918000Y-54545931D01*
X69918000Y-58203976D01*
X69897998Y-58272097D01*
X69844342Y-58318590D01*
X69778393Y-58329239D01*
X69774988Y-58328869D01*
X69768172Y-58328500D01*
X69118115Y-58328500D01*
X69102876Y-58332975D01*
X69101671Y-58334365D01*
X69100000Y-58342048D01*
X69100000Y-61081384D01*
X69104475Y-61096623D01*
X69105865Y-61097828D01*
X69113548Y-61099499D01*
X69768169Y-61099499D01*
X69774987Y-61099130D01*
X69778401Y-61098759D01*
X69848282Y-61111292D01*
X69900295Y-61159616D01*
X69918000Y-61224023D01*
X69918000Y-71364986D01*
X69897998Y-71433107D01*
X69844342Y-71479600D01*
X69774068Y-71489704D01*
X69713908Y-71463868D01*
X69619410Y-71389238D01*
X69610822Y-71383533D01*
X69420429Y-71278430D01*
X69411017Y-71274200D01*
X69206008Y-71201602D01*
X69196037Y-71198968D01*
X68981923Y-71160828D01*
X68971671Y-71159859D01*
X68754191Y-71157202D01*
X68743907Y-71157922D01*
X68528922Y-71190818D01*
X68518903Y-71193205D01*
X68312170Y-71260776D01*
X68302668Y-71264771D01*
X68109759Y-71365193D01*
X68101034Y-71370687D01*
X68076033Y-71389459D01*
X68067580Y-71400784D01*
X68074325Y-71413115D01*
X69116115Y-72454905D01*
X69150141Y-72517217D01*
X69145076Y-72588032D01*
X69116115Y-72633095D01*
X68072633Y-73676577D01*
X68065873Y-73688957D01*
X68071154Y-73696011D01*
X68240836Y-73795166D01*
X68250119Y-73799613D01*
X68453302Y-73877201D01*
X68463200Y-73880077D01*
X68676328Y-73923438D01*
X68686556Y-73924657D01*
X68903902Y-73932628D01*
X68914188Y-73932161D01*
X69129921Y-73904525D01*
X69139999Y-73902383D01*
X69348316Y-73839884D01*
X69357914Y-73836122D01*
X69553225Y-73740441D01*
X69562082Y-73735162D01*
X69718831Y-73623353D01*
X69785905Y-73600079D01*
X69854913Y-73616762D01*
X69903947Y-73668105D01*
X69918000Y-73725931D01*
X69918000Y-77383976D01*
X69897998Y-77452097D01*
X69844342Y-77498590D01*
X69778393Y-77509239D01*
X69774988Y-77508869D01*
X69768172Y-77508500D01*
X69118115Y-77508500D01*
X69102876Y-77512975D01*
X69101671Y-77514365D01*
X69100000Y-77522048D01*
X69100000Y-80261384D01*
X69104475Y-80276623D01*
X69105865Y-80277828D01*
X69113548Y-80279499D01*
X69768169Y-80279499D01*
X69774987Y-80279130D01*
X69778401Y-80278759D01*
X69848282Y-80291292D01*
X69900295Y-80339616D01*
X69918000Y-80404023D01*
X69918000Y-90324986D01*
X69897998Y-90393107D01*
X69844342Y-90439600D01*
X69774068Y-90449704D01*
X69713908Y-90423868D01*
X69619410Y-90349238D01*
X69610822Y-90343533D01*
X69420429Y-90238430D01*
X69411017Y-90234200D01*
X69206008Y-90161602D01*
X69196037Y-90158968D01*
X68981923Y-90120828D01*
X68971671Y-90119859D01*
X68754191Y-90117202D01*
X68743907Y-90117922D01*
X68528922Y-90150818D01*
X68518903Y-90153205D01*
X68312170Y-90220776D01*
X68302668Y-90224771D01*
X68109759Y-90325193D01*
X68101034Y-90330687D01*
X68076033Y-90349459D01*
X68067580Y-90360784D01*
X68074325Y-90373115D01*
X69116115Y-91414905D01*
X69150141Y-91477217D01*
X69145076Y-91548032D01*
X69116115Y-91593095D01*
X68072633Y-92636577D01*
X68065873Y-92648957D01*
X68071154Y-92656011D01*
X68240836Y-92755166D01*
X68250119Y-92759613D01*
X68453302Y-92837201D01*
X68463200Y-92840077D01*
X68676328Y-92883438D01*
X68686556Y-92884657D01*
X68903902Y-92892628D01*
X68914188Y-92892161D01*
X69129921Y-92864525D01*
X69139999Y-92862383D01*
X69348316Y-92799884D01*
X69357914Y-92796122D01*
X69553225Y-92700441D01*
X69562082Y-92695162D01*
X69718831Y-92583353D01*
X69785905Y-92560079D01*
X69854913Y-92576762D01*
X69903947Y-92628105D01*
X69918000Y-92685931D01*
X69918000Y-96343976D01*
X69897998Y-96412097D01*
X69844342Y-96458590D01*
X69778393Y-96469239D01*
X69774988Y-96468869D01*
X69768172Y-96468500D01*
X69118115Y-96468500D01*
X69102876Y-96472975D01*
X69101671Y-96474365D01*
X69100000Y-96482048D01*
X69100000Y-99221384D01*
X69104475Y-99236623D01*
X69105865Y-99237828D01*
X69113548Y-99239499D01*
X69768169Y-99239499D01*
X69774987Y-99239130D01*
X69778401Y-99238759D01*
X69848282Y-99251292D01*
X69900295Y-99299616D01*
X69918000Y-99364023D01*
X69918000Y-109554986D01*
X69897998Y-109623107D01*
X69844342Y-109669600D01*
X69774068Y-109679704D01*
X69713908Y-109653868D01*
X69619410Y-109579238D01*
X69610822Y-109573533D01*
X69420429Y-109468430D01*
X69411017Y-109464200D01*
X69206008Y-109391602D01*
X69196037Y-109388968D01*
X68981923Y-109350828D01*
X68971671Y-109349859D01*
X68754191Y-109347202D01*
X68743907Y-109347922D01*
X68528922Y-109380818D01*
X68518903Y-109383205D01*
X68312170Y-109450776D01*
X68302668Y-109454771D01*
X68109759Y-109555193D01*
X68101034Y-109560687D01*
X68076033Y-109579459D01*
X68067580Y-109590784D01*
X68074325Y-109603115D01*
X69116115Y-110644905D01*
X69150141Y-110707217D01*
X69145076Y-110778032D01*
X69116115Y-110823095D01*
X68072633Y-111866577D01*
X68065873Y-111878957D01*
X68071154Y-111886011D01*
X68240836Y-111985166D01*
X68250119Y-111989613D01*
X68453302Y-112067201D01*
X68463200Y-112070077D01*
X68676328Y-112113438D01*
X68686556Y-112114657D01*
X68903902Y-112122628D01*
X68914188Y-112122161D01*
X69129921Y-112094525D01*
X69139999Y-112092383D01*
X69348316Y-112029884D01*
X69357914Y-112026122D01*
X69553225Y-111930441D01*
X69562082Y-111925162D01*
X69718831Y-111813353D01*
X69785905Y-111790079D01*
X69854913Y-111806762D01*
X69903947Y-111858105D01*
X69918000Y-111915931D01*
X69918000Y-115573976D01*
X69897998Y-115642097D01*
X69844342Y-115688590D01*
X69778393Y-115699239D01*
X69774988Y-115698869D01*
X69768172Y-115698500D01*
X69118115Y-115698500D01*
X69102876Y-115702975D01*
X69101671Y-115704365D01*
X69100000Y-115712048D01*
X69100000Y-118451384D01*
X69104475Y-118466623D01*
X69105865Y-118467828D01*
X69113548Y-118469499D01*
X69768169Y-118469499D01*
X69774987Y-118469130D01*
X69778401Y-118468759D01*
X69848282Y-118481292D01*
X69900295Y-118529616D01*
X69918000Y-118594023D01*
X69918000Y-128444986D01*
X69897998Y-128513107D01*
X69844342Y-128559600D01*
X69774068Y-128569704D01*
X69713908Y-128543868D01*
X69619410Y-128469238D01*
X69610822Y-128463533D01*
X69420429Y-128358430D01*
X69411017Y-128354200D01*
X69206008Y-128281602D01*
X69196037Y-128278968D01*
X68981923Y-128240828D01*
X68971671Y-128239859D01*
X68754191Y-128237202D01*
X68743907Y-128237922D01*
X68528922Y-128270818D01*
X68518903Y-128273205D01*
X68312170Y-128340776D01*
X68302668Y-128344771D01*
X68109759Y-128445193D01*
X68101034Y-128450687D01*
X68076033Y-128469459D01*
X68067580Y-128480784D01*
X68074325Y-128493115D01*
X69116115Y-129534905D01*
X69150141Y-129597217D01*
X69145076Y-129668032D01*
X69116115Y-129713095D01*
X68072633Y-130756577D01*
X68065873Y-130768957D01*
X68071154Y-130776011D01*
X68240836Y-130875166D01*
X68250119Y-130879613D01*
X68453302Y-130957201D01*
X68463200Y-130960077D01*
X68676328Y-131003438D01*
X68686556Y-131004657D01*
X68903902Y-131012628D01*
X68914188Y-131012161D01*
X69129921Y-130984525D01*
X69139999Y-130982383D01*
X69348316Y-130919884D01*
X69357914Y-130916122D01*
X69553225Y-130820441D01*
X69562082Y-130815162D01*
X69718831Y-130703353D01*
X69785905Y-130680079D01*
X69854913Y-130696762D01*
X69903947Y-130748105D01*
X69918000Y-130805931D01*
X69918000Y-134463976D01*
X69897998Y-134532097D01*
X69844342Y-134578590D01*
X69778393Y-134589239D01*
X69774988Y-134588869D01*
X69768172Y-134588500D01*
X69118115Y-134588500D01*
X69102876Y-134592975D01*
X69101671Y-134594365D01*
X69100000Y-134602048D01*
X69100000Y-137341384D01*
X69104475Y-137356623D01*
X69105865Y-137357828D01*
X69113548Y-137359499D01*
X69768169Y-137359499D01*
X69774987Y-137359130D01*
X69778401Y-137358759D01*
X69848282Y-137371292D01*
X69900295Y-137419616D01*
X69918000Y-137484023D01*
X69918000Y-143162000D01*
X69897998Y-143230121D01*
X69844342Y-143276614D01*
X69792000Y-143288000D01*
X37786000Y-143288000D01*
X37717879Y-143267998D01*
X37671386Y-143214342D01*
X37660000Y-143162000D01*
X37660000Y-136896169D01*
X67460501Y-136896169D01*
X67460871Y-136902990D01*
X67466395Y-136953852D01*
X67470021Y-136969104D01*
X67515176Y-137089554D01*
X67523714Y-137105149D01*
X67600215Y-137207224D01*
X67612776Y-137219785D01*
X67714851Y-137296286D01*
X67730446Y-137304824D01*
X67850894Y-137349978D01*
X67866149Y-137353605D01*
X67917014Y-137359131D01*
X67923828Y-137359500D01*
X68573885Y-137359500D01*
X68589124Y-137355025D01*
X68590329Y-137353635D01*
X68592000Y-137345952D01*
X68592000Y-136246115D01*
X68587525Y-136230876D01*
X68586135Y-136229671D01*
X68578452Y-136228000D01*
X67478616Y-136228000D01*
X67463377Y-136232475D01*
X67462172Y-136233865D01*
X67460501Y-136241548D01*
X67460501Y-136896169D01*
X37660000Y-136896169D01*
X37660000Y-135701885D01*
X67460500Y-135701885D01*
X67464975Y-135717124D01*
X67466365Y-135718329D01*
X67474048Y-135720000D01*
X68573885Y-135720000D01*
X68589124Y-135715525D01*
X68590329Y-135714135D01*
X68592000Y-135706452D01*
X68592000Y-134606616D01*
X68587525Y-134591377D01*
X68586135Y-134590172D01*
X68578452Y-134588501D01*
X67923831Y-134588501D01*
X67917010Y-134588871D01*
X67866148Y-134594395D01*
X67850896Y-134598021D01*
X67730446Y-134643176D01*
X67714851Y-134651714D01*
X67612776Y-134728215D01*
X67600215Y-134740776D01*
X67523714Y-134842851D01*
X67515176Y-134858446D01*
X67470022Y-134978894D01*
X67466395Y-134994149D01*
X67460869Y-135045014D01*
X67460500Y-135051828D01*
X67460500Y-135701885D01*
X37660000Y-135701885D01*
X37660000Y-132845880D01*
X58102992Y-132845880D01*
X58103355Y-132850028D01*
X58103355Y-132850032D01*
X58128487Y-133137293D01*
X58128488Y-133137301D01*
X58128852Y-133141459D01*
X58193577Y-133431021D01*
X58195019Y-133434941D01*
X58195021Y-133434947D01*
X58265619Y-133626827D01*
X58296029Y-133709480D01*
X58434410Y-133971942D01*
X58606288Y-134213797D01*
X58808642Y-134430796D01*
X58811867Y-134433445D01*
X59012226Y-134598021D01*
X59037918Y-134619125D01*
X59290088Y-134775477D01*
X59560722Y-134897105D01*
X59684484Y-134934000D01*
X59841065Y-134980679D01*
X59841067Y-134980679D01*
X59845064Y-134981871D01*
X59849184Y-134982524D01*
X59849186Y-134982524D01*
X59960013Y-135000077D01*
X60138119Y-135028286D01*
X60183146Y-135030331D01*
X60229497Y-135032436D01*
X60229516Y-135032436D01*
X60230916Y-135032500D01*
X60416264Y-135032500D01*
X60637056Y-135017835D01*
X60927910Y-134959188D01*
X61208453Y-134862590D01*
X61212196Y-134860716D01*
X61212200Y-134860714D01*
X61470012Y-134731611D01*
X61470014Y-134731610D01*
X61473756Y-134729736D01*
X61633274Y-134621328D01*
X61715699Y-134565312D01*
X61715702Y-134565310D01*
X61719158Y-134562961D01*
X61940346Y-134365196D01*
X62133436Y-134139914D01*
X62135711Y-134136411D01*
X62292763Y-133894572D01*
X62292765Y-133894569D01*
X62295035Y-133891073D01*
X62422304Y-133623046D01*
X62482696Y-133434947D01*
X62511726Y-133344530D01*
X62511727Y-133344524D01*
X62513006Y-133340542D01*
X62548091Y-133145548D01*
X62564809Y-133052632D01*
X62564810Y-133052627D01*
X62565548Y-133048523D01*
X62568709Y-132978935D01*
X62578819Y-132756290D01*
X62578819Y-132756285D01*
X62579008Y-132752120D01*
X62578645Y-132747968D01*
X62553513Y-132460707D01*
X62553512Y-132460699D01*
X62553148Y-132456541D01*
X62497093Y-132205765D01*
X62489336Y-132171063D01*
X62489336Y-132171061D01*
X62488423Y-132166979D01*
X62482543Y-132150996D01*
X62387418Y-131892452D01*
X62387416Y-131892448D01*
X62385971Y-131888520D01*
X62377454Y-131872365D01*
X62249543Y-131629762D01*
X62249542Y-131629761D01*
X62247590Y-131626058D01*
X62075712Y-131384203D01*
X61873358Y-131167204D01*
X61644082Y-130978875D01*
X61391912Y-130822523D01*
X61121278Y-130700895D01*
X60943855Y-130648003D01*
X60840935Y-130617321D01*
X60840933Y-130617321D01*
X60836936Y-130616129D01*
X60832816Y-130615476D01*
X60832814Y-130615476D01*
X60713894Y-130596641D01*
X60543881Y-130569714D01*
X60498854Y-130567669D01*
X60452503Y-130565564D01*
X60452484Y-130565564D01*
X60451084Y-130565500D01*
X60265736Y-130565500D01*
X60044944Y-130580165D01*
X59754090Y-130638812D01*
X59634241Y-130680079D01*
X59507951Y-130723564D01*
X59473547Y-130735410D01*
X59469804Y-130737284D01*
X59469800Y-130737286D01*
X59211988Y-130866389D01*
X59208244Y-130868264D01*
X59129306Y-130921910D01*
X58995819Y-131012628D01*
X58962842Y-131035039D01*
X58959726Y-131037825D01*
X58953573Y-131043326D01*
X58741654Y-131232804D01*
X58548564Y-131458086D01*
X58546290Y-131461588D01*
X58546289Y-131461589D01*
X58414784Y-131664090D01*
X58386965Y-131706927D01*
X58385177Y-131710693D01*
X58385174Y-131710698D01*
X58339141Y-131807643D01*
X58259696Y-131974954D01*
X58258417Y-131978937D01*
X58258416Y-131978940D01*
X58171353Y-132250111D01*
X58168994Y-132257458D01*
X58168253Y-132261577D01*
X58119219Y-132534100D01*
X58116452Y-132549477D01*
X58116263Y-132553644D01*
X58116262Y-132553651D01*
X58107060Y-132756290D01*
X58102992Y-132845880D01*
X37660000Y-132845880D01*
X37660000Y-129595189D01*
X67456464Y-129595189D01*
X67468985Y-129812326D01*
X67470418Y-129822528D01*
X67518231Y-130034692D01*
X67521314Y-130044532D01*
X67603140Y-130246045D01*
X67607783Y-130255236D01*
X67692461Y-130393419D01*
X67702917Y-130402879D01*
X67711695Y-130399095D01*
X68473978Y-129636812D01*
X68481592Y-129622868D01*
X68481461Y-129621035D01*
X68477210Y-129614420D01*
X67716059Y-128853269D01*
X67704523Y-128846969D01*
X67692240Y-128856592D01*
X67640098Y-128933029D01*
X67635010Y-128941985D01*
X67543441Y-129139255D01*
X67539878Y-129148942D01*
X67481759Y-129358511D01*
X67479828Y-129368631D01*
X67456716Y-129584900D01*
X67456464Y-129595189D01*
X37660000Y-129595189D01*
X37660000Y-118006169D01*
X67460501Y-118006169D01*
X67460871Y-118012990D01*
X67466395Y-118063852D01*
X67470021Y-118079104D01*
X67515176Y-118199554D01*
X67523714Y-118215149D01*
X67600215Y-118317224D01*
X67612776Y-118329785D01*
X67714851Y-118406286D01*
X67730446Y-118414824D01*
X67850894Y-118459978D01*
X67866149Y-118463605D01*
X67917014Y-118469131D01*
X67923828Y-118469500D01*
X68573885Y-118469500D01*
X68589124Y-118465025D01*
X68590329Y-118463635D01*
X68592000Y-118455952D01*
X68592000Y-117356115D01*
X68587525Y-117340876D01*
X68586135Y-117339671D01*
X68578452Y-117338000D01*
X67478616Y-117338000D01*
X67463377Y-117342475D01*
X67462172Y-117343865D01*
X67460501Y-117351548D01*
X67460501Y-118006169D01*
X37660000Y-118006169D01*
X37660000Y-116811885D01*
X67460500Y-116811885D01*
X67464975Y-116827124D01*
X67466365Y-116828329D01*
X67474048Y-116830000D01*
X68573885Y-116830000D01*
X68589124Y-116825525D01*
X68590329Y-116824135D01*
X68592000Y-116816452D01*
X68592000Y-115716616D01*
X68587525Y-115701377D01*
X68586135Y-115700172D01*
X68578452Y-115698501D01*
X67923831Y-115698501D01*
X67917010Y-115698871D01*
X67866148Y-115704395D01*
X67850896Y-115708021D01*
X67730446Y-115753176D01*
X67714851Y-115761714D01*
X67612776Y-115838215D01*
X67600215Y-115850776D01*
X67523714Y-115952851D01*
X67515176Y-115968446D01*
X67470022Y-116088894D01*
X67466395Y-116104149D01*
X67460869Y-116155014D01*
X67460500Y-116161828D01*
X67460500Y-116811885D01*
X37660000Y-116811885D01*
X37660000Y-113955880D01*
X58102992Y-113955880D01*
X58103355Y-113960028D01*
X58103355Y-113960032D01*
X58128487Y-114247293D01*
X58128488Y-114247301D01*
X58128852Y-114251459D01*
X58193577Y-114541021D01*
X58195019Y-114544941D01*
X58195021Y-114544947D01*
X58265619Y-114736827D01*
X58296029Y-114819480D01*
X58434410Y-115081942D01*
X58606288Y-115323797D01*
X58808642Y-115540796D01*
X58811867Y-115543445D01*
X59012226Y-115708021D01*
X59037918Y-115729125D01*
X59290088Y-115885477D01*
X59560722Y-116007105D01*
X59684484Y-116044000D01*
X59841065Y-116090679D01*
X59841067Y-116090679D01*
X59845064Y-116091871D01*
X59849184Y-116092524D01*
X59849186Y-116092524D01*
X59960013Y-116110077D01*
X60138119Y-116138286D01*
X60183146Y-116140331D01*
X60229497Y-116142436D01*
X60229516Y-116142436D01*
X60230916Y-116142500D01*
X60416264Y-116142500D01*
X60637056Y-116127835D01*
X60927910Y-116069188D01*
X61208453Y-115972590D01*
X61212196Y-115970716D01*
X61212200Y-115970714D01*
X61470012Y-115841611D01*
X61470014Y-115841610D01*
X61473756Y-115839736D01*
X61633274Y-115731328D01*
X61715699Y-115675312D01*
X61715702Y-115675310D01*
X61719158Y-115672961D01*
X61940346Y-115475196D01*
X62133436Y-115249914D01*
X62135711Y-115246411D01*
X62292763Y-115004572D01*
X62292765Y-115004569D01*
X62295035Y-115001073D01*
X62422304Y-114733046D01*
X62482696Y-114544947D01*
X62511726Y-114454530D01*
X62511727Y-114454524D01*
X62513006Y-114450542D01*
X62548091Y-114255548D01*
X62564809Y-114162632D01*
X62564810Y-114162627D01*
X62565548Y-114158523D01*
X62571514Y-114027161D01*
X62578819Y-113866290D01*
X62578819Y-113866285D01*
X62579008Y-113862120D01*
X62577695Y-113847115D01*
X62553513Y-113570707D01*
X62553512Y-113570699D01*
X62553148Y-113566541D01*
X62512084Y-113382833D01*
X62489336Y-113281063D01*
X62489336Y-113281061D01*
X62488423Y-113276979D01*
X62476662Y-113245011D01*
X62387418Y-113002452D01*
X62387416Y-113002448D01*
X62385971Y-112998520D01*
X62381224Y-112989515D01*
X62249543Y-112739762D01*
X62249542Y-112739761D01*
X62247590Y-112736058D01*
X62075712Y-112494203D01*
X61873358Y-112277204D01*
X61644082Y-112088875D01*
X61391912Y-111932523D01*
X61121278Y-111810895D01*
X60943855Y-111758003D01*
X60840935Y-111727321D01*
X60840933Y-111727321D01*
X60836936Y-111726129D01*
X60832816Y-111725476D01*
X60832814Y-111725476D01*
X60713894Y-111706641D01*
X60543881Y-111679714D01*
X60498854Y-111677669D01*
X60452503Y-111675564D01*
X60452484Y-111675564D01*
X60451084Y-111675500D01*
X60265736Y-111675500D01*
X60044944Y-111690165D01*
X59754090Y-111748812D01*
X59473547Y-111845410D01*
X59469804Y-111847284D01*
X59469800Y-111847286D01*
X59238739Y-111962993D01*
X59208244Y-111978264D01*
X59128828Y-112032235D01*
X58990332Y-112126357D01*
X58962842Y-112145039D01*
X58741654Y-112342804D01*
X58738937Y-112345974D01*
X58738936Y-112345975D01*
X58722085Y-112365635D01*
X58548564Y-112568086D01*
X58546290Y-112571588D01*
X58546289Y-112571589D01*
X58392821Y-112807910D01*
X58386965Y-112816927D01*
X58385177Y-112820693D01*
X58385174Y-112820698D01*
X58352956Y-112888550D01*
X58259696Y-113084954D01*
X58258417Y-113088937D01*
X58258416Y-113088940D01*
X58176168Y-113345115D01*
X58168994Y-113367458D01*
X58168253Y-113371577D01*
X58128275Y-113593769D01*
X58116452Y-113659477D01*
X58116263Y-113663644D01*
X58116262Y-113663651D01*
X58103181Y-113951710D01*
X58102992Y-113955880D01*
X37660000Y-113955880D01*
X37660000Y-110705189D01*
X67456464Y-110705189D01*
X67468985Y-110922326D01*
X67470418Y-110932528D01*
X67518231Y-111144692D01*
X67521314Y-111154532D01*
X67603140Y-111356045D01*
X67607783Y-111365236D01*
X67692461Y-111503419D01*
X67702917Y-111512879D01*
X67711695Y-111509095D01*
X68473978Y-110746812D01*
X68481592Y-110732868D01*
X68481461Y-110731035D01*
X68477210Y-110724420D01*
X67716059Y-109963269D01*
X67704523Y-109956969D01*
X67692240Y-109966592D01*
X67640098Y-110043029D01*
X67635010Y-110051985D01*
X67543441Y-110249255D01*
X67539878Y-110258942D01*
X67481759Y-110468511D01*
X67479828Y-110478631D01*
X67456716Y-110694900D01*
X67456464Y-110705189D01*
X37660000Y-110705189D01*
X37660000Y-98776169D01*
X67460501Y-98776169D01*
X67460871Y-98782990D01*
X67466395Y-98833852D01*
X67470021Y-98849104D01*
X67515176Y-98969554D01*
X67523714Y-98985149D01*
X67600215Y-99087224D01*
X67612776Y-99099785D01*
X67714851Y-99176286D01*
X67730446Y-99184824D01*
X67850894Y-99229978D01*
X67866149Y-99233605D01*
X67917014Y-99239131D01*
X67923828Y-99239500D01*
X68573885Y-99239500D01*
X68589124Y-99235025D01*
X68590329Y-99233635D01*
X68592000Y-99225952D01*
X68592000Y-98126115D01*
X68587525Y-98110876D01*
X68586135Y-98109671D01*
X68578452Y-98108000D01*
X67478616Y-98108000D01*
X67463377Y-98112475D01*
X67462172Y-98113865D01*
X67460501Y-98121548D01*
X67460501Y-98776169D01*
X37660000Y-98776169D01*
X37660000Y-97581885D01*
X67460500Y-97581885D01*
X67464975Y-97597124D01*
X67466365Y-97598329D01*
X67474048Y-97600000D01*
X68573885Y-97600000D01*
X68589124Y-97595525D01*
X68590329Y-97594135D01*
X68592000Y-97586452D01*
X68592000Y-96486616D01*
X68587525Y-96471377D01*
X68586135Y-96470172D01*
X68578452Y-96468501D01*
X67923831Y-96468501D01*
X67917010Y-96468871D01*
X67866148Y-96474395D01*
X67850896Y-96478021D01*
X67730446Y-96523176D01*
X67714851Y-96531714D01*
X67612776Y-96608215D01*
X67600215Y-96620776D01*
X67523714Y-96722851D01*
X67515176Y-96738446D01*
X67470022Y-96858894D01*
X67466395Y-96874149D01*
X67460869Y-96925014D01*
X67460500Y-96931828D01*
X67460500Y-97581885D01*
X37660000Y-97581885D01*
X37660000Y-94725880D01*
X58102992Y-94725880D01*
X58103355Y-94730028D01*
X58103355Y-94730032D01*
X58128487Y-95017293D01*
X58128488Y-95017301D01*
X58128852Y-95021459D01*
X58193577Y-95311021D01*
X58195019Y-95314941D01*
X58195021Y-95314947D01*
X58265619Y-95506827D01*
X58296029Y-95589480D01*
X58434410Y-95851942D01*
X58606288Y-96093797D01*
X58808642Y-96310796D01*
X58811867Y-96313445D01*
X59012226Y-96478021D01*
X59037918Y-96499125D01*
X59290088Y-96655477D01*
X59560722Y-96777105D01*
X59684484Y-96814000D01*
X59841065Y-96860679D01*
X59841067Y-96860679D01*
X59845064Y-96861871D01*
X59849184Y-96862524D01*
X59849186Y-96862524D01*
X59960013Y-96880077D01*
X60138119Y-96908286D01*
X60183146Y-96910331D01*
X60229497Y-96912436D01*
X60229516Y-96912436D01*
X60230916Y-96912500D01*
X60416264Y-96912500D01*
X60637056Y-96897835D01*
X60927910Y-96839188D01*
X61208453Y-96742590D01*
X61212196Y-96740716D01*
X61212200Y-96740714D01*
X61470012Y-96611611D01*
X61470014Y-96611610D01*
X61473756Y-96609736D01*
X61633274Y-96501328D01*
X61715699Y-96445312D01*
X61715702Y-96445310D01*
X61719158Y-96442961D01*
X61940346Y-96245196D01*
X62133436Y-96019914D01*
X62135711Y-96016411D01*
X62292763Y-95774572D01*
X62292765Y-95774569D01*
X62295035Y-95771073D01*
X62422304Y-95503046D01*
X62482696Y-95314947D01*
X62511726Y-95224530D01*
X62511727Y-95224524D01*
X62513006Y-95220542D01*
X62548091Y-95025548D01*
X62564809Y-94932632D01*
X62564810Y-94932627D01*
X62565548Y-94928523D01*
X62571265Y-94802640D01*
X62578819Y-94636290D01*
X62578819Y-94636285D01*
X62579008Y-94632120D01*
X62574152Y-94576617D01*
X62553513Y-94340707D01*
X62553512Y-94340699D01*
X62553148Y-94336541D01*
X62495543Y-94078833D01*
X62489336Y-94051063D01*
X62489336Y-94051061D01*
X62488423Y-94046979D01*
X62486266Y-94041115D01*
X62387418Y-93772452D01*
X62387416Y-93772448D01*
X62385971Y-93768520D01*
X62377454Y-93752365D01*
X62249543Y-93509762D01*
X62249542Y-93509761D01*
X62247590Y-93506058D01*
X62075712Y-93264203D01*
X61873358Y-93047204D01*
X61644082Y-92858875D01*
X61391912Y-92702523D01*
X61121278Y-92580895D01*
X60943855Y-92528003D01*
X60840935Y-92497321D01*
X60840933Y-92497321D01*
X60836936Y-92496129D01*
X60832816Y-92495476D01*
X60832814Y-92495476D01*
X60635595Y-92464240D01*
X60543881Y-92449714D01*
X60498854Y-92447669D01*
X60452503Y-92445564D01*
X60452484Y-92445564D01*
X60451084Y-92445500D01*
X60265736Y-92445500D01*
X60044944Y-92460165D01*
X59754090Y-92518812D01*
X59473547Y-92615410D01*
X59469804Y-92617284D01*
X59469800Y-92617286D01*
X59212052Y-92746357D01*
X59208244Y-92748264D01*
X59127697Y-92803004D01*
X58988047Y-92897910D01*
X58962842Y-92915039D01*
X58741654Y-93112804D01*
X58548564Y-93338086D01*
X58546290Y-93341588D01*
X58546289Y-93341589D01*
X58424996Y-93528365D01*
X58386965Y-93586927D01*
X58385177Y-93590693D01*
X58385174Y-93590698D01*
X58348938Y-93667011D01*
X58259696Y-93854954D01*
X58258417Y-93858937D01*
X58258416Y-93858940D01*
X58184606Y-94088833D01*
X58168994Y-94137458D01*
X58168253Y-94141577D01*
X58117525Y-94423515D01*
X58116452Y-94429477D01*
X58116263Y-94433644D01*
X58116262Y-94433651D01*
X58103181Y-94721710D01*
X58102992Y-94725880D01*
X37660000Y-94725880D01*
X37660000Y-91475189D01*
X67456464Y-91475189D01*
X67468985Y-91692326D01*
X67470418Y-91702528D01*
X67518231Y-91914692D01*
X67521314Y-91924532D01*
X67603140Y-92126045D01*
X67607783Y-92135236D01*
X67692461Y-92273419D01*
X67702917Y-92282879D01*
X67711695Y-92279095D01*
X68473978Y-91516812D01*
X68481592Y-91502868D01*
X68481461Y-91501035D01*
X68477210Y-91494420D01*
X67716059Y-90733269D01*
X67704523Y-90726969D01*
X67692240Y-90736592D01*
X67640098Y-90813029D01*
X67635010Y-90821985D01*
X67543441Y-91019255D01*
X67539878Y-91028942D01*
X67481759Y-91238511D01*
X67479828Y-91248631D01*
X67456716Y-91464900D01*
X67456464Y-91475189D01*
X37660000Y-91475189D01*
X37660000Y-79816169D01*
X67460501Y-79816169D01*
X67460871Y-79822990D01*
X67466395Y-79873852D01*
X67470021Y-79889104D01*
X67515176Y-80009554D01*
X67523714Y-80025149D01*
X67600215Y-80127224D01*
X67612776Y-80139785D01*
X67714851Y-80216286D01*
X67730446Y-80224824D01*
X67850894Y-80269978D01*
X67866149Y-80273605D01*
X67917014Y-80279131D01*
X67923828Y-80279500D01*
X68573885Y-80279500D01*
X68589124Y-80275025D01*
X68590329Y-80273635D01*
X68592000Y-80265952D01*
X68592000Y-79166115D01*
X68587525Y-79150876D01*
X68586135Y-79149671D01*
X68578452Y-79148000D01*
X67478616Y-79148000D01*
X67463377Y-79152475D01*
X67462172Y-79153865D01*
X67460501Y-79161548D01*
X67460501Y-79816169D01*
X37660000Y-79816169D01*
X37660000Y-78621885D01*
X67460500Y-78621885D01*
X67464975Y-78637124D01*
X67466365Y-78638329D01*
X67474048Y-78640000D01*
X68573885Y-78640000D01*
X68589124Y-78635525D01*
X68590329Y-78634135D01*
X68592000Y-78626452D01*
X68592000Y-77526616D01*
X68587525Y-77511377D01*
X68586135Y-77510172D01*
X68578452Y-77508501D01*
X67923831Y-77508501D01*
X67917010Y-77508871D01*
X67866148Y-77514395D01*
X67850896Y-77518021D01*
X67730446Y-77563176D01*
X67714851Y-77571714D01*
X67612776Y-77648215D01*
X67600215Y-77660776D01*
X67523714Y-77762851D01*
X67515176Y-77778446D01*
X67470022Y-77898894D01*
X67466395Y-77914149D01*
X67460869Y-77965014D01*
X67460500Y-77971828D01*
X67460500Y-78621885D01*
X37660000Y-78621885D01*
X37660000Y-75765880D01*
X58102992Y-75765880D01*
X58103355Y-75770028D01*
X58103355Y-75770032D01*
X58128487Y-76057293D01*
X58128488Y-76057301D01*
X58128852Y-76061459D01*
X58193577Y-76351021D01*
X58195019Y-76354941D01*
X58195021Y-76354947D01*
X58265619Y-76546827D01*
X58296029Y-76629480D01*
X58434410Y-76891942D01*
X58606288Y-77133797D01*
X58808642Y-77350796D01*
X58811867Y-77353445D01*
X59012226Y-77518021D01*
X59037918Y-77539125D01*
X59290088Y-77695477D01*
X59560722Y-77817105D01*
X59684484Y-77854000D01*
X59841065Y-77900679D01*
X59841067Y-77900679D01*
X59845064Y-77901871D01*
X59849184Y-77902524D01*
X59849186Y-77902524D01*
X59960013Y-77920077D01*
X60138119Y-77948286D01*
X60183146Y-77950331D01*
X60229497Y-77952436D01*
X60229516Y-77952436D01*
X60230916Y-77952500D01*
X60416264Y-77952500D01*
X60637056Y-77937835D01*
X60927910Y-77879188D01*
X61208453Y-77782590D01*
X61212196Y-77780716D01*
X61212200Y-77780714D01*
X61470012Y-77651611D01*
X61470014Y-77651610D01*
X61473756Y-77649736D01*
X61633274Y-77541328D01*
X61715699Y-77485312D01*
X61715702Y-77485310D01*
X61719158Y-77482961D01*
X61940346Y-77285196D01*
X62133436Y-77059914D01*
X62135711Y-77056411D01*
X62292763Y-76814572D01*
X62292765Y-76814569D01*
X62295035Y-76811073D01*
X62422304Y-76543046D01*
X62482696Y-76354947D01*
X62511726Y-76264530D01*
X62511727Y-76264524D01*
X62513006Y-76260542D01*
X62548091Y-76065548D01*
X62564809Y-75972632D01*
X62564810Y-75972627D01*
X62565548Y-75968523D01*
X62574751Y-75765880D01*
X62578819Y-75676290D01*
X62578819Y-75676285D01*
X62579008Y-75672120D01*
X62578645Y-75667968D01*
X62553513Y-75380707D01*
X62553512Y-75380699D01*
X62553148Y-75376541D01*
X62538300Y-75310114D01*
X62489336Y-75091063D01*
X62489336Y-75091061D01*
X62488423Y-75086979D01*
X62485893Y-75080100D01*
X62387418Y-74812452D01*
X62387416Y-74812448D01*
X62385971Y-74808520D01*
X62340547Y-74722365D01*
X62249543Y-74549762D01*
X62249542Y-74549761D01*
X62247590Y-74546058D01*
X62075712Y-74304203D01*
X61873358Y-74087204D01*
X61644082Y-73898875D01*
X61391912Y-73742523D01*
X61121278Y-73620895D01*
X60936751Y-73565885D01*
X60840935Y-73537321D01*
X60840933Y-73537321D01*
X60836936Y-73536129D01*
X60832816Y-73535476D01*
X60832814Y-73535476D01*
X60713894Y-73516641D01*
X60543881Y-73489714D01*
X60498854Y-73487669D01*
X60452503Y-73485564D01*
X60452484Y-73485564D01*
X60451084Y-73485500D01*
X60265736Y-73485500D01*
X60044944Y-73500165D01*
X59754090Y-73558812D01*
X59473547Y-73655410D01*
X59469804Y-73657284D01*
X59469800Y-73657286D01*
X59211988Y-73786389D01*
X59208244Y-73788264D01*
X59132249Y-73839910D01*
X58981683Y-73942235D01*
X58962842Y-73955039D01*
X58741654Y-74152804D01*
X58548564Y-74378086D01*
X58546290Y-74381588D01*
X58546289Y-74381589D01*
X58441698Y-74542646D01*
X58386965Y-74626927D01*
X58385177Y-74630693D01*
X58385174Y-74630698D01*
X58351144Y-74702365D01*
X58259696Y-74894954D01*
X58258417Y-74898937D01*
X58258416Y-74898940D01*
X58173326Y-75163966D01*
X58168994Y-75177458D01*
X58168253Y-75181577D01*
X58117597Y-75463115D01*
X58116452Y-75469477D01*
X58116263Y-75473644D01*
X58116262Y-75473651D01*
X58103181Y-75761710D01*
X58102992Y-75765880D01*
X37660000Y-75765880D01*
X37660000Y-72515189D01*
X67456464Y-72515189D01*
X67468985Y-72732326D01*
X67470418Y-72742528D01*
X67518231Y-72954692D01*
X67521314Y-72964532D01*
X67603140Y-73166045D01*
X67607783Y-73175236D01*
X67692461Y-73313419D01*
X67702917Y-73322879D01*
X67711695Y-73319095D01*
X68473978Y-72556812D01*
X68481592Y-72542868D01*
X68481461Y-72541035D01*
X68477210Y-72534420D01*
X67716059Y-71773269D01*
X67704523Y-71766969D01*
X67692240Y-71776592D01*
X67640098Y-71853029D01*
X67635010Y-71861985D01*
X67543441Y-72059255D01*
X67539878Y-72068942D01*
X67481759Y-72278511D01*
X67479828Y-72288631D01*
X67456716Y-72504900D01*
X67456464Y-72515189D01*
X37660000Y-72515189D01*
X37660000Y-60636169D01*
X67460501Y-60636169D01*
X67460871Y-60642990D01*
X67466395Y-60693852D01*
X67470021Y-60709104D01*
X67515176Y-60829554D01*
X67523714Y-60845149D01*
X67600215Y-60947224D01*
X67612776Y-60959785D01*
X67714851Y-61036286D01*
X67730446Y-61044824D01*
X67850894Y-61089978D01*
X67866149Y-61093605D01*
X67917014Y-61099131D01*
X67923828Y-61099500D01*
X68573885Y-61099500D01*
X68589124Y-61095025D01*
X68590329Y-61093635D01*
X68592000Y-61085952D01*
X68592000Y-59986115D01*
X68587525Y-59970876D01*
X68586135Y-59969671D01*
X68578452Y-59968000D01*
X67478616Y-59968000D01*
X67463377Y-59972475D01*
X67462172Y-59973865D01*
X67460501Y-59981548D01*
X67460501Y-60636169D01*
X37660000Y-60636169D01*
X37660000Y-59441885D01*
X67460500Y-59441885D01*
X67464975Y-59457124D01*
X67466365Y-59458329D01*
X67474048Y-59460000D01*
X68573885Y-59460000D01*
X68589124Y-59455525D01*
X68590329Y-59454135D01*
X68592000Y-59446452D01*
X68592000Y-58346616D01*
X68587525Y-58331377D01*
X68586135Y-58330172D01*
X68578452Y-58328501D01*
X67923831Y-58328501D01*
X67917010Y-58328871D01*
X67866148Y-58334395D01*
X67850896Y-58338021D01*
X67730446Y-58383176D01*
X67714851Y-58391714D01*
X67612776Y-58468215D01*
X67600215Y-58480776D01*
X67523714Y-58582851D01*
X67515176Y-58598446D01*
X67470022Y-58718894D01*
X67466395Y-58734149D01*
X67460869Y-58785014D01*
X67460500Y-58791828D01*
X67460500Y-59441885D01*
X37660000Y-59441885D01*
X37660000Y-56585880D01*
X58102992Y-56585880D01*
X58103355Y-56590028D01*
X58103355Y-56590032D01*
X58128487Y-56877293D01*
X58128488Y-56877301D01*
X58128852Y-56881459D01*
X58193577Y-57171021D01*
X58195019Y-57174941D01*
X58195021Y-57174947D01*
X58265619Y-57366827D01*
X58296029Y-57449480D01*
X58434410Y-57711942D01*
X58606288Y-57953797D01*
X58808642Y-58170796D01*
X58811867Y-58173445D01*
X59012226Y-58338021D01*
X59037918Y-58359125D01*
X59290088Y-58515477D01*
X59560722Y-58637105D01*
X59684484Y-58674000D01*
X59841065Y-58720679D01*
X59841067Y-58720679D01*
X59845064Y-58721871D01*
X59849184Y-58722524D01*
X59849186Y-58722524D01*
X59960013Y-58740077D01*
X60138119Y-58768286D01*
X60183146Y-58770331D01*
X60229497Y-58772436D01*
X60229516Y-58772436D01*
X60230916Y-58772500D01*
X60416264Y-58772500D01*
X60637056Y-58757835D01*
X60927910Y-58699188D01*
X61208453Y-58602590D01*
X61212196Y-58600716D01*
X61212200Y-58600714D01*
X61470012Y-58471611D01*
X61470014Y-58471610D01*
X61473756Y-58469736D01*
X61633274Y-58361328D01*
X61715699Y-58305312D01*
X61715702Y-58305310D01*
X61719158Y-58302961D01*
X61940346Y-58105196D01*
X62133436Y-57879914D01*
X62135711Y-57876411D01*
X62292763Y-57634572D01*
X62292765Y-57634569D01*
X62295035Y-57631073D01*
X62422304Y-57363046D01*
X62482696Y-57174947D01*
X62511726Y-57084530D01*
X62511727Y-57084524D01*
X62513006Y-57080542D01*
X62548091Y-56885548D01*
X62564809Y-56792632D01*
X62564810Y-56792627D01*
X62565548Y-56788523D01*
X62574751Y-56585880D01*
X62578819Y-56496290D01*
X62578819Y-56496285D01*
X62579008Y-56492120D01*
X62575246Y-56449115D01*
X62553513Y-56200707D01*
X62553512Y-56200699D01*
X62553148Y-56196541D01*
X62507756Y-55993470D01*
X62489336Y-55911063D01*
X62489336Y-55911061D01*
X62488423Y-55906979D01*
X62482164Y-55889966D01*
X62387418Y-55632452D01*
X62387416Y-55632448D01*
X62385971Y-55628520D01*
X62247590Y-55366058D01*
X62075712Y-55124203D01*
X61873358Y-54907204D01*
X61715849Y-54777825D01*
X61647307Y-54721524D01*
X61644082Y-54718875D01*
X61391912Y-54562523D01*
X61121278Y-54440895D01*
X60943855Y-54388003D01*
X60840935Y-54357321D01*
X60840933Y-54357321D01*
X60836936Y-54356129D01*
X60832816Y-54355476D01*
X60832814Y-54355476D01*
X60713894Y-54336641D01*
X60543881Y-54309714D01*
X60498854Y-54307669D01*
X60452503Y-54305564D01*
X60452484Y-54305564D01*
X60451084Y-54305500D01*
X60265736Y-54305500D01*
X60044944Y-54320165D01*
X59754090Y-54378812D01*
X59473547Y-54475410D01*
X59469804Y-54477284D01*
X59469800Y-54477286D01*
X59211988Y-54606389D01*
X59208244Y-54608264D01*
X59124002Y-54665515D01*
X58976193Y-54765966D01*
X58962842Y-54775039D01*
X58741654Y-54972804D01*
X58548564Y-55198086D01*
X58546290Y-55201588D01*
X58546289Y-55201589D01*
X58441698Y-55362646D01*
X58386965Y-55446927D01*
X58259696Y-55714954D01*
X58258417Y-55718937D01*
X58258416Y-55718940D01*
X58198044Y-55906979D01*
X58168994Y-55997458D01*
X58154464Y-56078214D01*
X58133174Y-56196541D01*
X58116452Y-56289477D01*
X58116263Y-56293644D01*
X58116262Y-56293651D01*
X58107060Y-56496290D01*
X58102992Y-56585880D01*
X37660000Y-56585880D01*
X37660000Y-53335189D01*
X67456464Y-53335189D01*
X67468985Y-53552326D01*
X67470418Y-53562528D01*
X67518231Y-53774692D01*
X67521314Y-53784532D01*
X67603140Y-53986045D01*
X67607783Y-53995236D01*
X67692461Y-54133419D01*
X67702917Y-54142879D01*
X67711695Y-54139095D01*
X68473978Y-53376812D01*
X68481592Y-53362868D01*
X68481461Y-53361035D01*
X68477210Y-53354420D01*
X67716059Y-52593269D01*
X67704523Y-52586969D01*
X67692240Y-52596592D01*
X67640098Y-52673029D01*
X67635010Y-52681985D01*
X67543441Y-52879255D01*
X67539878Y-52888942D01*
X67481759Y-53098511D01*
X67479828Y-53108631D01*
X67456716Y-53324900D01*
X67456464Y-53335189D01*
X37660000Y-53335189D01*
X37660000Y-42968669D01*
X106078001Y-42968669D01*
X106078371Y-42975490D01*
X106083895Y-43026352D01*
X106087521Y-43041604D01*
X106132676Y-43162054D01*
X106141214Y-43177649D01*
X106217715Y-43279724D01*
X106230276Y-43292285D01*
X106332351Y-43368786D01*
X106347946Y-43377324D01*
X106468394Y-43422478D01*
X106483649Y-43426105D01*
X106534514Y-43431631D01*
X106541328Y-43432000D01*
X107163885Y-43432000D01*
X107179124Y-43427525D01*
X107180329Y-43426135D01*
X107182000Y-43418452D01*
X107182000Y-42346115D01*
X107177525Y-42330876D01*
X107176135Y-42329671D01*
X107168452Y-42328000D01*
X106096116Y-42328000D01*
X106080877Y-42332475D01*
X106079672Y-42333865D01*
X106078001Y-42341548D01*
X106078001Y-42968669D01*
X37660000Y-42968669D01*
X37660000Y-41801885D01*
X106078000Y-41801885D01*
X106082475Y-41817124D01*
X106083865Y-41818329D01*
X106091548Y-41820000D01*
X107163885Y-41820000D01*
X107179124Y-41815525D01*
X107180329Y-41814135D01*
X107182000Y-41806452D01*
X107182000Y-40734116D01*
X107177525Y-40718877D01*
X107176135Y-40717672D01*
X107168452Y-40716001D01*
X106541331Y-40716001D01*
X106534510Y-40716371D01*
X106483648Y-40721895D01*
X106468396Y-40725521D01*
X106347946Y-40770676D01*
X106332351Y-40779214D01*
X106230276Y-40855715D01*
X106217715Y-40868276D01*
X106141214Y-40970351D01*
X106132676Y-40985946D01*
X106087522Y-41106394D01*
X106083895Y-41121649D01*
X106078369Y-41172514D01*
X106078000Y-41179328D01*
X106078000Y-41801885D01*
X37660000Y-41801885D01*
X37660000Y-40544000D01*
X37680002Y-40475879D01*
X37733658Y-40429386D01*
X37786000Y-40418000D01*
X108146000Y-40418000D01*
X108214121Y-40438002D01*
G37*
%TD.AperFunction*%
%TD*%
M02*
