%TF.GenerationSoftware,KiCad,Pcbnew,(6.0.0)*%
%TF.CreationDate,2022-01-24T17:49:48-05:00*%
%TF.ProjectId,crusader 2 backplane,63727573-6164-4657-9220-32206261636b,rev?*%
%TF.SameCoordinates,Original*%
%TF.FileFunction,Legend,Bot*%
%TF.FilePolarity,Positive*%
%FSLAX46Y46*%
G04 Gerber Fmt 4.6, Leading zero omitted, Abs format (unit mm)*
G04 Created by KiCad (PCBNEW (6.0.0)) date 2022-01-24 17:49:48*
%MOMM*%
%LPD*%
G01*
G04 APERTURE LIST*
%ADD10C,0.150000*%
%ADD11C,0.120000*%
G04 APERTURE END LIST*
D10*
%TO.C,C2*%
X121924666Y-54911142D02*
X121972285Y-54958761D01*
X122115142Y-55006380D01*
X122210380Y-55006380D01*
X122353238Y-54958761D01*
X122448476Y-54863523D01*
X122496095Y-54768285D01*
X122543714Y-54577809D01*
X122543714Y-54434952D01*
X122496095Y-54244476D01*
X122448476Y-54149238D01*
X122353238Y-54054000D01*
X122210380Y-54006380D01*
X122115142Y-54006380D01*
X121972285Y-54054000D01*
X121924666Y-54101619D01*
X121543714Y-54101619D02*
X121496095Y-54054000D01*
X121400857Y-54006380D01*
X121162761Y-54006380D01*
X121067523Y-54054000D01*
X121019904Y-54101619D01*
X120972285Y-54196857D01*
X120972285Y-54292095D01*
X121019904Y-54434952D01*
X121591333Y-55006380D01*
X120972285Y-55006380D01*
D11*
X100738000Y-53554000D02*
X101788000Y-52504000D01*
X98638000Y-53554000D02*
X98638000Y-33314000D01*
X98638000Y-53554000D02*
X100738000Y-53554000D01*
X96188000Y-46434000D02*
X98288000Y-46434000D01*
X101788000Y-34364000D02*
X102838000Y-33314000D01*
X144878000Y-53554000D02*
X144878000Y-33314000D01*
X101788000Y-52504000D02*
X102838000Y-53554000D01*
X98638000Y-33314000D02*
X100738000Y-33314000D01*
X97238000Y-47484000D02*
X97238000Y-45384000D01*
X102838000Y-53554000D02*
X144878000Y-53554000D01*
X146118000Y-43434000D02*
X144878000Y-43434000D01*
X100738000Y-33314000D02*
X101788000Y-34364000D01*
X97398000Y-43434000D02*
X98638000Y-43434000D01*
X102838000Y-33314000D02*
X144878000Y-33314000D01*
%TD*%
M02*
