%TF.GenerationSoftware,KiCad,Pcbnew,(6.0.0)*%
%TF.CreationDate,2022-01-24T17:49:48-05:00*%
%TF.ProjectId,crusader 2 backplane,63727573-6164-4657-9220-32206261636b,rev?*%
%TF.SameCoordinates,Original*%
%TF.FileFunction,Soldermask,Top*%
%TF.FilePolarity,Negative*%
%FSLAX46Y46*%
G04 Gerber Fmt 4.6, Leading zero omitted, Abs format (unit mm)*
G04 Created by KiCad (PCBNEW (6.0.0)) date 2022-01-24 17:49:48*
%MOMM*%
%LPD*%
G01*
G04 APERTURE LIST*
%ADD10C,3.200000*%
%ADD11R,1.700000X1.700000*%
%ADD12C,3.450000*%
%ADD13R,1.755000X1.755000*%
%ADD14C,1.755000*%
%ADD15R,2.800000X2.800000*%
%ADD16O,2.800000X2.800000*%
G04 APERTURE END LIST*
D10*
%TO.C,REF\u002A\u002A*%
X261366000Y-42418000D03*
%TD*%
D11*
%TO.C,J7*%
X76231000Y-47664000D03*
%TD*%
%TO.C,J11*%
X107436000Y-42074000D03*
%TD*%
D12*
%TO.C,J1*%
X232931000Y-113909000D03*
X60341000Y-113909000D03*
D13*
X68846000Y-117084000D03*
D14*
X68846000Y-110734000D03*
X72026000Y-117084000D03*
X72026000Y-110734000D03*
X75206000Y-117084000D03*
X75206000Y-110734000D03*
X78386000Y-117084000D03*
X78386000Y-110734000D03*
X81566000Y-117084000D03*
X81566000Y-110734000D03*
X84746000Y-117084000D03*
X84746000Y-110734000D03*
X87926000Y-117084000D03*
X87926000Y-110734000D03*
X91106000Y-117084000D03*
X91106000Y-110734000D03*
X94286000Y-117084000D03*
X94286000Y-110734000D03*
X97466000Y-117084000D03*
X97466000Y-110734000D03*
X100646000Y-117084000D03*
X100646000Y-110734000D03*
X103826000Y-117084000D03*
X103826000Y-110734000D03*
X107006000Y-117084000D03*
X107006000Y-110734000D03*
X110186000Y-117084000D03*
X110186000Y-110734000D03*
X113366000Y-117084000D03*
X113366000Y-110734000D03*
X116546000Y-117084000D03*
X116546000Y-110734000D03*
X119726000Y-117084000D03*
X119726000Y-110734000D03*
X122906000Y-117084000D03*
X122906000Y-110734000D03*
X126086000Y-117084000D03*
X126086000Y-110734000D03*
X129266000Y-117084000D03*
X129266000Y-110734000D03*
X132446000Y-117084000D03*
X132446000Y-110734000D03*
X135626000Y-117084000D03*
X135626000Y-110734000D03*
X138806000Y-117084000D03*
X138806000Y-110734000D03*
X141986000Y-117084000D03*
X141986000Y-110734000D03*
X145166000Y-117084000D03*
X145166000Y-110734000D03*
X148346000Y-117084000D03*
X148346000Y-110734000D03*
X151526000Y-117084000D03*
X151526000Y-110734000D03*
X154706000Y-117084000D03*
X154706000Y-110734000D03*
X157886000Y-117084000D03*
X157886000Y-110734000D03*
X161066000Y-117084000D03*
X161066000Y-110734000D03*
X164246000Y-117084000D03*
X164246000Y-110734000D03*
X167426000Y-117084000D03*
X167426000Y-110734000D03*
X170606000Y-117084000D03*
X170606000Y-110734000D03*
X173786000Y-117084000D03*
X173786000Y-110734000D03*
X176966000Y-117084000D03*
X176966000Y-110734000D03*
X180146000Y-117084000D03*
X180146000Y-110734000D03*
X183326000Y-117084000D03*
X183326000Y-110734000D03*
X186506000Y-117084000D03*
X186506000Y-110734000D03*
X189686000Y-117084000D03*
X189686000Y-110734000D03*
X192866000Y-117084000D03*
X192866000Y-110734000D03*
X196046000Y-117084000D03*
X196046000Y-110734000D03*
X199226000Y-117084000D03*
X199226000Y-110734000D03*
X202406000Y-117084000D03*
X202406000Y-110734000D03*
X205586000Y-117084000D03*
X205586000Y-110734000D03*
X208766000Y-117084000D03*
X208766000Y-110734000D03*
X211946000Y-117084000D03*
X211946000Y-110734000D03*
X215126000Y-117084000D03*
X215126000Y-110734000D03*
X218306000Y-117084000D03*
X218306000Y-110734000D03*
X221486000Y-117084000D03*
X221486000Y-110734000D03*
X224666000Y-117084000D03*
X224666000Y-110734000D03*
%TD*%
D11*
%TO.C,J9*%
X82581000Y-47664000D03*
%TD*%
D12*
%TO.C,J5*%
X60341000Y-132799000D03*
X232931000Y-132799000D03*
D13*
X68846000Y-135974000D03*
D14*
X68846000Y-129624000D03*
X72026000Y-135974000D03*
X72026000Y-129624000D03*
X75206000Y-135974000D03*
X75206000Y-129624000D03*
X78386000Y-135974000D03*
X78386000Y-129624000D03*
X81566000Y-135974000D03*
X81566000Y-129624000D03*
X84746000Y-135974000D03*
X84746000Y-129624000D03*
X87926000Y-135974000D03*
X87926000Y-129624000D03*
X91106000Y-135974000D03*
X91106000Y-129624000D03*
X94286000Y-135974000D03*
X94286000Y-129624000D03*
X97466000Y-135974000D03*
X97466000Y-129624000D03*
X100646000Y-135974000D03*
X100646000Y-129624000D03*
X103826000Y-135974000D03*
X103826000Y-129624000D03*
X107006000Y-135974000D03*
X107006000Y-129624000D03*
X110186000Y-135974000D03*
X110186000Y-129624000D03*
X113366000Y-135974000D03*
X113366000Y-129624000D03*
X116546000Y-135974000D03*
X116546000Y-129624000D03*
X119726000Y-135974000D03*
X119726000Y-129624000D03*
X122906000Y-135974000D03*
X122906000Y-129624000D03*
X126086000Y-135974000D03*
X126086000Y-129624000D03*
X129266000Y-135974000D03*
X129266000Y-129624000D03*
X132446000Y-135974000D03*
X132446000Y-129624000D03*
X135626000Y-135974000D03*
X135626000Y-129624000D03*
X138806000Y-135974000D03*
X138806000Y-129624000D03*
X141986000Y-135974000D03*
X141986000Y-129624000D03*
X145166000Y-135974000D03*
X145166000Y-129624000D03*
X148346000Y-135974000D03*
X148346000Y-129624000D03*
X151526000Y-135974000D03*
X151526000Y-129624000D03*
X154706000Y-135974000D03*
X154706000Y-129624000D03*
X157886000Y-135974000D03*
X157886000Y-129624000D03*
X161066000Y-135974000D03*
X161066000Y-129624000D03*
X164246000Y-135974000D03*
X164246000Y-129624000D03*
X167426000Y-135974000D03*
X167426000Y-129624000D03*
X170606000Y-135974000D03*
X170606000Y-129624000D03*
X173786000Y-135974000D03*
X173786000Y-129624000D03*
X176966000Y-135974000D03*
X176966000Y-129624000D03*
X180146000Y-135974000D03*
X180146000Y-129624000D03*
X183326000Y-135974000D03*
X183326000Y-129624000D03*
X186506000Y-135974000D03*
X186506000Y-129624000D03*
X189686000Y-135974000D03*
X189686000Y-129624000D03*
X192866000Y-135974000D03*
X192866000Y-129624000D03*
X196046000Y-135974000D03*
X196046000Y-129624000D03*
X199226000Y-135974000D03*
X199226000Y-129624000D03*
X202406000Y-135974000D03*
X202406000Y-129624000D03*
X205586000Y-135974000D03*
X205586000Y-129624000D03*
X208766000Y-135974000D03*
X208766000Y-129624000D03*
X211946000Y-135974000D03*
X211946000Y-129624000D03*
X215126000Y-135974000D03*
X215126000Y-129624000D03*
X218306000Y-135974000D03*
X218306000Y-129624000D03*
X221486000Y-135974000D03*
X221486000Y-129624000D03*
X224666000Y-135974000D03*
X224666000Y-129624000D03*
%TD*%
D11*
%TO.C,J16*%
X123311000Y-42074000D03*
%TD*%
D10*
%TO.C,REF\u002A\u002A*%
X261366000Y-140970000D03*
%TD*%
D11*
%TO.C,J18*%
X129661000Y-42074000D03*
%TD*%
%TO.C,J17*%
X126486000Y-42074000D03*
%TD*%
D12*
%TO.C,J4*%
X60341000Y-56539000D03*
X232931000Y-56539000D03*
D13*
X68846000Y-59714000D03*
D14*
X68846000Y-53364000D03*
X72026000Y-59714000D03*
X72026000Y-53364000D03*
X75206000Y-59714000D03*
X75206000Y-53364000D03*
X78386000Y-59714000D03*
X78386000Y-53364000D03*
X81566000Y-59714000D03*
X81566000Y-53364000D03*
X84746000Y-59714000D03*
X84746000Y-53364000D03*
X87926000Y-59714000D03*
X87926000Y-53364000D03*
X91106000Y-59714000D03*
X91106000Y-53364000D03*
X94286000Y-59714000D03*
X94286000Y-53364000D03*
X97466000Y-59714000D03*
X97466000Y-53364000D03*
X100646000Y-59714000D03*
X100646000Y-53364000D03*
X103826000Y-59714000D03*
X103826000Y-53364000D03*
X107006000Y-59714000D03*
X107006000Y-53364000D03*
X110186000Y-59714000D03*
X110186000Y-53364000D03*
X113366000Y-59714000D03*
X113366000Y-53364000D03*
X116546000Y-59714000D03*
X116546000Y-53364000D03*
X119726000Y-59714000D03*
X119726000Y-53364000D03*
X122906000Y-59714000D03*
X122906000Y-53364000D03*
X126086000Y-59714000D03*
X126086000Y-53364000D03*
X129266000Y-59714000D03*
X129266000Y-53364000D03*
X132446000Y-59714000D03*
X132446000Y-53364000D03*
X135626000Y-59714000D03*
X135626000Y-53364000D03*
X138806000Y-59714000D03*
X138806000Y-53364000D03*
X141986000Y-59714000D03*
X141986000Y-53364000D03*
X145166000Y-59714000D03*
X145166000Y-53364000D03*
X148346000Y-59714000D03*
X148346000Y-53364000D03*
X151526000Y-59714000D03*
X151526000Y-53364000D03*
X154706000Y-59714000D03*
X154706000Y-53364000D03*
X157886000Y-59714000D03*
X157886000Y-53364000D03*
X161066000Y-59714000D03*
X161066000Y-53364000D03*
X164246000Y-59714000D03*
X164246000Y-53364000D03*
X167426000Y-59714000D03*
X167426000Y-53364000D03*
X170606000Y-59714000D03*
X170606000Y-53364000D03*
X173786000Y-59714000D03*
X173786000Y-53364000D03*
X176966000Y-59714000D03*
X176966000Y-53364000D03*
X180146000Y-59714000D03*
X180146000Y-53364000D03*
X183326000Y-59714000D03*
X183326000Y-53364000D03*
X186506000Y-59714000D03*
X186506000Y-53364000D03*
X189686000Y-59714000D03*
X189686000Y-53364000D03*
X192866000Y-59714000D03*
X192866000Y-53364000D03*
X196046000Y-59714000D03*
X196046000Y-53364000D03*
X199226000Y-59714000D03*
X199226000Y-53364000D03*
X202406000Y-59714000D03*
X202406000Y-53364000D03*
X205586000Y-59714000D03*
X205586000Y-53364000D03*
X208766000Y-59714000D03*
X208766000Y-53364000D03*
X211946000Y-59714000D03*
X211946000Y-53364000D03*
X215126000Y-59714000D03*
X215126000Y-53364000D03*
X218306000Y-59714000D03*
X218306000Y-53364000D03*
X221486000Y-59714000D03*
X221486000Y-53364000D03*
X224666000Y-59714000D03*
X224666000Y-53364000D03*
%TD*%
D11*
%TO.C,J13*%
X113786000Y-42074000D03*
%TD*%
%TO.C,J10*%
X85756000Y-47664000D03*
%TD*%
D10*
%TO.C,REF\u002A\u002A*%
X39624000Y-42418000D03*
%TD*%
D11*
%TO.C,J6*%
X73056000Y-47664000D03*
%TD*%
D12*
%TO.C,J3*%
X232931000Y-75719000D03*
X60341000Y-75719000D03*
D13*
X68846000Y-78894000D03*
D14*
X68846000Y-72544000D03*
X72026000Y-78894000D03*
X72026000Y-72544000D03*
X75206000Y-78894000D03*
X75206000Y-72544000D03*
X78386000Y-78894000D03*
X78386000Y-72544000D03*
X81566000Y-78894000D03*
X81566000Y-72544000D03*
X84746000Y-78894000D03*
X84746000Y-72544000D03*
X87926000Y-78894000D03*
X87926000Y-72544000D03*
X91106000Y-78894000D03*
X91106000Y-72544000D03*
X94286000Y-78894000D03*
X94286000Y-72544000D03*
X97466000Y-78894000D03*
X97466000Y-72544000D03*
X100646000Y-78894000D03*
X100646000Y-72544000D03*
X103826000Y-78894000D03*
X103826000Y-72544000D03*
X107006000Y-78894000D03*
X107006000Y-72544000D03*
X110186000Y-78894000D03*
X110186000Y-72544000D03*
X113366000Y-78894000D03*
X113366000Y-72544000D03*
X116546000Y-78894000D03*
X116546000Y-72544000D03*
X119726000Y-78894000D03*
X119726000Y-72544000D03*
X122906000Y-78894000D03*
X122906000Y-72544000D03*
X126086000Y-78894000D03*
X126086000Y-72544000D03*
X129266000Y-78894000D03*
X129266000Y-72544000D03*
X132446000Y-78894000D03*
X132446000Y-72544000D03*
X135626000Y-78894000D03*
X135626000Y-72544000D03*
X138806000Y-78894000D03*
X138806000Y-72544000D03*
X141986000Y-78894000D03*
X141986000Y-72544000D03*
X145166000Y-78894000D03*
X145166000Y-72544000D03*
X148346000Y-78894000D03*
X148346000Y-72544000D03*
X151526000Y-78894000D03*
X151526000Y-72544000D03*
X154706000Y-78894000D03*
X154706000Y-72544000D03*
X157886000Y-78894000D03*
X157886000Y-72544000D03*
X161066000Y-78894000D03*
X161066000Y-72544000D03*
X164246000Y-78894000D03*
X164246000Y-72544000D03*
X167426000Y-78894000D03*
X167426000Y-72544000D03*
X170606000Y-78894000D03*
X170606000Y-72544000D03*
X173786000Y-78894000D03*
X173786000Y-72544000D03*
X176966000Y-78894000D03*
X176966000Y-72544000D03*
X180146000Y-78894000D03*
X180146000Y-72544000D03*
X183326000Y-78894000D03*
X183326000Y-72544000D03*
X186506000Y-78894000D03*
X186506000Y-72544000D03*
X189686000Y-78894000D03*
X189686000Y-72544000D03*
X192866000Y-78894000D03*
X192866000Y-72544000D03*
X196046000Y-78894000D03*
X196046000Y-72544000D03*
X199226000Y-78894000D03*
X199226000Y-72544000D03*
X202406000Y-78894000D03*
X202406000Y-72544000D03*
X205586000Y-78894000D03*
X205586000Y-72544000D03*
X208766000Y-78894000D03*
X208766000Y-72544000D03*
X211946000Y-78894000D03*
X211946000Y-72544000D03*
X215126000Y-78894000D03*
X215126000Y-72544000D03*
X218306000Y-78894000D03*
X218306000Y-72544000D03*
X221486000Y-78894000D03*
X221486000Y-72544000D03*
X224666000Y-78894000D03*
X224666000Y-72544000D03*
%TD*%
D11*
%TO.C,J15*%
X120136000Y-42074000D03*
%TD*%
D12*
%TO.C,J2*%
X60341000Y-94679000D03*
X232931000Y-94679000D03*
D13*
X68846000Y-97854000D03*
D14*
X68846000Y-91504000D03*
X72026000Y-97854000D03*
X72026000Y-91504000D03*
X75206000Y-97854000D03*
X75206000Y-91504000D03*
X78386000Y-97854000D03*
X78386000Y-91504000D03*
X81566000Y-97854000D03*
X81566000Y-91504000D03*
X84746000Y-97854000D03*
X84746000Y-91504000D03*
X87926000Y-97854000D03*
X87926000Y-91504000D03*
X91106000Y-97854000D03*
X91106000Y-91504000D03*
X94286000Y-97854000D03*
X94286000Y-91504000D03*
X97466000Y-97854000D03*
X97466000Y-91504000D03*
X100646000Y-97854000D03*
X100646000Y-91504000D03*
X103826000Y-97854000D03*
X103826000Y-91504000D03*
X107006000Y-97854000D03*
X107006000Y-91504000D03*
X110186000Y-97854000D03*
X110186000Y-91504000D03*
X113366000Y-97854000D03*
X113366000Y-91504000D03*
X116546000Y-97854000D03*
X116546000Y-91504000D03*
X119726000Y-97854000D03*
X119726000Y-91504000D03*
X122906000Y-97854000D03*
X122906000Y-91504000D03*
X126086000Y-97854000D03*
X126086000Y-91504000D03*
X129266000Y-97854000D03*
X129266000Y-91504000D03*
X132446000Y-97854000D03*
X132446000Y-91504000D03*
X135626000Y-97854000D03*
X135626000Y-91504000D03*
X138806000Y-97854000D03*
X138806000Y-91504000D03*
X141986000Y-97854000D03*
X141986000Y-91504000D03*
X145166000Y-97854000D03*
X145166000Y-91504000D03*
X148346000Y-97854000D03*
X148346000Y-91504000D03*
X151526000Y-97854000D03*
X151526000Y-91504000D03*
X154706000Y-97854000D03*
X154706000Y-91504000D03*
X157886000Y-97854000D03*
X157886000Y-91504000D03*
X161066000Y-97854000D03*
X161066000Y-91504000D03*
X164246000Y-97854000D03*
X164246000Y-91504000D03*
X167426000Y-97854000D03*
X167426000Y-91504000D03*
X170606000Y-97854000D03*
X170606000Y-91504000D03*
X173786000Y-97854000D03*
X173786000Y-91504000D03*
X176966000Y-97854000D03*
X176966000Y-91504000D03*
X180146000Y-97854000D03*
X180146000Y-91504000D03*
X183326000Y-97854000D03*
X183326000Y-91504000D03*
X186506000Y-97854000D03*
X186506000Y-91504000D03*
X189686000Y-97854000D03*
X189686000Y-91504000D03*
X192866000Y-97854000D03*
X192866000Y-91504000D03*
X196046000Y-97854000D03*
X196046000Y-91504000D03*
X199226000Y-97854000D03*
X199226000Y-91504000D03*
X202406000Y-97854000D03*
X202406000Y-91504000D03*
X205586000Y-97854000D03*
X205586000Y-91504000D03*
X208766000Y-97854000D03*
X208766000Y-91504000D03*
X211946000Y-97854000D03*
X211946000Y-91504000D03*
X215126000Y-97854000D03*
X215126000Y-91504000D03*
X218306000Y-97854000D03*
X218306000Y-91504000D03*
X221486000Y-97854000D03*
X221486000Y-91504000D03*
X224666000Y-97854000D03*
X224666000Y-91504000D03*
%TD*%
D10*
%TO.C,REF\u002A\u002A*%
X39624000Y-140970000D03*
%TD*%
D11*
%TO.C,J12*%
X110611000Y-42074000D03*
%TD*%
D15*
%TO.C,C1*%
X91602000Y-43434000D03*
D16*
X143602000Y-43434000D03*
%TD*%
D11*
%TO.C,J19*%
X132836000Y-42074000D03*
%TD*%
%TO.C,J14*%
X116961000Y-42074000D03*
%TD*%
%TO.C,J8*%
X79406000Y-47664000D03*
%TD*%
%TO.C,J20*%
X136011000Y-42074000D03*
%TD*%
D15*
%TO.C,C2*%
X95758000Y-43434000D03*
D16*
X147758000Y-43434000D03*
%TD*%
M02*
